<?xml version="1.0" encoding="utf-8"?>
<!-- Generator: Adobe Illustrator 18.1.1, SVG Export Plug-In . SVG Version: 6.00 Build 0)  -->
<svg version="1.1" id="Layer_1" xmlns="http://www.w3.org/2000/svg" xmlns:xlink="http://www.w3.org/1999/xlink" x="0px" y="0px"
	 width="120px" height="120px" viewBox="-44 -44 120 120" enable-background="new -44 -44 120 120" xml:space="preserve">
<path fill="#EFAB41" d="M76,16c0-33.2-26.8-60-60-60s-60,26.8-60,60c0,17.4,7.5,33.2,19.3,44.2l0,0l2,1.6c0,0,0.4,0,0.4,0.4
	c1.2,0.8,2,1.6,3.2,2.4c0.4,0.4,0.8,0.4,1.2,0.8c1.2,0.8,2.4,1.6,3.6,2.4c0.4,0,0.4,0.4,0.8,0.4c1.2,0.8,2.8,1.6,3.9,2h0.4
	c4.7,2,9.5,3.6,14.6,4.7h0.4c1.6,0.4,3.2,0.4,4.7,0.8h0.4c1.6,0,3.2,0.4,4.7,0.4c1.6,0,3.2,0,4.7-0.4c0.4,0,0.4,0,0.8,0
	c1.6,0,3.2-0.4,4.7-0.8h0.4c5.1-0.8,9.9-2.4,14.2-4.3c0,0,0.4,0,0.4-0.4c1.2-0.8,2.8-1.2,3.9-2c0.4,0,0.8-0.4,0.8-0.4
	c1.2-0.8,2.4-1.6,3.6-2.4c0.4-0.4,0.8-0.4,1.2-0.8c0.8-0.8,2-1.6,2.8-2c0.4,0,0.4-0.4,0.8-0.4l2-1.6l0,0C68.5,49.6,76,33.4,76,16z
	 M-39.7,16c0-30.8,24.9-55.7,55.7-55.7S71.7-14.8,71.7,16c0,16.6-7.1,31.2-18.6,41.4c-0.8-0.4-1.2-0.8-2-1.2l-18.6-9.1
	c-1.6-0.8-2.8-2.4-2.8-4.3v-6.3c0.4-0.4,0.8-1.2,1.2-2c2.4-3.6,4.3-7.1,5.5-11.1c2.8-1.2,4.7-3.9,4.7-7.1V8.5c0-2-0.8-3.6-2-5.1
	V-6.9c0-1.2,0.4-7.5-3.9-12.6c-3.9-4.7-10.7-7.1-19.3-7.1S0.6-24.3-3.3-19.5C-8.1-14.4-7.7-7.7-7.3-6.9V3.4c-1.2,1.6-2,3.2-2,5.1
	v7.9c0,2.4,1.2,4.7,2.8,6.3c1.6,7.1,5.5,12.2,6.7,13.8v6.3c0,2-0.8,3.6-2.4,4.3l-17.4,9.1c-0.4,0.4-1.2,0.8-1.6,1.2
	C-32.6,47.2-39.7,32.6-39.7,16z M48.8,61c-0.8,0.4-1.6,1.2-2.4,1.6C46,63,45.6,63,45.2,63.4c-1.2,0.8-2,1.2-3.2,2
	c-0.4,0-0.4,0.4-0.8,0.4c-2.4,1.2-5.1,2.4-7.5,3.2c0,0,0,0-0.4,0c-1.2,0.4-2.8,0.8-4.3,1.2l0,0c-1.6,0.4-2.8,0.8-4.3,0.8l0,0
	c-1.2,0.4-2.8,0.4-3.9,0.4c-0.4,0-0.4,0-0.8,0c-1.2,0-2.8,0-3.9,0c-1.6,0-2.8,0-3.9,0c-0.4,0-0.4,0-0.8,0c-1.6,0-2.8-0.4-3.9-0.4
	l0,0c-2.8-0.4-5.5-1.2-8.3-2c0,0,0,0-0.4,0c-1.2-0.4-2.8-0.8-3.9-1.6l0,0c-1.2-0.4-2.4-1.2-3.6-2c0,0-0.4,0-0.4-0.4
	c-1.2-0.8-2.4-1.2-3.2-2c-0.4-0.4-0.8-0.4-0.8-0.8c-1.2-0.8-2-1.2-2.8-2c0,0,0,0-0.4-0.4c0,0,0,0,0.4,0l17.4-9.5
	c3.2-1.6,4.7-4.7,4.7-8.3v-7.9l-2,0c0,0-4.7-5.9-6.7-13.4v-0.8l-0.8-0.4c-1.2-0.8-1.6-2-1.6-3.2V8.5c0-1.2,0.4-2,1.2-2.8l0.8-0.8
	V-7.3v-0.4c0,0-0.8-5.1,3.2-9.5c3.2-3.6,8.7-5.5,16.2-5.5s13,2,16.2,5.5c3.6,4.3,3.2,9.5,3.2,9.5V4.6l0.8,0.8
	c0.8,0.8,1.2,1.6,1.2,2.8V16c0,1.6-1.2,3.2-2.8,3.6l-1.6,0.4L33,21.1c-1.2,3.9-3.2,7.5-5.5,11.1c-0.4,0.8-1.2,1.6-1.6,2l-0.4,0.8
	v7.9c0,3.6,2,6.7,5.1,8.3l18.6,9.1h0.4C49.2,60.6,48.8,61,48.8,61z"/>
</svg>
