<?xml version="1.0" encoding="utf-8"?>
<!-- Generator: Adobe Illustrator 24.1.2, SVG Export Plug-In . SVG Version: 6.00 Build 0)  -->
<svg version="1.1" id="Layer_1" xmlns="http://www.w3.org/2000/svg" xmlns:xlink="http://www.w3.org/1999/xlink" x="0px" y="0px"
	 viewBox="0 0 400 549.1" style="enable-background:new 0 0 400 549.1;" xml:space="preserve">
<style type="text/css">
	.st0{fill:#0C0C0C;}
</style>
<g>
	<path class="st0" d="M360.9,396.6c0,39.7-15,73.7-45.1,102.7c-30,28.6-65.9,42.6-107.6,42.6h-16.5c-41.2,0-77-14.5-107.1-42.6
		c-30-28.6-45.1-62.5-45.1-102.7V249.8c0-6.3,2.4-11.6,7.3-17c4.8-5.3,11.1-7.8,17.9-7.8H121c7.3,0,13.6,2.9,18.4,7.8
		c4.8,5.3,7.3,11.1,7.3,17v135.7c0,16.5,5.3,31,16,42.6c10.7,11.6,22.8,17.9,35.9,17.9c12.6,0,24.2-5.8,34.9-17.9
		c10.7-11.6,15.5-25.7,15.5-42.6V249.8c0-6.8,2.9-12.1,7.8-17.4c5.3-4.8,11.6-7.3,18.9-7.3h56.2c7.3,0,13.6,2.4,18.9,7.3
		c5.8,4.8,8.7,11.1,8.7,17.4L360.9,396.6L360.9,396.6z"/>
	<path class="st0" d="M122,117.5H64.8c-14.1,0-25.7-11.1-25.7-25.7V34.7C39.1,20.6,50.3,9,64.8,9H122c14.1,0,25.7,11.1,25.7,25.7
		v57.2C147.7,105.9,136,117.5,122,117.5z"/>
	<path class="st0" d="M335.2,117.5H278c-14.1,0-25.7-11.1-25.7-25.7V34.7C252.3,20.6,263.5,9,278,9h57.2c14.1,0,25.7,11.1,25.7,25.7
		v57.2C360.9,105.9,349.2,117.5,335.2,117.5z"/>
</g>
</svg>
