<?xml version="1.0" encoding="utf-8"?>
<!-- Generator: Adobe Illustrator 24.1.2, SVG Export Plug-In . SVG Version: 6.00 Build 0)  -->
<svg version="1.1" id="Layer_1" xmlns="http://www.w3.org/2000/svg" xmlns:xlink="http://www.w3.org/1999/xlink" x="0px" y="0px"
	 viewBox="0 0 500 134.4" style="enable-background:new 0 0 500 134.4;" xml:space="preserve">
<style type="text/css">
	.st0{fill:#0C0C0C;}
</style>
<g>
	<g>
		<g>
			<g>
				<path class="st0" d="M101.2,116c0,1.5-0.5,2.7-1.5,3.7c-1,1-2.3,1.5-3.8,1.5H85.4c-1.5,0-2.9-0.5-4-1.5c-1.1-1-1.7-2.3-1.7-3.7
					V63.1l-13.1,53.2c-0.8,3.2-2.7,4.9-5.5,4.9h-6.2c-2.8,0-4.6-1.6-5.4-4.9L36.2,61.2V116c0,1.5-0.6,2.7-1.7,3.7
					c-1.1,1-2.4,1.5-4,1.5H19.4c-1.5,0-2.8-0.5-3.8-1.5c-1-1-1.5-2.3-1.5-3.7V18c0-1.5,0.5-2.7,1.5-3.7s2.3-1.5,3.7-1.5h20.8
					c3.1,0,5.2,1.8,6,5.4l11.8,48.8L69,17.7c0.7-3.2,2.5-4.9,5.4-4.9h21.4c1.5,0,2.7,0.5,3.8,1.5c1.1,1,1.6,2.2,1.6,3.7L101.2,116
					L101.2,116z"/>
				<path class="st0" d="M183.1,92.8c0,8.2-3.1,15.2-9.3,21.2c-6.2,5.9-13.6,8.8-22.2,8.8h-3.4c-8.5,0-15.9-3-22.1-8.8
					c-6.2-5.9-9.3-12.9-9.3-21.2V62.5c0-1.3,0.5-2.4,1.5-3.5c1-1.1,2.3-1.6,3.7-1.6h11.6c1.5,0,2.8,0.6,3.8,1.6
					c1,1.1,1.5,2.3,1.5,3.5v28c0,3.4,1.1,6.4,3.3,8.8c2.2,2.4,4.7,3.7,7.4,3.7c2.6,0,5-1.2,7.2-3.7c2.2-2.4,3.2-5.3,3.2-8.8v-28
					c0-1.4,0.6-2.5,1.6-3.6c1.1-1,2.4-1.5,3.9-1.5h11.6c1.5,0,2.8,0.5,3.9,1.5c1.2,1,1.8,2.3,1.8,3.6L183.1,92.8L183.1,92.8z"/>
				<path class="st0" d="M256.7,115.7c0,1.5-0.6,2.7-1.8,3.8c-1.2,1.1-2.5,1.7-4.1,1.7h-45.8c-1.5,0-2.9-0.6-4.1-1.7
					c-1.2-1.1-1.8-2.4-1.8-3.8V18.4c0-1.5,0.6-2.9,1.6-3.9c1.1-1.1,2.5-1.6,4.2-1.6h44.5c1.5,0,2.9,0.6,4.1,1.6
					c1.2,1.1,1.8,2.4,1.8,3.9v9.2c0,1.5-0.6,2.7-1.8,3.8c-1.2,1.1-2.5,1.7-4.1,1.7h-25.6c-1.4,0-2,0.6-2,1.8v17.9
					c0,1.1,0.7,1.6,2,1.6h19.4c1.5,0,2.9,0.6,4.1,1.6c1.2,1.1,1.8,2.4,1.8,3.9v9c0,1.5-0.6,2.7-1.8,3.8c-1.2,1.1-2.5,1.7-4.1,1.7
					h-19.4c-1.4,0-2,0.6-2,1.9v22.1c0,1.3,0.7,1.9,2,1.9h27c1.5,0,2.9,0.6,4.1,1.7c1.2,1.1,1.8,2.4,1.8,3.8L256.7,115.7L256.7,115.7
					z"/>
				<path class="st0" d="M332.6,91.6c0,8.6-3.1,15.9-9.4,22c-6.3,6.1-13.8,9.1-22.7,9.1h-1.2c-8.9,0-16.4-3-22.7-9.1
					c-6.3-6.1-9.5-13.4-9.5-22V42.4c0-8.6,3.2-15.9,9.5-22c6.3-6.1,13.9-9.1,22.8-9.1h1.2c8.9,0,16.4,3,22.7,9.1
					c6.2,6.1,9.3,13.4,9.3,22v4.5c0,1.4-0.6,2.6-1.7,3.7c-1.1,1.1-2.4,1.7-4,1.7h-11.4c-1.5,0-2.9-0.6-4.1-1.7s-1.8-2.4-1.8-3.7
					v-1.5c0-3.7-0.9-6.8-2.8-9.2c-1.8-2.4-4-3.7-6.6-3.7c-2.7,0-5,1.2-7.1,3.7c-2.1,2.5-3.1,5.5-3.1,9.1v44.3c0,3.6,1,6.7,3,9.1
					c2,2.4,4.3,3.7,6.9,3.7c2.6,0,4.9-1.2,6.8-3.7c2-2.4,3-5.4,3-9.1v-3.5c0-3.7,1.8-5.5,5.4-5.5h11.4c1.6,0,3,0.5,4.1,1.5
					c1.1,1,1.6,2.4,1.6,4L332.6,91.6L332.6,91.6z"/>
				<path class="st0" d="M412.7,115.3c0.4,1.5,0,2.9-1.1,4.1c-1.1,1.2-2.4,1.8-4.1,1.8h-12.2c-2.9,0-4.7-1.7-5.4-5.3l-3.3-15.5
					c-0.3-1.3-0.8-1.9-1.6-1.9h-16.5c-1.2,0-1.9,0.6-2.2,1.9l-2.9,15.4c-0.6,3.5-2.5,5.3-5.7,5.3h-12.1c-1.6,0-3-0.6-3.9-1.8
					c-1-1.2-1.4-2.6-1.1-4.1L360.7,18c0.6-3.4,2.5-5.2,5.5-5.2h19.3c3,0,4.8,1.7,5.5,5.2L412.7,115.3z M381.6,76.1l-6-32L370.1,76
					c-0.2,1.2,0.2,1.8,1.2,1.8h8.8C381.3,77.7,381.8,77.2,381.6,76.1z"/>
				<path class="st0" d="M485.9,93.2c0,9.1-3,16.4-9.2,21.8s-14,8.1-23.5,8.1c-15.2,0-25.9-7.1-32-21.2c-2.1-4.7-3.1-7.9-3.1-9.5
					c0-2.4,1.9-4.4,5.7-5.8c2.7-0.8,5.4-1.6,8.1-2.3c0.7-0.3,1.4-0.4,2-0.4c2.2,0,3.9,1.7,5.4,5c2.4,5.5,3.8,8.5,4.2,9.1
					c2.3,3.2,5.5,4.9,9.6,4.9c6.8,0,10.1-3.1,10.1-9.5c0-4.2-3.7-9.4-10.9-15.4c-6.8-5.6-13.7-11.2-20.5-16.7
					c-7.3-7.2-10.9-14.4-10.9-21.7c0-8.8,3-15.7,9.2-20.9c5.7-4.9,12.6-7.3,20.8-7.3c7.9,0,14.6,2.4,20.3,7.2
					c5.2,4.4,8.9,10.3,11.3,17.6c0.2,0.6,0.3,1.3,0.3,1.9c0,2.3-1.6,4.1-4.9,5.4c-2.5,0.7-5.1,1.5-7.6,2.2c-0.6,0.2-1.2,0.3-1.8,0.3
					c-2.4,0-4.2-1.2-5.2-3.5c-3.7-8.5-7.8-12.8-12.4-12.8c-2.3,0-4.4,1-6.1,3c-1.8,2-2.6,4.3-2.6,6.8c0,3,3.8,7.6,11.4,13.4
					c11.4,8.7,18.4,14.4,21.2,17.2C482.1,77.7,485.9,85.4,485.9,93.2z"/>
				<path class="st0" d="M133.8,35.2H122c-2.9,0-5.3-2.3-5.3-5.3V18.1c0-2.9,2.3-5.3,5.3-5.3h11.8c2.9,0,5.3,2.3,5.3,5.3v11.8
					C139.1,32.8,136.7,35.2,133.8,35.2z"/>
				<path class="st0" d="M177.8,35.2H166c-2.9,0-5.3-2.3-5.3-5.3V18.1c0-2.9,2.3-5.3,5.3-5.3h11.8c2.9,0,5.3,2.3,5.3,5.3v11.8
					C183.1,32.8,180.7,35.2,177.8,35.2z"/>
			</g>
		</g>
	</g>
</g>
</svg>
