<?xml version="1.0" encoding="utf-8"?>
<!-- Generator: Adobe Illustrator 24.3.0, SVG Export Plug-In . SVG Version: 6.00 Build 0)  -->
<svg version="1.1" id="Capa_1" xmlns="http://www.w3.org/2000/svg" xmlns:xlink="http://www.w3.org/1999/xlink" x="0px" y="0px"
	 width="157px" height="36.6px" viewBox="0 0 157 36.6" style="enable-background:new 0 0 157 36.6;" xml:space="preserve">
<style type="text/css">
	.st0{fill:#F4F4F4;}
</style>
<path class="st0" d="M29,34.3c0,0.5-0.2,0.9-0.5,1.2c-0.3,0.3-0.8,0.5-1.3,0.5h-3.5c-0.5,0-1-0.2-1.3-0.5c-0.4-0.3-0.6-0.7-0.6-1.2
	V17l-4.4,17.5c-0.3,1.1-0.9,1.6-1.8,1.6h-2.1c-0.9,0-1.5-0.5-1.8-1.6L7.4,16.4v18c0,0.5-0.2,0.9-0.6,1.2c-0.4,0.3-0.8,0.5-1.3,0.5
	H1.8c-0.5,0-0.9-0.2-1.3-0.5C0.2,35.2,0,34.8,0,34.3V2.2C0,1.7,0.2,1.3,0.5,1c0.3-0.3,0.8-0.5,1.2-0.5h6.9c1.1,0,1.7,0.6,2,1.8
	l3.9,16l3.7-16.2c0.2-1.1,0.8-1.6,1.8-1.6h7.1c0.5,0,0.9,0.2,1.3,0.5C28.8,1.3,29,1.7,29,2.2V34.3z"/>
<path class="st0" d="M56.2,26.7c0,2.7-1,5-3.1,6.9c-2.1,1.9-4.5,2.9-7.4,2.9h-1.1c-2.8,0-5.3-1-7.3-2.9s-3.1-4.2-3.1-6.9v-10
	c0-0.4,0.2-0.8,0.5-1.2c0.3-0.4,0.8-0.5,1.2-0.5h3.9c0.5,0,0.9,0.2,1.3,0.5c0.3,0.4,0.5,0.7,0.5,1.2V26c0,1.1,0.4,2.1,1.1,2.9
	c0.7,0.8,1.6,1.2,2.5,1.2c0.9,0,1.7-0.4,2.4-1.2c0.7-0.8,1.1-1.8,1.1-2.9v-9.2c0-0.4,0.2-0.8,0.5-1.2c0.4-0.3,0.8-0.5,1.3-0.5h3.9
	c0.5,0,0.9,0.2,1.3,0.5c0.4,0.3,0.6,0.7,0.6,1.2L56.2,26.7L56.2,26.7z"/>
<path class="st0" d="M80.7,34.2c0,0.5-0.2,0.9-0.6,1.3c-0.4,0.4-0.8,0.6-1.4,0.6H63.6c-0.5,0-1-0.2-1.4-0.6
	c-0.4-0.4-0.6-0.8-0.6-1.3V2.3c0-0.5,0.2-0.9,0.5-1.3c0.4-0.4,0.8-0.5,1.4-0.5h14.8c0.5,0,1,0.2,1.4,0.5c0.4,0.4,0.6,0.8,0.6,1.3v3
	c0,0.5-0.2,0.9-0.6,1.3c-0.4,0.4-0.8,0.6-1.4,0.6h-8.5c-0.5,0-0.7,0.2-0.7,0.6v5.9c0,0.4,0.2,0.5,0.7,0.5h6.4c0.5,0,1,0.2,1.4,0.5
	c0.4,0.4,0.6,0.8,0.6,1.3v2.9c0,0.5-0.2,0.9-0.6,1.3c-0.4,0.4-0.8,0.6-1.4,0.6h-6.4c-0.5,0-0.7,0.2-0.7,0.6v7.2
	c0,0.4,0.2,0.6,0.7,0.6h9c0.5,0,1,0.2,1.4,0.6c0.4,0.4,0.6,0.8,0.6,1.3V34.2L80.7,34.2z"/>
<path class="st0" d="M106,26.3c0,2.8-1,5.2-3.1,7.2c-2.1,2-4.6,3-7.6,3h-0.4c-2.9,0-5.5-1-7.6-3c-2.1-2-3.2-4.4-3.2-7.2V10.2
	c0-2.8,1.1-5.2,3.2-7.2c2.1-2,4.6-3,7.6-3h0.4c3,0,5.5,1,7.5,3c2.1,2,3.1,4.4,3.1,7.2v1.5c0,0.4-0.2,0.9-0.6,1.2
	c-0.4,0.4-0.8,0.6-1.3,0.6h-3.8c-0.5,0-1-0.2-1.4-0.6c-0.4-0.4-0.6-0.8-0.6-1.2v-0.5c0-1.2-0.3-2.2-0.9-3c-0.6-0.8-1.3-1.2-2.2-1.2
	c-0.9,0-1.7,0.4-2.4,1.2c-0.7,0.8-1,1.8-1,3v14.5c0,1.2,0.3,2.2,1,3c0.7,0.8,1.4,1.2,2.3,1.2s1.6-0.4,2.3-1.2c0.7-0.8,1-1.8,1-3
	v-1.2c0-1.2,0.6-1.8,1.8-1.8h3.8c0.5,0,1,0.2,1.4,0.5c0.4,0.3,0.5,0.8,0.5,1.3V26.3z"/>
<path class="st0" d="M132.6,34.1c0.1,0.5,0,1-0.4,1.4c-0.4,0.4-0.8,0.6-1.4,0.6h-4.1c-1,0-1.6-0.6-1.8-1.7l-1.1-5.1
	c-0.1-0.4-0.3-0.6-0.5-0.6h-5.5c-0.4,0-0.6,0.2-0.7,0.6l-0.9,5.1c-0.2,1.2-0.8,1.7-1.9,1.7h-4c-0.5,0-1-0.2-1.3-0.6
	c-0.3-0.4-0.5-0.9-0.4-1.4l6.7-31.9c0.2-1.1,0.8-1.7,1.8-1.7h6.4c1,0,1.6,0.6,1.8,1.7L132.6,34.1L132.6,34.1z M122.3,21.3l-2-10.5
	l-1.8,10.4c-0.1,0.4,0.1,0.6,0.4,0.6h2.9C122.2,21.8,122.4,21.6,122.3,21.3z"/>
<path class="st0" d="M157,26.9c0,3-1,5.4-3.1,7.1c-2,1.8-4.6,2.6-7.8,2.6c-5.1,0-8.6-2.3-10.6-7c-0.7-1.5-1-2.6-1-3.1
	c0-0.8,0.6-1.4,1.9-1.9c0.9-0.3,1.8-0.5,2.7-0.8c0.2-0.1,0.5-0.1,0.7-0.1c0.7,0,1.3,0.5,1.8,1.6c0.8,1.8,1.3,2.8,1.4,3
	c0.8,1.1,1.8,1.6,3.2,1.6c2.2,0,3.4-1,3.4-3.1c0-1.4-1.2-3.1-3.6-5.1c-2.3-1.8-4.6-3.7-6.8-5.5c-2.4-2.4-3.6-4.7-3.6-7.1
	c0-2.9,1-5.2,3.1-6.8c1.9-1.6,4.2-2.4,6.9-2.4c2.7,0,4.9,0.8,6.8,2.4c1.7,1.5,3,3.4,3.7,5.8c0.1,0.2,0.1,0.4,0.1,0.6
	c0,0.7-0.5,1.3-1.6,1.8c-0.8,0.2-1.7,0.5-2.5,0.7c-0.2,0.1-0.4,0.1-0.6,0.1c-0.8,0-1.4-0.4-1.7-1.2c-1.2-2.8-2.6-4.2-4.1-4.2
	c-0.8,0-1.5,0.3-2.1,1c-0.6,0.7-0.9,1.4-0.9,2.2c0,1,1.3,2.5,3.8,4.4c3.8,2.8,6.1,4.7,7,5.6C155.7,21.8,157,24.3,157,26.9L157,26.9z
	"/>
<path class="st0" d="M39.8,0.5h-3.9c-1,0-1.8,0.8-1.8,1.7v3.9c0,1,0.8,1.7,1.8,1.7h3.9c1,0,1.8-0.8,1.8-1.7V2.2
	C41.6,1.3,40.8,0.5,39.8,0.5z"/>
<path class="st0" d="M54.5,0.5h-3.9c-1,0-1.8,0.8-1.8,1.7v3.9c0,1,0.8,1.7,1.8,1.7h3.9c1,0,1.8-0.8,1.8-1.7V2.2
	C56.2,1.3,55.4,0.5,54.5,0.5z"/>
</svg>
