<?xml version="1.0" encoding="utf-8"?>
<!-- Generator: Adobe Illustrator 24.3.0, SVG Export Plug-In . SVG Version: 6.00 Build 0)  -->
<svg version="1.1" id="Layer_1" xmlns="http://www.w3.org/2000/svg" xmlns:xlink="http://www.w3.org/1999/xlink" x="0px" y="0px"
	 width="99.2px" height="99.2px" viewBox="0 0 99.2 99.2" style="enable-background:new 0 0 99.2 99.2;" xml:space="preserve">
<style type="text/css">
	.st0{fill:#FFFFFF;}
	.st1{fill:#1D1D1B;}
</style>
<g>
	<g>
		<polygon class="st0" points="29.3,98.5 0.6,69.8 0.6,29.3 29.3,0.6 69.8,0.6 98.5,29.3 98.5,69.8 69.8,98.5 		"/>
		<path class="st1" d="M69.6,1.1l28.3,28.3v40.1L69.6,98H29.6L1.1,69.6V29.6L29.5,1.1H69.6z M70.1,0H29.1L0,29.1v41.1l29.1,29.1
			h41.1l29.1-29.1V29.1L70.1,0z"/>
		<polygon class="st1" points="67.9,5.3 31.2,5.3 5.3,31.2 5.3,67.9 31.2,93.8 67.9,93.8 93.8,67.9 93.8,31.2 		"/>
	</g>
	<g>
		<path class="st0" d="M11.9,47.4v-10h7.6v2.3h-4.7v5.4h4.7v2.3H11.9z M13.6,43.4v-2.3h5.2v2.3H13.6z"/>
		<path class="st0" d="M19.5,47.4l3.6-5.3l1.7-2.1l1.7-2.6h3.1l-3.1,4.7l-1.7,2.1l-2.1,3.1L19.5,47.4L19.5,47.4z M26.8,47.4
			l-2.1-3.1L23,42.2l-3.3-4.7H23l1.7,2.6l1.7,2.1l3.6,5.3C29.9,47.4,26.8,47.4,26.8,47.4z"/>
		<path class="st0" d="M35.5,47.5c-0.9,0-1.7-0.1-2.4-0.3c-0.7-0.1-1.3-0.6-1.9-0.9c-0.4-0.4-0.9-0.9-1-1.6
			c-0.3-0.7-0.4-1.4-0.4-2.3c0-1.1,0.3-2,0.7-2.9c0.4-0.9,1.1-1.3,2-1.7c0.9-0.4,1.9-0.6,3.1-0.6c0.4,0,0.7,0,1.1,0
			c0.4,0,0.7,0.1,1,0.1v2.4c-0.3,0-0.6-0.1-0.9-0.1c-0.3,0-0.7,0-1,0c-0.7,0-1.3,0.1-1.7,0.3c-0.4,0.1-0.7,0.6-1,0.9
			c-0.3,0.1-0.3,0.7-0.3,1.3c0,0.6,0.1,1.1,0.3,1.6c0.1,0.4,0.6,0.7,0.9,0.9c0.4,0.1,1,0.3,1.7,0.3c0.3,0,0.7,0,1-0.1
			c0.3,0,0.7-0.1,1-0.1v2.4c-0.3,0.1-0.7,0.1-1,0.3C36.4,47.5,35.9,47.5,35.5,47.5z"/>
		<path class="st0" d="M38.7,47.4v-10h7.6v2.3h-4.7v5.4h4.7v2.3H38.7z M40.4,43.4v-2.3h5.2v2.3H40.4z"/>
		<path class="st0" d="M50.3,47.5c-0.6,0-1,0-1.6-0.1c-0.6-0.1-1-0.1-1.4-0.3v-2.4c0.3,0.1,0.6,0.1,0.9,0.3c0.3,0.1,0.7,0.1,1,0.1
			c0.4,0,0.7,0,1,0c0.6,0,0.9,0,1.1-0.1c0.1-0.1,0.3-0.3,0.3-0.6c0-0.1,0-0.3-0.1-0.4s-0.4-0.3-0.9-0.3l-0.9-0.3
			c-0.9-0.3-1.6-0.6-2-1c-0.4-0.6-0.7-1.1-0.7-1.9c0-1,0.4-1.9,1.1-2.4c0.9-0.6,2-0.9,3.4-0.9c0.6,0,1,0,1.4,0.1
			c0.4,0,0.9,0.1,1.1,0.3V40c-0.3-0.1-0.7-0.1-1-0.3c-0.4,0-0.9-0.1-1.3-0.1c-0.6,0-0.9,0-1.1,0.1c-0.3,0-0.4,0.1-0.6,0.3
			c0,0.2,0,0.4,0,0.5s0,0.3,0.1,0.4c0.1,0.1,0.4,0.1,0.7,0.3l0.9,0.3c0.7,0.1,1.1,0.4,1.7,0.7c0.4,0.3,0.7,0.6,1,1
			c0.1,0.4,0.3,0.9,0.3,1.4c0,0.7-0.1,1.3-0.6,1.7c-0.3,0.6-0.9,0.9-1.4,1.1C52,47.4,51.1,47.5,50.3,47.5z"/>
		<path class="st0" d="M60.2,47.5c-1,0-1.9-0.1-2.7-0.6c-0.7-0.4-1.3-1-1.7-1.7c-0.4-0.7-0.7-1.7-0.7-2.9c0-1.1,0.3-2.1,0.7-2.9
			c0.4-0.7,1-1.3,1.7-1.7c0.7-0.4,1.7-0.6,2.7-0.6c1,0,2,0.1,2.7,0.6c0.7,0.4,1.3,1,1.7,1.7c0.4,0.7,0.7,1.7,0.7,2.9
			c0,1.1-0.3,2.1-0.7,2.9c-0.4,0.8-1,1.3-1.7,1.7C62,47.2,61.2,47.5,60.2,47.5z M60.2,45.1c0.4,0,0.9-0.1,1.1-0.3
			c0.3-0.1,0.6-0.6,0.7-0.9c0.1-0.4,0.3-0.9,0.3-1.6c0-0.7-0.1-1.1-0.3-1.6c-0.1-0.4-0.4-0.7-0.7-0.9c-0.3-0.1-0.7-0.3-1.1-0.3
			c-0.4,0-0.9,0.1-1.1,0.3c-0.3,0.1-0.6,0.6-0.7,0.9c-0.1,0.4-0.3,0.9-0.3,1.6s0.1,1.1,0.3,1.6c0.1,0.4,0.4,0.7,0.7,0.9
			C59.3,45.1,59.6,45.1,60.2,45.1z"/>
		<path class="st0" d="M69.5,47.4v-10h7.6v2.3h-4.7v5.4h4.9v2.3H69.5z M71.2,43.4v-2.3h5.2v2.3H71.2z"/>
		<path class="st0" d="M78.2,47.4v-10h2.9l4,6.3h-0.4v-6.3h2.7v10h-2.9l-4-6.3h0.4v6.3H78.2z"/>
	</g>
	<g>
		<path class="st0" d="M12.7,61.5l3-10H20l3,10h-2.9l-2.4-8.7H18l-2.6,8.7H12.7z M15.2,59.2l0.6-2.3h4l0.6,2.3H15.2z"/>
		<path class="st0" d="M23.2,61.5v-1.6l4.4-6.4v0.6h-4.4v-2.6h7.9v1.6l-4.4,6.4v-0.6h4.6v2.6H23.2z"/>
		<path class="st0" d="M36.6,61.6c-1,0-1.9-0.1-2.6-0.6c-0.7-0.3-1.1-0.9-1.4-1.6c-0.3-0.7-0.4-1.4-0.4-2.4v-5.6h2.9v5.9
			c0,0.7,0.1,1.1,0.4,1.4c0.3,0.3,0.7,0.4,1.1,0.4c0.4,0,0.9-0.1,1.1-0.4c0.3-0.3,0.4-0.9,0.4-1.4v-5.9H41V57c0,1-0.1,1.9-0.4,2.4
			c-0.3,0.7-0.9,1.1-1.4,1.6C38.5,61.3,37.7,61.6,36.6,61.6z M35.4,50.8l1.3-2.1h3L38,50.8H35.4z"/>
		<path class="st0" d="M47.8,61.6c-0.9,0-1.7-0.1-2.4-0.3c-0.7-0.1-1.3-0.6-1.9-0.9c-0.4-0.4-0.9-0.9-1-1.6
			c-0.3-0.7-0.4-1.4-0.4-2.3c0-1.1,0.3-2,0.7-2.9c0.4-0.9,1.1-1.3,2-1.7c0.9-0.4,1.9-0.6,3.1-0.6c0.4,0,0.7,0,1.1,0s0.7,0.1,1,0.1
			v2.4c-0.3,0-0.6-0.1-0.9-0.1c-0.3,0-0.7,0-1,0c-0.7,0-1.3,0.1-1.7,0.3c-0.4,0.1-0.7,0.6-1,0.9c-0.3,0.4-0.3,0.9-0.3,1.6
			c0,0.7,0.1,1.1,0.3,1.6c0.1,0.4,0.6,0.7,0.9,0.9c0.3,0.2,1,0.3,1.7,0.3c0.3,0,0.7,0,1-0.1c0.3,0,0.7-0.1,1-0.1v2.4
			c-0.3,0.1-0.7,0.1-1,0.3C48.7,61.5,48.2,61.6,47.8,61.6z"/>
		<path class="st0" d="M50.3,61.5l3-10h4.3l3,10h-2.9l-2.4-8.7h0.3l-2.4,8.7H50.3z M52.8,59.2l0.6-2.3h4l0.6,2.3H52.8z"/>
		<path class="st0" d="M61,61.5v-9.7c0.3-0.1,0.7-0.1,1-0.1c0.4,0,0.9-0.1,1.1-0.1c0.4,0,0.9,0,1.1,0c1.6,0,2.7,0.3,3.4,0.9
			c1,0.4,1.3,1.2,1.3,2.4c0,0.7-0.1,1.4-0.6,1.9c-0.4,0.6-0.9,0.9-1.6,1.1c-0.7,0.3-1.4,0.4-2.3,0.4c-0.1,0-0.3,0-0.4,0
			c-0.1,0-0.3,0-0.4,0v3.1L61,61.5L61,61.5z M66.8,61.5l-3-4.6h3.1l3,4.6H66.8z M64.8,56c0.6,0,0.9-0.1,1.1-0.3
			c0.3-0.1,0.4-0.6,0.4-1c0-0.3,0-0.6-0.1-0.7c-0.1-0.1-0.3-0.3-0.6-0.4c-0.3-0.1-0.6-0.1-0.9-0.1c-0.1,0-0.3,0-0.4,0
			c-0.1,0-0.3,0-0.4,0v2.4c0.1,0,0.1,0,0.3,0c0.1,0,0.1,0,0.3,0C64.6,56,64.8,56,64.8,56z"/>
		<path class="st0" d="M70.5,61.5v-10h7.6v2.3h-4.7v5.4h4.7v2.3H70.5z M72.2,57.5v-2.3h5.2v2.3H72.2z"/>
		<path class="st0" d="M82.1,61.6c-0.6,0-1,0-1.6-0.1s-1-0.1-1.4-0.3v-2.4c0.3,0.1,0.6,0.1,0.9,0.3c0.3,0.1,0.7,0.1,1,0.1
			c0.4,0,0.7,0,1,0c0.6,0,0.9,0,1.1-0.1c0.1-0.1,0.3-0.3,0.3-0.6c0-0.1,0-0.3-0.1-0.4c-0.1-0.1-0.4-0.3-0.9-0.3l-0.9-0.1
			c-0.9-0.3-1.6-0.6-2-1c-0.4-0.6-0.7-1.1-0.7-1.9c0-1,0.4-1.9,1.1-2.4c0.7-0.5,1.9-0.9,3.4-0.9c0.6,0,1,0,1.4,0.1
			c0.4,0.1,0.9,0.1,1.1,0.3v2.4c-0.3-0.1-0.7-0.1-1-0.3c-0.4,0-0.9-0.1-1.3-0.1c-0.6,0-0.9,0-1.1,0.1c-0.3,0-0.4,0.1-0.6,0.3
			c-0.1,0.1-0.1,0.3-0.1,0.4c0,0.1,0,0.3,0.1,0.4c0.1,0.1,0.4,0.1,0.7,0.3l0.9,0.3c0.7,0.1,1.1,0.4,1.7,0.7c0.4,0.3,0.7,0.6,1,1
			c0.1,0.4,0.3,0.9,0.3,1.4c0,0.7-0.1,1.3-0.6,1.7c-0.3,0.6-0.9,0.9-1.4,1.1C83.7,61.5,82.9,61.6,82.1,61.6z"/>
	</g>
	<g>
		<path class="st0" d="M37.5,81.2L37.5,81.2l1.6-5.2h1v6.3h-0.9v-4.6l0,0l-1.4,4.6h-0.6l-1.4-4.6l0,0v4.6h-0.9V76H36L37.5,81.2z"/>
		<path class="st0" d="M41.9,76.5H41v-0.9h0.9V76.5z M41.9,82.4H41v-4.7h0.9V82.4z"/>
		<path class="st0" d="M43.7,77.6v0.7c0.1-0.3,0.3-0.4,0.6-0.6c0.1-0.1,0.4-0.1,0.7-0.1c0.4,0,0.7,0.1,1,0.4
			c0.3,0.3,0.4,0.9,0.4,1.4v2.9h-0.9v-2.9c0-0.4,0-0.7-0.1-0.9c-0.1-0.1-0.3-0.3-0.6-0.3c-0.1,0-0.4,0-0.6,0.1
			c-0.1,0.1-0.3,0.3-0.4,0.4v3.6h-0.9v-4.7H43.7L43.7,77.6L43.7,77.6z"/>
		<path class="st0" d="M48,76.5h-0.9v-0.9H48V76.5z M48,82.4h-0.9v-4.7H48V82.4z"/>
		<path class="st0" d="M51,81.2c0-0.1,0-0.3-0.1-0.4c-0.1-0.1-0.4-0.3-0.7-0.4c-0.4-0.1-0.9-0.4-1-0.6c-0.3-0.3-0.4-0.6-0.4-0.9
			c0-0.4,0.1-0.7,0.4-0.9c0.3-0.3,0.7-0.4,1.1-0.4s0.9,0.1,1.1,0.4c0.3,0.3,0.4,0.6,0.4,1l0,0H51c0-0.3,0-0.4-0.1-0.6
			s-0.3-0.3-0.6-0.3s-0.4,0-0.6,0.1c-0.1,0.1-0.1,0.3-0.1,0.4c0,0.1,0,0.3,0.1,0.4s0.3,0.3,0.7,0.4c0.6,0.1,0.9,0.4,1.1,0.6
			c0.3,0.3,0.4,0.6,0.4,0.9c0,0.4-0.1,0.7-0.4,1c-0.3,0.3-0.7,0.4-1.1,0.4c-0.6,0-0.9-0.1-1.3-0.4c-0.4-0.3-0.6-0.6-0.4-1l0,0h0.9
			c0,0.3,0.1,0.6,0.3,0.7c0.1,0.3,0.4,0.3,0.5,0.3c0.3,0,0.4,0,0.6-0.1C51,81.5,51,81.4,51,81.2z"/>
		<path class="st0" d="M53.5,76.5v1.1h0.9v0.7h-0.7V81c0,0.3,0,0.4,0.1,0.6s0.1,0.1,0.3,0.1h0.1h0.1l0.1,0.6c-0.1,0-0.1,0.1-0.3,0.1
			c-0.1,0-0.3,0-0.3,0c-0.3,0-0.6-0.1-0.9-0.3s-0.3-0.6-0.3-1v-2.7H52v-0.7h0.6v-1.1L53.5,76.5L53.5,76.5z"/>
		<path class="st0" d="M56.5,82.5c-0.6,0-1-0.3-1.4-0.7c-0.4-0.4-0.6-1-0.6-1.7v-0.2c0-0.7,0.1-1.3,0.6-1.7c0.3-0.4,0.7-0.7,1.3-0.7
			c0.6,0,0.9,0.1,1.1,0.6c0.3,0.4,0.4,0.9,0.4,1.6v0.6h-2.4c0,0.4,0.1,0.9,0.3,1.1c0.1,0.3,0.4,0.4,0.9,0.4c0.3,0,0.4,0,0.7-0.1
			c0.1-0.1,0.4-0.1,0.6-0.3l0.3,0.6c-0.1,0.1-0.4,0.3-0.6,0.4C57.2,82.4,56.9,82.5,56.5,82.5z M56.5,78.2c-0.3,0-0.4,0.1-0.6,0.4
			c-0.1,0.3-0.3,0.6-0.3,0.9h1.7v-0.1c0-0.4,0-0.7-0.1-0.9C56.9,78.4,56.8,78.2,56.5,78.2z"/>
		<path class="st0" d="M60.7,78.4h-0.4c-0.1,0-0.3,0-0.4,0.1c-0.1,0.1-0.3,0.3-0.3,0.4v3.3h-0.9v-4.7h0.9v0.7
			c0.1-0.3,0.3-0.4,0.4-0.6c0.1-0.1,0.4-0.1,0.6-0.1h0.1h0.2L60.7,78.4z"/>
		<path class="st0" d="M62.2,76.5h-0.9v-0.9h0.9V76.5z M62.2,82.4h-0.9v-4.7h0.9V82.4z"/>
		<path class="st0" d="M62.7,79.9c0-0.7,0.1-1.3,0.6-1.7c0.3-0.4,0.9-0.7,1.3-0.7c0.6,0,1,0.3,1.3,0.7c0.3,0.4,0.6,1,0.6,1.7V80
			c0,0.7-0.1,1.3-0.6,1.7c-0.3,0.4-0.9,0.7-1.3,0.7c-0.6,0-1-0.3-1.4-0.7C62.9,81.4,62.7,80.8,62.7,79.9L62.7,79.9L62.7,79.9z
			 M63.8,80.1c0,0.6,0.1,0.9,0.3,1.3c0.1,0.3,0.4,0.4,0.7,0.4c0.3,0,0.6-0.1,0.7-0.4c0.1-0.3,0.3-0.7,0.3-1.1v-0.1
			c0-0.6-0.1-0.9-0.3-1.1c-0.1-0.3-0.4-0.4-0.7-0.4c-0.3,0-0.6,0.1-0.7,0.4C63.8,79.1,63.8,79.5,63.8,80.1L63.8,80.1z"/>
	</g>
	<g>
		<path class="st0" d="M35.8,87.8c0-0.7,0.1-1.3,0.4-1.9c0.3-0.4,0.7-0.7,1.1-0.7c0.3,0,0.4,0,0.6,0.1c0.1,0.1,0.3,0.3,0.4,0.4v-2.6
			h0.9V90h-0.7l-0.1-0.6c-0.1,0.3-0.3,0.4-0.4,0.6c-0.1,0.1-0.4,0.1-0.7,0.1c-0.6,0-0.9-0.3-1.1-0.7C35.8,89.1,35.8,88.7,35.8,87.8
			C35.8,87.9,35.8,87.8,35.8,87.8z M36.6,87.9c0,0.6,0.1,0.9,0.3,1.1c0.1,0.3,0.4,0.4,0.7,0.4c0.1,0,0.4,0,0.6-0.1
			c0.1-0.1,0.3-0.3,0.3-0.4v-2.3c-0.1-0.1-0.1-0.4-0.3-0.4c-0.1-0.1-0.3-0.1-0.6-0.1s-0.6,0.1-0.7,0.6
			C36.8,86.8,36.6,87.2,36.6,87.9L36.6,87.9z"/>
		<path class="st0" d="M41.8,90.2c-0.6,0-1-0.3-1.4-0.7c-0.3-0.4-0.6-1-0.6-1.7v-0.1c0-0.7,0.1-1.3,0.6-1.7c0.3-0.4,0.7-0.7,1.3-0.7
			s0.9,0.1,1.1,0.6c0.3,0.4,0.4,0.9,0.4,1.6v0.4h-2.6c0,0.4,0.1,0.9,0.3,1.1c0.1,0.3,0.4,0.4,0.9,0.4c0.3,0,0.4,0,0.7-0.1
			c0.1-0.1,0.4-0.1,0.6-0.3l0.3,0.6c-0.1,0.1-0.4,0.3-0.6,0.4C42.4,90.2,42.1,90.2,41.8,90.2z M41.7,86.1c-0.3,0-0.4,0.1-0.6,0.4
			c-0.1,0.3-0.3,0.6-0.3,0.9h1.7v-0.1c0-0.4,0-0.7-0.1-0.9C42.2,86.1,41.9,86.1,41.7,86.1z"/>
		<path class="st0" d="M48.7,88.5c0-0.3-0.1-0.6-0.3-0.7c-0.1-0.1-0.4-0.4-0.9-0.6c-0.6-0.1-1-0.4-1.4-0.7c-0.3-0.3-0.4-0.7-0.4-1.1
			c0-0.6,0.1-0.9,0.6-1.3c0.4-0.3,0.9-0.4,1.3-0.4c0.6,0,1,0.1,1.4,0.6c0.4,0.4,0.6,0.9,0.6,1.3l0,0h-0.9c0-0.4-0.1-0.7-0.3-0.9
			c-0.1-0.3-0.4-0.3-0.9-0.3c-0.4,0-0.6,0.1-0.7,0.3c-0.1,0.2-0.3,0.4-0.3,0.7c0,0.3,0.1,0.6,0.3,0.7c0.1,0.1,0.6,0.4,0.9,0.6
			c0.6,0.1,1,0.4,1.3,0.7c0.3,0.3,0.4,0.7,0.4,1.1s-0.1,0.9-0.6,1.3c-0.4,0.3-0.9,0.4-1.4,0.4c-0.6,0-1-0.1-1.4-0.6
			c-0.4-0.3-0.6-0.9-0.6-1.4l0,0h0.9c0,0.4,0.1,0.7,0.3,1c0.3,0.3,0.6,0.3,0.9,0.3c0.3,0,0.6-0.1,0.9-0.3
			C48.5,89.1,48.7,88.8,48.7,88.5z"/>
		<path class="st0" d="M52.7,90.2c0-0.1,0-0.3-0.1-0.4c0-0.1,0-0.3,0-0.3c-0.1,0.3-0.3,0.4-0.6,0.6c-0.1,0.1-0.4,0.3-0.7,0.3
			c-0.4,0-0.7-0.1-1-0.4C50,89.7,50,89.4,50,88.9s0.1-0.9,0.4-1c0.3-0.3,0.7-0.4,1.3-0.4h0.7v-0.4c0-0.3,0-0.6-0.1-0.7
			c-0.1-0.1-0.3-0.3-0.6-0.3s-0.4,0-0.6,0.3C51,86.5,51,86.7,51,86.9h-0.9l0,0c0-0.4,0.1-0.7,0.4-1c0.3-0.3,0.7-0.4,1.1-0.4
			c0.4,0,0.9,0.1,1.1,0.4c0.3,0.3,0.4,0.7,0.4,1.1v2.1c0,0.1,0,0.4,0,0.6c0,0.1,0,0.3,0.1,0.6L52.7,90.2L52.7,90.2z M51.5,89.5
			c0.3,0,0.4-0.1,0.7-0.3c0.1-0.1,0.3-0.3,0.4-0.6v-0.9H52c-0.3,0-0.4,0.1-0.7,0.3c-0.1,0.1-0.3,0.4-0.3,0.6c0,0.2,0,0.4,0.1,0.6
			C51.3,89.5,51.3,89.5,51.5,89.5z"/>
		<path class="st0" d="M55.1,90.2h-0.9v-6.9h0.9V90.2z"/>
		<path class="st0" d="M58.5,89.5c-0.1,0.3-0.3,0.4-0.6,0.6c-0.1,0.1-0.4,0.1-0.7,0.1c-0.4,0-0.9-0.1-1-0.6
			c-0.3-0.3-0.4-0.9-0.4-1.6v-2.7h0.9V88c0,0.6,0,0.9,0.1,1c0.1,0.1,0.3,0.3,0.6,0.3c0.3,0,0.4,0,0.6-0.1c0.1-0.1,0.3-0.3,0.4-0.4
			v-3.6h0.9v4.7h-0.7L58.5,89.5z"/>
		<path class="st0" d="M59.9,87.8c0-0.7,0.1-1.3,0.4-1.9c0.3-0.4,0.7-0.7,1.1-0.7c0.3,0,0.4,0,0.6,0.1c0.1,0.1,0.3,0.3,0.4,0.4v-2.6
			h0.9V90h-0.7l-0.1-0.6c-0.1,0.3-0.3,0.4-0.4,0.6c-0.1,0.1-0.4,0.1-0.7,0.1c-0.6,0-0.9-0.3-1.1-0.7C60,89.2,59.9,88.7,59.9,87.8
			L59.9,87.8z M60.7,87.9c0,0.6,0.1,0.9,0.3,1.1c0.1,0.3,0.4,0.4,0.7,0.4c0.1,0,0.4,0,0.6-0.1c0.1-0.1,0.3-0.3,0.3-0.4v-2.3
			c-0.1-0.1-0.1-0.4-0.3-0.4c-0.1-0.1-0.3-0.1-0.6-0.1c-0.3,0-0.6,0.1-0.7,0.6C60.9,86.8,60.7,87.2,60.7,87.9L60.7,87.9z"/>
	</g>
</g>
</svg>
