<?xml version="1.0" encoding="utf-8"?>
<!-- Generator: Adobe Illustrator 24.3.0, SVG Export Plug-In . SVG Version: 6.00 Build 0)  -->
<svg version="1.1" id="Layer_1" xmlns="http://www.w3.org/2000/svg" xmlns:xlink="http://www.w3.org/1999/xlink" x="0px" y="0px"
	 width="214px" height="53.5px" viewBox="0 0 214 53.5" style="enable-background:new 0 0 214 53.5;" xml:space="preserve">
<style type="text/css">
	.st0{fill:#FFFFFF;}
	.st1{fill:#1D1D1B;}
</style>
<g>
	<g>
		<rect x="0.6" y="0.5" class="st0" width="212.9" height="52.4"/>
		<path class="st1" d="M212.9,52.3H1.1V1.1h211.7L212.9,52.3L212.9,52.3z M214,0H0v53.5h214V0z"/>
		<rect x="5.6" y="5.6" class="st1" width="202.7" height="42.2"/>
	</g>
	<g>
		<path class="st0" d="M77.7,44.1L77.7,44.1l1.7-5.6h1.2v6.8h-0.9v-4.9l0,0l-1.6,4.9h-0.7l-1.6-5l0,0v5h-0.9v-6.8H76L77.7,44.1z"/>
		<path class="st0" d="M82.5,39h-1v-0.9h1V39z M82.5,45.4h-1v-5.1h1V45.4z"/>
		<path class="st0" d="M84.3,40.3l0.1,0.8c0.1-0.3,0.3-0.5,0.5-0.6s0.5-0.2,0.7-0.2c0.5,0,0.8,0.2,1.1,0.5c0.3,0.3,0.4,0.8,0.4,1.5
			v3.1h-1v-3.1c0-0.5-0.1-0.8-0.2-1S85.6,41,85.3,41c-0.2,0-0.4,0.1-0.6,0.2s-0.3,0.3-0.4,0.5v3.8h-1v-5.1h1V40.3z"/>
		<path class="st0" d="M88.9,39h-1v-0.9h1V39z M88.9,45.4h-1v-5.1h1V45.4z"/>
		<path class="st0" d="M92.3,44.1c0-0.2-0.1-0.4-0.2-0.5s-0.4-0.3-0.8-0.4c-0.5-0.2-0.9-0.4-1.2-0.6c-0.3-0.2-0.4-0.5-0.4-0.9
			s0.2-0.7,0.5-1s0.7-0.4,1.2-0.4s0.9,0.2,1.3,0.5s0.5,0.7,0.5,1.1l0,0h-0.9c0-0.2-0.1-0.4-0.2-0.6S91.8,41,91.5,41
			s-0.4,0.1-0.6,0.2c-0.1,0.1-0.2,0.3-0.2,0.5s0.1,0.3,0.2,0.5c0.1,0.1,0.4,0.3,0.8,0.4c0.5,0.2,0.9,0.4,1.2,0.7
			c0.3,0.2,0.4,0.6,0.4,0.9c0,0.4-0.2,0.8-0.5,1c-0.3,0.3-0.7,0.4-1.3,0.4c-0.6,0-1-0.2-1.3-0.5s-0.5-0.7-0.5-1.1l0,0h0.9
			c0,0.3,0.1,0.6,0.3,0.7c0.2,0.1,0.4,0.2,0.7,0.2c0.3,0,0.5-0.1,0.6-0.2C92.2,44.5,92.3,44.3,92.3,44.1z"/>
		<path class="st0" d="M95.1,39v1.3h0.8V41h-0.8v3c0,0.3,0,0.5,0.1,0.6s0.2,0.2,0.3,0.2c0.1,0,0.1,0,0.2,0c0,0,0.1,0,0.2,0l0.1,0.7
			c-0.1,0-0.2,0.1-0.3,0.1c-0.1,0-0.2,0-0.3,0c-0.4,0-0.7-0.1-0.9-0.4c-0.2-0.2-0.3-0.6-0.3-1.1v-3h-0.7v-0.7h0.7v-1.3h0.9V39z"/>
		<path class="st0" d="M98.3,45.5c-0.6,0-1.1-0.2-1.5-0.7s-0.5-1.1-0.5-1.8v-0.3c0-0.7,0.2-1.4,0.5-1.8c0.4-0.5,0.8-0.7,1.4-0.7
			s1,0.2,1.3,0.6s0.5,1,0.5,1.7V43h-2.8c0,0.5,0.1,0.9,0.3,1.3c0.2,0.3,0.5,0.5,0.9,0.5c0.3,0,0.5,0,0.7-0.1
			c0.2-0.1,0.4-0.2,0.5-0.4l0.3,0.6c-0.2,0.2-0.4,0.3-0.7,0.4C99,45.4,98.7,45.5,98.3,45.5z M98.3,40.9c-0.3,0-0.5,0.1-0.7,0.4
			s-0.3,0.6-0.3,1h1.8v-0.1c0-0.4-0.1-0.7-0.2-0.9C98.7,41,98.5,40.9,98.3,40.9z"/>
		<path class="st0" d="M102.8,41.1h-0.4c-0.2,0-0.4,0.1-0.5,0.2s-0.2,0.3-0.3,0.5v3.6h-1v-5.1h0.9l0.1,0.8c0.1-0.3,0.3-0.5,0.4-0.6
			c0.2-0.1,0.4-0.2,0.6-0.2c0.1,0,0.1,0,0.2,0s0.1,0,0.1,0L102.8,41.1z"/>
		<path class="st0" d="M104.4,39h-1v-0.9h1V39z M104.4,45.4h-1v-5.1h1V45.4z"/>
		<path class="st0" d="M105.1,42.8c0-0.8,0.2-1.4,0.5-1.9c0.4-0.5,0.8-0.7,1.5-0.7s1.1,0.2,1.5,0.7s0.5,1.1,0.5,1.9v0.1
			c0,0.8-0.2,1.4-0.5,1.9c-0.4,0.5-0.8,0.7-1.5,0.7c-0.6,0-1.1-0.2-1.5-0.7S105.1,43.7,105.1,42.8L105.1,42.8z M106.1,42.9
			c0,0.5,0.1,1,0.3,1.3c0.2,0.3,0.4,0.5,0.8,0.5c0.3,0,0.6-0.2,0.8-0.5c0.2-0.3,0.3-0.8,0.3-1.3v-0.1c0-0.5-0.1-1-0.3-1.3
			c-0.2-0.3-0.4-0.5-0.8-0.5s-0.6,0.2-0.8,0.5C106.2,41.8,106.1,42.3,106.1,42.9L106.1,42.9z"/>
		<path class="st0" d="M111.5,42.9c0-0.8,0.1-1.5,0.4-2s0.7-0.7,1.3-0.7c0.2,0,0.5,0.1,0.6,0.2c0.2,0.1,0.4,0.3,0.5,0.5v-2.8h1v7.3
			h-0.8l-0.1-0.6c-0.1,0.2-0.3,0.4-0.5,0.5s-0.4,0.2-0.7,0.2c-0.5,0-1-0.2-1.2-0.7C111.7,44.3,111.5,43.7,111.5,42.9L111.5,42.9z
			 M112.5,43c0,0.5,0.1,1,0.2,1.3c0.2,0.3,0.4,0.5,0.7,0.5c0.2,0,0.4-0.1,0.5-0.2c0.1-0.1,0.3-0.3,0.4-0.5v-2.5
			c-0.1-0.2-0.2-0.4-0.4-0.5c-0.1-0.1-0.3-0.2-0.5-0.2c-0.3,0-0.6,0.2-0.7,0.5C112.5,41.8,112.5,42.3,112.5,43L112.5,43z"/>
		<path class="st0" d="M118,45.5c-0.6,0-1.1-0.2-1.5-0.7S116,43.7,116,43v-0.3c0-0.7,0.2-1.4,0.5-1.8c0.4-0.5,0.8-0.7,1.4-0.7
			s1,0.2,1.3,0.6s0.5,1,0.5,1.7V43h-2.8c0,0.5,0.1,0.9,0.3,1.3c0.2,0.3,0.5,0.5,0.9,0.5c0.3,0,0.5,0,0.7-0.1s0.4-0.2,0.5-0.4
			l0.3,0.6c-0.2,0.2-0.4,0.3-0.7,0.4C118.7,45.4,118.4,45.5,118,45.5z M117.9,40.9c-0.3,0-0.5,0.1-0.7,0.4s-0.3,0.6-0.3,1h1.8v-0.1
			c0-0.4-0.1-0.7-0.2-0.9C118.4,41,118.2,40.9,117.9,40.9z"/>
		<path class="st0" d="M125.4,43.6c0-0.3-0.1-0.6-0.3-0.8c-0.2-0.2-0.5-0.4-0.9-0.6c-0.6-0.2-1.1-0.5-1.5-0.8s-0.5-0.7-0.5-1.3
			c0-0.5,0.2-1,0.6-1.3s0.9-0.5,1.5-0.5s1.1,0.2,1.5,0.6s0.6,0.9,0.6,1.5l0,0h-0.9c0-0.4-0.1-0.7-0.3-1c-0.2-0.2-0.5-0.4-0.8-0.4
			s-0.6,0.1-0.8,0.3c-0.2,0.2-0.3,0.5-0.3,0.8s0.1,0.5,0.3,0.7c0.2,0.2,0.5,0.4,1,0.5c0.6,0.2,1.1,0.5,1.4,0.8
			c0.3,0.3,0.5,0.8,0.5,1.3c0,0.6-0.2,1-0.6,1.3c-0.4,0.3-0.9,0.5-1.5,0.5s-1.1-0.2-1.6-0.5c-0.4-0.4-0.7-0.9-0.6-1.5l0,0h0.9
			c0,0.5,0.1,0.8,0.4,1c0.2,0.2,0.5,0.3,0.9,0.3s0.6-0.1,0.8-0.3C125.3,44.3,125.4,44,125.4,43.6z"/>
		<path class="st0" d="M129.7,45.4c0-0.2-0.1-0.3-0.1-0.4c0-0.1,0-0.2,0-0.4c-0.1,0.3-0.3,0.5-0.5,0.6c-0.2,0.2-0.5,0.2-0.8,0.2
			c-0.5,0-0.8-0.1-1-0.4s-0.4-0.6-0.4-1.1s0.2-0.9,0.5-1.1c0.3-0.3,0.8-0.4,1.4-0.4h0.8v-0.5c0-0.3-0.1-0.6-0.2-0.7
			c-0.1-0.2-0.3-0.3-0.6-0.3c-0.2,0-0.4,0.1-0.6,0.2c-0.1,0.1-0.2,0.3-0.2,0.6h-0.9l0,0c0-0.4,0.1-0.7,0.5-1
			c0.3-0.3,0.8-0.5,1.3-0.5s0.9,0.1,1.2,0.4s0.5,0.7,0.5,1.3v2.4c0,0.2,0,0.4,0,0.6c0,0.2,0.1,0.4,0.1,0.5L129.7,45.4L129.7,45.4z
			 M128.5,44.7c0.3,0,0.5-0.1,0.7-0.2c0.2-0.2,0.3-0.4,0.4-0.6V43h-0.8c-0.3,0-0.5,0.1-0.7,0.3s-0.2,0.4-0.2,0.7
			c0,0.2,0.1,0.4,0.2,0.6C128.1,44.7,128.3,44.7,128.5,44.7z"/>
		<path class="st0" d="M132.4,45.4h-1v-7.3h1V45.4z"/>
		<path class="st0" d="M136.1,44.6c-0.1,0.3-0.3,0.5-0.5,0.6s-0.5,0.2-0.7,0.2c-0.5,0-0.8-0.2-1.1-0.5c-0.3-0.4-0.4-0.9-0.4-1.7v-3
			h1v3c0,0.5,0.1,0.9,0.2,1.1c0.1,0.2,0.3,0.3,0.6,0.3c0.2,0,0.4-0.1,0.6-0.2c0.2-0.1,0.3-0.3,0.4-0.5v-3.8h1v5.1h-0.8L136.1,44.6z"
			/>
		<path class="st0" d="M137.7,42.9c0-0.8,0.1-1.5,0.4-2s0.7-0.7,1.3-0.7c0.2,0,0.5,0.1,0.6,0.2c0.2,0.1,0.4,0.3,0.5,0.5v-2.8h1v7.3
			h-0.8l-0.1-0.6c-0.1,0.2-0.3,0.4-0.5,0.5s-0.4,0.2-0.7,0.2c-0.5,0-1-0.2-1.2-0.7C137.8,44.3,137.7,43.7,137.7,42.9L137.7,42.9z
			 M138.6,43c0,0.5,0.1,1,0.2,1.3c0.2,0.3,0.4,0.5,0.7,0.5c0.2,0,0.4-0.1,0.5-0.2c0.1-0.1,0.3-0.3,0.4-0.5v-2.5
			c-0.1-0.2-0.2-0.4-0.4-0.5c-0.1-0.1-0.3-0.2-0.5-0.2c-0.3,0-0.6,0.2-0.7,0.5C138.7,41.8,138.6,42.3,138.6,43L138.6,43z"/>
	</g>
	<g>
		<path class="st0" d="M58.2,15.2c-0.1,1.2-0.4,2.1-1,2.7s-1.5,0.9-2.6,0.9c-1.2,0-2.1-0.4-2.7-1.2c-0.6-0.8-0.9-1.9-0.9-3.3v-1.7
			c0-1.4,0.3-2.5,1-3.3c0.6-0.8,1.5-1.2,2.7-1.2c1.1,0,2,0.3,2.6,0.9s0.9,1.5,1,2.7h-2.1c0-0.7-0.1-1.2-0.3-1.5s-0.6-0.4-1.1-0.4
			c-0.6,0-1,0.2-1.2,0.6s-0.4,1-0.4,1.9v2c0,1,0.1,1.7,0.3,2.1s0.6,0.6,1.2,0.6c0.6,0,0.9-0.1,1.1-0.4c0.2-0.3,0.3-0.8,0.4-1.5h2
			V15.2z"/>
		<path class="st0" d="M66.6,14.4c0,1.4-0.3,2.5-1,3.2c-0.7,0.8-1.6,1.2-2.7,1.2c-1.2,0-2.1-0.4-2.7-1.1c-0.7-0.8-1-1.8-1-3.2v-1.8
			c0-1.4,0.3-2.5,1-3.3s1.6-1.2,2.8-1.2s2.1,0.4,2.7,1.2c0.7,0.8,1,1.9,1,3.3L66.6,14.4L66.6,14.4z M64.5,12.7
			c0-0.9-0.1-1.6-0.4-2.1s-0.7-0.7-1.2-0.7c-0.6,0-1,0.2-1.2,0.7c-0.3,0.4-0.4,1.1-0.4,2v1.8c0,0.9,0.1,1.6,0.4,2S62.4,17,63,17
			c0.5,0,1-0.2,1.2-0.6c0.3-0.4,0.4-1.1,0.4-2v-1.7H64.5z"/>
		<path class="st0" d="M75.1,18.7H73l-3-6.8v6.8h-2.1V8.3H70l3.1,6.8V8.3h2.1L75.1,18.7L75.1,18.7z"/>
		<path class="st0" d="M83.3,10h-2.6v8.6h-2.1V10h-2.5V8.3h7.2V10z"/>
		<path class="st0" d="M86.5,18.7h-2.1V8.3h2.1V18.7z"/>
		<path class="st0" d="M93.4,14.2h-3.3V17H94v1.7h-6V8.3h6V10h-3.8v2.5h3.3L93.4,14.2L93.4,14.2z"/>
		<path class="st0" d="M102.2,18.7h-2.1L97,11.9v6.8h-2V8.3h2.1l3.1,6.8V8.3h2.1L102.2,18.7L102.2,18.7z"/>
		<path class="st0" d="M109.1,14.2h-3.3V17h3.9v1.7h-6V8.3h5.9V10h-3.8v2.5h3.3V14.2z"/>
		<path class="st0" d="M120.8,15.2c-0.1,1.2-0.4,2.1-1,2.7s-1.5,0.9-2.6,0.9c-1.2,0-2.1-0.4-2.7-1.2c-0.6-0.8-0.9-1.9-0.9-3.3v-1.7
			c0-1.4,0.3-2.5,1-3.3c0.6-0.8,1.5-1.2,2.7-1.2c1.1,0,2,0.3,2.6,0.9s0.9,1.5,1,2.7h-2.1c0-0.7-0.1-1.2-0.3-1.5
			c-0.2-0.3-0.6-0.4-1.1-0.4c-0.6,0-1,0.2-1.2,0.6s-0.4,1-0.4,1.9v2c0,1,0.1,1.7,0.3,2.1c0.2,0.4,0.6,0.6,1.2,0.6s0.9-0.1,1.1-0.4
			s0.3-0.8,0.4-1.5h2V15.2z"/>
		<path class="st0" d="M126.9,16.5H124l-0.6,2.1h-2.2l3.2-10.4h1.9l3.3,10.4h-2.2L126.9,16.5z M124.5,14.8h1.9l-1-3.7L124.5,14.8z"
			/>
		<path class="st0" d="M135.8,14.4h-3.3v4.2h-2.1V8.3h5.7V10h-3.6v2.7h3.3L135.8,14.4L135.8,14.4z"/>
		<path class="st0" d="M142.5,14.2h-3.3V17h3.9v1.7h-6V8.3h5.9V10h-3.8v2.5h3.3L142.5,14.2L142.5,14.2z"/>
		<path class="st0" d="M146.3,18.7h-2.1V8.3h2.1V18.7z M145.6,5.5h2.3l-2,2.2h-1.7L145.6,5.5z"/>
		<path class="st0" d="M155.1,18.7H153l-3.1-6.8v6.8h-2.1V8.3h2.1l3.1,6.8V8.3h2.1V18.7z"/>
		<path class="st0" d="M161.5,16.5h-2.9l-0.6,2.1h-2.2L159,8.2h1.9l3.3,10.4H162L161.5,16.5z M159.1,14.8h1.9l-1-3.7L159.1,14.8z"/>
		<path class="st0" d="M165.1,17.6c0-0.3,0.1-0.6,0.3-0.8c0.2-0.2,0.5-0.3,0.8-0.3s0.6,0.1,0.8,0.3c0.2,0.2,0.3,0.5,0.3,0.8
			s-0.1,0.6-0.3,0.8c-0.2,0.2-0.5,0.3-0.8,0.3s-0.6-0.1-0.8-0.3C165.2,18.2,165.1,18,165.1,17.6z"/>
	</g>
	<g>
		<path class="st0" d="M51.7,29.4h-3.3v2.8h3.9v1.7h-6V23.5h5.9v1.7h-3.8v2.5h3.3C51.7,27.7,51.7,29.4,51.7,29.4z"/>
		<path class="st0" d="M56.7,31l1.7-7.5h2.3l-3,10.4h-2.2l-3-10.4h2.3L56.7,31z"/>
		<path class="st0" d="M63.7,33.8h-2.1V23.4h2.1V33.8z"/>
		<path class="st0" d="M72,25.2h-2.6v8.6h-2.1v-8.6h-2.5v-1.7H72V25.2z"/>
		<path class="st0" d="M77.9,31.7H75l-0.6,2.1h-2.2l3.2-10.4h1.9l3.3,10.4h-2.2L77.9,31.7z M75.5,30h1.9l-1-3.7L75.5,30z"/>
		<path class="st0" d="M84.6,30.1h-1v3.8h-2.1V23.5h3.3c1.1,0,1.9,0.3,2.4,0.8c0.6,0.5,0.9,1.3,0.9,2.3c0,1.4-0.5,2.3-1.5,2.9
			l1.8,4.2v0.1h-2.3L84.6,30.1z M83.6,28.3h1.2c0.4,0,0.7-0.1,0.9-0.4c0.2-0.3,0.3-0.7,0.3-1.1c0-1-0.4-1.6-1.2-1.6h-1.2
			C83.6,25.2,83.6,28.3,83.6,28.3z"/>
		<path class="st0" d="M97.9,29.4h-3.3v2.8h3.9v1.7h-6V23.5h5.9v1.7h-3.8v2.5h3.3V29.4z"/>
		<path class="st0" d="M106.7,33.8h-2.1l-3.1-6.8v6.8h-2.1V23.4h2.1l3.1,6.8v-6.8h2.1V33.8z"/>
		<path class="st0" d="M118.6,33.8h-2.1l-3.1-6.8v6.8h-2.1V23.4h2.1l3.1,6.8v-6.8h2.1V33.8z"/>
		<path class="st0" d="M122.2,33.8h-2.1V23.4h2.1V33.8z"/>
		<path class="st0" d="M131,33.8h-2.1l-3.1-6.8v6.8h-2.1V23.4h2.1l3.1,6.8v-6.8h2.1V33.8z M129.7,20.8c0,0.5-0.1,1-0.4,1.3
			c-0.3,0.4-0.6,0.6-1,0.6c-0.2,0-0.3,0-0.4-0.1c-0.1,0-0.3-0.1-0.5-0.3c-0.2-0.1-0.4-0.2-0.4-0.2c-0.1,0-0.2,0-0.3,0
			s-0.2,0.1-0.3,0.2s-0.1,0.3-0.1,0.5l-1.1-0.1c0-0.5,0.1-1,0.4-1.4s0.6-0.6,1-0.6c0.1,0,0.2,0,0.3,0s0.3,0.1,0.5,0.2
			s0.4,0.2,0.5,0.3s0.2,0.1,0.3,0.1s0.2-0.1,0.3-0.2s0.1-0.3,0.1-0.5L129.7,20.8z"/>
		<path class="st0" d="M139.8,29.6c0,1.4-0.3,2.5-1,3.2c-0.7,0.8-1.6,1.2-2.7,1.2c-1.2,0-2.1-0.4-2.7-1.1c-0.7-0.8-1-1.8-1-3.2v-1.8
			c0-1.4,0.3-2.5,1-3.3s1.6-1.2,2.8-1.2s2.1,0.4,2.7,1.2c0.7,0.8,1,1.9,1,3.3v1.7H139.8z M137.7,27.9c0-0.9-0.1-1.6-0.4-2.1
			c-0.3-0.5-0.7-0.7-1.2-0.7c-0.6,0-1,0.2-1.2,0.7c-0.3,0.4-0.4,1.1-0.4,2v1.8c0,0.9,0.1,1.6,0.4,2c0.3,0.4,0.7,0.6,1.3,0.6
			c0.5,0,1-0.2,1.2-0.6c0.3-0.4,0.4-1.1,0.4-2v-1.7H137.7z"/>
		<path class="st0" d="M145.5,31.1c0-0.4-0.1-0.7-0.3-1c-0.2-0.2-0.6-0.4-1.2-0.7c-1-0.4-1.8-0.9-2.2-1.4c-0.5-0.5-0.7-1.2-0.7-1.9
			c0-0.9,0.3-1.6,0.9-2.1c0.6-0.5,1.4-0.8,2.4-0.8c0.6,0,1.2,0.1,1.7,0.4s0.9,0.6,1.2,1.1s0.4,1,0.4,1.7h-2.1c0-0.5-0.1-0.9-0.3-1.1
			c-0.2-0.3-0.5-0.4-0.9-0.4s-0.7,0.1-0.9,0.3c-0.2,0.2-0.3,0.5-0.3,0.9c0,0.3,0.1,0.5,0.3,0.8c0.2,0.2,0.6,0.5,1.2,0.7
			c1,0.4,1.7,0.8,2.2,1.3s0.7,1.2,0.7,2c0,0.9-0.3,1.6-0.9,2.1c-0.6,0.5-1.4,0.8-2.3,0.8c-0.7,0-1.3-0.1-1.8-0.4
			c-0.6-0.3-1-0.7-1.3-1.2s-0.5-1.1-0.5-1.8h2.1c0,0.6,0.1,1,0.3,1.3s0.6,0.4,1.1,0.4C145.1,32.3,145.5,31.9,145.5,31.1z"/>
		<path class="st0" d="M149.4,34.7h-1.5l3.1-11.3h1.5L149.4,34.7z"/>
		<path class="st0" d="M158.4,31.7h-2.9l-0.6,2.1h-2.2l3.2-10.4h1.9l3.3,10.4h-2.2L158.4,31.7z M156,30h1.9l-1-3.7L156,30z"/>
		<path class="st0" d="M166.3,31.1c0-0.4-0.1-0.7-0.3-1c-0.2-0.2-0.6-0.4-1.2-0.7c-1-0.4-1.8-0.9-2.2-1.4c-0.5-0.5-0.7-1.2-0.7-1.9
			c0-0.9,0.3-1.6,0.9-2.1c0.6-0.5,1.4-0.8,2.4-0.8c0.6,0,1.2,0.1,1.7,0.4s0.9,0.6,1.2,1.1s0.4,1,0.4,1.7h-2.1c0-0.5-0.1-0.9-0.3-1.1
			c-0.2-0.3-0.5-0.4-0.9-0.4s-0.7,0.1-0.9,0.3c-0.2,0.2-0.3,0.5-0.3,0.9c0,0.3,0.1,0.5,0.3,0.8c0.2,0.2,0.6,0.5,1.2,0.7
			c1,0.4,1.7,0.8,2.2,1.3s0.7,1.2,0.7,2c0,0.9-0.3,1.6-0.9,2.1c-0.6,0.5-1.4,0.8-2.3,0.8c-0.7,0-1.3-0.1-1.8-0.4
			c-0.6-0.3-1-0.7-1.3-1.2s-0.5-1.1-0.5-1.8h2.1c0,0.6,0.1,1,0.3,1.3s0.6,0.4,1.1,0.4C165.9,32.3,166.3,31.9,166.3,31.1z"/>
		<path class="st0" d="M169.6,32.8c0-0.3,0.1-0.6,0.3-0.8c0.2-0.2,0.5-0.3,0.8-0.3s0.6,0.1,0.8,0.3c0.2,0.2,0.3,0.5,0.3,0.8
			s-0.1,0.6-0.3,0.8c-0.2,0.2-0.5,0.3-0.8,0.3s-0.6-0.1-0.8-0.3C169.7,33.4,169.6,33.2,169.6,32.8z"/>
	</g>
</g>
</svg>
