<?xml version="1.0" encoding="utf-8"?>
<!-- Generator: Adobe Illustrator 24.3.0, SVG Export Plug-In . SVG Version: 6.00 Build 0)  -->
<svg version="1.1" id="Layer_1" xmlns="http://www.w3.org/2000/svg" xmlns:xlink="http://www.w3.org/1999/xlink" x="0px" y="0px"
	 width="214px" height="53.5px" viewBox="0 0 214 53.5" style="enable-background:new 0 0 214 53.5;" xml:space="preserve">
<style type="text/css">
	.st0{fill:#FFFFFF;}
	.st1{fill:#1D1D1B;}
</style>
<g>
	<g>
		<rect x="0.6" y="0.6" class="st0" width="212.9" height="52.4"/>
		<path class="st1" d="M212.9,52.4H1.1V1.2h211.7L212.9,52.4L212.9,52.4z M214,0H0v53.5h214V0z"/>
		<rect x="5.6" y="5.7" class="st1" width="202.7" height="42.2"/>
	</g>
	<g>
		<path class="st0" d="M77.7,44.2L77.7,44.2l1.7-5.6h1.2v6.8h-0.9v-4.9l0,0l-1.6,4.9h-0.7l-1.6-5l0,0v5h-0.9v-6.8H76L77.7,44.2z"/>
		<path class="st0" d="M82.5,39.1h-1v-0.9h1V39.1z M82.5,45.5h-1v-5.1h1V45.5z"/>
		<path class="st0" d="M84.3,40.4l0.1,0.8c0.1-0.3,0.3-0.5,0.5-0.6s0.5-0.2,0.7-0.2c0.5,0,0.8,0.2,1.1,0.5c0.3,0.3,0.4,0.8,0.4,1.5
			v3.1h-1v-3.1c0-0.5-0.1-0.8-0.2-1s-0.3-0.3-0.6-0.3c-0.2,0-0.4,0.1-0.6,0.2s-0.3,0.3-0.4,0.5v3.8h-1v-5.1h1V40.4z"/>
		<path class="st0" d="M88.9,39.1h-1v-0.9h1V39.1z M88.9,45.5h-1v-5.1h1V45.5z"/>
		<path class="st0" d="M92.3,44.2c0-0.2-0.1-0.4-0.2-0.5s-0.4-0.3-0.8-0.4c-0.5-0.2-0.9-0.4-1.2-0.6c-0.3-0.2-0.4-0.5-0.4-0.9
			s0.2-0.7,0.5-1s0.7-0.4,1.2-0.4s0.9,0.2,1.3,0.5c0.3,0.3,0.5,0.7,0.5,1.1l0,0h-0.9c0-0.2-0.1-0.4-0.2-0.6s-0.3-0.3-0.6-0.3
			s-0.4,0.1-0.6,0.2c-0.1,0.1-0.2,0.3-0.2,0.5s0.1,0.3,0.2,0.5c0.1,0.1,0.4,0.3,0.8,0.4c0.5,0.2,0.9,0.4,1.2,0.7
			c0.3,0.2,0.4,0.6,0.4,0.9c0,0.4-0.2,0.8-0.5,1c-0.3,0.3-0.7,0.4-1.3,0.4c-0.6,0-1-0.2-1.3-0.5s-0.5-0.7-0.5-1.1l0,0h0.9
			c0,0.3,0.1,0.6,0.3,0.7c0.2,0.1,0.4,0.2,0.7,0.2c0.3,0,0.5-0.1,0.6-0.2C92.2,44.6,92.3,44.4,92.3,44.2z"/>
		<path class="st0" d="M95.1,39.1v1.3h0.8v0.7h-0.8v3c0,0.3,0,0.5,0.1,0.6s0.2,0.2,0.3,0.2c0.1,0,0.1,0,0.2,0c0,0,0.1,0,0.2,0
			l0.1,0.7c-0.1,0-0.2,0.1-0.3,0.1c-0.1,0-0.2,0-0.3,0c-0.4,0-0.7-0.1-0.9-0.4c-0.2-0.2-0.3-0.6-0.3-1.1v-3h-0.7v-0.7h0.7v-1.3h0.9
			V39.1z"/>
		<path class="st0" d="M98.3,45.6c-0.6,0-1.1-0.2-1.5-0.7s-0.5-1.1-0.5-1.8v-0.3c0-0.7,0.2-1.4,0.5-1.8c0.4-0.5,0.8-0.7,1.4-0.7
			s1,0.2,1.3,0.6s0.5,1,0.5,1.7v0.5h-2.8c0,0.5,0.1,0.9,0.3,1.3c0.2,0.3,0.5,0.5,0.9,0.5c0.3,0,0.5,0,0.7-0.1
			c0.2-0.1,0.4-0.2,0.5-0.4l0.3,0.6c-0.2,0.2-0.4,0.3-0.7,0.4C99,45.5,98.7,45.6,98.3,45.6z M98.3,41c-0.3,0-0.5,0.1-0.7,0.4
			s-0.3,0.6-0.3,1h1.8v-0.1c0-0.4-0.1-0.7-0.2-0.9C98.7,41.1,98.5,41,98.3,41z"/>
		<path class="st0" d="M102.8,41.2h-0.4c-0.2,0-0.4,0.1-0.5,0.2s-0.2,0.3-0.3,0.5v3.6h-1v-5.1h0.9l0.1,0.8c0.1-0.3,0.3-0.5,0.4-0.6
			c0.2-0.1,0.4-0.2,0.6-0.2c0.1,0,0.1,0,0.2,0s0.1,0,0.1,0L102.8,41.2z"/>
		<path class="st0" d="M104.4,39.1h-1v-0.9h1V39.1z M104.4,45.5h-1v-5.1h1V45.5z"/>
		<path class="st0" d="M105.1,42.9c0-0.8,0.2-1.4,0.5-1.9c0.4-0.5,0.8-0.7,1.5-0.7s1.1,0.2,1.5,0.7s0.5,1.1,0.5,1.9V43
			c0,0.8-0.2,1.4-0.5,1.9c-0.4,0.5-0.8,0.7-1.5,0.7c-0.6,0-1.1-0.2-1.5-0.7S105.1,43.8,105.1,42.9L105.1,42.9z M106.1,43
			c0,0.5,0.1,1,0.3,1.3s0.4,0.5,0.8,0.5c0.3,0,0.6-0.2,0.8-0.5c0.2-0.3,0.3-0.8,0.3-1.3v-0.1c0-0.5-0.1-1-0.3-1.3
			c-0.2-0.3-0.4-0.5-0.8-0.5s-0.6,0.2-0.8,0.5C106.2,41.9,106.1,42.4,106.1,43L106.1,43z"/>
		<path class="st0" d="M111.5,43c0-0.8,0.1-1.5,0.4-2s0.7-0.7,1.3-0.7c0.2,0,0.5,0.1,0.6,0.2c0.2,0.1,0.4,0.3,0.5,0.5v-2.8h1v7.3
			h-0.8l-0.1-0.6c-0.1,0.2-0.3,0.4-0.5,0.5s-0.4,0.2-0.7,0.2c-0.5,0-1-0.2-1.2-0.7C111.7,44.4,111.5,43.8,111.5,43L111.5,43z
			 M112.5,43.1c0,0.5,0.1,1,0.2,1.3c0.2,0.3,0.4,0.5,0.7,0.5c0.2,0,0.4-0.1,0.5-0.2c0.1-0.1,0.3-0.3,0.4-0.5v-2.5
			c-0.1-0.2-0.2-0.4-0.4-0.5c-0.1-0.1-0.3-0.2-0.5-0.2c-0.3,0-0.6,0.2-0.7,0.5C112.5,41.9,112.5,42.4,112.5,43.1L112.5,43.1z"/>
		<path class="st0" d="M118,45.6c-0.6,0-1.1-0.2-1.5-0.7s-0.5-1.1-0.5-1.8v-0.3c0-0.7,0.2-1.4,0.5-1.8c0.4-0.5,0.8-0.7,1.4-0.7
			s1,0.2,1.3,0.6s0.5,1,0.5,1.7v0.5h-2.8c0,0.5,0.1,0.9,0.3,1.3c0.2,0.3,0.5,0.5,0.9,0.5c0.3,0,0.5,0,0.7-0.1
			c0.2-0.1,0.4-0.2,0.5-0.4l0.3,0.6c-0.2,0.2-0.4,0.3-0.7,0.4C118.7,45.5,118.4,45.6,118,45.6z M117.9,41c-0.3,0-0.5,0.1-0.7,0.4
			s-0.3,0.6-0.3,1h1.8v-0.1c0-0.4-0.1-0.7-0.2-0.9C118.4,41.1,118.2,41,117.9,41z"/>
		<path class="st0" d="M125.4,43.7c0-0.3-0.1-0.6-0.3-0.8c-0.2-0.2-0.5-0.4-0.9-0.6c-0.6-0.2-1.1-0.5-1.5-0.8s-0.5-0.7-0.5-1.3
			c0-0.5,0.2-1,0.6-1.3s0.9-0.5,1.5-0.5s1.1,0.2,1.5,0.6s0.6,0.9,0.6,1.5l0,0h-0.9c0-0.4-0.1-0.7-0.3-1c-0.2-0.2-0.5-0.4-0.8-0.4
			s-0.6,0.1-0.8,0.3c-0.2,0.2-0.3,0.5-0.3,0.8s0.1,0.5,0.3,0.7c0.2,0.2,0.5,0.4,1,0.5c0.6,0.2,1.1,0.5,1.4,0.8
			c0.3,0.3,0.5,0.8,0.5,1.3c0,0.6-0.2,1-0.6,1.3c-0.4,0.3-0.9,0.5-1.5,0.5s-1.1-0.2-1.6-0.5c-0.4-0.4-0.7-0.9-0.6-1.5l0,0h0.9
			c0,0.5,0.1,0.8,0.4,1c0.2,0.2,0.5,0.3,0.9,0.3s0.6-0.1,0.8-0.3C125.3,44.4,125.4,44.1,125.4,43.7z"/>
		<path class="st0" d="M129.7,45.5c0-0.2-0.1-0.3-0.1-0.4c0-0.1,0-0.2,0-0.4c-0.1,0.3-0.3,0.5-0.5,0.6c-0.2,0.2-0.5,0.2-0.8,0.2
			c-0.5,0-0.8-0.1-1-0.4s-0.4-0.6-0.4-1.1s0.2-0.9,0.5-1.1c0.3-0.3,0.8-0.4,1.4-0.4h0.8V42c0-0.3-0.1-0.6-0.2-0.7
			c-0.1-0.2-0.3-0.3-0.6-0.3c-0.2,0-0.4,0.1-0.6,0.2c-0.1,0.1-0.2,0.3-0.2,0.6h-0.9l0,0c0-0.4,0.1-0.7,0.5-1
			c0.3-0.3,0.8-0.5,1.3-0.5s0.9,0.1,1.2,0.4s0.5,0.7,0.5,1.3v2.4c0,0.2,0,0.4,0,0.6c0,0.2,0.1,0.4,0.1,0.5L129.7,45.5L129.7,45.5z
			 M128.5,44.8c0.3,0,0.5-0.1,0.7-0.2c0.2-0.2,0.3-0.4,0.4-0.6v-0.9h-0.8c-0.3,0-0.5,0.1-0.7,0.3s-0.2,0.4-0.2,0.7
			c0,0.2,0.1,0.4,0.2,0.6C128.1,44.8,128.3,44.8,128.5,44.8z"/>
		<path class="st0" d="M132.4,45.5h-1v-7.3h1V45.5z"/>
		<path class="st0" d="M136.1,44.7c-0.1,0.3-0.3,0.5-0.5,0.6s-0.5,0.2-0.7,0.2c-0.5,0-0.8-0.2-1.1-0.5c-0.3-0.4-0.4-0.9-0.4-1.7v-3
			h1v3c0,0.5,0.1,0.9,0.2,1.1c0.1,0.2,0.3,0.3,0.6,0.3c0.2,0,0.4-0.1,0.6-0.2c0.2-0.1,0.3-0.3,0.4-0.5v-3.8h1v5.1h-0.8L136.1,44.7z"
			/>
		<path class="st0" d="M137.7,43c0-0.8,0.1-1.5,0.4-2c0.3-0.5,0.7-0.7,1.3-0.7c0.2,0,0.5,0.1,0.6,0.2c0.2,0.1,0.4,0.3,0.5,0.5v-2.8
			h1v7.3h-0.8l-0.1-0.6c-0.1,0.2-0.3,0.4-0.5,0.5s-0.4,0.2-0.7,0.2c-0.5,0-1-0.2-1.2-0.7C137.8,44.4,137.7,43.8,137.7,43L137.7,43z
			 M138.6,43.1c0,0.5,0.1,1,0.2,1.3c0.2,0.3,0.4,0.5,0.7,0.5c0.2,0,0.4-0.1,0.5-0.2c0.1-0.1,0.3-0.3,0.4-0.5v-2.5
			c-0.1-0.2-0.2-0.4-0.4-0.5c-0.1-0.1-0.3-0.2-0.5-0.2c-0.3,0-0.6,0.2-0.7,0.5C138.7,41.9,138.6,42.4,138.6,43.1L138.6,43.1z"/>
	</g>
	<g>
		<path class="st0" d="M36.8,15.3c-0.1,1.2-0.4,2.1-1,2.7s-1.5,0.9-2.6,0.9c-1.2,0-2.1-0.4-2.7-1.2c-0.6-0.8-0.9-1.9-0.9-3.3v-1.7
			c0-1.4,0.3-2.5,1-3.3c0.6-0.8,1.5-1.2,2.7-1.2c1.1,0,2,0.3,2.6,0.9s0.9,1.5,1,2.7h-2.1c0-0.7-0.1-1.2-0.3-1.5s-0.6-0.4-1.1-0.4
			c-0.6,0-1,0.2-1.2,0.6s-0.4,1-0.4,1.9v2c0,1,0.1,1.7,0.3,2.1s0.6,0.6,1.2,0.6c0.6,0,0.9-0.1,1.1-0.4c0.2-0.3,0.3-0.8,0.4-1.5h2
			V15.3z"/>
		<path class="st0" d="M45.2,14.5c0,1.4-0.3,2.5-1,3.2c-0.7,0.8-1.6,1.2-2.7,1.2c-1.2,0-2.1-0.4-2.7-1.1c-0.7-0.8-1-1.8-1-3.2v-1.8
			c0-1.4,0.3-2.5,1-3.3s1.6-1.2,2.8-1.2s2.1,0.4,2.7,1.2c0.7,0.8,1,1.9,1,3.3L45.2,14.5L45.2,14.5z M43.1,12.8
			c0-0.9-0.1-1.6-0.4-2.1C42.4,10.2,42,10,41.5,10c-0.6,0-1,0.2-1.2,0.7c-0.3,0.4-0.4,1.1-0.4,2v1.8c0,0.9,0.1,1.6,0.4,2
			c0.3,0.4,0.7,0.6,1.3,0.6c0.5,0,1-0.2,1.2-0.6c0.3-0.4,0.4-1.1,0.4-2L43.1,12.8L43.1,12.8z"/>
		<path class="st0" d="M53.7,18.8h-2.1L48.5,12v6.8h-2.1V8.4h2.1l3.1,6.8V8.4h2.1V18.8z"/>
		<path class="st0" d="M61.9,10.1h-2.6v8.6h-2.1v-8.6h-2.5V8.4h7.2V10.1z"/>
		<path class="st0" d="M65.1,18.8H63V8.4h2.1V18.8z"/>
		<path class="st0" d="M72,14.3h-3.3v2.8h3.9v1.7h-6V8.4h5.9v1.7h-3.8v2.5H72V14.3z"/>
		<path class="st0" d="M80.9,18.8h-2.1L75.7,12v6.8h-2.1V8.4h2.1l3.1,6.8V8.4h2.1V18.8z"/>
		<path class="st0" d="M87.7,14.3h-3.3v2.8h3.9v1.7h-6V8.4h5.9v1.7h-3.8v2.5h3.3V14.3z"/>
		<path class="st0" d="M97.8,14.3h-3.3v2.8h3.9v1.7h-6V8.4h5.9v1.7h-3.8v2.5h3.3V14.3z"/>
		<path class="st0" d="M99.4,18.8V8.4h2.7c1.2,0,2.2,0.4,2.9,1.2c0.7,0.8,1.1,1.8,1.1,3.2v1.7c0,1.4-0.4,2.4-1.1,3.2
			c-0.7,0.8-1.7,1.2-3,1.2L99.4,18.8L99.4,18.8z M101.5,10.1V17h0.6c0.7,0,1.2-0.2,1.5-0.6s0.4-1,0.4-1.9v-1.7c0-1-0.1-1.6-0.4-2
			s-0.7-0.6-1.4-0.6L101.5,10.1L101.5,10.1z"/>
		<path class="st0" d="M114.2,8.4v7.2c0,1.1-0.3,1.9-0.9,2.5s-1.4,0.9-2.5,0.9s-2-0.3-2.5-0.9c-0.6-0.6-0.9-1.4-0.9-2.5V8.5h2.1v7.1
			c0,0.6,0.1,1,0.3,1.3c0.2,0.3,0.5,0.4,1,0.4s0.8-0.1,1-0.4c0.2-0.2,0.3-0.7,0.3-1.2V8.5h2.1V8.4z"/>
		<path class="st0" d="M117.6,17h3.7v1.7h-5.8V8.4h2.1C117.6,8.4,117.6,17,117.6,17z"/>
		<path class="st0" d="M129.3,15.3c-0.1,1.2-0.4,2.1-1,2.7s-1.5,0.9-2.6,0.9c-1.2,0-2.1-0.4-2.7-1.2c-0.6-0.8-0.9-1.9-0.9-3.3v-1.7
			c0-1.4,0.3-2.5,1-3.3c0.6-0.8,1.5-1.2,2.7-1.2c1.1,0,2,0.3,2.6,0.9s0.9,1.5,1,2.7h-2.1c0-0.7-0.1-1.2-0.3-1.5s-0.6-0.4-1.1-0.4
			c-0.6,0-1,0.2-1.2,0.6s-0.4,1-0.4,1.9v2c0,1,0.1,1.7,0.3,2.1c0.2,0.4,0.6,0.6,1.2,0.6s0.9-0.1,1.1-0.4c0.2-0.3,0.3-0.8,0.4-1.5h2
			V15.3z"/>
		<path class="st0" d="M137.7,14.5c0,1.4-0.3,2.5-1,3.2c-0.7,0.8-1.6,1.2-2.7,1.2c-1.2,0-2.1-0.4-2.7-1.1c-0.7-0.8-1-1.8-1-3.2v-1.8
			c0-1.4,0.3-2.5,1-3.3s1.6-1.2,2.8-1.2s2.1,0.4,2.7,1.2c0.7,0.8,1,1.9,1,3.3v1.7H137.7z M135.6,12.8c0-0.9-0.1-1.6-0.4-2.1
			c-0.3-0.5-0.7-0.7-1.2-0.7c-0.6,0-1,0.2-1.2,0.7c-0.3,0.4-0.4,1.1-0.4,2v1.8c0,0.9,0.1,1.6,0.4,2c0.3,0.4,0.7,0.6,1.3,0.6
			c0.5,0,1-0.2,1.2-0.6c0.3-0.4,0.4-1.1,0.4-2v-1.7H135.6z"/>
		<path class="st0" d="M142.2,15h-1v3.8H139V8.4h3.3c1.1,0,1.9,0.3,2.4,0.8c0.6,0.5,0.9,1.3,0.9,2.3c0,1.4-0.5,2.3-1.5,2.9l1.8,4.2
			v0.1h-2.3L142.2,15z M141.1,13.2h1.2c0.4,0,0.7-0.1,0.9-0.4s0.3-0.7,0.3-1.1c0-1-0.4-1.6-1.2-1.6h-1.2V13.2z"/>
		<path class="st0" d="M151.9,16.6H149l-0.6,2.1h-2.2l3.2-10.4h1.9l3.3,10.4h-2.2L151.9,16.6z M149.4,14.9h1.9l-1-3.7L149.4,14.9z"
			/>
		<path class="st0" d="M162.7,18.8h-2.1l-3.1-6.8v6.8h-2.1V8.4h2.1l3.1,6.8V8.4h2.1V18.8z"/>
		<path class="st0" d="M170.8,10.1h-2.6v8.6h-2.1v-8.6h-2.5V8.4h7.2L170.8,10.1L170.8,10.1z"/>
		<path class="st0" d="M177.2,14.3h-3.3v2.8h3.9v1.7h-6V8.4h5.9v1.7h-3.8v2.5h3.3L177.2,14.3L177.2,14.3z"/>
		<path class="st0" d="M183.2,16c0-0.4-0.1-0.7-0.3-1c-0.2-0.2-0.6-0.4-1.2-0.7c-1-0.4-1.8-0.9-2.2-1.4c-0.5-0.5-0.7-1.2-0.7-1.9
			c0-0.9,0.3-1.6,0.9-2.1c0.6-0.5,1.4-0.8,2.4-0.8c0.6,0,1.2,0.1,1.7,0.4s0.9,0.6,1.2,1.1s0.4,1,0.4,1.7h-2.1c0-0.5-0.1-0.9-0.3-1.1
			c-0.2-0.3-0.5-0.4-0.9-0.4s-0.7,0.1-0.9,0.3c-0.2,0.2-0.3,0.5-0.3,0.9c0,0.3,0.1,0.5,0.3,0.8c0.2,0.2,0.6,0.5,1.2,0.7
			c1,0.4,1.7,0.8,2.2,1.3s0.7,1.2,0.7,2c0,0.9-0.3,1.6-0.9,2.1c-0.6,0.5-1.4,0.8-2.3,0.8c-0.7,0-1.3-0.1-1.8-0.4
			c-0.6-0.3-1-0.7-1.3-1.2s-0.5-1.1-0.5-1.8h2.1c0,0.6,0.1,1,0.3,1.3s0.6,0.4,1.1,0.4C182.8,17.2,183.2,16.8,183.2,16z"/>
		<path class="st0" d="M186.9,21.4l-1.1-0.6l0.3-0.5c0.3-0.6,0.5-1.1,0.5-1.7V17h1.8v1.4c0,0.5-0.1,1-0.4,1.6
			C187.7,20.6,187.4,21,186.9,21.4z"/>
	</g>
	<g>
		<path class="st0" d="M16.6,33.9h-2.1l-3.1-6.8v6.8H9.3V23.5h2.1l3.1,6.8v-6.8h2.1V33.9z"/>
		<path class="st0" d="M25.4,29.7c0,1.4-0.3,2.5-1,3.2c-0.7,0.8-1.6,1.2-2.7,1.2c-1.2,0-2.1-0.4-2.7-1.1c-0.7-0.8-1-1.8-1-3.2V28
			c0-1.4,0.3-2.5,1-3.3s1.6-1.2,2.8-1.2c1.2,0,2.1,0.4,2.7,1.2c0.7,0.8,1,1.9,1,3.3L25.4,29.7L25.4,29.7z M23.3,28
			c0-0.9-0.1-1.6-0.4-2.1s-0.7-0.7-1.2-0.7c-0.6,0-1,0.2-1.2,0.7c-0.3,0.4-0.4,1.1-0.4,2v1.8c0,0.9,0.1,1.6,0.4,2s0.7,0.6,1.3,0.6
			c0.5,0,1-0.2,1.2-0.6c0.3-0.4,0.4-1.1,0.4-2L23.3,28L23.3,28z"/>
		<path class="st0" d="M33,30.2h-1V34h-2.1V23.6h3.3c1.1,0,1.9,0.3,2.4,0.8c0.6,0.5,0.9,1.3,0.9,2.3c0,1.4-0.5,2.3-1.5,2.9l1.8,4.2
			v0.1h-2.3L33,30.2z M31.9,28.4h1.2c0.4,0,0.7-0.1,0.9-0.4s0.3-0.7,0.3-1.1c0-1-0.4-1.6-1.2-1.6h-1.2V28.4z"/>
		<path class="st0" d="M43.1,29.5h-3.3v2.8h3.9V34h-6V23.6h5.9v1.7h-3.8v2.5h3.3C43.1,27.8,43.1,29.5,43.1,29.5z"/>
		<path class="st0" d="M51.7,30.5c-0.1,1.2-0.4,2.1-1,2.7s-1.5,0.9-2.6,0.9c-1.2,0-2.1-0.4-2.7-1.2c-0.6-0.8-0.9-1.9-0.9-3.3v-1.7
			c0-1.4,0.3-2.5,1-3.3c0.6-0.8,1.5-1.2,2.7-1.2c1.1,0,2,0.3,2.6,0.9s0.9,1.5,1,2.7h-2.1c0-0.7-0.1-1.2-0.3-1.5s-0.6-0.4-1.1-0.4
			c-0.6,0-1,0.2-1.2,0.6s-0.4,1-0.4,1.9v2c0,1,0.1,1.7,0.3,2.1s0.6,0.6,1.2,0.6c0.6,0,0.9-0.1,1.1-0.4c0.2-0.3,0.3-0.8,0.4-1.5h2
			V30.5z"/>
		<path class="st0" d="M60.1,29.7c0,1.4-0.3,2.5-1,3.2c-0.7,0.8-1.6,1.2-2.7,1.2c-1.2,0-2.1-0.4-2.7-1.1c-0.7-0.8-1-1.8-1-3.2V28
			c0-1.4,0.3-2.5,1-3.3s1.6-1.2,2.8-1.2s2.1,0.4,2.7,1.2c0.7,0.8,1,1.9,1,3.3L60.1,29.7L60.1,29.7z M57.9,28c0-0.9-0.1-1.6-0.4-2.1
			c-0.3-0.5-0.7-0.7-1.2-0.7c-0.6,0-1,0.2-1.2,0.7c-0.3,0.4-0.4,1.1-0.4,2v1.8c0,0.9,0.1,1.6,0.4,2c0.3,0.4,0.7,0.6,1.3,0.6
			c0.5,0,1-0.2,1.2-0.6c0.3-0.4,0.4-1.1,0.4-2L57.9,28L57.9,28z"/>
		<path class="st0" d="M64.1,23.6l2,7.5l2-7.5h2.7V34h-2.1v-2.8l0.2-4.3L66.8,34h-1.4l-2.1-7.1l0.2,4.3V34h-2.1V23.6H64.1z"/>
		<path class="st0" d="M77.6,29.5h-3.3v2.8h3.9V34h-6V23.6h5.9v1.7h-3.8v2.5h3.3V29.5z"/>
		<path class="st0" d="M86.4,33.9h-2.1l-3.1-6.8v6.8h-2.1V23.5h2.1l3.1,6.8v-6.8h2.1V33.9z"/>
		<path class="st0" d="M87.9,33.9V23.5h2.7c1.2,0,2.2,0.4,2.9,1.2c0.7,0.8,1.1,1.8,1.1,3.2v1.7c0,1.4-0.4,2.4-1.1,3.2
			c-0.7,0.8-1.7,1.2-3,1.2L87.9,33.9L87.9,33.9z M90,25.3v6.9h0.6c0.7,0,1.2-0.2,1.5-0.6s0.4-1,0.4-1.9v-1.8c0-1-0.1-1.6-0.4-2
			s-0.7-0.6-1.4-0.6H90z"/>
		<path class="st0" d="M100.9,31.8H98l-0.6,2.1h-2.2l3.2-10.4h1.9l3.3,10.4h-2.2L100.9,31.8z M98.5,30.1h1.9l-1-3.7L98.5,30.1z"/>
		<path class="st0" d="M104.4,33.9V23.5h3.2c1.1,0,1.9,0.2,2.5,0.7s0.8,1.2,0.8,2.1c0,0.5-0.1,1-0.3,1.4c-0.2,0.4-0.6,0.7-1,0.8
			c0.5,0.1,0.8,0.4,1.1,0.8c0.3,0.4,0.4,0.9,0.4,1.5c0,1-0.3,1.8-0.8,2.3c-0.6,0.5-1.4,0.8-2.4,0.8
			C107.9,33.9,104.4,33.9,104.4,33.9z M106.5,27.9h1.1c0.8,0,1.2-0.4,1.2-1.3c0-0.5-0.1-0.8-0.3-1c-0.2-0.2-0.5-0.3-0.9-0.3h-1.1
			C106.5,25.3,106.5,27.9,106.5,27.9z M106.5,29.4v2.8h1.3c0.4,0,0.7-0.1,0.9-0.3c0.2-0.2,0.3-0.6,0.3-1c0-0.9-0.3-1.4-1-1.4
			L106.5,29.4L106.5,29.4z"/>
		<path class="st0" d="M114.5,32.2h3.7v1.7h-5.8V23.5h2.1C114.5,23.5,114.5,32.2,114.5,32.2z"/>
		<path class="st0" d="M124.5,29.5h-3.3v2.8h3.9V34h-6V23.6h5.9v1.7h-3.8v2.5h3.3C124.5,27.8,124.5,29.5,124.5,29.5z"/>
		<path class="st0" d="M134.6,29.5h-3.3v2.8h3.9V34h-6V23.6h5.9v1.7h-3.8v2.5h3.3L134.6,29.5L134.6,29.5z"/>
		<path class="st0" d="M143.5,33.9h-2.1l-3.1-6.8v6.8h-2.1V23.5h2.1l3.1,6.8v-6.8h2.1V33.9z"/>
		<path class="st0" d="M155.3,33.9h-2.1l-3.1-6.8v6.8H148V23.5h2.1l3.1,6.8v-6.8h2.1V33.9z"/>
		<path class="st0" d="M159,33.9h-2.1V23.5h2.1V33.9z"/>
		<path class="st0" d="M167.8,33.9h-2.1l-3.1-6.8v6.8h-2.1V23.5h2.1l3.1,6.8v-6.8h2.1V33.9z M166.5,20.9c0,0.5-0.1,1-0.4,1.3
			c-0.3,0.4-0.6,0.6-1,0.6c-0.2,0-0.3,0-0.4-0.1c-0.1,0-0.3-0.1-0.5-0.3c-0.2-0.1-0.4-0.2-0.4-0.2c-0.1,0-0.2,0-0.3,0
			s-0.2,0.1-0.3,0.2s-0.1,0.3-0.1,0.5l-1.1-0.1c0-0.5,0.1-1,0.4-1.4c0.3-0.4,0.6-0.6,1-0.6c0.1,0,0.2,0,0.3,0s0.3,0.1,0.5,0.3
			c0.2,0.1,0.4,0.2,0.5,0.3c0.1,0,0.2,0.1,0.3,0.1s0.2-0.1,0.3-0.2s0.1-0.3,0.1-0.5L166.5,20.9z"/>
		<path class="st0" d="M176.6,29.7c0,1.4-0.3,2.5-1,3.2c-0.7,0.8-1.6,1.2-2.7,1.2c-1.2,0-2.1-0.4-2.7-1.1c-0.7-0.8-1-1.8-1-3.2V28
			c0-1.4,0.3-2.5,1-3.3s1.6-1.2,2.8-1.2s2.1,0.4,2.7,1.2c0.7,0.8,1,1.9,1,3.3v1.7H176.6z M174.5,28c0-0.9-0.1-1.6-0.4-2.1
			c-0.3-0.5-0.7-0.7-1.2-0.7c-0.6,0-1,0.2-1.2,0.7c-0.3,0.4-0.4,1.1-0.4,2v1.8c0,0.9,0.1,1.6,0.4,2c0.3,0.4,0.7,0.6,1.3,0.6
			c0.5,0,1-0.2,1.2-0.6c0.3-0.4,0.4-1.1,0.4-2V28H174.5z"/>
		<path class="st0" d="M182.3,31.2c0-0.4-0.1-0.7-0.3-1c-0.2-0.2-0.6-0.4-1.2-0.7c-1-0.4-1.8-0.9-2.2-1.4c-0.5-0.5-0.7-1.2-0.7-1.9
			c0-0.9,0.3-1.6,0.9-2.1c0.6-0.5,1.4-0.8,2.4-0.8c0.6,0,1.2,0.1,1.7,0.4s0.9,0.6,1.2,1.1s0.4,1,0.4,1.7h-2.1c0-0.5-0.1-0.9-0.3-1.1
			c-0.2-0.3-0.5-0.4-0.9-0.4s-0.7,0.1-0.9,0.3c-0.2,0.2-0.3,0.5-0.3,0.9c0,0.3,0.1,0.5,0.3,0.8c0.2,0.2,0.6,0.5,1.2,0.7
			c1,0.4,1.7,0.8,2.2,1.3s0.7,1.2,0.7,2c0,0.9-0.3,1.6-0.9,2.1c-0.6,0.5-1.4,0.8-2.3,0.8c-0.7,0-1.3-0.1-1.8-0.4
			c-0.6-0.3-1-0.7-1.3-1.2s-0.5-1.1-0.5-1.8h2.1c0,0.6,0.1,1,0.3,1.3s0.6,0.4,1.1,0.4C181.9,32.4,182.3,32,182.3,31.2z"/>
		<path class="st0" d="M186.2,34.8h-1.5l3.1-11.3h1.5L186.2,34.8z"/>
		<path class="st0" d="M195.1,31.8h-2.9l-0.6,2.1h-2.2l3.2-10.4h1.9l3.3,10.4h-2.2L195.1,31.8z M192.7,30.1h1.9l-1-3.7L192.7,30.1z"
			/>
		<path class="st0" d="M203.1,31.2c0-0.4-0.1-0.7-0.3-1c-0.2-0.2-0.6-0.4-1.2-0.7c-1-0.4-1.8-0.9-2.2-1.4c-0.5-0.5-0.7-1.2-0.7-1.9
			c0-0.9,0.3-1.6,0.9-2.1c0.6-0.5,1.4-0.8,2.4-0.8c0.6,0,1.2,0.1,1.7,0.4s0.9,0.6,1.2,1.1s0.4,1,0.4,1.7h-2.1c0-0.5-0.1-0.9-0.3-1.1
			c-0.2-0.3-0.5-0.4-0.9-0.4s-0.7,0.1-0.9,0.3c-0.2,0.2-0.3,0.5-0.3,0.9c0,0.3,0.1,0.5,0.3,0.8c0.2,0.2,0.6,0.5,1.2,0.7
			c1,0.4,1.7,0.8,2.2,1.3s0.7,1.2,0.7,2c0,0.9-0.3,1.6-0.9,2.1c-0.6,0.5-1.4,0.8-2.3,0.8c-0.7,0-1.3-0.1-1.8-0.4
			c-0.6-0.3-1-0.7-1.3-1.2s-0.5-1.1-0.5-1.8h2.1c0,0.6,0.1,1,0.3,1.3s0.6,0.4,1.1,0.4C202.7,32.4,203.1,32,203.1,31.2z"/>
		<path class="st0" d="M206.4,32.9c0-0.3,0.1-0.6,0.3-0.8c0.2-0.2,0.5-0.3,0.8-0.3s0.6,0.1,0.8,0.3c0.2,0.2,0.3,0.5,0.3,0.8
			s-0.1,0.6-0.3,0.8c-0.2,0.2-0.5,0.3-0.8,0.3s-0.6-0.1-0.8-0.3S206.4,33.3,206.4,32.9z"/>
	</g>
</g>
</svg>
