<?xml version="1.0" encoding="utf-8"?>
<!-- Generator: Adobe Illustrator 24.3.0, SVG Export Plug-In . SVG Version: 6.00 Build 0)  -->
<svg version="1.1" id="Layer_1" xmlns="http://www.w3.org/2000/svg" xmlns:xlink="http://www.w3.org/1999/xlink" x="0px" y="0px"
	 width="99.2px" height="99.2px" viewBox="0 0 99.2 99.2" style="enable-background:new 0 0 99.2 99.2;" xml:space="preserve">
<style type="text/css">
	.st0{fill:#FFFFFF;}
	.st1{fill:#1D1D1B;}
</style>
<g>
	<g>
		<polygon class="st0" points="29.3,98.6 0.6,69.9 0.6,29.3 29.3,0.6 69.9,0.6 98.6,29.3 98.6,69.9 69.9,98.6 		"/>
		<path class="st1" d="M69.7,1.1l28.3,28.3v40.1L69.7,98.1H29.6L1.1,69.7V29.6L29.5,1.1H69.7z M70.2,0H29.1L0,29.1v41.1l29.1,29.1
			h41.1l29.1-29.1V29.1L70.2,0z"/>
		<polygon class="st1" points="68,5.3 31.2,5.3 5.3,31.2 5.3,68 31.2,93.9 68,93.9 93.9,68 93.9,31.2 		"/>
	</g>
	<g>
		<path class="st0" d="M11.9,39.5v-10h7.6v2.3h-4.7v5.4h4.7v2.3C19.6,39.5,11.9,39.5,11.9,39.5z M13.6,35.6v-2.3h5.2v2.3H13.6z"/>
		<path class="st0" d="M19.5,39.5l3.6-5.3l1.7-2.1l1.7-2.6h3.1l-3.1,4.7l-1.7,2.1l-2.1,3.1H19.5z M26.8,39.5l-2.1-3.1l-1.6-2
			l-3.3-4.7H23l1.7,2.6l1.7,2.1l3.6,5.3C30.1,39.5,26.8,39.5,26.8,39.5z"/>
		<path class="st0" d="M35.5,39.7c-0.9,0-1.7-0.1-2.4-0.3c-0.7-0.1-1.3-0.6-1.7-0.9c-0.4-0.4-0.9-0.9-1-1.6
			c-0.3-0.7-0.4-1.4-0.4-2.3c0-1.1,0.3-2,0.7-2.9c0.4-0.9,1.1-1.3,2-1.7c0.9-0.4,1.9-0.6,3.1-0.6c0.4,0,0.7,0,1.1,0s0.7,0.1,1,0.1
			v2.4c-0.3,0-0.6-0.1-0.9-0.1c-0.3,0-0.7,0-1,0c-0.7,0-1.3,0.1-1.7,0.3c-0.4,0.1-0.7,0.6-1,0.9c-0.4,0.3-0.4,0.9-0.4,1.4
			c0,0.6,0.1,1.1,0.3,1.6c0.1,0.4,0.6,0.7,0.9,0.9c0.4,0.3,1,0.3,1.7,0.3c0.3,0,0.7,0,1-0.1c0.3,0,0.7-0.1,1-0.1v2.4
			c-0.3,0.1-0.7,0.1-1,0.3C36.4,39.7,35.9,39.7,35.5,39.7z"/>
		<path class="st0" d="M38.7,39.5v-10h7.6v2.3h-4.7v5.4h4.7v2.3C46.4,39.5,38.7,39.5,38.7,39.5z M40.4,35.6v-2.3h5.2v2.3H40.4z"/>
		<path class="st0" d="M50.3,39.7c-0.6,0-1,0-1.6-0.1c-0.6-0.1-1-0.1-1.4-0.3v-2.4c0.3,0.1,0.6,0.1,0.9,0.3c0.3,0.1,0.7,0.1,1,0.1
			c0.4,0,0.7,0,1,0c0.6,0,0.9,0,1.1-0.1c0.1-0.1,0.3-0.3,0.3-0.6c0-0.3,0-0.3-0.1-0.4c-0.1-0.1-0.4-0.3-0.9-0.3l-0.9-0.3
			c-0.9-0.3-1.6-0.6-2-1c-0.4-0.6-0.7-1.1-0.7-1.9c0-1,0.4-1.9,1.1-2.4c0.7-0.6,1.9-0.9,3.4-0.9c0.6,0,1,0,1.4,0.1
			c0.4,0,0.9,0.1,1.1,0.3v2.4c-0.3-0.1-0.7-0.1-1-0.3c-0.4,0-0.9-0.1-1.3-0.1c-0.6,0-0.9,0-1.1,0.1c-0.3,0-0.4,0.1-0.6,0.3
			C50,32.4,50,32.5,50,32.6s0,0.3,0.1,0.4c0.1,0.1,0.4,0.1,0.7,0.3l0.9,0.3c0.7,0.1,1.1,0.4,1.7,0.7c0.4,0.3,0.7,0.6,1,1
			c0.1,0.4,0.3,0.9,0.3,1.4c0,0.7-0.1,1.3-0.6,1.7c-0.3,0.6-0.9,0.9-1.4,1.1C51.8,39.5,51.1,39.7,50.3,39.7z"/>
		<path class="st0" d="M60.1,39.7c-1,0-2-0.1-2.7-0.6c-0.7-0.4-1.3-1-1.7-1.7c-0.4-0.7-0.7-1.7-0.7-2.9c0-1.1,0.3-2.1,0.7-2.9
			c0.4-0.7,1-1.3,1.7-1.7c0.7-0.4,1.7-0.6,2.7-0.6s2,0.1,2.7,0.6c0.7,0.4,1.3,1,1.7,1.7c0.4,0.7,0.7,1.7,0.7,2.9
			c0,1.1-0.3,2.1-0.7,2.9c-0.4,0.7-1,1.3-1.7,1.7C62.1,39.5,61.1,39.7,60.1,39.7z M60.1,37.4c0.4,0,0.9-0.1,1.1-0.3
			c0.3-0.1,0.6-0.6,0.7-0.9c0.1-0.4,0.3-0.9,0.3-1.6c0-0.7-0.1-1.1-0.3-1.6c-0.1-0.4-0.4-0.7-0.7-0.9c-0.3-0.1-0.7-0.3-1.1-0.3
			s-0.9,0.1-1.1,0.3c-0.3,0.1-0.6,0.6-0.7,0.9c-0.1,0.4-0.3,0.9-0.3,1.6c0,0.7,0.1,1.1,0.3,1.6c0.1,0.4,0.4,0.7,0.7,0.9
			C59.4,37.2,59.7,37.4,60.1,37.4z"/>
		<path class="st0" d="M69.6,39.5v-10h7.6v2.3h-4.7v5.4h4.9v2.3H69.6z M71.3,35.6v-2.3h5.2v2.3H71.3z"/>
		<path class="st0" d="M78.2,39.5v-10H81l4,6.3h-0.4v-6.3h2.7v10h-2.9l-4-6.3h0.4v6.3H78.2z"/>
	</g>
	<g>
		<path class="st0" d="M28.5,54.7c-1.3,0-2.4-0.1-3.4-0.6c-0.9-0.4-1.6-0.9-2-1.7c-0.4-0.9-0.7-1.7-0.7-2.9s0.3-2,0.7-2.9
			c0.4-0.9,1.1-1.3,2.1-1.7c0.9-0.4,2-0.6,3.4-0.6c0.4,0,0.9,0,1.1,0c0.4,0,0.7,0.1,1.1,0.1V47c-0.3,0-0.7-0.1-1-0.1s-0.7,0-1,0
			c-0.9,0-1.4,0.1-2,0.3c-0.6,0.1-0.9,0.6-1,0.9c-0.3,0.4-0.3,0.9-0.3,1.6c0,0.6,0.1,1.1,0.3,1.6c0.1,0.4,0.6,0.7,0.9,0.9
			c0.4,0.1,0.9,0.3,1.6,0.3c0.3,0,0.6,0,0.7,0c0.3,0,0.6,0,0.7-0.1l-1.3,1v-3.6h2.7v4.7c-0.4,0-0.9,0.1-1.3,0.1
			C29.3,54.7,28.8,54.7,28.5,54.7z"/>
		<path class="st0" d="M32.4,54.5v-9.7c0.3-0.1,0.7-0.1,1-0.1c0.4,0,0.9-0.1,1.1-0.1c0.4,0,0.9,0,1.1,0c1.6,0,2.7,0.3,3.4,0.9
			c0.9,0.6,1.1,1.4,1.1,2.6c0,0.7-0.1,1.4-0.6,1.9c-0.4,0.6-0.9,0.9-1.6,1.1c-0.7,0.3-1.4,0.4-2.3,0.4c-0.1,0-0.3,0-0.4,0
			s-0.3,0-0.4,0v3.4C35.1,54.5,32.4,54.5,32.4,54.5z M38.1,54.5l-3-4.6h3.1l3,4.6H38.1z M36.2,49.1c0.6,0,0.9-0.1,1.1-0.3
			c0.3-0.1,0.4-0.6,0.4-1c0-0.3,0-0.6-0.1-0.7c-0.1-0.1-0.3-0.3-0.6-0.4c-0.3-0.1-0.6-0.1-0.9-0.1c-0.1,0-0.3,0-0.4,0
			c-0.1,0-0.3,0-0.4,0V49c0.1,0,0.1,0,0.3,0c0.1,0,0.1,0,0.3,0C35.9,49.1,36.1,49.1,36.2,49.1z"/>
		<path class="st0" d="M41.1,54.5l3-10h4.3l3,10h-2.9l-2.4-8.7h0.3L44,54.5H41.1z M43.5,52.3l0.6-2.3h4l0.6,2.3H43.5z"/>
		<path class="st0" d="M54.8,54.7c-0.6,0-1,0-1.6-0.1c-0.6-0.1-1-0.1-1.4-0.3v-2.4c0.3,0.1,0.6,0.1,0.9,0.3s0.7,0.1,1,0.1
			c0.4,0,0.7,0,1,0c0.6,0,0.9,0,1.1-0.1c0.1-0.1,0.3-0.3,0.3-0.6c0-0.1,0-0.3-0.1-0.4s-0.4-0.3-0.9-0.3l-0.9-0.3
			c-0.9-0.3-1.6-0.6-2-1c-0.4-0.6-0.7-1.1-0.7-1.9c0-1,0.4-1.9,1.1-2.4c0.7-0.6,1.9-0.9,3.4-0.9c0.6,0,1,0,1.4,0.1
			c0.4,0,0.9,0.1,1.1,0.3v2.4c-0.3-0.1-0.7-0.1-1-0.3c-0.4,0-0.9-0.1-1.3-0.1c-0.6,0-0.9,0-1.1,0.1c-0.3,0-0.4,0.1-0.6,0.3
			c-0.1,0.1-0.1,0.3-0.1,0.4s0,0.3,0.1,0.4s0.4,0.1,0.7,0.3l0.9,0.3c0.7,0.1,1.1,0.4,1.7,0.7c0.4,0.3,0.7,0.6,1,1
			c0.1,0.4,0.3,0.9,0.3,1.4c0,0.7-0.1,1.3-0.6,1.7c-0.3,0.6-0.9,0.9-1.4,1.1C56.4,54.5,55.7,54.7,54.8,54.7z"/>
		<path class="st0" d="M59.3,54.5l3-10h4.3l3,10h-2.9l-2.4-8.7h0.1L62,54.5H59.3z M61.7,52.3l0.6-2.3h4l0.6,2.3H61.7z"/>
		<path class="st0" d="M72.9,54.7c-0.6,0-1,0-1.6-0.1s-1-0.1-1.4-0.3v-2.4c0.3,0.1,0.6,0.1,0.9,0.3c0.3,0,0.7,0.1,1,0.1
			c0.4,0,0.7,0,1,0c0.6,0,0.9,0,1.1-0.1c0.1-0.1,0.3-0.3,0.3-0.6c0-0.1,0-0.3-0.1-0.4c-0.1-0.1-0.4-0.3-0.9-0.3l-0.9-0.3
			c-0.9-0.3-1.6-0.6-2-1c-0.4-0.6-0.7-1.1-0.7-1.9c0-1,0.4-1.9,1.1-2.4c0.7-0.6,1.9-0.9,3.4-0.9c0.6,0,1,0,1.4,0.1
			c0.4,0.1,0.9,0.1,1.1,0.3v2.4c-0.3-0.1-0.7-0.1-1-0.3c-0.4,0-0.9-0.1-1.3-0.1c-0.6,0-0.9,0-1.1,0.1c-0.3,0-0.4,0.1-0.6,0.3
			c-0.1,0.1-0.1,0.3-0.1,0.4s0,0.3,0.1,0.4c0.1,0.1,0.4,0.1,0.7,0.3l0.9,0.3c0.7,0.1,1.1,0.4,1.7,0.7c0.4,0.3,0.7,0.6,1,1
			c0.1,0.4,0.3,0.9,0.3,1.4c0,0.7-0.1,1.3-0.6,1.7c-0.3,0.6-0.9,0.9-1.4,1.1C74.6,54.5,73.9,54.7,72.9,54.7z"/>
	</g>
	<g>
		<path class="st0" d="M10.5,69.9c-0.6,0-1,0-1.6-0.1c-0.6-0.1-1-0.1-1.4-0.3V67c0.3,0.1,0.6,0.1,0.9,0.3c0.3,0.1,0.7,0.1,1,0.1
			c0.4,0,0.7,0,1,0c0.6,0,0.9,0,1.1-0.1c0.1-0.1,0.3-0.3,0.3-0.6c0-0.1,0-0.3-0.1-0.4c-0.1-0.1-0.4-0.3-0.9-0.3l-0.9-0.3
			c-0.9-0.3-1.6-0.6-2-1c-0.4-0.6-0.7-1.1-0.7-2c0-1,0.4-1.9,1.1-2.4s1.9-0.9,3.4-0.9c0.6,0,1,0,1.4,0.1c0.4,0,0.9,0.1,1.1,0.3v2.4
			c-0.3-0.1-0.7-0.1-1-0.3c-0.4,0-0.9-0.1-1.3-0.1c-0.6,0-0.9,0-1.1,0.1c-0.3,0-0.4,0.1-0.6,0.3c-0.1,0.1-0.1,0.3-0.1,0.4
			s0,0.3,0.1,0.4s0.4,0.1,0.7,0.3l0.9,0.3c0.7,0.1,1.1,0.4,1.7,0.7c0.4,0.3,0.7,0.6,1,1c0.1,0.4,0.3,0.9,0.3,1.4
			c0,0.7-0.1,1.3-0.6,1.7c-0.3,0.6-0.9,0.9-1.4,1.1C12.2,69.7,11.3,69.9,10.5,69.9z"/>
		<path class="st0" d="M14.9,69.7l3-10h4.3l3,10h-2.9L19.9,61h0.3l-2.4,8.7H14.9z M17.3,67.4l0.6-2.3h4l0.6,2.3H17.3z"/>
		<path class="st0" d="M28.1,69.7v-7.6h-3v-2.4h9v2.4h-3v7.6H28.1z"/>
		<path class="st0" d="M39.2,69.9c-1,0-1.9-0.1-2.6-0.6c-0.7-0.3-1.1-0.9-1.4-1.6c-0.3-0.7-0.4-1.4-0.4-2.4v-5.6h2.9v5.9
			c0,0.7,0.1,1.1,0.4,1.4c0.3,0.3,0.7,0.4,1.1,0.4c0.4,0,0.9-0.1,1.1-0.4c0.3-0.3,0.4-0.9,0.4-1.4v-5.9h2.9v5.6c0,1-0.1,1.9-0.4,2.4
			c-0.3,0.7-0.9,1.1-1.4,1.6C41.1,69.6,40.2,69.9,39.2,69.9z"/>
		<path class="st0" d="M45,69.7V60c0.3-0.1,0.7-0.1,1-0.1c0.4,0,0.9-0.1,1.1-0.1c0.4,0,0.9,0,1.1,0c1.6,0,2.7,0.3,3.4,0.9
			c0.9,0.6,1.1,1.4,1.1,2.6c0,0.7-0.1,1.4-0.6,1.9c-0.4,0.6-0.9,0.9-1.6,1.1s-1.4,0.4-2.3,0.4c-0.1,0-0.3,0-0.4,0s-0.3,0-0.4,0V70
			H45C45,70,45,69.7,45,69.7z M50.7,69.7l-3-4.6h3.1l3,4.6H50.7z M48.8,64.1c0.6,0,0.9-0.1,1.1-0.3c0.3-0.1,0.4-0.6,0.4-1
			c0-0.3,0-0.6-0.1-0.7s-0.3-0.3-0.6-0.4c-0.3-0.1-0.6-0.1-0.9-0.1c-0.1,0-0.3,0-0.4,0s-0.3,0-0.4,0V64c0.1,0,0.1,0,0.3,0
			c0.1,0,0.1,0,0.3,0C48.5,64.1,48.7,64.1,48.8,64.1z"/>
		<path class="st0" d="M53.7,69.7l3-10H61l3,10h-2.9L58.7,61H59l-2.4,8.7C56.5,69.7,53.7,69.7,53.7,69.7z M56.1,67.4l0.6-2.3h4
			l0.6,2.3H56.1z"/>
		<path class="st0" d="M67.6,69.7c-0.3,0-0.6,0-1,0c-0.3,0-0.7,0-1,0c-0.4,0-0.7,0-1-0.1v-9.7c0.3-0.1,0.7-0.1,1.1-0.1
			s0.9-0.1,1.1-0.1c0.4,0,0.9,0,1.1,0c2,0,3.4,0.4,4.3,1.3c0.9,0.9,1.4,2.1,1.4,3.9c0,1.1-0.3,2.1-0.7,2.9c-0.4,0.7-1.1,1.3-2.1,1.7
			C70.2,69.6,69,69.7,67.6,69.7z M68.3,67.4c0.6,0,1-0.1,1.4-0.3c0.4-0.1,0.7-0.4,0.9-0.9c0.1-0.4,0.3-1,0.3-1.6
			c0-0.7-0.1-1.1-0.3-1.6c-0.1-0.4-0.6-0.7-0.9-0.9c-0.4-0.1-0.9-0.3-1.4-0.3c-0.1,0-0.3,0-0.4,0c-0.1,0-0.3,0-0.4,0v5.4
			c0.1,0,0.3,0,0.4,0C68.1,67.4,68.3,67.4,68.3,67.4z"/>
		<path class="st0" d="M74.2,69.7l3-10h4.3l3,10h-2.9L79.2,61h0.3L77,69.7H74.2z M76.7,67.4l0.6-2.3h4l0.6,2.3H76.7z"/>
		<path class="st0" d="M87.9,69.9c-0.6,0-1,0-1.6-0.1c-0.6-0.1-1-0.1-1.4-0.3V67c0.3,0.1,0.6,0.1,0.9,0.3c0.3,0,0.7,0.1,1,0.1
			c0.4,0,0.7,0,1,0c0.6,0,0.9,0,1.1-0.1c0.1-0.1,0.3-0.3,0.3-0.6c0-0.1,0-0.3-0.1-0.4c-0.1-0.1-0.4-0.3-0.9-0.3l-0.9-0.3
			c-0.9-0.3-1.6-0.6-2-1c-0.4-0.6-0.7-1.1-0.7-1.9c0-1,0.4-1.9,1.1-2.4c0.7-0.6,1.9-0.9,3.4-0.9c0.6,0,1,0,1.4,0.1
			c0.4,0,0.9,0.1,1.1,0.3v2.4c-0.3-0.1-0.7-0.1-1-0.3c-0.4,0-0.9-0.1-1.3-0.1c-0.6,0-0.9,0-1.1,0.1c-0.3,0-0.4,0.1-0.6,0.3
			c-0.1,0.1-0.1,0.3-0.1,0.4s0,0.3,0.1,0.4c0.1,0.1,0.4,0.1,0.7,0.3l0.9,0.3c0.7,0.1,1.1,0.4,1.7,0.7c0.4,0.3,0.7,0.6,1,1
			c0.1,0.4,0.3,0.9,0.3,1.4c0,0.7-0.1,1.3-0.6,1.7c-0.3,0.6-0.9,0.9-1.4,1.1C89.6,69.7,88.9,69.9,87.9,69.9z"/>
	</g>
	<g>
		<path class="st0" d="M37.5,81.3L37.5,81.3l1.6-5.2h1v6.3h-0.9v-4.6l0,0l-1.4,4.6h-0.6l-1.4-4.6l0,0v4.6h-0.9v-6.3h1.1L37.5,81.3z"
			/>
		<path class="st0" d="M41.9,76.6h-0.9v-0.9h0.9V76.6z M41.9,82.5h-0.9v-4.7h0.9V82.5z"/>
		<path class="st0" d="M43.7,77.7v0.7c0.1-0.3,0.3-0.4,0.6-0.6c0.1-0.1,0.4-0.1,0.7-0.1c0.4,0,0.7,0.1,1,0.4s0.4,0.9,0.4,1.4v2.9
			h-0.9v-2.9c0-0.4,0-0.7-0.1-0.9c-0.1-0.1-0.3-0.3-0.6-0.3c-0.1,0-0.4,0-0.6,0.1c-0.1,0.1-0.3,0.3-0.4,0.4v3.6h-0.9v-4.7L43.7,77.7
			L43.7,77.7z"/>
		<path class="st0" d="M48,76.6h-0.9v-0.9H48V76.6z M48,82.5h-0.9v-4.7H48V82.5z"/>
		<path class="st0" d="M51,81.3c0-0.1,0-0.3-0.1-0.4c-0.1-0.1-0.4-0.3-0.7-0.4c-0.4-0.1-0.9-0.4-1-0.6c-0.3-0.3-0.4-0.6-0.4-0.9
			c0-0.4,0.1-0.7,0.4-0.9c0.3-0.3,0.7-0.4,1.1-0.4c0.4,0,0.9,0.1,1.1,0.4c0.3,0.3,0.4,0.6,0.4,1l0,0H51c0-0.3,0-0.4-0.1-0.6
			s-0.3-0.3-0.6-0.3c-0.3,0-0.4,0-0.6,0.1c-0.1,0.1-0.1,0.3-0.1,0.4c0,0.1,0,0.3,0.1,0.4c0.1,0.1,0.3,0.3,0.7,0.4
			c0.6,0.1,0.9,0.4,1.1,0.6c0.3,0.3,0.4,0.6,0.4,0.9c0,0.4-0.1,0.7-0.4,1c-0.3,0.3-0.7,0.4-1.1,0.4c-0.6,0-0.9-0.1-1.3-0.4
			c-0.4-0.1-0.6-0.6-0.4-1l0,0h0.9c0,0.3,0.1,0.6,0.3,0.7C50,82,50.3,82,50.4,82s0.4,0,0.6-0.1C51,81.6,51,81.5,51,81.3z"/>
		<path class="st0" d="M53.5,76.6v1.1h0.9v0.7h-0.7v2.7c0,0.3,0,0.4,0.1,0.6s0.1,0.1,0.3,0.1h0.1h0.1l0.1,0.6
			c-0.1,0-0.1,0.1-0.3,0.1c-0.1,0-0.3,0-0.3,0c-0.3,0-0.6-0.1-0.9-0.3c-0.1-0.3-0.3-0.6-0.3-1v-2.7h-0.6v-0.7h0.6v-1.1L53.5,76.6
			L53.5,76.6z"/>
		<path class="st0" d="M56.5,82.6c-0.6,0-1-0.3-1.4-0.7c-0.3-0.4-0.6-1-0.6-1.7V80c0-0.7,0.1-1.3,0.6-1.7c0.3-0.4,0.7-0.7,1.3-0.7
			s0.9,0.1,1.1,0.6c0.3,0.4,0.4,0.9,0.4,1.6v0.6h-2.4c0,0.4,0.1,0.9,0.3,1.1c0.1,0.3,0.4,0.4,0.9,0.4c0.3,0,0.4,0,0.7-0.1
			c0.1-0.1,0.4-0.1,0.6-0.3l0.3,0.6c-0.1,0.1-0.4,0.3-0.6,0.4C57.3,82.5,57,82.6,56.5,82.6z M56.5,78.5c-0.3,0-0.4,0.1-0.6,0.4
			c-0.1,0.3-0.3,0.6-0.3,0.9h1.6v-0.1c0-0.4,0-0.7-0.1-0.9C57,78.5,56.8,78.5,56.5,78.5z"/>
		<path class="st0" d="M60.8,78.6h-0.4c-0.1,0-0.3,0-0.4,0.1c-0.1,0.1-0.3,0.3-0.3,0.4v3.3h-0.9v-4.7h0.9v0.7
			c0.1-0.3,0.3-0.4,0.4-0.6c0.1-0.1,0.4-0.1,0.6-0.1h0.1H61L60.8,78.6z"/>
		<path class="st0" d="M62.3,76.6h-0.9v-0.9h0.9V76.6z M62.3,82.5h-0.9v-4.7h0.9V82.5z"/>
		<path class="st0" d="M62.8,80c0-0.7,0.1-1.3,0.6-1.7c0.3-0.4,0.9-0.7,1.3-0.7c0.6,0,1,0.3,1.3,0.7s0.6,1,0.6,1.7v0.1
			c0,0.7-0.1,1.3-0.6,1.7c-0.3,0.4-0.9,0.7-1.3,0.7c-0.6,0-1-0.3-1.4-0.7C63,81.5,62.8,80.9,62.8,80L62.8,80L62.8,80z M63.9,80.2
			c0,0.6,0.1,0.9,0.3,1.3c0.1,0.3,0.4,0.4,0.7,0.4c0.3,0,0.6-0.1,0.7-0.4c0.1-0.3,0.3-0.7,0.3-1.1v-0.1c0-0.6-0.1-0.9-0.3-1.1
			c-0.1-0.3-0.4-0.4-0.7-0.4c-0.3,0-0.6,0.1-0.7,0.4C63.9,79.2,63.9,79.6,63.9,80.2L63.9,80.2z"/>
	</g>
	<g>
		<path class="st0" d="M35.8,87.9c0-0.7,0.1-1.3,0.4-1.9c0.3-0.4,0.7-0.7,1.1-0.7c0.3,0,0.4,0,0.6,0.1c0.1,0.1,0.3,0.3,0.4,0.4v-2.6
			h0.9v6.9h-0.7l-0.1-0.6c-0.1,0.3-0.3,0.4-0.4,0.6c-0.1,0.1-0.4,0.1-0.7,0.1c-0.6,0-0.9-0.3-1.1-0.7C35.9,89.3,35.8,88.8,35.8,87.9
			C35.8,88,35.8,87.9,35.8,87.9z M36.6,88c0,0.6,0.1,0.9,0.3,1.1c0.1,0.3,0.4,0.4,0.7,0.4c0.1,0,0.4,0,0.6-0.1
			c0.1-0.1,0.3-0.3,0.3-0.4v-2.3c-0.1-0.1-0.1-0.4-0.3-0.4c-0.1-0.1-0.3-0.1-0.6-0.1s-0.6,0.1-0.7,0.6C36.6,86.9,36.6,87.3,36.6,88
			L36.6,88z"/>
		<path class="st0" d="M41.8,90.3c-0.6,0-1-0.3-1.4-0.7c-0.3-0.4-0.6-1-0.6-1.7v-0.1c0-0.7,0.1-1.3,0.6-1.7c0.3-0.4,0.7-0.7,1.3-0.7
			c0.6,0,0.9,0.1,1.1,0.6c0.3,0.4,0.4,0.9,0.4,1.6V88h-2.4c0,0.4,0.1,0.9,0.3,1.1c0.1,0.3,0.4,0.4,0.9,0.4c0.3,0,0.4,0,0.7-0.1
			c0.1-0.1,0.4-0.1,0.6-0.3l0.3,0.6c-0.1,0.1-0.4,0.3-0.6,0.4C42.4,90.3,42.1,90.3,41.8,90.3z M41.7,86.2c-0.3,0-0.4,0.1-0.6,0.4
			c-0.1,0.3-0.3,0.6-0.3,0.9h1.7v-0.1c0-0.4,0-0.7-0.1-0.9C42.1,86.3,41.9,86.2,41.7,86.2z"/>
		<path class="st0" d="M48.7,88.6c0-0.3-0.1-0.6-0.3-0.7c-0.1-0.1-0.4-0.4-0.9-0.6c-0.6-0.1-1-0.4-1.4-0.7c-0.3-0.3-0.4-0.7-0.4-1.1
			c0-0.6,0.1-0.9,0.6-1.3c0.4-0.3,0.9-0.4,1.3-0.4c0.6,0,1,0.1,1.4,0.6c0.4,0.4,0.6,0.9,0.6,1.3l0,0h-0.9c0-0.4-0.1-0.7-0.3-0.9
			c-0.1-0.3-0.4-0.3-0.9-0.3c-0.4,0-0.6,0.1-0.7,0.3s-0.3,0.4-0.3,0.7c0,0.3,0.1,0.6,0.3,0.7c0.1,0.1,0.6,0.4,0.9,0.6
			c0.6,0.1,1,0.4,1.3,0.7c0.3,0.3,0.4,0.7,0.4,1.1c0,0.4-0.1,0.9-0.6,1.3c-0.4,0.3-0.9,0.4-1.4,0.4c-0.6,0-1-0.1-1.4-0.6
			c-0.4-0.3-0.6-0.9-0.6-1.4l0,0h0.9c0,0.4,0.1,0.7,0.3,1c0.3,0.3,0.6,0.3,0.9,0.3c0.3,0,0.6-0.1,0.9-0.3
			C48.5,89.2,48.7,88.9,48.7,88.6z"/>
		<path class="st0" d="M52.7,90.3c0-0.1,0-0.3-0.1-0.4c0-0.1,0-0.3,0-0.3c-0.1,0.3-0.3,0.4-0.6,0.6c-0.1,0.1-0.4,0.3-0.7,0.3
			c-0.4,0-0.7-0.1-1-0.4C50,89.8,50,89.5,50,89s0.1-0.9,0.4-1c0.3-0.3,0.7-0.4,1.3-0.4h0.7v-0.4c0-0.3,0-0.6-0.1-0.7
			c-0.1-0.1-0.3-0.3-0.6-0.3c-0.3,0-0.4,0-0.6,0.3C51,86.6,51,86.8,51,87h-0.9l0,0c0-0.4,0.1-0.7,0.4-1c0.3-0.3,0.7-0.4,1.1-0.4
			c0.4,0,0.9,0.1,1.1,0.4c0.3,0.3,0.4,0.7,0.4,1.1v2.1c0,0.1,0,0.4,0,0.6c0,0.1,0,0.3,0.1,0.6L52.7,90.3L52.7,90.3z M51.5,89.6
			c0.3,0,0.4-0.1,0.7-0.3c0.1-0.1,0.3-0.3,0.4-0.6v-0.9H52c-0.3,0-0.4,0.1-0.7,0.3c-0.1,0.1-0.3,0.4-0.3,0.6c0,0.3,0,0.4,0.1,0.6
			C51.3,89.6,51.3,89.6,51.5,89.6z"/>
		<path class="st0" d="M55.1,90.3h-0.9v-6.7h0.9V90.3z"/>
		<path class="st0" d="M58.6,89.6c-0.1,0.3-0.3,0.4-0.6,0.6c-0.1,0.1-0.4,0.1-0.7,0.1c-0.4,0-0.9-0.1-1-0.6
			c-0.3-0.3-0.4-0.9-0.4-1.6v-2.7h0.9v2.7c0,0.6,0,0.9,0.1,1s0.3,0.3,0.6,0.3c0.3,0,0.4,0,0.6-0.1c0.1-0.1,0.3-0.3,0.4-0.4v-3.6h0.9
			v4.7h-0.7L58.6,89.6z"/>
		<path class="st0" d="M60,87.9c0-0.7,0.1-1.3,0.4-1.9c0.3-0.4,0.7-0.7,1.1-0.7c0.3,0,0.4,0,0.6,0.1c0.1,0.1,0.3,0.3,0.4,0.4v-2.6
			h0.9v6.9h-0.7l-0.1-0.6c-0.1,0.3-0.3,0.4-0.4,0.6c-0.1,0.1-0.4,0.1-0.7,0.1c-0.6,0-0.9-0.3-1.1-0.7C60,89.2,60,88.8,60,87.9
			L60,87.9z M60.8,88c0,0.6,0.1,0.9,0.3,1.1c0.1,0.3,0.4,0.4,0.7,0.4c0.1,0,0.4,0,0.6-0.1c0.1-0.1,0.3-0.3,0.3-0.4v-2.3
			c-0.1-0.1-0.1-0.4-0.3-0.4c-0.1,0-0.3-0.1-0.6-0.1s-0.6,0.1-0.7,0.6C61,86.9,60.8,87.3,60.8,88L60.8,88z"/>
	</g>
</g>
</svg>
