<?xml version="1.0" encoding="utf-8"?>
<!-- Generator: Adobe Illustrator 24.3.0, SVG Export Plug-In . SVG Version: 6.00 Build 0)  -->
<svg version="1.1" id="Capa_1" xmlns="http://www.w3.org/2000/svg" xmlns:xlink="http://www.w3.org/1999/xlink" x="0px" y="0px"
	 width="1920px" height="735px" viewBox="0 0 1920 735" style="enable-background:new 0 0 1920 735;" xml:space="preserve">
<style type="text/css">
	.st0{fill:#006B68;}
	.st1{fill:#F0A0B2;}
	.st2{fill:#742686;}
	.st3{fill:#F8B42A;}
</style>
<path class="st0" d="M1356.1-75.2l-21.4,21.9L2015,655.3l21.4-21.9L1356.1-75.2z"/>
<path class="st1" d="M1564.5,171.9c39.9,0,72.2-33.1,72.2-74s-32.3-74-72.2-74c-39.9,0-72.2,33.1-72.2,74S1524.6,171.9,1564.5,171.9
	z"/>
<path class="st2" d="M1575.8,627.7c-8,19.5,1,41.9,20,50.1c19,8.2,40.9-1,48.9-20.5l22.7,9.7c-13.2,32.3-49.5,47.5-81,34
	c-31.5-13.6-46.4-50.7-33.1-83L1575.8,627.7z"/>
<path class="st3" d="M285.1,677.6c15.6-12.1,18.8-34.4,7.3-49.9c-11.6-15.5-33.6-18.3-49.2-6.2L229.4,603
	c25.8-20,62.4-15.4,81.6,10.4c19.2,25.8,13.8,62.8-12.1,82.8L285.1,677.6z"/>
</svg>
