<?xml version="1.0" encoding="utf-8"?>
<!-- Generator: Adobe Illustrator 24.3.0, SVG Export Plug-In . SVG Version: 6.00 Build 0)  -->
<svg version="1.1" id="Capa_1" xmlns="http://www.w3.org/2000/svg" xmlns:xlink="http://www.w3.org/1999/xlink" x="0px" y="0px"
	 width="540px" height="260.2px" viewBox="0 0 540 260.2" style="enable-background:new 0 0 540 260.2;" xml:space="preserve">
<style type="text/css">
	.st0{fill:#2C2926;}
	.st1{fill:#FFFFFF;}
</style>
<path class="st0" d="M0,0h540v260.2H0V0z"/>
<g>
	<path class="st1" d="M38.3,227.8c0,12.3-4.5,19.3-12.6,19.3c-7,0-12-6.7-12-18.7c0-12.3,5.3-19,12.6-19
		C33.9,209.3,38.3,216.3,38.3,227.8z M18.5,228.3c0,9.5,2.8,14.8,7.6,14.8c5,0,7.6-5.9,7.6-15.1c0-9-2.2-14.8-7.6-14.8
		C21.5,213.2,18.5,218.5,18.5,228.3z"/>
	<path class="st1" d="M53.7,214.6L53.7,214.6l-6.4,3.4l-0.8-3.6l8.1-4.2h4.2v36.4H54L53.7,214.6L53.7,214.6z"/>
</g>
</svg>
