<?xml version="1.0" encoding="utf-8"?>
<!-- Generator: Adobe Illustrator 24.1.1, SVG Export Plug-In . SVG Version: 6.00 Build 0)  -->
<svg version="1.1" id="Capa_1" xmlns="http://www.w3.org/2000/svg" xmlns:xlink="http://www.w3.org/1999/xlink" x="0px" y="0px"
	 width="1917.8px" height="430.2px" viewBox="0 0 1917.8 430.2" style="enable-background:new 0 0 1917.8 430.2;"
	 xml:space="preserve">
<style type="text/css">
	.st0{fill:#2C2926;}
	.st1{fill:#006B68;}
	.st2{fill:#7A2583;}
	.st3{fill:#F0A0B2;}
	.st4{fill:#F8B42A;}
	.st5{fill:#E72E39;}
</style>
<path class="st0" d="M605,97l180.4,35.7l-17.9,90.8l-180.4-35.7L605,97z"/>
<path class="st0" d="M1224.5,263.8L1358,390.3l-63.7,67.2L1160.8,331L1224.5,263.8z"/>
<path class="st0" d="M2033.3,184.9l-179.3,41l-20.6-90.2l179.3-41L2033.3,184.9z"/>
<ellipse class="st1" cx="923" cy="239.7" rx="94.5" ry="92.6"/>
<ellipse class="st1" cx="1919.6" cy="362.3" rx="94.5" ry="92.6"/>
<rect x="980.9" y="304.3" transform="matrix(8.717822e-02 -0.9962 0.9962 8.717822e-02 629.373 1389.3971)" class="st2" width="183.9" height="93.8"/>
<rect x="472.1" y="242.1" transform="matrix(0.5223 -0.8527 0.8527 0.5223 22.9372 619.0422)" class="st3" width="183.9" height="93.8"/>
<rect x="1295.3" y="183.3" transform="matrix(0.6764 -0.7365 0.7365 0.6764 231.5932 1077.601)" class="st4" width="93.8" height="183.9"/>
<rect x="2062.2" y="214.9" transform="matrix(0.7114 -0.7028 0.7028 0.7114 393.0644 1570.8193)" class="st4" width="93.8" height="183.9"/>
<rect x="1400.8" y="91.6" transform="matrix(0.5584 -0.8296 0.8296 0.5584 544.8229 1299.2992)" class="st2" width="183.9" height="92.6"/>
<path class="st1" d="M1718.9,279.2l-208.1,178.3l-83.8-97.7l208-178.4L1718.9,279.2z"/>
<path class="st1" d="M715.3,450.4l-185.5,167L455,525.9l185.4-167.1L715.3,450.4z"/>
<path class="st1" d="M528.6,91l37.8,271.4l-127.6,17.8L401,108.8L528.6,91z"/>
<path class="st5" d="M757.2,250.9l119.5,139.9l-71.3,60.9L685.9,311.9L757.2,250.9z"/>
<path class="st5" d="M1753.7,51.2l79.6,165.8l-84.6,40.5l-79.6-165.8L1753.7,51.2z"/>
<path class="st5" d="M254.8,244.6l79.6,165.8l-84.6,40.5l-79.6-165.8L254.8,244.6z"/>
<path class="st5" d="M1062.5,142.2l166.8-77.6l39.7,85.1l-166.8,77.6L1062.5,142.2z"/>
<rect x="1667.8" y="312.2" transform="matrix(8.717822e-02 -0.9962 0.9962 8.717822e-02 1248.5542 2080.8521)" class="st3" width="183.9" height="93.8"/>
<rect x="343.4" y="258.8" transform="matrix(0.8449 -0.5349 0.5349 0.8449 -127.107 263.2083)" class="st4" width="93.8" height="183.9"/>
<ellipse transform="matrix(0.987 -0.1608 0.1608 0.987 -12.1622 49.7921)" class="st1" cx="301.6" cy="100" rx="94.5" ry="92.6"/>
<rect x="2263.8" y="260.1" transform="matrix(0.8449 -0.5349 0.5349 0.8449 170.0446 1290.6307)" class="st4" width="93.8" height="183.9"/>
<ellipse class="st1" cx="2229.7" cy="165.9" rx="94.5" ry="92.6"/>
<path class="st0" d="M199.9,181.2l-179.3,41L0,132.1l179.3-41L199.9,181.2z"/>
<ellipse class="st1" cx="94.5" cy="359.2" rx="94.5" ry="92.6"/>
</svg>
