<?xml version="1.0" encoding="UTF-8" standalone="no"?>
<!-- Created with Inkscape (http://www.inkscape.org/) -->

<svg
   xmlns:dc="http://purl.org/dc/elements/1.1/"
   xmlns:cc="http://creativecommons.org/ns#"
   xmlns:rdf="http://www.w3.org/1999/02/22-rdf-syntax-ns#"
   xmlns:svg="http://www.w3.org/2000/svg"
   xmlns="http://www.w3.org/2000/svg"
   version="1.1"
   width="265.0625"
   height="102.71877"
   id="svg2">
  <defs
     id="defs4" />
  <metadata
     id="metadata7">
    <rdf:RDF>
      <cc:Work
         rdf:about="">
        <dc:format>image/svg+xml</dc:format>
        <dc:type
           rdf:resource="http://purl.org/dc/dcmitype/StillImage" />
        <dc:title></dc:title>
      </cc:Work>
    </rdf:RDF>
  </metadata>
  <g
     transform="translate(0,-949.64343)"
     id="layer1">
    <path
       d="m 0,949.64343 0,102.71877 265.0625,0 0,-102.71877 -265.0625,0 z m 182.625,25.0625 c 17.98872,0.12028 35.94852,0.125 53.9375,0.125 l 0,4.3125 0,5.03125 -1.40625,-0.6875 -30.59375,0 0,14.1875 25.09375,0 1.9375,-0.8125 0,11.03122 -1.46875,-0.75 -25.1875,0 0,16.875 0.40625,1.4375 -11.46875,-0.031 -11.25,0.062 0.65625,-1.375 0,-47.87497 -0.65625,-1.53125 z m -158.15625,0.125 21.5,0 13.375,18.71875 13.59375,-18.71875 10.28125,0 10.84375,0 -1.625,1.3125 -22.78125,28.71877 0,19.25 0.90625,1.375 -11.25,0 -11.21875,0 0.5625,-1.375 0,-19.9688 -22.8125,-28.31247 -1.375,-1 z m 83.875,0 20.15625,0 c 20.19881,0.009 26.41691,0.21733 28.8125,0.9375 3.07441,0.92423 6.83814,3.21893 8.65625,5.28125 2.35621,2.67269 2.99371,5.06088 2.8125,10.4375 -0.1414,4.19559 -0.65394,6.03441 -2.28125,8.1875 -1.93093,2.55482 -5.65764,5.02282 -8.6875,5.71872 -2.11506,0.4858 -9.42512,0.9244 -19.40625,1.1563 l -7.75,0.1562 -0.0625,9.4063 -0.0625,7.7812 0.8125,1.5938 -11.4375,0 -11.875,0 1.25,-1.8438 0,-23.5 0,-23.21872 -0.9375,-2.09375 z m 22.1875,7.59375 0,8.15625 0,8.125 4.65625,0 c 2.56234,-10e-4 5.43668,-0.13161 6.375,-0.28125 2.27928,-0.36347 4.7314,-1.52565 5.59375,-2.65625 0.37848,-0.49622 0.87438,-1.4095 1.09375,-2.03125 0.4739,-1.34319 0.51999,-4.27604 0.0937,-5.96875 -0.42419,-1.68464 -2.23626,-3.52012 -4.21875,-4.25 -1.78387,-0.65675 -5.90539,-1.09345 -10.375,-1.09375 l -3.21875,0 z"
       id="rect3036"
       style="fill:#0070b8;fill-opacity:1;fill-rule:evenodd;stroke:none" />
  </g>
</svg>
