<?xml version="1.0" encoding="utf-8"?>
<!-- Generator: Adobe Illustrator 24.3.0, SVG Export Plug-In . SVG Version: 6.00 Build 0)  -->
<svg version="1.1" id="Capa_1" xmlns="http://www.w3.org/2000/svg" xmlns:xlink="http://www.w3.org/1999/xlink" x="0px" y="0px"
	 width="141px" height="32.9px" viewBox="0 0 141 32.9" style="enable-background:new 0 0 141 32.9;" xml:space="preserve">
<style type="text/css">
	.st0{fill:#FFFFFF;}
</style>
<g>
	<path class="st0" d="M26,30.8c0,0.4-0.2,0.8-0.5,1.1c-0.3,0.3-0.7,0.5-1.2,0.5h-3.1c-0.5,0-0.9-0.2-1.2-0.5
		c-0.3-0.3-0.5-0.7-0.5-1.1V15.3l-3.9,15.7c-0.2,1-0.8,1.4-1.7,1.4h-1.9c-0.8,0-1.4-0.5-1.6-1.4L6.6,14.7v16.1
		c0,0.4-0.2,0.8-0.5,1.1c-0.3,0.3-0.7,0.5-1.2,0.5H1.6c-0.5,0-0.8-0.2-1.1-0.5C0.1,31.6,0,31.3,0,30.8V2c0-0.4,0.2-0.8,0.5-1.1
		c0.3-0.3,0.7-0.4,1.1-0.4h6.2C8.7,0.4,9.3,1,9.6,2l3.5,14.4l3.3-14.5c0.2-1,0.8-1.4,1.6-1.4h6.4c0.4,0,0.8,0.1,1.1,0.4
		C25.9,1.2,26,1.5,26,2V30.8z"/>
	<path class="st0" d="M50.5,24c0,2.4-0.9,4.5-2.8,6.2c-1.9,1.7-4.1,2.6-6.6,2.6h-1c-2.5,0-4.7-0.9-6.6-2.6c-1.9-1.7-2.8-3.8-2.8-6.2
		v-8.9c0-0.4,0.2-0.7,0.5-1c0.3-0.3,0.7-0.5,1.1-0.5h3.5c0.5,0,0.8,0.2,1.2,0.5c0.3,0.3,0.5,0.7,0.5,1v8.3c0,1,0.3,1.9,1,2.6
		c0.7,0.7,1.4,1.1,2.2,1.1c0.8,0,1.5-0.4,2.1-1.1c0.6-0.7,1-1.6,1-2.6v-8.3c0-0.4,0.2-0.8,0.5-1.1c0.3-0.3,0.7-0.5,1.2-0.5h3.5
		c0.4,0,0.8,0.2,1.2,0.5c0.4,0.3,0.5,0.7,0.5,1.1L50.5,24L50.5,24z"/>
	<path class="st0" d="M72.5,30.7c0,0.4-0.2,0.8-0.5,1.1c-0.4,0.3-0.8,0.5-1.2,0.5H57.1c-0.5,0-0.9-0.2-1.2-0.5
		c-0.4-0.3-0.5-0.7-0.5-1.1V2.1c0-0.5,0.2-0.8,0.5-1.2c0.3-0.3,0.7-0.5,1.3-0.5h13.3c0.5,0,0.9,0.2,1.2,0.5c0.4,0.3,0.5,0.7,0.5,1.2
		v2.7c0,0.4-0.2,0.8-0.5,1.1c-0.4,0.3-0.8,0.5-1.2,0.5h-7.7c-0.4,0-0.6,0.2-0.6,0.5v5.3c0,0.3,0.2,0.5,0.6,0.5h5.8
		c0.5,0,0.9,0.2,1.2,0.5s0.5,0.7,0.5,1.2V17c0,0.4-0.2,0.8-0.5,1.1c-0.4,0.3-0.8,0.5-1.2,0.5h-5.8c-0.4,0-0.6,0.2-0.6,0.6v6.5
		c0,0.4,0.2,0.6,0.6,0.6h8.1c0.5,0,0.9,0.2,1.2,0.5c0.4,0.3,0.5,0.7,0.5,1.1V30.7L72.5,30.7z"/>
	<path class="st0" d="M95.2,23.6c0,2.5-0.9,4.7-2.8,6.5c-1.9,1.8-4.1,2.7-6.8,2.7h-0.4c-2.6,0-4.9-0.9-6.8-2.7
		c-1.9-1.8-2.8-4-2.8-6.5V9.1c0-2.5,0.9-4.7,2.8-6.5C80.3,0.9,82.6,0,85.3,0h0.4c2.7,0,4.9,0.9,6.8,2.7c1.9,1.8,2.8,3.9,2.8,6.5v1.3
		c0,0.4-0.2,0.8-0.5,1.1c-0.3,0.3-0.7,0.5-1.2,0.5h-3.4c-0.5,0-0.9-0.2-1.2-0.5c-0.4-0.3-0.5-0.7-0.5-1.1V10c0-1.1-0.3-2-0.8-2.7
		c-0.5-0.7-1.2-1.1-2-1.1c-0.8,0-1.5,0.4-2.1,1.1C82.8,8.1,82.5,9,82.5,10v13.1c0,1.1,0.3,2,0.9,2.7c0.6,0.7,1.3,1.1,2.1,1.1
		s1.5-0.4,2.1-1.1c0.6-0.7,0.9-1.6,0.9-2.7v-1c0-1.1,0.5-1.6,1.6-1.6h3.4c0.5,0,0.9,0.2,1.2,0.5c0.3,0.3,0.5,0.7,0.5,1.2V23.6z"/>
	<path class="st0" d="M119.1,30.6c0.1,0.5,0,0.9-0.3,1.2c-0.3,0.4-0.7,0.5-1.2,0.5h-3.7c-0.9,0-1.4-0.5-1.6-1.5l-1-4.6
		c-0.1-0.4-0.2-0.6-0.5-0.6h-4.9c-0.4,0-0.6,0.2-0.6,0.6l-0.9,4.6c-0.2,1-0.8,1.6-1.7,1.6h-3.6c-0.5,0-0.9-0.2-1.2-0.5
		c-0.3-0.4-0.4-0.8-0.3-1.2l6-28.7c0.2-1,0.7-1.5,1.7-1.5h5.8c0.9,0,1.4,0.5,1.7,1.5L119.1,30.6L119.1,30.6z M109.8,19.1l-1.8-9.4
		l-1.7,9.4c-0.1,0.3,0.1,0.5,0.4,0.5h2.6C109.7,19.6,109.9,19.4,109.8,19.1z"/>
	<path class="st0" d="M141,24.1c0,2.7-0.9,4.8-2.8,6.4c-1.8,1.6-4.2,2.4-7,2.4c-4.6,0-7.7-2.1-9.6-6.3c-0.6-1.4-0.9-2.3-0.9-2.8
		c0-0.7,0.6-1.3,1.7-1.7c0.8-0.2,1.6-0.5,2.4-0.7c0.2-0.1,0.4-0.1,0.6-0.1c0.6,0,1.2,0.5,1.6,1.5c0.7,1.6,1.1,2.5,1.3,2.7
		c0.7,1,1.7,1.4,2.9,1.4c2,0,3-0.9,3-2.8c0-1.3-1.1-2.8-3.3-4.6c-2-1.7-4.1-3.3-6.1-4.9c-2.2-2.1-3.3-4.3-3.3-6.4
		c0-2.6,0.9-4.6,2.8-6.1c1.7-1.4,3.7-2.1,6.2-2.1c2.5,0,4.4,0.7,6.1,2.1c1.5,1.3,2.7,3,3.4,5.2c0.1,0.2,0.1,0.4,0.1,0.6
		c0,0.7-0.5,1.2-1.5,1.6c-0.8,0.2-1.5,0.4-2.3,0.6c-0.2,0.1-0.4,0.1-0.5,0.1c-0.7,0-1.2-0.3-1.5-1c-1.1-2.5-2.3-3.8-3.7-3.8
		c-0.7,0-1.3,0.3-1.8,0.9c-0.5,0.6-0.8,1.3-0.8,2c0,0.9,1.1,2.2,3.4,4c3.4,2.6,5.5,4.2,6.3,5.1C139.9,19.5,141,21.8,141,24.1
		L141,24.1z"/>
	<path class="st0" d="M35.8,0.4h-3.5c-0.9,0-1.6,0.7-1.6,1.6v3.5c0,0.9,0.7,1.6,1.6,1.6h3.5c0.9,0,1.6-0.7,1.6-1.6V2
		C37.3,1.1,36.6,0.4,35.8,0.4z"/>
	<path class="st0" d="M48.9,0.4h-3.5c-0.9,0-1.6,0.7-1.6,1.6v3.5c0,0.9,0.7,1.6,1.6,1.6h3.5c0.9,0,1.6-0.7,1.6-1.6V2
		C50.5,1.1,49.8,0.4,48.9,0.4z"/>
</g>
</svg>
