<?xml version="1.0" encoding="utf-8"?>
<!-- Generator: Adobe Illustrator 24.3.0, SVG Export Plug-In . SVG Version: 6.00 Build 0)  -->
<svg version="1.1" id="Capa_1" xmlns="http://www.w3.org/2000/svg" xmlns:xlink="http://www.w3.org/1999/xlink" x="0px" y="0px"
	 width="1920px" height="96.3px" viewBox="0 0 1920 96.3" style="enable-background:new 0 0 1920 96.3;" xml:space="preserve">
<style type="text/css">
	.st0{fill:#2C2926;}
	.st1{fill:#FFFFFF;}
	.st2{fill:#F0A0B2;}
	.st3{fill:#7A2583;}
	.st4{fill:#F8B42A;}
	.st5{fill:#E72E39;}
</style>
<g>
	<path class="st0" d="M1505.6,73.1h-3.8"/>
	<g>
		<rect class="st1" width="1920" height="96.1"/>
		<rect x="1260.3" y="23" class="st2" width="18.6" height="49.5"/>
		<rect x="1578.8" y="23.1" class="st3" width="18.6" height="49.5"/>
		<rect x="1901.4" y="23.1" class="st4" width="18.6" height="49.5"/>
		<g>
			<path d="M658.8,63.9V41.1h4.5v7.2l-0.4-1.7c0.3-1.1,0.9-2.1,1.6-3c0.8-0.9,1.7-1.6,2.7-2.1c1-0.5,2-0.8,3.1-0.8
				c0.5,0,1,0,1.4,0.1c0.4,0.1,0.8,0.2,1.1,0.3l-1.2,4.9c-0.3-0.1-0.7-0.3-1.2-0.4c-0.4-0.1-0.8-0.2-1.2-0.2c-0.8,0-1.5,0.2-2.2,0.5
				s-1.3,0.7-1.9,1.3c-0.5,0.5-1,1.2-1.3,1.9c-0.3,0.7-0.5,1.5-0.5,2.3v12.6H658.8z"/>
			<path d="M686,64.4c-2.3,0-4.4-0.5-6.2-1.5c-1.8-1-3.2-2.4-4.3-4.1c-1-1.7-1.5-3.7-1.5-6c0-1.8,0.3-3.4,0.9-4.9
				c0.6-1.5,1.4-2.8,2.4-3.8c1-1.1,2.3-1.9,3.7-2.5c1.4-0.6,3-0.9,4.7-0.9c1.5,0,2.9,0.3,4.1,0.8c1.3,0.6,2.4,1.3,3.3,2.3
				c0.9,1,1.7,2.2,2.2,3.5c0.5,1.3,0.7,2.8,0.7,4.4l0,1.9h-18.7l-1-3.6h15.8l-0.7,0.7v-1c-0.1-1-0.4-1.8-1-2.6
				c-0.6-0.8-1.2-1.3-2.1-1.8c-0.8-0.4-1.8-0.7-2.7-0.7c-1.6,0-2.9,0.3-4,0.9c-1.1,0.6-1.9,1.5-2.4,2.6c-0.6,1.1-0.8,2.6-0.8,4.2
				c0,1.6,0.3,3,1,4.2c0.7,1.2,1.6,2.1,2.8,2.7c1.2,0.6,2.6,1,4.2,1c1.1,0,2.2-0.2,3.2-0.6c1-0.4,2-1.1,3.2-2l2.3,3.2
				c-0.7,0.7-1.5,1.3-2.5,1.8c-1,0.5-2.1,0.9-3.2,1.2C688.2,64.2,687.1,64.4,686,64.4z"/>
			<path d="M709.6,64.4c-1.9,0-3.6-0.5-5.2-1.6c-1.6-1-2.8-2.5-3.7-4.3c-0.9-1.8-1.4-3.8-1.4-6.1c0-2.3,0.5-4.3,1.4-6.1
				c0.9-1.8,2.2-3.2,3.8-4.2c1.6-1,3.4-1.5,5.4-1.5c1.2,0,2.3,0.2,3.3,0.5c1,0.3,1.8,0.8,2.6,1.5c0.7,0.6,1.3,1.3,1.8,2.2
				c0.5,0.8,0.8,1.7,0.9,2.6l-1-0.3v-5.9h4.5v22.8h-4.5v-5.4l1-0.3c-0.2,0.8-0.5,1.5-1.1,2.3c-0.5,0.7-1.2,1.4-2,2
				c-0.8,0.6-1.7,1-2.7,1.4C711.8,64.2,710.7,64.4,709.6,64.4z M710.8,60.2c1.4,0,2.6-0.3,3.6-1c1-0.7,1.9-1.6,2.5-2.8
				c0.6-1.2,0.9-2.5,0.9-4c0-1.5-0.3-2.8-0.9-4c-0.6-1.2-1.4-2.1-2.5-2.7c-1-0.7-2.2-1-3.6-1c-1.3,0-2.5,0.3-3.5,1
				c-1,0.7-1.8,1.6-2.4,2.7c-0.6,1.2-0.9,2.5-0.9,4c0,1.5,0.3,2.8,0.9,4c0.6,1.2,1.4,2.1,2.4,2.8C708.3,59.9,709.5,60.2,710.8,60.2z
				"/>
			<path d="M728.5,63.9V31.8h4.5v32.2H728.5z"/>
			<path d="M750.3,53.7v-3.9h21.8v3.9H750.3z M758.8,62.1v-21h4.6v21H758.8z"/>
			<path d="M796.9,64.4c-1.9,0-3.6-0.3-5.2-1c-1.5-0.7-2.8-1.7-3.8-3l3-2.6c0.9,1,1.8,1.7,2.8,2.2c1,0.4,2.2,0.7,3.5,0.7
				c0.5,0,1-0.1,1.5-0.2c0.4-0.1,0.8-0.3,1.2-0.6c0.3-0.3,0.6-0.6,0.8-0.9c0.2-0.4,0.3-0.8,0.3-1.2c0-0.8-0.3-1.4-0.8-1.8
				c-0.3-0.2-0.7-0.4-1.4-0.7c-0.6-0.2-1.4-0.5-2.4-0.8c-1.7-0.4-3.1-0.9-4.1-1.5c-1.1-0.6-1.9-1.2-2.5-1.9c-0.4-0.6-0.8-1.2-1-1.8
				c-0.2-0.7-0.3-1.4-0.3-2.2c0-1,0.2-1.8,0.6-2.6c0.4-0.8,1-1.5,1.7-2.1c0.7-0.6,1.6-1.1,2.6-1.4c1-0.3,2.1-0.5,3.2-0.5
				c1.1,0,2.1,0.1,3.2,0.4c1.1,0.3,2,0.7,2.9,1.3c0.9,0.6,1.7,1.2,2.3,2l-2.6,2.8c-0.6-0.6-1.2-1-1.8-1.5c-0.7-0.4-1.3-0.7-2-1
				c-0.7-0.2-1.3-0.3-1.8-0.3c-0.6,0-1.2,0.1-1.7,0.2c-0.5,0.1-0.9,0.3-1.2,0.5c-0.3,0.2-0.6,0.5-0.8,0.9c-0.2,0.3-0.3,0.7-0.3,1.2
				c0,0.4,0.1,0.7,0.3,1.1c0.2,0.3,0.4,0.6,0.7,0.8c0.3,0.2,0.8,0.5,1.4,0.7s1.4,0.5,2.4,0.7c1.4,0.4,2.6,0.8,3.6,1.2
				c0.9,0.4,1.7,1,2.2,1.5c0.6,0.6,1,1.2,1.2,1.9c0.2,0.7,0.3,1.5,0.3,2.4c0,1.3-0.4,2.5-1.1,3.5c-0.7,1-1.7,1.8-3,2.4
				C799.9,64.1,798.5,64.4,796.9,64.4z"/>
			<path d="M813.1,36.1c-1,0-1.7-0.2-2.2-0.7c-0.5-0.5-0.8-1.2-0.8-2.1c0-0.8,0.3-1.5,0.8-2c0.5-0.5,1.3-0.8,2.2-0.8
				c1,0,1.7,0.2,2.2,0.7c0.5,0.5,0.8,1.2,0.8,2.1c0,0.8-0.3,1.5-0.8,2C814.7,35.8,814,36.1,813.1,36.1z M810.9,63.9V41.1h4.5v22.8
				H810.9z"/>
			<path d="M822.1,63.9V41.1h4.5V46l-0.8,0.5c0.2-0.8,0.6-1.5,1.1-2.2c0.5-0.7,1.1-1.3,1.9-1.8c0.7-0.5,1.5-1,2.4-1.3
				c0.9-0.3,1.7-0.5,2.6-0.5c1.3,0,2.4,0.2,3.4,0.7c1,0.4,1.8,1.1,2.4,2c0.6,0.9,1.1,2,1.4,3.3l-0.7-0.2l0.3-0.7
				c0.3-0.7,0.8-1.3,1.3-1.9c0.6-0.6,1.2-1.1,1.9-1.6c0.7-0.5,1.5-0.8,2.3-1.1c0.8-0.3,1.6-0.4,2.4-0.4c1.7,0,3.1,0.3,4.2,1
				c1.1,0.7,2,1.8,2.5,3.2c0.6,1.4,0.8,3.2,0.8,5.3v13.7h-4.5V50.5c0-1.3-0.2-2.4-0.5-3.2c-0.3-0.8-0.8-1.4-1.5-1.8
				c-0.7-0.4-1.5-0.6-2.6-0.6c-0.8,0-1.6,0.1-2.3,0.4c-0.7,0.3-1.3,0.7-1.8,1.2c-0.5,0.5-0.9,1.1-1.2,1.7c-0.3,0.7-0.4,1.4-0.4,2.2
				v13.7h-4.5V50.4c0-1.2-0.2-2.2-0.5-3c-0.3-0.8-0.9-1.5-1.5-1.9c-0.7-0.4-1.5-0.7-2.4-0.7c-0.8,0-1.6,0.1-2.3,0.4
				c-0.7,0.3-1.3,0.7-1.8,1.1c-0.5,0.5-0.9,1-1.2,1.7c-0.3,0.7-0.4,1.4-0.4,2.1v13.7H822.1z"/>
			<path d="M862.3,73.5V41.1h4.5v5.2l-0.7-0.4c0.2-0.9,0.7-1.7,1.5-2.5c0.8-0.8,1.8-1.4,3-2c1.2-0.5,2.4-0.8,3.6-0.8
				c2.1,0,3.9,0.5,5.5,1.5c1.6,1,2.9,2.4,3.8,4.2c0.9,1.8,1.4,3.8,1.4,6.1c0,2.3-0.5,4.3-1.4,6.1c-0.9,1.8-2.2,3.2-3.8,4.2
				c-1.6,1-3.4,1.5-5.4,1.5c-1.3,0-2.6-0.3-3.9-0.8c-1.2-0.5-2.3-1.2-3.2-2.1c-0.9-0.8-1.4-1.7-1.6-2.6l1.1-0.6v15.3H862.3z
				 M873.6,60.2c1.3,0,2.5-0.3,3.6-1c1-0.7,1.9-1.6,2.5-2.7c0.6-1.2,0.9-2.5,0.9-4c0-1.5-0.3-2.8-0.9-3.9c-0.6-1.1-1.4-2.1-2.5-2.7
				c-1-0.7-2.2-1-3.6-1c-1.4,0-2.6,0.3-3.6,1c-1,0.7-1.9,1.6-2.5,2.7c-0.6,1.2-0.9,2.5-0.9,4c0,1.5,0.3,2.8,0.9,4
				c0.6,1.2,1.4,2.1,2.5,2.7C871,59.9,872.2,60.2,873.6,60.2z"/>
			<path d="M889.8,63.9V31.8h4.5v32.2H889.8z"/>
			<path d="M910.8,64.4c-2.3,0-4.4-0.5-6.2-1.5c-1.8-1-3.2-2.4-4.3-4.1c-1-1.7-1.5-3.7-1.5-6c0-1.8,0.3-3.4,0.9-4.9
				c0.6-1.5,1.4-2.8,2.4-3.8c1-1.1,2.3-1.9,3.7-2.5c1.4-0.6,3-0.9,4.7-0.9c1.5,0,2.9,0.3,4.1,0.8c1.3,0.6,2.4,1.3,3.3,2.3
				c0.9,1,1.7,2.2,2.2,3.5c0.5,1.3,0.7,2.8,0.7,4.4l0,1.9h-18.7l-1-3.6h15.8l-0.7,0.7v-1c-0.1-1-0.4-1.8-1-2.6
				c-0.6-0.8-1.2-1.3-2.1-1.8c-0.8-0.4-1.8-0.7-2.7-0.7c-1.6,0-2.9,0.3-4,0.9c-1.1,0.6-1.9,1.5-2.4,2.6c-0.6,1.1-0.8,2.6-0.8,4.2
				c0,1.6,0.3,3,1,4.2c0.7,1.2,1.6,2.1,2.8,2.7c1.2,0.6,2.6,1,4.2,1c1.1,0,2.2-0.2,3.2-0.6c1-0.4,2-1.1,3.2-2l2.3,3.2
				c-0.7,0.7-1.5,1.3-2.5,1.8c-1,0.5-2.1,0.9-3.2,1.2C913,64.2,911.9,64.4,910.8,64.4z"/>
		</g>
		<g>
			<path d="M1298.4,64V41.2h4.5v7.2l-0.4-1.7c0.3-1.1,0.9-2.1,1.6-3c0.8-0.9,1.7-1.6,2.7-2.1c1-0.5,2-0.8,3.1-0.8c0.5,0,1,0,1.4,0.1
				c0.4,0.1,0.8,0.2,1.1,0.3l-1.2,4.9c-0.3-0.1-0.7-0.3-1.2-0.4c-0.4-0.1-0.8-0.2-1.2-0.2c-0.8,0-1.5,0.2-2.2,0.5
				c-0.7,0.3-1.3,0.7-1.9,1.3c-0.5,0.5-1,1.2-1.3,1.9c-0.3,0.7-0.5,1.5-0.5,2.3V64H1298.4z"/>
			<path d="M1325.7,64.4c-2.3,0-4.4-0.5-6.2-1.5c-1.8-1-3.2-2.4-4.3-4.1c-1-1.7-1.5-3.7-1.5-6c0-1.8,0.3-3.4,0.9-4.9
				c0.6-1.5,1.4-2.8,2.4-3.8c1-1.1,2.3-1.9,3.7-2.5c1.4-0.6,3-0.9,4.7-0.9c1.5,0,2.9,0.3,4.1,0.8c1.3,0.6,2.4,1.3,3.3,2.3
				c0.9,1,1.7,2.2,2.2,3.5c0.5,1.3,0.7,2.8,0.7,4.4l0,1.9h-18.7l-1-3.6h15.8l-0.7,0.7v-1c-0.1-1-0.4-1.8-1-2.6
				c-0.6-0.8-1.2-1.3-2.1-1.8c-0.8-0.4-1.8-0.7-2.7-0.7c-1.6,0-2.9,0.3-4,0.9c-1.1,0.6-1.9,1.5-2.4,2.6c-0.6,1.1-0.8,2.6-0.8,4.2
				c0,1.6,0.3,3,1,4.2c0.7,1.2,1.6,2.1,2.8,2.7c1.2,0.6,2.6,1,4.2,1c1.1,0,2.2-0.2,3.2-0.6c1-0.4,2-1.1,3.2-2l2.3,3.2
				c-0.7,0.7-1.5,1.3-2.5,1.8c-1,0.5-2.1,0.9-3.2,1.2C1327.8,64.3,1326.7,64.4,1325.7,64.4z"/>
			<path d="M1349.3,64.4c-1.9,0-3.6-0.5-5.2-1.6c-1.6-1-2.8-2.5-3.7-4.3c-0.9-1.8-1.4-3.8-1.4-6.1c0-2.3,0.5-4.3,1.4-6.1
				c0.9-1.8,2.2-3.2,3.8-4.2c1.6-1,3.4-1.5,5.4-1.5c1.2,0,2.3,0.2,3.3,0.5c1,0.3,1.8,0.8,2.6,1.5c0.7,0.6,1.3,1.3,1.8,2.2
				c0.5,0.8,0.8,1.7,0.9,2.6l-1-0.3v-5.9h4.5V64h-4.5v-5.4l1-0.3c-0.2,0.8-0.5,1.5-1.1,2.3c-0.5,0.7-1.2,1.4-2,2
				c-0.8,0.6-1.7,1-2.7,1.4C1351.4,64.2,1350.4,64.4,1349.3,64.4z M1350.5,60.3c1.4,0,2.6-0.3,3.6-1c1-0.7,1.9-1.6,2.5-2.8
				c0.6-1.2,0.9-2.5,0.9-4c0-1.5-0.3-2.8-0.9-4c-0.6-1.2-1.4-2.1-2.5-2.7c-1-0.7-2.2-1-3.6-1c-1.3,0-2.5,0.3-3.5,1
				c-1,0.7-1.8,1.6-2.4,2.7c-0.6,1.2-0.9,2.5-0.9,4c0,1.5,0.3,2.8,0.9,4c0.6,1.2,1.4,2.1,2.4,2.8
				C1347.9,59.9,1349.1,60.3,1350.5,60.3z"/>
			<path d="M1368.1,64V31.8h4.5V64H1368.1z"/>
			<path d="M1389.9,53.8v-3.9h21.8v3.9H1389.9z M1398.5,62.2v-21h4.6v21H1398.5z"/>
			<path d="M1436.6,64.4c-1.9,0-3.6-0.3-5.2-1c-1.5-0.7-2.8-1.7-3.8-3l3-2.6c0.9,1,1.8,1.7,2.8,2.2c1,0.4,2.2,0.7,3.5,0.7
				c0.5,0,1-0.1,1.5-0.2c0.4-0.1,0.8-0.3,1.2-0.6c0.3-0.3,0.6-0.6,0.8-0.9c0.2-0.4,0.3-0.8,0.3-1.2c0-0.8-0.3-1.4-0.8-1.8
				c-0.3-0.2-0.7-0.4-1.4-0.7c-0.6-0.2-1.4-0.5-2.4-0.8c-1.7-0.4-3.1-0.9-4.1-1.5c-1.1-0.6-1.9-1.2-2.5-1.9c-0.4-0.6-0.8-1.2-1-1.8
				c-0.2-0.7-0.3-1.4-0.3-2.2c0-1,0.2-1.8,0.6-2.6c0.4-0.8,1-1.5,1.7-2.1c0.7-0.6,1.6-1.1,2.6-1.4c1-0.3,2.1-0.5,3.2-0.5
				c1.1,0,2.1,0.1,3.2,0.4c1.1,0.3,2,0.7,2.9,1.3c0.9,0.6,1.7,1.2,2.3,2l-2.6,2.8c-0.6-0.6-1.2-1-1.8-1.5c-0.7-0.4-1.3-0.7-2-1
				c-0.7-0.2-1.3-0.3-1.8-0.3c-0.6,0-1.2,0.1-1.7,0.2c-0.5,0.1-0.9,0.3-1.2,0.5c-0.3,0.2-0.6,0.5-0.8,0.9c-0.2,0.3-0.3,0.7-0.3,1.2
				c0,0.4,0.1,0.7,0.3,1.1c0.2,0.3,0.4,0.6,0.7,0.8c0.3,0.2,0.8,0.5,1.4,0.7c0.6,0.3,1.4,0.5,2.4,0.7c1.4,0.4,2.6,0.8,3.6,1.2
				c0.9,0.4,1.7,1,2.2,1.5c0.6,0.6,1,1.2,1.2,1.9s0.3,1.5,0.3,2.4c0,1.3-0.4,2.5-1.1,3.5c-0.7,1-1.7,1.8-3,2.4
				C1439.5,64.1,1438.1,64.4,1436.6,64.4z"/>
			<path d="M1452.7,36.1c-1,0-1.7-0.2-2.2-0.7c-0.5-0.5-0.8-1.2-0.8-2.1c0-0.8,0.3-1.5,0.8-2c0.5-0.5,1.3-0.8,2.2-0.8
				c1,0,1.7,0.2,2.2,0.7c0.5,0.5,0.8,1.2,0.8,2.1c0,0.8-0.3,1.5-0.8,2C1454.4,35.8,1453.6,36.1,1452.7,36.1z M1450.5,64V41.2h4.5V64
				H1450.5z"/>
			<path d="M1461.8,64V41.2h4.5V46l-0.8,0.5c0.2-0.8,0.6-1.5,1.1-2.2c0.5-0.7,1.1-1.3,1.9-1.8c0.7-0.5,1.5-1,2.4-1.3
				c0.9-0.3,1.7-0.5,2.6-0.5c1.3,0,2.4,0.2,3.4,0.7c1,0.4,1.8,1.1,2.4,2c0.6,0.9,1.1,2,1.4,3.3l-0.7-0.2l0.3-0.7
				c0.3-0.7,0.8-1.3,1.3-1.9c0.6-0.6,1.2-1.1,1.9-1.6c0.7-0.5,1.5-0.8,2.3-1.1c0.8-0.3,1.6-0.4,2.4-0.4c1.7,0,3.1,0.3,4.2,1
				c1.1,0.7,2,1.8,2.5,3.2c0.6,1.4,0.8,3.2,0.8,5.3V64h-4.5V50.5c0-1.3-0.2-2.4-0.5-3.2c-0.3-0.8-0.8-1.4-1.5-1.8
				c-0.7-0.4-1.5-0.6-2.6-0.6c-0.8,0-1.6,0.1-2.3,0.4c-0.7,0.3-1.3,0.7-1.8,1.2c-0.5,0.5-0.9,1.1-1.2,1.7c-0.3,0.7-0.4,1.4-0.4,2.2
				V64h-4.5V50.5c0-1.2-0.2-2.2-0.5-3c-0.3-0.8-0.9-1.5-1.5-1.9c-0.7-0.4-1.5-0.7-2.4-0.7c-0.8,0-1.6,0.1-2.3,0.4
				c-0.7,0.3-1.3,0.7-1.8,1.1c-0.5,0.5-0.9,1-1.2,1.7c-0.3,0.7-0.4,1.4-0.4,2.1V64H1461.8z"/>
			<path d="M1501.9,73.5V41.2h4.5v5.2l-0.7-0.4c0.2-0.9,0.7-1.7,1.5-2.5c0.8-0.8,1.8-1.4,3-2c1.2-0.5,2.4-0.8,3.6-0.8
				c2.1,0,3.9,0.5,5.5,1.5c1.6,1,2.9,2.4,3.8,4.2c0.9,1.8,1.4,3.8,1.4,6.1c0,2.3-0.5,4.3-1.4,6.1c-0.9,1.8-2.2,3.2-3.8,4.2
				c-1.6,1-3.4,1.5-5.4,1.5c-1.3,0-2.6-0.3-3.9-0.8c-1.2-0.5-2.3-1.2-3.2-2.1c-0.9-0.8-1.4-1.7-1.6-2.6l1.1-0.6v15.3H1501.9z
				 M1513.2,60.2c1.3,0,2.5-0.3,3.6-1c1-0.7,1.9-1.6,2.5-2.7c0.6-1.2,0.9-2.5,0.9-4c0-1.5-0.3-2.8-0.9-3.9c-0.6-1.1-1.4-2.1-2.5-2.7
				c-1-0.7-2.2-1-3.6-1c-1.4,0-2.6,0.3-3.6,1c-1,0.7-1.9,1.6-2.5,2.7c-0.6,1.2-0.9,2.5-0.9,4c0,1.5,0.3,2.8,0.9,4
				c0.6,1.2,1.4,2.1,2.5,2.7C1510.7,59.9,1511.9,60.2,1513.2,60.2z"/>
			<path d="M1529.4,64V31.8h4.5V64H1529.4z"/>
			<path d="M1550.5,64.4c-2.3,0-4.4-0.5-6.2-1.5c-1.8-1-3.2-2.4-4.3-4.1c-1-1.7-1.5-3.7-1.5-6c0-1.8,0.3-3.4,0.9-4.9
				c0.6-1.5,1.4-2.8,2.4-3.8c1-1.1,2.3-1.9,3.7-2.5c1.4-0.6,3-0.9,4.7-0.9c1.5,0,2.9,0.3,4.1,0.8c1.3,0.6,2.4,1.3,3.3,2.3
				c0.9,1,1.7,2.2,2.2,3.5c0.5,1.3,0.7,2.8,0.7,4.4l0,1.9h-18.7l-1-3.6h15.8l-0.7,0.7v-1c-0.1-1-0.4-1.8-1-2.6
				c-0.6-0.8-1.2-1.3-2.1-1.8c-0.8-0.4-1.8-0.7-2.7-0.7c-1.6,0-2.9,0.3-4,0.9c-1.1,0.6-1.9,1.5-2.4,2.6c-0.6,1.1-0.8,2.6-0.8,4.2
				c0,1.6,0.3,3,1,4.2c0.7,1.2,1.6,2.1,2.8,2.7c1.2,0.6,2.6,1,4.2,1c1.1,0,2.2-0.2,3.2-0.6c1-0.4,2-1.1,3.2-2l2.3,3.2
				c-0.7,0.7-1.5,1.3-2.5,1.8c-1,0.5-2.1,0.9-3.2,1.2C1552.7,64.3,1551.6,64.4,1550.5,64.4z"/>
		</g>
		<g>
			<path d="M337.4,63.5v-22h6.3l0.3,7.2l-1.2-1.4c0.3-1.2,0.9-2.3,1.6-3.2c0.8-0.9,1.7-1.7,2.7-2.2c1-0.6,2.1-0.8,3.3-0.8
				c0.5,0,1,0,1.4,0.1c0.4,0.1,0.8,0.2,1.2,0.3l-1.8,7.3c-0.3-0.2-0.7-0.4-1.2-0.5c-0.5-0.1-1-0.2-1.6-0.2c-0.6,0-1.2,0.1-1.7,0.3
				c-0.5,0.2-1,0.5-1.3,0.9c-0.4,0.4-0.6,0.8-0.9,1.4c-0.2,0.5-0.3,1.1-0.3,1.8v11H337.4z"/>
			<path d="M365.9,63.9c-2.4,0-4.5-0.5-6.3-1.5c-1.8-1-3.2-2.3-4.2-4c-1-1.7-1.5-3.6-1.5-5.8c0-1.7,0.3-3.2,0.8-4.6
				c0.6-1.4,1.3-2.6,2.3-3.7c1-1,2.2-1.8,3.5-2.4c1.4-0.6,2.9-0.8,4.5-0.8c1.5,0,3,0.3,4.3,0.8c1.3,0.6,2.4,1.3,3.3,2.3
				c0.9,1,1.7,2.2,2.2,3.5c0.5,1.4,0.7,2.8,0.7,4.4l0,1.8h-17.5l-1-3.7H370l-0.7,0.8v-0.8c-0.1-0.7-0.3-1.3-0.6-1.8
				c-0.4-0.5-0.9-1-1.5-1.3c-0.6-0.3-1.3-0.5-2.1-0.5c-1.1,0-2,0.2-2.8,0.6c-0.8,0.4-1.3,1.1-1.7,1.9c-0.4,0.8-0.6,1.8-0.6,3
				c0,1.2,0.3,2.3,0.8,3.2c0.5,0.9,1.3,1.6,2.2,2.1c1,0.5,2.1,0.7,3.5,0.7c0.9,0,1.8-0.1,2.5-0.4c0.7-0.3,1.5-0.7,2.4-1.4l3.1,4.4
				c-0.9,0.7-1.8,1.4-2.7,1.8c-1,0.5-2,0.8-3,1.1C367.9,63.8,366.9,63.9,365.9,63.9z"/>
			<path d="M387.8,63.9c-1.9,0-3.5-0.5-5-1.5c-1.5-1-2.6-2.3-3.5-4.1c-0.9-1.7-1.3-3.7-1.3-5.9c0-2.2,0.4-4.2,1.3-5.9
				c0.9-1.7,2-3.1,3.5-4c1.5-1,3.2-1.5,5.1-1.5c1.1,0,2,0.2,2.9,0.5c0.9,0.3,1.6,0.7,2.3,1.3c0.7,0.5,1.2,1.2,1.7,1.9
				c0.5,0.7,0.8,1.5,1,2.3l-1.4-0.2v-5.2h6.6v22h-6.7v-5.3l1.5,0c-0.2,0.8-0.6,1.5-1.1,2.2c-0.5,0.7-1.1,1.3-1.8,1.8
				c-0.7,0.5-1.5,0.9-2.4,1.2C389.7,63.7,388.8,63.9,387.8,63.9z M389.6,58.3c1,0,1.9-0.2,2.7-0.7c0.7-0.5,1.3-1.1,1.7-2
				c0.4-0.9,0.6-1.9,0.6-3.1c0-1.2-0.2-2.2-0.6-3.1c-0.4-0.9-1-1.5-1.7-2c-0.7-0.5-1.6-0.7-2.7-0.7c-1,0-1.9,0.2-2.6,0.7
				c-0.7,0.5-1.3,1.2-1.7,2c-0.4,0.9-0.6,1.9-0.6,3.1c0,1.2,0.2,2.2,0.6,3.1c0.4,0.9,1,1.5,1.7,2C387.8,58,388.6,58.3,389.6,58.3z"
				/>
			<path d="M407,63.5V32.8h6.6v30.7H407z"/>
			<path d="M431.9,54.5V49h20.8v5.4H431.9z M439.4,61.9V41.6h5.9v20.3H439.4z"/>
			<path d="M478.3,63.9c-2.2,0-4.1-0.3-5.7-1c-1.6-0.7-3-1.6-3.9-2.8l4-3.5c0.9,0.9,1.8,1.5,2.9,1.9c1.1,0.4,2.1,0.6,3.1,0.6
				c0.4,0,0.7,0,1-0.1c0.3-0.1,0.6-0.2,0.8-0.4c0.2-0.2,0.4-0.3,0.5-0.5c0.1-0.2,0.2-0.4,0.2-0.7c0-0.6-0.2-1-0.7-1.3
				c-0.2-0.1-0.7-0.3-1.2-0.5c-0.6-0.2-1.3-0.4-2.2-0.7c-1.3-0.3-2.4-0.7-3.4-1.2c-1-0.5-1.7-1-2.3-1.6c-0.6-0.6-1-1.2-1.3-1.9
				c-0.3-0.7-0.5-1.5-0.5-2.4c0-1,0.2-1.9,0.7-2.8c0.5-0.8,1.1-1.5,1.9-2.2c0.8-0.6,1.8-1.1,2.8-1.4c1.1-0.3,2.2-0.5,3.3-0.5
				c1.2,0,2.4,0.1,3.5,0.4c1.1,0.3,2.1,0.7,3.1,1.2c1,0.5,1.8,1.1,2.6,1.8l-3.5,3.9c-0.5-0.5-1.1-0.9-1.7-1.3
				c-0.6-0.4-1.3-0.7-1.9-0.9c-0.7-0.2-1.3-0.3-1.8-0.3c-0.4,0-0.8,0-1.1,0.1c-0.3,0.1-0.6,0.2-0.8,0.3c-0.2,0.2-0.4,0.3-0.5,0.5
				c-0.1,0.2-0.2,0.5-0.2,0.7c0,0.3,0.1,0.5,0.2,0.8c0.2,0.2,0.4,0.5,0.6,0.6c0.3,0.2,0.7,0.4,1.3,0.6c0.6,0.2,1.4,0.5,2.5,0.8
				c1.3,0.4,2.4,0.8,3.4,1.2c0.9,0.4,1.7,1,2.2,1.6c0.4,0.5,0.8,1,1,1.6c0.2,0.6,0.3,1.3,0.3,2c0,1.4-0.4,2.7-1.2,3.8
				c-0.8,1.1-1.9,1.9-3.3,2.6C481.7,63.6,480.1,63.9,478.3,63.9z"/>
			<path d="M495.1,37.1c-1.2,0-2.2-0.3-2.9-0.9c-0.7-0.6-1.1-1.4-1.1-2.6c0-1,0.4-1.8,1.1-2.4c0.7-0.6,1.7-1,2.9-1
				c1.2,0,2.2,0.3,2.9,0.9c0.7,0.6,1,1.4,1,2.5c0,1-0.4,1.9-1.1,2.5C497.3,36.8,496.4,37.1,495.1,37.1z M491.8,63.5v-22h6.6v22
				H491.8z"/>
			<path d="M504.6,63.5v-22h6.3l0.2,4l-0.9,0c0.3-0.7,0.8-1.4,1.3-1.9c0.5-0.6,1.1-1,1.7-1.4c0.6-0.4,1.3-0.7,2-0.9
				c0.7-0.2,1.4-0.3,2.1-0.3c1.1,0,2.1,0.2,2.9,0.5c0.9,0.3,1.7,0.9,2.3,1.6c0.7,0.7,1.2,1.7,1.6,3l-1-0.1l0.3-0.7
				c0.4-0.7,0.8-1.3,1.4-1.8c0.6-0.5,1.2-1,1.9-1.4c0.7-0.4,1.4-0.7,2.2-0.9c0.7-0.2,1.5-0.3,2.2-0.3c1.7,0,3.2,0.3,4.4,1
				c1.2,0.7,2,1.7,2.6,3c0.6,1.4,0.9,3,0.9,4.9v13.4h-6.7V50.6c0-0.9-0.1-1.6-0.4-2.2c-0.2-0.6-0.6-1-1.1-1.3
				c-0.5-0.3-1.1-0.4-1.8-0.4c-0.6,0-1.1,0.1-1.6,0.3c-0.5,0.2-0.9,0.5-1.2,0.8c-0.3,0.3-0.6,0.7-0.8,1.2c-0.2,0.4-0.3,0.9-0.3,1.5
				v13.1h-6.7V50.6c0-0.8-0.1-1.5-0.4-2.1c-0.2-0.6-0.6-1-1.1-1.3c-0.5-0.3-1.1-0.5-1.7-0.5c-0.6,0-1.1,0.1-1.6,0.3
				c-0.5,0.2-0.9,0.5-1.2,0.8c-0.3,0.3-0.6,0.7-0.8,1.2c-0.2,0.4-0.3,0.9-0.3,1.5v13.1H504.6z"/>
			<path d="M544.6,72.6V41.5h6.3l0.2,4.9l-1.2-0.4c0.2-0.9,0.7-1.7,1.4-2.5c0.7-0.7,1.7-1.3,2.8-1.8c1.1-0.5,2.4-0.7,3.6-0.7
				c1.9,0,3.6,0.5,5,1.5c1.5,1,2.6,2.3,3.5,4c0.8,1.7,1.3,3.7,1.3,5.9c0,2.2-0.4,4.2-1.3,5.9c-0.8,1.7-2,3.1-3.5,4
				c-1.5,1-3.2,1.5-5.1,1.5c-1.2,0-2.4-0.2-3.6-0.7c-1.1-0.5-2.1-1.1-2.9-1.9c-0.8-0.8-1.3-1.7-1.5-2.6l1.5-0.6v14.6H544.6z
				 M556.1,58.3c1,0,1.9-0.2,2.6-0.7c0.7-0.5,1.3-1.2,1.7-2c0.4-0.9,0.6-1.9,0.6-3.1c0-1.2-0.2-2.2-0.6-3c-0.4-0.9-1-1.5-1.7-2
				c-0.7-0.5-1.6-0.7-2.6-0.7c-1,0-1.9,0.2-2.7,0.7c-0.7,0.5-1.3,1.1-1.7,2c-0.4,0.9-0.6,1.9-0.6,3.1c0,1.2,0.2,2.2,0.6,3.1
				c0.4,0.9,1,1.5,1.7,2C554.2,58,555.1,58.3,556.1,58.3z"/>
			<path d="M572,63.5V32.8h6.6v30.7H572z"/>
			<path d="M594.6,63.9c-2.4,0-4.5-0.5-6.3-1.5c-1.8-1-3.2-2.3-4.2-4c-1-1.7-1.5-3.6-1.5-5.8c0-1.7,0.3-3.2,0.8-4.6
				c0.6-1.4,1.3-2.6,2.3-3.7c1-1,2.2-1.8,3.5-2.4c1.4-0.6,2.9-0.8,4.5-0.8c1.5,0,3,0.3,4.3,0.8c1.3,0.6,2.4,1.3,3.3,2.3
				c0.9,1,1.7,2.2,2.2,3.5c0.5,1.4,0.7,2.8,0.7,4.4l0,1.8h-17.5l-1-3.7h13.1l-0.7,0.8v-0.8c-0.1-0.7-0.3-1.3-0.6-1.8s-0.9-1-1.5-1.3
				c-0.6-0.3-1.3-0.5-2.1-0.5c-1.1,0-2,0.2-2.8,0.6c-0.8,0.4-1.3,1.1-1.7,1.9c-0.4,0.8-0.6,1.8-0.6,3c0,1.2,0.3,2.3,0.8,3.2
				c0.5,0.9,1.3,1.6,2.2,2.1c1,0.5,2.1,0.7,3.5,0.7c0.9,0,1.8-0.1,2.5-0.4c0.7-0.3,1.5-0.7,2.4-1.4l3.1,4.4
				c-0.9,0.7-1.8,1.4-2.7,1.8c-1,0.5-2,0.8-3,1.1C596.6,63.8,595.6,63.9,594.6,63.9z"/>
		</g>
		<g>
			<path d="M975.5,63.1v-22h6.3l0.3,7.2l-1.2-1.4c0.3-1.2,0.9-2.3,1.6-3.2c0.8-0.9,1.7-1.7,2.7-2.2c1-0.6,2.1-0.8,3.3-0.8
				c0.5,0,1,0,1.4,0.1c0.4,0.1,0.8,0.2,1.2,0.3l-1.8,7.3c-0.3-0.2-0.7-0.4-1.2-0.5c-0.5-0.1-1-0.2-1.6-0.2c-0.6,0-1.2,0.1-1.7,0.3
				c-0.5,0.2-1,0.5-1.3,0.9c-0.4,0.4-0.6,0.8-0.9,1.4c-0.2,0.5-0.3,1.1-0.3,1.8v11H975.5z"/>
			<path d="M1004,63.6c-2.4,0-4.5-0.5-6.3-1.5c-1.8-1-3.2-2.3-4.2-4c-1-1.7-1.5-3.6-1.5-5.8c0-1.7,0.3-3.2,0.8-4.6
				c0.6-1.4,1.3-2.6,2.3-3.7c1-1,2.2-1.8,3.5-2.4c1.4-0.6,2.9-0.8,4.5-0.8c1.5,0,3,0.3,4.3,0.8c1.3,0.6,2.4,1.3,3.3,2.3
				c0.9,1,1.7,2.2,2.2,3.5c0.5,1.4,0.7,2.8,0.7,4.4l0,1.8h-17.5l-1-3.7h13.1l-0.7,0.8v-0.8c-0.1-0.7-0.3-1.3-0.6-1.8s-0.9-1-1.5-1.3
				c-0.6-0.3-1.3-0.5-2.1-0.5c-1.1,0-2,0.2-2.8,0.6c-0.8,0.4-1.3,1.1-1.7,1.9c-0.4,0.8-0.6,1.8-0.6,3c0,1.2,0.3,2.3,0.8,3.2
				c0.5,0.9,1.3,1.6,2.2,2.1c1,0.5,2.1,0.7,3.5,0.7c0.9,0,1.8-0.1,2.5-0.4c0.7-0.3,1.5-0.7,2.4-1.4l3.1,4.4
				c-0.9,0.7-1.8,1.4-2.7,1.8c-1,0.5-2,0.8-3,1.1C1006,63.4,1005,63.6,1004,63.6z"/>
			<path d="M1025.9,63.5c-1.9,0-3.5-0.5-5-1.5c-1.5-1-2.6-2.3-3.5-4.1c-0.9-1.7-1.3-3.7-1.3-5.9c0-2.2,0.4-4.2,1.3-5.9
				c0.9-1.7,2-3.1,3.5-4c1.5-1,3.2-1.5,5.1-1.5c1.1,0,2,0.2,2.9,0.5c0.9,0.3,1.6,0.7,2.3,1.3c0.7,0.5,1.2,1.2,1.7,1.9
				c0.5,0.7,0.8,1.5,1,2.3l-1.4-0.2v-5.2h6.6v22h-6.7v-5.3l1.5,0c-0.2,0.8-0.6,1.5-1.1,2.2c-0.5,0.7-1.1,1.3-1.8,1.8
				c-0.7,0.5-1.5,0.9-2.4,1.2C1027.8,63.4,1026.9,63.5,1025.9,63.5z M1027.7,57.9c1,0,1.9-0.2,2.7-0.7c0.7-0.5,1.3-1.1,1.7-2
				c0.4-0.9,0.6-1.9,0.6-3.1c0-1.2-0.2-2.2-0.6-3.1c-0.4-0.9-1-1.5-1.7-2c-0.7-0.5-1.6-0.7-2.7-0.7c-1,0-1.9,0.2-2.6,0.7
				c-0.7,0.5-1.3,1.2-1.7,2c-0.4,0.9-0.6,1.9-0.6,3.1c0,1.2,0.2,2.2,0.6,3.1c0.4,0.9,1,1.5,1.7,2
				C1025.9,57.7,1026.7,57.9,1027.7,57.9z"/>
			<path d="M1045.1,63.1V32.5h6.6v30.7H1045.1z"/>
			<path d="M1070,54.1v-5.4h20.8v5.4H1070z M1077.5,61.5V41.2h5.9v20.3H1077.5z"/>
			<path d="M1116.4,63.6c-2.2,0-4.1-0.3-5.7-1c-1.6-0.7-3-1.6-3.9-2.8l4-3.5c0.9,0.9,1.8,1.5,2.9,1.9c1.1,0.4,2.1,0.6,3.1,0.6
				c0.4,0,0.7,0,1-0.1c0.3-0.1,0.6-0.2,0.8-0.4c0.2-0.2,0.4-0.3,0.5-0.5c0.1-0.2,0.2-0.4,0.2-0.7c0-0.6-0.2-1-0.7-1.3
				c-0.2-0.1-0.7-0.3-1.2-0.5c-0.6-0.2-1.3-0.4-2.2-0.7c-1.3-0.3-2.4-0.7-3.4-1.2c-1-0.5-1.7-1-2.3-1.6c-0.6-0.6-1-1.2-1.3-1.9
				c-0.3-0.7-0.5-1.5-0.5-2.4c0-1,0.2-1.9,0.7-2.8c0.5-0.8,1.1-1.5,1.9-2.2c0.8-0.6,1.8-1.1,2.8-1.4c1.1-0.3,2.2-0.5,3.3-0.5
				c1.2,0,2.4,0.1,3.5,0.4c1.1,0.3,2.1,0.7,3.1,1.2c1,0.5,1.8,1.1,2.6,1.8l-3.5,3.9c-0.5-0.5-1.1-0.9-1.7-1.3
				c-0.6-0.4-1.3-0.7-1.9-0.9c-0.7-0.2-1.3-0.3-1.8-0.3c-0.4,0-0.8,0-1.1,0.1c-0.3,0.1-0.6,0.2-0.8,0.3c-0.2,0.2-0.4,0.3-0.5,0.5
				c-0.1,0.2-0.2,0.5-0.2,0.7c0,0.3,0.1,0.5,0.2,0.8c0.2,0.2,0.4,0.5,0.6,0.6c0.3,0.2,0.7,0.4,1.3,0.6c0.6,0.2,1.4,0.5,2.5,0.8
				c1.3,0.4,2.4,0.8,3.4,1.2c0.9,0.4,1.7,1,2.2,1.6c0.4,0.5,0.8,1,1,1.6c0.2,0.6,0.3,1.3,0.3,2c0,1.4-0.4,2.7-1.2,3.8
				c-0.8,1.1-1.9,1.9-3.3,2.6C1119.8,63.3,1118.2,63.6,1116.4,63.6z"/>
			<path d="M1133.2,36.8c-1.2,0-2.2-0.3-2.9-0.9c-0.7-0.6-1.1-1.4-1.1-2.6c0-1,0.4-1.8,1.1-2.4c0.7-0.6,1.7-1,2.9-1
				c1.2,0,2.2,0.3,2.9,0.9c0.7,0.6,1,1.4,1,2.5c0,1-0.4,1.9-1.1,2.5C1135.4,36.5,1134.5,36.8,1133.2,36.8z M1129.9,63.1v-22h6.6v22
				H1129.9z"/>
			<path d="M1142.7,63.1v-22h6.3l0.2,4l-0.9,0c0.3-0.7,0.8-1.4,1.3-1.9c0.5-0.6,1.1-1,1.7-1.4c0.6-0.4,1.3-0.7,2-0.9
				c0.7-0.2,1.4-0.3,2.1-0.3c1.1,0,2.1,0.2,2.9,0.5c0.9,0.3,1.7,0.9,2.3,1.6c0.7,0.7,1.2,1.7,1.6,3l-1-0.1l0.3-0.7
				c0.4-0.7,0.8-1.3,1.4-1.8c0.6-0.5,1.2-1,1.9-1.4c0.7-0.4,1.4-0.7,2.2-0.9c0.7-0.2,1.5-0.3,2.2-0.3c1.7,0,3.2,0.3,4.4,1
				c1.2,0.7,2,1.7,2.6,3c0.6,1.4,0.9,3,0.9,4.9v13.4h-6.7V50.2c0-0.9-0.1-1.6-0.4-2.2c-0.2-0.6-0.6-1-1.1-1.3
				c-0.5-0.3-1.1-0.4-1.8-0.4c-0.6,0-1.1,0.1-1.6,0.3c-0.5,0.2-0.9,0.5-1.2,0.8c-0.3,0.3-0.6,0.7-0.8,1.2c-0.2,0.4-0.3,0.9-0.3,1.5
				v13.1h-6.7V50.2c0-0.8-0.1-1.5-0.4-2.1c-0.2-0.6-0.6-1-1.1-1.3c-0.5-0.3-1.1-0.5-1.7-0.5c-0.6,0-1.1,0.1-1.6,0.3
				c-0.5,0.2-0.9,0.5-1.2,0.8c-0.3,0.3-0.6,0.7-0.8,1.2c-0.2,0.4-0.3,0.9-0.3,1.5v13.1H1142.7z"/>
			<path d="M1182.7,72.3V41.1h6.3l0.2,4.9l-1.2-0.4c0.2-0.9,0.7-1.7,1.4-2.5c0.7-0.7,1.7-1.3,2.8-1.8c1.1-0.5,2.4-0.7,3.6-0.7
				c1.9,0,3.6,0.5,5,1.5c1.5,1,2.6,2.3,3.5,4c0.8,1.7,1.3,3.7,1.3,5.9c0,2.2-0.4,4.2-1.3,5.9c-0.8,1.7-2,3.1-3.5,4
				c-1.5,1-3.2,1.5-5.1,1.5c-1.2,0-2.4-0.2-3.6-0.7c-1.1-0.5-2.1-1.1-2.9-1.9c-0.8-0.8-1.3-1.7-1.5-2.6l1.5-0.6v14.6H1182.7z
				 M1194.2,57.9c1,0,1.9-0.2,2.6-0.7c0.7-0.5,1.3-1.2,1.7-2c0.4-0.9,0.6-1.9,0.6-3.1c0-1.2-0.2-2.2-0.6-3c-0.4-0.9-1-1.5-1.7-2
				c-0.7-0.5-1.6-0.7-2.6-0.7c-1,0-1.9,0.2-2.7,0.7c-0.7,0.5-1.3,1.1-1.7,2c-0.4,0.9-0.6,1.9-0.6,3.1c0,1.2,0.2,2.2,0.6,3.1
				c0.4,0.9,1,1.5,1.7,2C1192.3,57.7,1193.2,57.9,1194.2,57.9z"/>
			<path d="M1210.1,63.1V32.5h6.6v30.7H1210.1z"/>
			<path d="M1232.7,63.6c-2.4,0-4.5-0.5-6.3-1.5c-1.8-1-3.2-2.3-4.2-4c-1-1.7-1.5-3.6-1.5-5.8c0-1.7,0.3-3.2,0.8-4.6
				c0.6-1.4,1.3-2.6,2.3-3.7c1-1,2.2-1.8,3.5-2.4c1.4-0.6,2.9-0.8,4.5-0.8c1.5,0,3,0.3,4.3,0.8c1.3,0.6,2.4,1.3,3.3,2.3
				c0.9,1,1.7,2.2,2.2,3.5c0.5,1.4,0.7,2.8,0.7,4.4l0,1.8h-17.5l-1-3.7h13.1l-0.7,0.8v-0.8c-0.1-0.7-0.3-1.3-0.6-1.8
				c-0.4-0.5-0.9-1-1.5-1.3c-0.6-0.3-1.3-0.5-2.1-0.5c-1.1,0-2,0.2-2.8,0.6c-0.8,0.4-1.3,1.1-1.7,1.9c-0.4,0.8-0.6,1.8-0.6,3
				c0,1.2,0.3,2.3,0.8,3.2c0.5,0.9,1.3,1.6,2.2,2.1c1,0.5,2.1,0.7,3.5,0.7c0.9,0,1.8-0.1,2.5-0.4c0.7-0.3,1.5-0.7,2.4-1.4l3.1,4.4
				c-0.9,0.7-1.8,1.4-2.7,1.8c-1,0.5-2,0.8-3,1.1C1234.7,63.4,1233.7,63.6,1232.7,63.6z"/>
		</g>
		<g>
			<path d="M1616.7,63.5v-22h6.3l0.3,7.2l-1.2-1.4c0.3-1.2,0.9-2.3,1.6-3.2c0.8-0.9,1.7-1.7,2.7-2.2c1-0.6,2.1-0.8,3.3-0.8
				c0.5,0,1,0,1.4,0.1c0.4,0.1,0.8,0.2,1.2,0.3l-1.8,7.3c-0.3-0.2-0.7-0.4-1.2-0.5c-0.5-0.1-1-0.2-1.6-0.2c-0.6,0-1.2,0.1-1.7,0.3
				c-0.5,0.2-1,0.5-1.3,0.9c-0.4,0.4-0.6,0.8-0.9,1.4c-0.2,0.5-0.3,1.1-0.3,1.8v11H1616.7z"/>
			<path d="M1645.2,64c-2.4,0-4.5-0.5-6.3-1.5c-1.8-1-3.2-2.3-4.2-4c-1-1.7-1.5-3.6-1.5-5.8c0-1.7,0.3-3.2,0.8-4.6
				c0.6-1.4,1.3-2.6,2.3-3.7c1-1,2.2-1.8,3.5-2.4c1.4-0.6,2.9-0.8,4.5-0.8c1.5,0,3,0.3,4.3,0.8c1.3,0.6,2.4,1.3,3.3,2.3
				c0.9,1,1.7,2.2,2.2,3.5c0.5,1.4,0.7,2.8,0.7,4.4l0,1.8h-17.5l-1-3.7h13.1l-0.7,0.8v-0.8c-0.1-0.7-0.3-1.3-0.6-1.8
				c-0.4-0.5-0.9-1-1.5-1.3c-0.6-0.3-1.3-0.5-2.1-0.5c-1.1,0-2,0.2-2.8,0.6c-0.8,0.4-1.3,1.1-1.7,1.9c-0.4,0.8-0.6,1.8-0.6,3
				c0,1.2,0.3,2.3,0.8,3.2c0.5,0.9,1.3,1.6,2.2,2.1c1,0.5,2.1,0.7,3.5,0.7c0.9,0,1.8-0.1,2.5-0.4c0.7-0.3,1.5-0.7,2.4-1.4l3.1,4.4
				c-0.9,0.7-1.8,1.4-2.7,1.8c-1,0.5-2,0.8-3,1.1C1647.2,63.8,1646.2,64,1645.2,64z"/>
			<path d="M1667.1,63.9c-1.9,0-3.5-0.5-5-1.5c-1.5-1-2.6-2.3-3.5-4.1c-0.9-1.7-1.3-3.7-1.3-5.9c0-2.2,0.4-4.2,1.3-5.9
				c0.9-1.7,2-3.1,3.5-4c1.5-1,3.2-1.5,5.1-1.5c1.1,0,2,0.2,2.9,0.5c0.9,0.3,1.6,0.7,2.3,1.3c0.7,0.5,1.2,1.2,1.7,1.9
				c0.5,0.7,0.8,1.5,1,2.3l-1.4-0.2v-5.2h6.6v22h-6.7v-5.3l1.5,0c-0.2,0.8-0.6,1.5-1.1,2.2c-0.5,0.7-1.1,1.3-1.8,1.8
				c-0.7,0.5-1.5,0.9-2.4,1.2S1668.1,63.9,1667.1,63.9z M1668.9,58.3c1,0,1.9-0.2,2.7-0.7c0.7-0.5,1.3-1.1,1.7-2
				c0.4-0.9,0.6-1.9,0.6-3.1c0-1.2-0.2-2.2-0.6-3.1c-0.4-0.9-1-1.5-1.7-2c-0.7-0.5-1.6-0.7-2.7-0.7c-1,0-1.9,0.2-2.6,0.7
				c-0.7,0.5-1.3,1.2-1.7,2c-0.4,0.9-0.6,1.9-0.6,3.1c0,1.2,0.2,2.2,0.6,3.1c0.4,0.9,1,1.5,1.7,2
				C1667.1,58.1,1667.9,58.3,1668.9,58.3z"/>
			<path d="M1686.3,63.5V32.9h6.6v30.7H1686.3z"/>
			<path d="M1711.2,54.5v-5.4h20.8v5.4H1711.2z M1718.7,61.9V41.6h5.9v20.3H1718.7z"/>
			<path d="M1757.6,64c-2.2,0-4.1-0.3-5.7-1c-1.6-0.7-3-1.6-3.9-2.8l4-3.5c0.9,0.9,1.8,1.5,2.9,1.9c1.1,0.4,2.1,0.6,3.1,0.6
				c0.4,0,0.7,0,1-0.1c0.3-0.1,0.6-0.2,0.8-0.4c0.2-0.2,0.4-0.3,0.5-0.5c0.1-0.2,0.2-0.4,0.2-0.7c0-0.6-0.2-1-0.7-1.3
				c-0.2-0.1-0.7-0.3-1.2-0.5c-0.6-0.2-1.3-0.4-2.2-0.7c-1.3-0.3-2.4-0.7-3.4-1.2c-1-0.5-1.7-1-2.3-1.6c-0.6-0.6-1-1.2-1.3-1.9
				c-0.3-0.7-0.5-1.5-0.5-2.4c0-1,0.2-1.9,0.7-2.8c0.5-0.8,1.1-1.5,1.9-2.2c0.8-0.6,1.8-1.1,2.8-1.4c1.1-0.3,2.2-0.5,3.3-0.5
				c1.2,0,2.4,0.1,3.5,0.4c1.1,0.3,2.1,0.7,3.1,1.2c1,0.5,1.8,1.1,2.6,1.8l-3.5,3.9c-0.5-0.5-1.1-0.9-1.7-1.3
				c-0.6-0.4-1.3-0.7-1.9-0.9c-0.7-0.2-1.3-0.3-1.8-0.3c-0.4,0-0.8,0-1.1,0.1c-0.3,0.1-0.6,0.2-0.8,0.3c-0.2,0.2-0.4,0.3-0.5,0.5
				c-0.1,0.2-0.2,0.5-0.2,0.7c0,0.3,0.1,0.5,0.2,0.8c0.2,0.2,0.4,0.5,0.6,0.6c0.3,0.2,0.7,0.4,1.3,0.6c0.6,0.2,1.4,0.5,2.5,0.8
				c1.3,0.4,2.4,0.8,3.4,1.2c0.9,0.4,1.7,1,2.2,1.6c0.4,0.5,0.8,1,1,1.6c0.2,0.6,0.3,1.3,0.3,2c0,1.4-0.4,2.7-1.2,3.8
				c-0.8,1.1-1.9,1.9-3.3,2.6C1761,63.7,1759.4,64,1757.6,64z"/>
			<path d="M1774.4,37.2c-1.2,0-2.2-0.3-2.9-0.9c-0.7-0.6-1.1-1.4-1.1-2.6c0-1,0.4-1.8,1.1-2.4c0.7-0.6,1.7-1,2.9-1
				c1.2,0,2.2,0.3,2.9,0.9c0.7,0.6,1,1.4,1,2.5c0,1-0.4,1.9-1.1,2.5C1776.6,36.9,1775.7,37.2,1774.4,37.2z M1771.1,63.5v-22h6.6v22
				H1771.1z"/>
			<path d="M1783.9,63.5v-22h6.3l0.2,4l-0.9,0c0.3-0.7,0.8-1.4,1.3-1.9c0.5-0.6,1.1-1,1.7-1.4c0.6-0.4,1.3-0.7,2-0.9
				c0.7-0.2,1.4-0.3,2.1-0.3c1.1,0,2.1,0.2,2.9,0.5c0.9,0.3,1.7,0.9,2.3,1.6c0.7,0.7,1.2,1.7,1.6,3l-1-0.1l0.3-0.7
				c0.4-0.7,0.8-1.3,1.4-1.8c0.6-0.5,1.2-1,1.9-1.4c0.7-0.4,1.4-0.7,2.2-0.9c0.7-0.2,1.5-0.3,2.2-0.3c1.7,0,3.2,0.3,4.4,1
				c1.2,0.7,2,1.7,2.6,3c0.6,1.4,0.9,3,0.9,4.9v13.4h-6.7V50.6c0-0.9-0.1-1.6-0.4-2.2c-0.2-0.6-0.6-1-1.1-1.3
				c-0.5-0.3-1.1-0.4-1.8-0.4c-0.6,0-1.1,0.1-1.6,0.3c-0.5,0.2-0.9,0.5-1.2,0.8c-0.3,0.3-0.6,0.7-0.8,1.2c-0.2,0.4-0.3,0.9-0.3,1.5
				v13.1h-6.7V50.6c0-0.8-0.1-1.5-0.4-2.1c-0.2-0.6-0.6-1-1.1-1.3c-0.5-0.3-1.1-0.5-1.7-0.5c-0.6,0-1.1,0.1-1.6,0.3
				c-0.5,0.2-0.9,0.5-1.2,0.8c-0.3,0.3-0.6,0.7-0.8,1.2c-0.2,0.4-0.3,0.9-0.3,1.5v13.1H1783.9z"/>
			<path d="M1823.9,72.7V41.5h6.3l0.2,4.9l-1.2-0.4c0.2-0.9,0.7-1.7,1.4-2.5c0.7-0.7,1.7-1.3,2.8-1.8c1.1-0.5,2.4-0.7,3.6-0.7
				c1.9,0,3.6,0.5,5,1.5c1.5,1,2.6,2.3,3.5,4c0.8,1.7,1.3,3.7,1.3,5.9c0,2.2-0.4,4.2-1.3,5.9c-0.8,1.7-2,3.1-3.5,4
				c-1.5,1-3.2,1.5-5.1,1.5c-1.2,0-2.4-0.2-3.6-0.7c-1.1-0.5-2.1-1.1-2.9-1.9c-0.8-0.8-1.3-1.7-1.5-2.6l1.5-0.6v14.6H1823.9z
				 M1835.4,58.3c1,0,1.9-0.2,2.6-0.7s1.3-1.2,1.7-2c0.4-0.9,0.6-1.9,0.6-3.1c0-1.2-0.2-2.2-0.6-3c-0.4-0.9-1-1.5-1.7-2
				c-0.7-0.5-1.6-0.7-2.6-0.7c-1,0-1.9,0.2-2.7,0.7c-0.7,0.5-1.3,1.1-1.7,2c-0.4,0.9-0.6,1.9-0.6,3.1c0,1.2,0.2,2.2,0.6,3.1
				c0.4,0.9,1,1.5,1.7,2S1834.4,58.3,1835.4,58.3z"/>
			<path d="M1851.3,63.5V32.9h6.6v30.7H1851.3z"/>
			<path d="M1873.9,64c-2.4,0-4.5-0.5-6.3-1.5c-1.8-1-3.2-2.3-4.2-4c-1-1.7-1.5-3.6-1.5-5.8c0-1.7,0.3-3.2,0.8-4.6
				c0.6-1.4,1.3-2.6,2.3-3.7c1-1,2.2-1.8,3.5-2.4c1.4-0.6,2.9-0.8,4.5-0.8c1.5,0,3,0.3,4.3,0.8c1.3,0.6,2.4,1.3,3.3,2.3
				c0.9,1,1.7,2.2,2.2,3.5c0.5,1.4,0.7,2.8,0.7,4.4l0,1.8h-17.5l-1-3.7h13.1l-0.7,0.8v-0.8c-0.1-0.7-0.3-1.3-0.6-1.8
				c-0.4-0.5-0.9-1-1.5-1.3c-0.6-0.3-1.3-0.5-2.1-0.5c-1.1,0-2,0.2-2.8,0.6c-0.8,0.4-1.3,1.1-1.7,1.9c-0.4,0.8-0.6,1.8-0.6,3
				c0,1.2,0.3,2.3,0.8,3.2c0.5,0.9,1.3,1.6,2.2,2.1c1,0.5,2.1,0.7,3.5,0.7c0.9,0,1.8-0.1,2.5-0.4c0.7-0.3,1.5-0.7,2.4-1.4l3.1,4.4
				c-0.9,0.7-1.8,1.4-2.7,1.8c-1,0.5-2,0.8-3,1.1C1875.9,63.8,1874.9,64,1873.9,64z"/>
		</g>
		<g>
			<path d="M19.1,63.9V41.1h4.5v7.2l-0.4-1.7c0.3-1.1,0.9-2.1,1.6-3c0.8-0.9,1.7-1.6,2.7-2.1c1-0.5,2-0.8,3.1-0.8c0.5,0,1,0,1.4,0.1
				c0.4,0.1,0.8,0.2,1.1,0.3l-1.2,4.9c-0.3-0.1-0.7-0.3-1.2-0.4c-0.4-0.1-0.8-0.2-1.2-0.2c-0.8,0-1.5,0.2-2.2,0.5
				c-0.7,0.3-1.3,0.7-1.9,1.3c-0.5,0.5-1,1.2-1.3,1.9c-0.3,0.7-0.5,1.5-0.5,2.3v12.6H19.1z"/>
			<path d="M46.3,64.3c-2.3,0-4.4-0.5-6.2-1.5c-1.8-1-3.2-2.4-4.3-4.1c-1-1.7-1.5-3.7-1.5-6c0-1.8,0.3-3.4,0.9-4.9
				c0.6-1.5,1.4-2.8,2.4-3.8c1-1.1,2.3-1.9,3.7-2.5c1.4-0.6,3-0.9,4.7-0.9c1.5,0,2.9,0.3,4.1,0.8c1.3,0.6,2.4,1.3,3.3,2.3
				c0.9,1,1.7,2.2,2.2,3.5c0.5,1.3,0.7,2.8,0.7,4.4l0,1.9H37.6l-1-3.6h15.8l-0.7,0.7v-1c-0.1-1-0.4-1.8-1-2.6
				c-0.6-0.8-1.2-1.3-2.1-1.8c-0.8-0.4-1.8-0.7-2.7-0.7c-1.6,0-2.9,0.3-4,0.9c-1.1,0.6-1.9,1.5-2.4,2.6c-0.6,1.1-0.8,2.6-0.8,4.2
				c0,1.6,0.3,3,1,4.2c0.7,1.2,1.6,2.1,2.8,2.7c1.2,0.6,2.6,1,4.2,1c1.1,0,2.2-0.2,3.2-0.6c1-0.4,2-1.1,3.2-2l2.3,3.2
				c-0.7,0.7-1.5,1.3-2.5,1.8c-1,0.5-2.1,0.9-3.2,1.2C48.5,64.2,47.4,64.3,46.3,64.3z"/>
			<path d="M69.9,64.3c-1.9,0-3.6-0.5-5.2-1.6c-1.6-1-2.8-2.5-3.7-4.3c-0.9-1.8-1.4-3.8-1.4-6.1c0-2.3,0.5-4.3,1.4-6.1
				c0.9-1.8,2.2-3.2,3.8-4.2c1.6-1,3.4-1.5,5.4-1.5c1.2,0,2.3,0.2,3.3,0.5c1,0.3,1.8,0.8,2.6,1.5c0.7,0.6,1.3,1.3,1.8,2.2
				c0.5,0.8,0.8,1.7,0.9,2.6l-1-0.3v-5.9h4.5v22.8h-4.5v-5.4l1-0.3c-0.2,0.8-0.5,1.5-1.1,2.3c-0.5,0.7-1.2,1.4-2,2
				c-0.8,0.6-1.7,1-2.7,1.4C72.1,64.1,71,64.3,69.9,64.3z M71.1,60.2c1.4,0,2.6-0.3,3.6-1c1-0.7,1.9-1.6,2.5-2.8
				c0.6-1.2,0.9-2.5,0.9-4c0-1.5-0.3-2.8-0.9-4c-0.6-1.2-1.4-2.1-2.5-2.7c-1-0.7-2.2-1-3.6-1c-1.3,0-2.5,0.3-3.5,1
				c-1,0.7-1.8,1.6-2.4,2.7c-0.6,1.2-0.9,2.5-0.9,4c0,1.5,0.3,2.8,0.9,4c0.6,1.2,1.4,2.1,2.4,2.8S69.8,60.2,71.1,60.2z"/>
			<path d="M88.8,63.9V31.7h4.5v32.2H88.8z"/>
			<path d="M110.6,53.7v-3.9h21.8v3.9H110.6z M119.1,62.1v-21h4.6v21H119.1z"/>
			<path d="M157.2,64.3c-1.9,0-3.6-0.3-5.2-1c-1.5-0.7-2.8-1.7-3.8-3l3-2.6c0.9,1,1.8,1.7,2.8,2.2c1,0.4,2.2,0.7,3.5,0.7
				c0.5,0,1-0.1,1.5-0.2c0.4-0.1,0.8-0.3,1.2-0.6c0.3-0.3,0.6-0.6,0.8-0.9c0.2-0.4,0.3-0.8,0.3-1.2c0-0.8-0.3-1.4-0.8-1.8
				c-0.3-0.2-0.7-0.4-1.4-0.7c-0.6-0.2-1.4-0.5-2.4-0.8c-1.7-0.4-3.1-0.9-4.1-1.5c-1.1-0.6-1.9-1.2-2.5-1.9c-0.4-0.6-0.8-1.2-1-1.8
				c-0.2-0.7-0.3-1.4-0.3-2.2c0-1,0.2-1.8,0.6-2.6c0.4-0.8,1-1.5,1.7-2.1c0.7-0.6,1.6-1.1,2.6-1.4c1-0.3,2.1-0.5,3.2-0.5
				c1.1,0,2.1,0.1,3.2,0.4c1.1,0.3,2,0.7,2.9,1.3c0.9,0.6,1.7,1.2,2.3,2l-2.6,2.8c-0.6-0.6-1.2-1-1.8-1.5c-0.7-0.4-1.3-0.7-2-1
				c-0.7-0.2-1.3-0.3-1.8-0.3c-0.6,0-1.2,0.1-1.7,0.2c-0.5,0.1-0.9,0.3-1.2,0.5c-0.3,0.2-0.6,0.5-0.8,0.9c-0.2,0.3-0.3,0.7-0.3,1.2
				c0,0.4,0.1,0.7,0.3,1.1c0.2,0.3,0.4,0.6,0.7,0.8c0.3,0.2,0.8,0.5,1.4,0.7s1.4,0.5,2.4,0.7c1.4,0.4,2.6,0.8,3.6,1.2
				c0.9,0.4,1.7,1,2.2,1.5c0.6,0.6,1,1.2,1.2,1.9c0.2,0.7,0.3,1.5,0.3,2.4c0,1.3-0.4,2.5-1.1,3.5c-0.7,1-1.7,1.8-3,2.4
				C160.2,64,158.8,64.3,157.2,64.3z"/>
			<path d="M173.4,36c-1,0-1.7-0.2-2.2-0.7c-0.5-0.5-0.8-1.2-0.8-2.1c0-0.8,0.3-1.5,0.8-2c0.5-0.5,1.3-0.8,2.2-0.8
				c1,0,1.7,0.2,2.2,0.7c0.5,0.5,0.8,1.2,0.8,2.1c0,0.8-0.3,1.5-0.8,2C175,35.7,174.3,36,173.4,36z M171.2,63.9V41.1h4.5v22.8H171.2
				z"/>
			<path d="M182.4,63.9V41.1h4.5v4.9l-0.8,0.5c0.2-0.8,0.6-1.5,1.1-2.2c0.5-0.7,1.1-1.3,1.9-1.8c0.7-0.5,1.5-1,2.4-1.3
				c0.9-0.3,1.7-0.5,2.6-0.5c1.3,0,2.4,0.2,3.4,0.7c1,0.4,1.8,1.1,2.4,2c0.6,0.9,1.1,2,1.4,3.3l-0.7-0.2l0.3-0.7
				c0.3-0.7,0.8-1.3,1.3-1.9c0.6-0.6,1.2-1.1,1.9-1.6c0.7-0.5,1.5-0.8,2.3-1.1c0.8-0.3,1.6-0.4,2.4-0.4c1.7,0,3.1,0.3,4.2,1
				c1.1,0.7,2,1.8,2.5,3.2c0.6,1.4,0.8,3.2,0.8,5.3v13.7h-4.5V50.4c0-1.3-0.2-2.4-0.5-3.2c-0.3-0.8-0.8-1.4-1.5-1.8
				c-0.7-0.4-1.5-0.6-2.6-0.6c-0.8,0-1.6,0.1-2.3,0.4c-0.7,0.3-1.3,0.7-1.8,1.2c-0.5,0.5-0.9,1.1-1.2,1.7c-0.3,0.7-0.4,1.4-0.4,2.2
				v13.7h-4.5V50.4c0-1.2-0.2-2.2-0.5-3c-0.3-0.8-0.9-1.5-1.5-1.9c-0.7-0.4-1.5-0.7-2.4-0.7c-0.8,0-1.6,0.1-2.3,0.4
				c-0.7,0.3-1.3,0.7-1.8,1.1c-0.5,0.5-0.9,1-1.2,1.7c-0.3,0.7-0.4,1.4-0.4,2.1v13.7H182.4z"/>
			<path d="M222.6,73.4V41.1h4.5v5.2l-0.7-0.4c0.2-0.9,0.7-1.7,1.5-2.5c0.8-0.8,1.8-1.4,3-2c1.2-0.5,2.4-0.8,3.6-0.8
				c2.1,0,3.9,0.5,5.5,1.5c1.6,1,2.9,2.4,3.8,4.2c0.9,1.8,1.4,3.8,1.4,6.1c0,2.3-0.5,4.3-1.4,6.1c-0.9,1.8-2.2,3.2-3.8,4.2
				c-1.6,1-3.4,1.5-5.4,1.5c-1.3,0-2.6-0.3-3.9-0.8c-1.2-0.5-2.3-1.2-3.2-2.1c-0.9-0.8-1.4-1.7-1.6-2.6l1.1-0.6v15.3H222.6z
				 M233.9,60.1c1.3,0,2.5-0.3,3.6-1c1-0.7,1.9-1.6,2.5-2.7c0.6-1.2,0.9-2.5,0.9-4c0-1.5-0.3-2.8-0.9-3.9c-0.6-1.1-1.4-2.1-2.5-2.7
				c-1-0.7-2.2-1-3.6-1c-1.4,0-2.6,0.3-3.6,1c-1,0.7-1.9,1.6-2.5,2.7c-0.6,1.2-0.9,2.5-0.9,4c0,1.5,0.3,2.8,0.9,4
				c0.6,1.2,1.4,2.1,2.5,2.7C231.3,59.8,232.5,60.1,233.9,60.1z"/>
			<path d="M250.1,63.9V31.7h4.5v32.2H250.1z"/>
			<path d="M271.1,64.3c-2.3,0-4.4-0.5-6.2-1.5c-1.8-1-3.2-2.4-4.3-4.1c-1-1.7-1.5-3.7-1.5-6c0-1.8,0.3-3.4,0.9-4.9
				c0.6-1.5,1.4-2.8,2.4-3.8c1-1.1,2.3-1.9,3.7-2.5c1.4-0.6,3-0.9,4.7-0.9c1.5,0,2.9,0.3,4.1,0.8c1.3,0.6,2.4,1.3,3.3,2.3
				c0.9,1,1.7,2.2,2.2,3.5c0.5,1.3,0.7,2.8,0.7,4.4l0,1.9h-18.7l-1-3.6h15.8l-0.7,0.7v-1c-0.1-1-0.4-1.8-1-2.6
				c-0.6-0.8-1.2-1.3-2.1-1.8c-0.8-0.4-1.8-0.7-2.7-0.7c-1.6,0-2.9,0.3-4,0.9c-1.1,0.6-1.9,1.5-2.4,2.6c-0.6,1.1-0.8,2.6-0.8,4.2
				c0,1.6,0.3,3,1,4.2c0.7,1.2,1.6,2.1,2.8,2.7c1.2,0.6,2.6,1,4.2,1c1.1,0,2.2-0.2,3.2-0.6c1-0.4,2-1.1,3.2-2l2.3,3.2
				c-0.7,0.7-1.5,1.3-2.5,1.8c-1,0.5-2.1,0.9-3.2,1.2C273.3,64.2,272.2,64.3,271.1,64.3z"/>
		</g>
	</g>
	<g>
		<rect y="0.2" class="st0" width="1920" height="3"/>
	</g>
	<rect x="299.5" y="23.3" class="st3" width="18.6" height="49.5"/>
	<rect x="622.1" y="23.3" class="st4" width="18.6" height="49.5"/>
	<rect x="937.6" y="23.3" class="st5" width="18.6" height="49.5"/>
	<g>
		<rect y="93.3" class="st0" width="1920" height="3"/>
		<path class="st0" d="M1920,33.1"/>
	</g>
</g>
</svg>
