<svg width="43" height="72" viewBox="0 0 43 72" fill="none" xmlns="http://www.w3.org/2000/svg">
<g clip-path="url(#clip0_0_759)">
<path d="M43 52.3805C43 57.7667 40.9814 62.3836 36.9452 66.2302C32.9089 70.0777 28.1113 72.0001 22.5532 72.0001H20.3598C14.86 72.0001 10.092 70.0777 6.05576 66.2302C2.01859 62.3836 0 57.7667 0 52.3805V32.5073C0 31.679 0.335815 30.9097 1.00929 30.1984C1.68185 29.488 2.48669 29.1333 3.4229 29.1333H10.9699C11.9644 29.1333 12.798 29.488 13.4705 30.1974C14.1421 30.9078 14.4798 31.6743 14.4798 32.5017V50.884C14.4798 53.1302 15.1958 55.0507 16.6298 56.6464C18.0628 58.2412 19.6567 59.0396 21.4126 59.0396C23.1684 59.0396 24.6597 58.2422 26.064 56.6464C27.4683 55.0507 28.1705 53.1302 28.1705 50.884V32.5017C28.1705 31.6172 28.5211 30.8329 29.2233 30.1534C29.9254 29.473 30.7728 29.1342 31.7683 29.1342H39.3153C40.2506 29.1342 41.0989 29.4758 41.8603 30.1553C42.6198 30.8367 43.0009 31.621 43.0009 32.5082V52.3814L43 52.3805Z" fill="#FDFDFD"/>
<path d="M11.0597 0H3.4081C1.52586 0 0 1.54368 0 3.44791V11.1889C0 13.0931 1.52586 14.6368 3.4081 14.6368H11.0597C12.9419 14.6368 14.4678 13.0931 14.4678 11.1889V3.44791C14.4678 1.54368 12.9419 0 11.0597 0Z" fill="#FDFDFD"/>
<path d="M39.5919 0H31.9403C30.0581 0 28.5322 1.54368 28.5322 3.44791V11.1889C28.5322 13.0931 30.0581 14.6368 31.9403 14.6368H39.5919C41.4741 14.6368 43 13.0931 43 11.1889V3.44791C43 1.54368 41.4741 0 39.5919 0Z" fill="#FDFDFD"/>
</g>
<defs>
<clipPath id="clip0_0_759">
<rect width="43" height="72" fill="white"/>
</clipPath>
</defs>
</svg>
