<?xml version="1.0" encoding="utf-8"?>
<!-- Generator: Adobe Illustrator 24.3.0, SVG Export Plug-In . SVG Version: 6.00 Build 0)  -->
<svg version="1.1" id="Capa_1" xmlns="http://www.w3.org/2000/svg" xmlns:xlink="http://www.w3.org/1999/xlink" x="0px" y="0px"
	 width="112px" height="108px" viewBox="0 0 112 108" style="enable-background:new 0 0 112 108;" xml:space="preserve">
<style type="text/css">
	.st0{fill:#DC7281;}
	.st1{fill:#FFFFFF;}
</style>
<g>
	<ellipse class="st0" cx="56" cy="54" rx="56" ry="54"/>
	<g>
		<path class="st1" d="M26.9,49.7c0.5,0,0.8,0.1,1.1,0.4s0.4,0.6,0.4,1.1c0,0.4-0.1,0.8-0.4,1.1s-0.6,0.4-1,0.4
			c-0.4,0-0.8-0.1-1-0.4c-0.2-0.3-0.4-0.6-0.4-1.1c0-0.4,0.1-0.8,0.4-1C26.1,49.8,26.5,49.7,26.9,49.7z M27.7,54
			c0.1,0.7,0.2,1.3,0.3,2s0.2,1.4,0.2,2.1c0.1,0.7,0.1,1.4,0.1,2v1.3h-2.8v-1.3c0-0.7,0-1.3,0.1-2s0.1-1.4,0.2-2.1
			c0.1-0.7,0.2-1.4,0.3-2H27.7z"/>
		<path class="st1" d="M30.9,58.5V47.1h2.5l6,8.2l-0.5-0.1c-0.1-0.4-0.1-0.7-0.1-1c0-0.3-0.1-0.6-0.1-1c0-0.3,0-0.6-0.1-1
			c0-0.3,0-0.7,0-1.1c0-0.4,0-0.8,0-1.2v-2.8h2.7v11.4h-2.5l-6.2-8.4l0.8,0.1c0.1,0.5,0.1,1,0.1,1.3s0.1,0.7,0.1,1
			c0,0.3,0,0.5,0.1,0.8s0,0.5,0,0.7s0,0.5,0,0.7v3.8H30.9z"/>
		<path class="st1" d="M46.7,58.7c-0.6,0-1.2-0.1-1.6-0.4c-0.5-0.3-0.8-0.7-1-1.2s-0.4-1.1-0.4-1.9v-5.3h2.6v5
			c0,0.3,0.1,0.6,0.2,0.9c0.1,0.2,0.3,0.4,0.5,0.6c0.2,0.1,0.5,0.2,0.8,0.2c0.2,0,0.4,0,0.6-0.1c0.2-0.1,0.4-0.2,0.5-0.3
			s0.2-0.3,0.3-0.5c0.1-0.2,0.1-0.4,0.1-0.6v-5.2h2.6v8.7h-2.5l-0.1-1.8l0.5-0.2c-0.1,0.4-0.3,0.8-0.7,1.1s-0.7,0.6-1.1,0.8
			C47.7,58.6,47.2,58.7,46.7,58.7z"/>
		<path class="st1" d="M58.4,58.7c-1,0-1.8-0.2-2.5-0.6s-1.3-0.9-1.6-1.6c-0.4-0.7-0.6-1.4-0.6-2.3c0-0.7,0.1-1.3,0.3-1.8
			c0.2-0.6,0.5-1,0.9-1.4c0.4-0.4,0.9-0.7,1.4-0.9c0.5-0.2,1.1-0.3,1.8-0.3c0.6,0,1.2,0.1,1.7,0.3c0.5,0.2,0.9,0.5,1.3,0.9
			s0.7,0.9,0.8,1.4c0.2,0.5,0.3,1.1,0.3,1.7l0,0.7h-6.9l-0.4-1.5H60l-0.3,0.3v-0.3c0-0.3-0.1-0.5-0.3-0.7s-0.3-0.4-0.6-0.5
			c-0.2-0.1-0.5-0.2-0.8-0.2c-0.4,0-0.8,0.1-1.1,0.3c-0.3,0.2-0.5,0.4-0.7,0.7c-0.2,0.3-0.2,0.7-0.2,1.2c0,0.5,0.1,0.9,0.3,1.2
			c0.2,0.4,0.5,0.6,0.9,0.8c0.4,0.2,0.8,0.3,1.4,0.3c0.4,0,0.7-0.1,1-0.2c0.3-0.1,0.6-0.3,0.9-0.6l1.2,1.7c-0.3,0.3-0.7,0.5-1.1,0.7
			c-0.4,0.2-0.8,0.3-1.2,0.4C59.1,58.6,58.8,58.7,58.4,58.7z"/>
		<path class="st1" d="M66.3,58.5l-3.6-8.7h2.9l2.2,6.5l-0.6,0.1l2.2-6.5h2.9l-3.8,8.7H66.3z"/>
		<path class="st1" d="M77.3,58.7c-0.9,0-1.7-0.2-2.4-0.6s-1.3-0.9-1.7-1.6s-0.6-1.4-0.6-2.3c0-0.9,0.2-1.6,0.6-2.3
			c0.4-0.7,1-1.2,1.7-1.6s1.5-0.6,2.4-0.6s1.7,0.2,2.4,0.6s1.3,0.9,1.7,1.6c0.4,0.7,0.6,1.4,0.6,2.3c0,0.9-0.2,1.6-0.6,2.3
			c-0.4,0.7-1,1.2-1.7,1.6S78.2,58.7,77.3,58.7z M77.3,56.4c0.4,0,0.7-0.1,1-0.3c0.3-0.2,0.5-0.5,0.7-0.8c0.2-0.3,0.3-0.7,0.2-1.2
			c0-0.4-0.1-0.8-0.2-1.2c-0.2-0.3-0.4-0.6-0.7-0.8s-0.7-0.3-1-0.3s-0.7,0.1-1.1,0.3c-0.3,0.2-0.6,0.5-0.7,0.8
			c-0.2,0.3-0.3,0.7-0.2,1.2c0,0.4,0.1,0.8,0.2,1.2c0.2,0.3,0.4,0.6,0.7,0.8C76.6,56.3,76.9,56.4,77.3,56.4z"/>
		<path class="st1" d="M85.1,58.7c-0.4,0-0.8-0.1-1-0.4c-0.3-0.2-0.4-0.6-0.4-1.1c0-0.4,0.1-0.8,0.4-1.1c0.3-0.3,0.6-0.4,1-0.4
			c0.4,0,0.8,0.1,1,0.4c0.2,0.3,0.4,0.6,0.4,1.1c0,0.4-0.1,0.8-0.4,1C85.8,58.6,85.5,58.7,85.1,58.7z M84.2,54.4
			c-0.1-0.7-0.2-1.3-0.3-2.1c-0.1-0.7-0.2-1.4-0.2-2.1c-0.1-0.7-0.1-1.4-0.1-2v-1.3h2.8v1.3c0,0.7,0,1.3-0.1,2
			c-0.1,0.7-0.1,1.4-0.2,2.1c-0.1,0.7-0.2,1.4-0.3,2H84.2z"/>
	</g>
</g>
</svg>
