<?xml version="1.0" encoding="utf-8"?>
<!-- Generator: Adobe Illustrator 24.3.0, SVG Export Plug-In . SVG Version: 6.00 Build 0)  -->
<svg version="1.1" id="Capa_1" xmlns="http://www.w3.org/2000/svg" xmlns:xlink="http://www.w3.org/1999/xlink" x="0px" y="0px"
	 width="1920px" height="536px" viewBox="0 0 1920 536" style="enable-background:new 0 0 1920 536;" xml:space="preserve">
<style type="text/css">
	.st0{fill:#2C2926;}
	.st1{fill:#006B68;}
	.st2{fill:#7A2583;}
	.st3{fill:#F0A0B2;}
	.st4{fill:#F8B42A;}
	.st5{fill:#E72E39;}
</style>
<path class="st0" d="M483.5,247.9l144.2,28.5L613.4,349l-144.2-28.5L483.5,247.9z"/>
<path class="st0" d="M982.3,409.7L1089,510.8l-50.9,53.7L931.4,463.4L982.3,409.7z"/>
<path class="st0" d="M1625,318.1l-143.3,32.8l-16.5-72.1l143.3-32.8L1625,318.1z"/>
<ellipse class="st1" cx="737.7" cy="361.9" rx="75.5" ry="74"/>
<ellipse class="st1" cx="1528.7" cy="466.9" rx="75.5" ry="74"/>
<rect x="798.4" y="424.9" transform="matrix(8.717950e-02 -0.9962 0.9962 8.717950e-02 335.244 1290.7242)" class="st2" width="147" height="75"/>
<rect x="383" y="410.7" transform="matrix(0.5223 -0.8527 0.8527 0.5223 -164.1421 603.3837)" class="st3" width="147" height="75"/>
<rect x="1035.2" y="316.8" transform="matrix(0.6764 -0.7365 0.7365 0.6764 59.6758 916.3432)" class="st4" width="75" height="147"/>
<rect x="1648.1" y="342.1" transform="matrix(0.7114 -0.7028 0.7028 0.7114 194.3609 1304.5653)" class="st4" width="75" height="147"/>
<rect x="1119.5" y="243.6" transform="matrix(0.5584 -0.8296 0.8296 0.5584 294.0608 1113.5935)" class="st2" width="147" height="74"/>
<path class="st1" d="M1354.7,418.6l-166.3,142.5l-67-78.1l166.2-142.6L1354.7,418.6z"/>
<path class="st1" d="M428.2,289.9l30.2,216.9l-102,14.2l-30.2-216.9L428.2,289.9z"/>
<path class="st5" d="M605.2,370.9l95.5,111.8l-57,48.7l-95.5-111.8L605.2,370.9z"/>
<path class="st5" d="M1399.5,261.7l63.6,132.5l-67.6,32.4l-63.6-132.5L1399.5,261.7z"/>
<path class="st5" d="M183.2,424.3l63.6,132.5l-67.6,32.4l-63.6-132.5L183.2,424.3z"/>
<path class="st5" d="M849.2,284l133.3-62l31.7,68l-133.3,62L849.2,284z"/>
<rect x="1311.4" y="498.9" transform="matrix(8.717950e-02 -0.9962 0.9962 8.717950e-02 729.8068 1869.3186)" class="st3" width="147" height="75"/>
<rect x="287.7" y="443.6" transform="matrix(0.8449 -0.5349 0.5349 0.8449 -226.138 254.1535)" class="st4" width="75" height="147"/>
<ellipse transform="matrix(0.987 -0.1608 0.1608 0.987 -51.9255 38.9714)" class="st1" cx="214.9" cy="340.4" rx="75.5" ry="74"/>
<rect x="1838" y="443.6" transform="matrix(0.8449 -0.5349 0.5349 0.8449 14.2962 1083.4186)" class="st4" width="75" height="147"/>
<ellipse class="st1" cx="1782" cy="302.9" rx="75.5" ry="74"/>
<path class="st0" d="M-539.1,409.7l106.7,101.1l-50.9,53.7L-590,463.4L-539.1,409.7z"/>
<path class="st0" d="M103.6,318.1l-143.3,32.8l-16.5-72.1L87.1,246L103.6,318.1z"/>
<ellipse class="st1" cx="-783.7" cy="361.9" rx="75.5" ry="74"/>
<ellipse class="st1" cx="7.3" cy="466.9" rx="75.5" ry="74"/>
<rect x="-723" y="424.9" transform="matrix(8.717950e-02 -0.9962 0.9962 8.717950e-02 -1053.5367 -224.9001)" class="st2" width="147" height="75"/>
<rect x="-1138.4" y="410.7" transform="matrix(0.5223 -0.8527 0.8527 0.5223 -890.8812 -693.997)" class="st3" width="147" height="75"/>
<rect x="-486.2" y="316.8" transform="matrix(0.6764 -0.7365 0.7365 0.6764 -432.6286 -204.2089)" class="st4" width="75" height="147"/>
<rect x="-401.9" y="243.6" transform="matrix(0.5584 -0.8296 0.8296 0.5584 -377.8169 -148.5446)" class="st2" width="147" height="74"/>
<path class="st1" d="M-166.7,418.6L-333,561.1l-67-78.1l166.2-142.6L-166.7,418.6z"/>
<path class="st1" d="M-1093.2,289.9l30.2,216.9l-102,14.2l-30.2-216.9L-1093.2,289.9z"/>
<path class="st5" d="M-916.2,370.9l95.5,111.8l-57,48.7l-95.5-111.8L-916.2,370.9z"/>
<path class="st5" d="M-121.9,261.7l63.6,132.5l-67.6,32.4l-63.6-132.5L-121.9,261.7z"/>
<path class="st5" d="M-672.2,284l133.3-62l31.7,68l-133.3,62L-672.2,284z"/>
<rect x="-210" y="498.9" transform="matrix(8.717950e-02 -0.9962 0.9962 8.717950e-02 -658.9739 353.6942)" class="st3" width="147" height="75"/>
<rect x="-1233.7" y="443.6" transform="matrix(0.8449 -0.5349 0.5349 0.8449 -462.093 -559.6631)" class="st4" width="75" height="147"/>
<ellipse class="st1" cx="-1289.7" cy="302.9" rx="75.5" ry="74"/>
</svg>
