<?xml version="1.0" encoding="utf-8"?>
<!-- Generator: Adobe Illustrator 24.3.0, SVG Export Plug-In . SVG Version: 6.00 Build 0)  -->
<svg version="1.1" id="Capa_1" xmlns="http://www.w3.org/2000/svg" xmlns:xlink="http://www.w3.org/1999/xlink" x="0px" y="0px"
	 width="112px" height="108px" viewBox="0 0 112 108" style="enable-background:new 0 0 112 108;" xml:space="preserve">
<style type="text/css">
	.st0{fill:#0A7358;}
	.st1{fill:#FFFFFF;}
</style>
<ellipse class="st0" cx="56" cy="54" rx="56" ry="54"/>
<path class="st1" d="M26.4,50.7c0.5,0,0.9,0.1,1.2,0.4c0.3,0.3,0.5,0.6,0.5,1c0,0.4-0.2,0.8-0.5,1.1c-0.3,0.3-0.7,0.4-1.2,0.4
	c-0.5,0-0.9-0.1-1.2-0.4c-0.3-0.3-0.4-0.6-0.4-1.1c0-0.4,0.1-0.8,0.4-1C25.6,50.9,26,50.7,26.4,50.7z M25.2,54.8h2.3l0.3,7.7h-3
	L25.2,54.8z M40.6,59.9h-2.7L33.3,53v6.9h-2.7V48.7h2.7l4.6,7v-7h2.7V59.9z M51.4,51v8.9h-2.7v-1.2c-0.3,0.4-0.7,0.7-1.1,1
	c-0.5,0.2-1,0.4-1.6,0.4c-0.7,0-1.3-0.1-1.8-0.4c-0.5-0.3-0.9-0.8-1.2-1.3c-0.3-0.6-0.4-1.3-0.4-2V51h2.7v4.8c0,0.6,0.2,1.1,0.5,1.4
	c0.3,0.3,0.7,0.5,1.2,0.5c0.5,0,1-0.2,1.3-0.5c0.3-0.3,0.5-0.8,0.5-1.4V51H51.4z M61.8,55.3c0,0.3,0,0.5,0,0.8h-6.2
	c0,0.6,0.2,1,0.5,1.3c0.3,0.3,0.7,0.4,1.2,0.4c0.7,0,1.2-0.3,1.4-0.9h2.9c-0.1,0.6-0.4,1.1-0.8,1.6c-0.4,0.5-0.9,0.8-1.5,1.1
	c-0.6,0.3-1.2,0.4-2,0.4c-0.9,0-1.7-0.2-2.3-0.6c-0.7-0.4-1.2-0.9-1.6-1.6c-0.4-0.7-0.6-1.5-0.6-2.4c0-0.9,0.2-1.7,0.6-2.4
	c0.4-0.7,0.9-1.2,1.6-1.6c0.7-0.4,1.5-0.6,2.4-0.6c0.9,0,1.6,0.2,2.3,0.5c0.7,0.4,1.2,0.9,1.6,1.6C61.6,53.6,61.8,54.4,61.8,55.3z
	 M59,54.6c0-0.5-0.2-0.8-0.5-1.1c-0.3-0.3-0.7-0.4-1.2-0.4c-0.5,0-0.8,0.1-1.2,0.4c-0.3,0.3-0.5,0.6-0.6,1.1H59z M67.2,57.3l1.9-6.4
	h2.9l-3.2,8.9h-3.4L62.4,51h2.9L67.2,57.3z M77.3,60c-0.9,0-1.7-0.2-2.4-0.6c-0.7-0.4-1.2-0.9-1.6-1.6c-0.4-0.7-0.6-1.5-0.6-2.4
	c0-0.9,0.2-1.7,0.6-2.4c0.4-0.7,1-1.2,1.7-1.6c0.7-0.4,1.5-0.6,2.4-0.6c0.9,0,1.7,0.2,2.4,0.6c0.7,0.4,1.3,0.9,1.7,1.6
	c0.4,0.7,0.6,1.5,0.6,2.4c0,0.9-0.2,1.7-0.6,2.4c-0.4,0.7-1,1.2-1.7,1.6C79,59.8,78.2,60,77.3,60z M77.3,57.7c0.5,0,1-0.2,1.3-0.6
	c0.4-0.4,0.6-0.9,0.6-1.6c0-0.7-0.2-1.3-0.5-1.6c-0.4-0.4-0.8-0.6-1.3-0.6c-0.5,0-1,0.2-1.3,0.6c-0.4,0.4-0.5,0.9-0.5,1.6
	c0,0.7,0.2,1.3,0.5,1.6C76.3,57.5,76.8,57.7,77.3,57.7z M87,48.3l-0.3,7.7h-2.3l-0.3-7.7H87z M85.6,60c-0.5,0-0.9-0.1-1.2-0.4
	C84.1,59.3,84,59,84,58.6c0-0.4,0.1-0.8,0.4-1.1c0.3-0.3,0.7-0.4,1.2-0.4c0.5,0,0.9,0.1,1.2,0.4c0.3,0.3,0.5,0.6,0.5,1.1
	c0,0.4-0.2,0.8-0.5,1.1C86.4,59.9,86.1,60,85.6,60z"/>
</svg>
