<?xml version="1.0" encoding="utf-8"?>
<!-- Generator: Adobe Illustrator 24.3.0, SVG Export Plug-In . SVG Version: 6.00 Build 0)  -->
<svg version="1.1" id="Capa_1" xmlns="http://www.w3.org/2000/svg" xmlns:xlink="http://www.w3.org/1999/xlink" x="0px" y="0px"
	 width="542.3px" height="540px" viewBox="0 0 542.3 540" style="enable-background:new 0 0 542.3 540;" xml:space="preserve">
<style type="text/css">
	.st0{fill:#F0A0B2;}
	.st1{fill:#FFFFFF;}
</style>
<ellipse class="st0" cx="271.2" cy="270" rx="271.2" ry="270"/>
<g>
	<path class="st1" d="M267.1,471.8c0,25.7-9.3,40.2-26.2,40.2c-14.6,0-25.1-14-25.1-39.1c0-25.7,11.1-39.7,26.2-39.7
		C257.8,433.3,267.1,447.9,267.1,471.8z M226.3,472.9c0,19.8,5.8,30.9,15.7,30.9c10.5,0,15.7-12.2,15.7-31.5
		c0-18.7-4.7-30.9-15.7-30.9C232.1,441.4,226.3,452.5,226.3,472.9z"/>
	<path class="st1" d="M326.6,434.4v7l-33.2,69.4h-10.5l33.2-67.1l0,0h-37.3V435h47.8V434.4z"/>
</g>
</svg>
