<?xml version="1.0" encoding="utf-8"?>
<!-- Generator: Adobe Illustrator 24.3.0, SVG Export Plug-In . SVG Version: 6.00 Build 0)  -->
<svg version="1.1" id="Capa_1" xmlns="http://www.w3.org/2000/svg" xmlns:xlink="http://www.w3.org/1999/xlink" x="0px" y="0px"
	 width="154.5px" height="36.1px" viewBox="0 0 154.5 36.1" style="enable-background:new 0 0 154.5 36.1;" xml:space="preserve">
<g>
	<path d="M28.5,33.8c0,0.5-0.2,0.9-0.5,1.2c-0.3,0.3-0.8,0.5-1.3,0.5h-3.4c-0.5,0-0.9-0.2-1.3-0.5c-0.4-0.3-0.6-0.7-0.6-1.2V16.7
		l-4.3,17.2c-0.3,1-0.9,1.6-1.8,1.6h-2c-0.9,0-1.5-0.5-1.8-1.6L7.2,16.1v17.7c0,0.5-0.2,0.9-0.6,1.2c-0.4,0.3-0.8,0.5-1.3,0.5H1.7
		c-0.5,0-0.9-0.2-1.2-0.5C0.2,34.6,0,34.2,0,33.8V2.1C0,1.7,0.2,1.3,0.5,1c0.3-0.3,0.7-0.5,1.2-0.5h6.8c1,0,1.7,0.6,1.9,1.8L14.3,18
		L18,2.1c0.2-1,0.8-1.6,1.8-1.6h7c0.5,0,0.9,0.2,1.2,0.5c0.4,0.3,0.5,0.7,0.5,1.2V33.8z"/>
	<path d="M55.3,26.3c0,2.7-1,4.9-3.1,6.8C50.2,35,47.8,36,45,36h-1.1c-2.8,0-5.2-0.9-7.2-2.8s-3.1-4.2-3.1-6.8v-9.8
		c0-0.4,0.2-0.8,0.5-1.1c0.3-0.4,0.7-0.5,1.2-0.5h3.8c0.5,0,0.9,0.2,1.3,0.5c0.3,0.4,0.5,0.7,0.5,1.1v9.1c0,1.1,0.4,2.1,1.1,2.8
		c0.7,0.8,1.5,1.2,2.4,1.2c0.9,0,1.6-0.4,2.4-1.2c0.7-0.8,1.1-1.7,1.1-2.8v-9.1c0-0.4,0.2-0.8,0.5-1.2c0.4-0.3,0.8-0.5,1.3-0.5h3.8
		c0.5,0,0.9,0.2,1.3,0.5c0.4,0.3,0.6,0.7,0.6,1.2L55.3,26.3L55.3,26.3z"/>
	<path d="M79.4,33.7c0,0.5-0.2,0.9-0.6,1.2c-0.4,0.4-0.8,0.5-1.3,0.5h-15c-0.5,0-0.9-0.2-1.3-0.5c-0.4-0.4-0.6-0.8-0.6-1.2V2.3
		c0-0.5,0.2-0.9,0.5-1.3c0.4-0.4,0.8-0.5,1.4-0.5h14.6c0.5,0,0.9,0.2,1.3,0.5C78.8,1.4,79,1.8,79,2.3v3c0,0.5-0.2,0.9-0.6,1.2
		C78,6.9,77.6,7,77.1,7h-8.4C68.3,7,68,7.2,68,7.6v5.8c0,0.4,0.2,0.5,0.7,0.5h6.3c0.5,0,0.9,0.2,1.3,0.5s0.6,0.8,0.6,1.3v2.9
		c0,0.5-0.2,0.9-0.6,1.2c-0.4,0.4-0.8,0.5-1.3,0.5h-6.3c-0.4,0-0.7,0.2-0.7,0.6v7.1c0,0.4,0.2,0.6,0.7,0.6h8.8
		c0.5,0,0.9,0.2,1.3,0.5c0.4,0.4,0.6,0.8,0.6,1.2V33.7L79.4,33.7z"/>
	<path d="M104.3,25.9c0,2.8-1,5.1-3.1,7.1c-2.1,2-4.5,3-7.4,3h-0.4c-2.9,0-5.4-1-7.5-3c-2.1-2-3.1-4.3-3.1-7.1V10
		c0-2.8,1-5.1,3.1-7.1C88,1,90.5,0,93.4,0h0.4c2.9,0,5.4,1,7.4,2.9c2,2,3.1,4.3,3.1,7.1v1.4c0,0.4-0.2,0.8-0.6,1.2
		c-0.4,0.4-0.8,0.5-1.3,0.5h-3.7c-0.5,0-0.9-0.2-1.3-0.5c-0.4-0.4-0.6-0.8-0.6-1.2V11c0-1.2-0.3-2.2-0.9-3c-0.6-0.8-1.3-1.2-2.2-1.2
		S92.1,7.2,91.4,8c-0.7,0.8-1,1.8-1,3v14.3c0,1.2,0.3,2.1,1,2.9c0.7,0.8,1.4,1.2,2.3,1.2s1.6-0.4,2.2-1.2c0.6-0.8,1-1.8,1-2.9v-1.1
		c0-1.2,0.6-1.8,1.8-1.8h3.7c0.5,0,1,0.2,1.3,0.5c0.4,0.3,0.5,0.8,0.5,1.3V25.9z"/>
	<path d="M130.5,33.6c0.1,0.5,0,0.9-0.4,1.3c-0.4,0.4-0.8,0.6-1.3,0.6h-4c-1,0-1.5-0.6-1.8-1.7l-1.1-5c-0.1-0.4-0.3-0.6-0.5-0.6H116
		c-0.4,0-0.6,0.2-0.7,0.6l-0.9,5c-0.2,1.1-0.8,1.7-1.9,1.7h-3.9c-0.5,0-1-0.2-1.3-0.6c-0.3-0.4-0.4-0.8-0.4-1.3l6.6-31.4
		c0.2-1.1,0.8-1.7,1.8-1.7h6.3c1,0,1.6,0.6,1.8,1.7L130.5,33.6L130.5,33.6z M120.3,20.9l-2-10.3l-1.8,10.3c-0.1,0.4,0.1,0.6,0.4,0.6
		h2.9C120.2,21.4,120.4,21.3,120.3,20.9z"/>
	<path d="M154.5,26.4c0,2.9-1,5.3-3,7c-2,1.7-4.6,2.6-7.7,2.6c-5,0-8.5-2.3-10.5-6.9c-0.7-1.5-1-2.5-1-3.1c0-0.8,0.6-1.4,1.9-1.9
		c0.9-0.3,1.8-0.5,2.7-0.7c0.2-0.1,0.5-0.1,0.7-0.1c0.7,0,1.3,0.5,1.8,1.6c0.8,1.8,1.3,2.8,1.4,2.9c0.8,1,1.8,1.6,3.1,1.6
		c2.2,0,3.3-1,3.3-3.1c0-1.4-1.2-3-3.6-5c-2.2-1.8-4.5-3.6-6.7-5.4c-2.4-2.3-3.6-4.7-3.6-7c0-2.8,1-5.1,3-6.7
		c1.8-1.5,4.1-2.3,6.8-2.3c2.7,0,4.8,0.8,6.7,2.3c1.7,1.4,2.9,3.3,3.7,5.7c0.1,0.2,0.1,0.4,0.1,0.6c0,0.7-0.5,1.3-1.6,1.7
		c-0.8,0.2-1.7,0.5-2.5,0.7c-0.2,0.1-0.4,0.1-0.6,0.1c-0.8,0-1.4-0.4-1.7-1.1c-1.2-2.7-2.6-4.1-4.1-4.1c-0.8,0-1.4,0.3-2,1
		c-0.6,0.6-0.9,1.4-0.9,2.2c0,1,1.2,2.4,3.7,4.3c3.7,2.8,6,4.7,6.9,5.6C153.3,21.4,154.5,23.9,154.5,26.4L154.5,26.4z"/>
	<path d="M39.2,0.5h-3.9c-1,0-1.7,0.8-1.7,1.7V6c0,0.9,0.8,1.7,1.7,1.7h3.9c1,0,1.7-0.8,1.7-1.7V2.2C40.9,1.2,40.1,0.5,39.2,0.5z"/>
	<path d="M53.6,0.5h-3.9c-1,0-1.7,0.8-1.7,1.7V6c0,0.9,0.8,1.7,1.7,1.7h3.9c1,0,1.7-0.8,1.7-1.7V2.2C55.3,1.2,54.6,0.5,53.6,0.5z"/>
</g>
</svg>
