<svg width="1440" height="810" viewBox="0 0 1440 810" fill="none" xmlns="http://www.w3.org/2000/svg">
<g clip-path="url(#clip0_1_2930)">
<path d="M1440 0H0V810H1440V0Z" fill="black"/>
<path d="M142.946 243.919L255.103 200.806L168.877 -23.5074L56.7201 19.6058L142.946 243.919Z" fill="#742686"/>
<path d="M-20.805 544.361L0.331055 662.646L236.901 620.374L215.765 502.089L-20.805 544.361Z" fill="#EC7789"/>
<path d="M332.603 156.049L240.129 232.771L393.572 417.72L486.047 340.998L332.603 156.049Z" fill="#E3202A"/>
<path d="M486.264 419.158L369.83 448.837L429.189 681.706L545.623 652.027L486.264 419.158Z" fill="#FFAC00"/>
<path d="M108.479 191.399L-10.3228 173.399L-46.3225 411.002L72.479 429.001L108.479 191.399Z" fill="#FFAC00"/>
<path d="M540.647 43.6624L492.499 -66.4275L272.319 29.8681L320.467 139.958L540.647 43.6624Z" fill="#EC7789"/>
<path d="M165.953 895.084L217.285 786.448L0.0134473 683.784L-51.3186 792.42L165.953 895.084Z" fill="#742686"/>
<path d="M205.274 479.897C265.023 479.897 313.459 431.461 313.459 371.712C313.459 311.963 265.023 263.527 205.274 263.527C145.525 263.527 97.0891 311.963 97.0891 371.712C97.0891 431.461 145.525 479.897 205.274 479.897Z" fill="#006B68"/>
<rect x="236.39" y="1041.74" width="403.613" height="196.952" transform="rotate(-94.4214 236.39 1041.74)" fill="#006B68"/>
</g>
<defs>
<clipPath id="clip0_1_2930">
<rect width="1440" height="810" fill="white"/>
</clipPath>
</defs>
</svg>
