<?xml version="1.0" encoding="utf-8"?>
<!-- Generator: Adobe Illustrator 24.3.0, SVG Export Plug-In . SVG Version: 6.00 Build 0)  -->
<svg version="1.1" id="Capa_1" xmlns="http://www.w3.org/2000/svg" xmlns:xlink="http://www.w3.org/1999/xlink" x="0px" y="0px"
	 width="540px" height="260.2px" viewBox="0 0 540 260.2" style="enable-background:new 0 0 540 260.2;" xml:space="preserve">
<style type="text/css">
	.st0{fill:#F0A0B2;}
	.st1{fill:#FFFFFF;}
</style>
<path class="st0" d="M0,0h540v260.2H0V0z"/>
<g>
	<path class="st1" d="M23.2,213.8L23.2,213.8l-6.4,3.4l-0.8-3.6l8.1-4.2h4.2v36.4h-5V213.8z"/>
	<path class="st1" d="M41.1,245.7v-3.1l3.9-3.6c9.2-9,13.4-13.7,13.7-19c0-3.6-1.7-7.3-7.3-7.3c-3.4,0-6.2,1.7-7.8,3.1l-1.7-3.4
		c2.5-2.2,6.2-3.6,10.4-3.6c7.8,0,11.2,5.3,11.2,10.6c0,6.7-4.8,12.3-12.6,19.6l-2.8,2.8l0,0h16.5v4.2L41.1,245.7L41.1,245.7z"/>
</g>
</svg>
