<?xml version="1.0" encoding="utf-8"?>
<!-- Generator: Adobe Illustrator 24.3.0, SVG Export Plug-In . SVG Version: 6.00 Build 0)  -->
<svg version="1.1" id="Capa_1" xmlns="http://www.w3.org/2000/svg" xmlns:xlink="http://www.w3.org/1999/xlink" x="0px" y="0px"
	 width="260.2px" height="540px" viewBox="0 0 260.2 540" style="enable-background:new 0 0 260.2 540;" xml:space="preserve">
<style type="text/css">
	.st0{fill:#742686;}
	.st1{fill:#FFFFFF;}
</style>
<g>
	<path class="st0" d="M260.2,0v540H0V0H260.2z"/>
	<g>
		<path class="st1" d="M32.7,507.3c0,12.3-4.5,19.3-12.6,19.3c-7,0-12-6.7-12-18.7c0-12.3,5.3-19,12.6-19
			C28.3,488.8,32.7,495.8,32.7,507.3z M12.9,507.8c0,9.5,2.8,14.8,7.6,14.8c5,0,7.6-5.9,7.6-15.1c0-9-2.2-14.8-7.6-14.8
			C15.9,492.7,12.9,498,12.9,507.8z"/>
		<path class="st1" d="M59,493.6H45l-1.4,9.5c0.8,0,1.7-0.3,3.1-0.3c2.8,0,5.6,0.6,7.8,2c2.8,1.7,5.3,4.8,5.3,9.5
			c0,7.3-5.6,12.6-13.7,12.6c-3.9,0-7.3-1.1-9.2-2.2l1.1-3.6c1.4,0.8,4.5,2,7.8,2c4.8,0,8.7-3.1,8.7-7.8s-3.1-8.1-10.6-8.1
			c-2,0-3.6,0.3-5,0.3l2.2-17.6h17.3v3.9L59,493.6L59,493.6z"/>
	</g>
</g>
</svg>
