<?xml version="1.0" encoding="utf-8"?>
<!-- Generator: Adobe Illustrator 24.3.0, SVG Export Plug-In . SVG Version: 6.00 Build 0)  -->
<svg version="1.1" id="Capa_1" xmlns="http://www.w3.org/2000/svg" xmlns:xlink="http://www.w3.org/1999/xlink" x="0px" y="0px"
	 width="260.2px" height="540px" viewBox="0 0 260.2 540" style="enable-background:new 0 0 260.2 540;" xml:space="preserve">
<style type="text/css">
	.st0{fill:#E3202A;}
	.st1{fill:#FFFFFF;}
</style>
<g>
	<path class="st0" d="M260.2,0v540H0V0H260.2z"/>
	<g>
		<path class="st1" d="M32.7,507.3c0,12.3-4.5,19.3-12.6,19.3c-7,0-12-6.7-12-18.7c0-12.3,5.3-19,12.6-19
			C28.3,488.8,32.7,495.8,32.7,507.3z M12.9,507.8c0,9.5,2.8,14.8,7.6,14.8c5,0,7.6-5.9,7.6-15.1c0-9-2.2-14.8-7.6-14.8
			C15.9,492.7,12.9,498,12.9,507.8z"/>
		<path class="st1" d="M40.3,522.4c1.1,0,2.2,0,3.9-0.3c2.8-0.3,5.6-1.7,7.6-3.6c2.5-2.2,4.2-5.3,4.8-9.8h-0.3c-2,2.5-5,3.9-8.7,3.9
			c-6.4,0-10.9-5-10.9-11.2c0-7,5-12.9,12.6-12.9s12,6.2,12,15.4c0,8.1-2.8,13.7-6.2,17.1c-2.8,2.8-6.7,4.5-10.6,4.8
			c-1.7,0.3-3.4,0.3-4.5,0.3L40.3,522.4L40.3,522.4z M42,501.4c0,4.5,2.8,7.8,7,7.8c3.4,0,5.9-1.7,7.3-3.9c0.3-0.6,0.6-1.1,0.6-1.7
			c0-6.2-2.2-10.9-7.6-10.9C45,492.4,42,496.4,42,501.4z"/>
	</g>
</g>
</svg>
