<?xml version="1.0" encoding="utf-8"?>
<!-- Generator: Adobe Illustrator 24.3.0, SVG Export Plug-In . SVG Version: 6.00 Build 0)  -->
<svg version="1.1" id="Capa_1" xmlns="http://www.w3.org/2000/svg" xmlns:xlink="http://www.w3.org/1999/xlink" x="0px" y="0px"
	 width="598.3px" height="617px" viewBox="0 0 598.3 617" style="enable-background:new 0 0 598.3 617;" xml:space="preserve">
<style type="text/css">
	.st0{fill:#006B68;}
	.st1{fill:#F0A0B2;}
	.st2{fill:#F8B42A;}
	.st3{fill:#E72E39;}
	.st4{fill:#7A2583;}
	.st5{fill:#2C2926;}
</style>
<path class="st0" d="M2.7,814.8l-34.6-216.3l101.7-16.2l34.6,216.3L2.7,814.8z"/>
<rect x="46.4" y="606.8" transform="matrix(0.4525 -0.8918 0.8918 0.4525 -508.8723 459.7039)" class="st1" width="147" height="75"/>
<rect x="504.1" y="567.9" transform="matrix(0.8449 -0.5349 0.5349 0.8449 -259.0829 389.1778)" class="st2" width="75" height="147"/>
<path class="st0" d="M520.9,615.5l-34.5,216.3l-101.7-16.2l34.6-216.3L520.9,615.5z"/>
<path class="st3" d="M338.1,629.9l-144.4,27.5l-14-73.7l144.4-27.5L338.1,629.9z"/>
<rect x="312.9" y="586.2" transform="matrix(0.92 -0.392 0.392 0.92 -230.5631 190.1485)" class="st4" width="75" height="147"/>
<rect x="-34.1" y="486.3" transform="matrix(0.5349 -0.8449 0.8449 0.5349 -424.2368 276.8839)" class="st2" width="147" height="75"/>
<rect x="-39.4" y="357.9" transform="matrix(0.4525 -0.8918 0.8918 0.4525 -333.9356 246.8697)" class="st1" width="147" height="75"/>
<rect x="418.3" y="319.1" transform="matrix(0.8449 -0.5349 0.5349 0.8449 -139.2981 304.7071)" class="st2" width="75" height="147"/>
<path class="st0" d="M435.1,366.6l-34.6,216.3l-101.7-16.2l34.6-216.3L435.1,366.6z"/>
<rect x="413" y="447.4" transform="matrix(0.8918 -0.4525 0.4525 0.8918 -186.9631 260.2285)" class="st1" width="75" height="147"/>
<path class="st3" d="M252.3,381.1l-144.4,27.5l-14-73.7l144.4-27.5L252.3,381.1z"/>
<path class="st5" d="M182.2,410.4l144.2,28.5l-14.3,72.6L167.8,483L182.2,410.4z"/>
<ellipse class="st0" cx="154.3" cy="500.4" rx="75.5" ry="74"/>
<rect x="227.1" y="337.4" transform="matrix(0.92 -0.392 0.392 0.92 -139.894 136.6096)" class="st4" width="75" height="147"/>
<path class="st3" d="M663.5,589.6l-144.4-27.5l14-73.7L677.5,516L663.5,589.6z"/>
<ellipse class="st0" cx="579.6" cy="396.6" rx="75.5" ry="74"/>
</svg>
