<?xml version="1.0" encoding="utf-8"?>
<!-- Generator: Adobe Illustrator 24.3.0, SVG Export Plug-In . SVG Version: 6.00 Build 0)  -->
<svg version="1.1" id="Capa_1" xmlns="http://www.w3.org/2000/svg" xmlns:xlink="http://www.w3.org/1999/xlink" x="0px" y="0px"
	 width="1920px" height="735px" viewBox="0 0 1920 735" style="enable-background:new 0 0 1920 735;" xml:space="preserve">
<style type="text/css">
	.st0{fill:#E72E39;}
	.st1{fill:#742686;}
	.st2{fill:#F8B42A;}
	.st3{fill:#006B68;}
	.st4{fill:#F0A0B2;}
</style>
<rect x="1187.9" y="23.1" class="st0" width="115.9" height="240.5"/>
<path class="st1" d="M1102.7,676.5c-10.7,26.2,1.3,56.4,26.9,67.4c25.5,11,55-1.4,65.7-27.6l30.5,13.1c-17.8,43.5-66.6,64-109,45.7
	s-62.3-68.3-44.5-111.8L1102.7,676.5z"/>
<path class="st2" d="M596.2,701.8c13-25.2,3.7-56.3-20.7-69.5c-24.4-13.3-54.9-3.6-68,21.5L478.4,638
	c21.6-41.7,72.1-57.6,112.6-35.6s55.9,73.7,34.3,115.4L596.2,701.8z"/>
<path class="st3" d="M952.9-133.5l-22.3,22.9l530.7,544.3l22.3-22.9L952.9-133.5z"/>
<path class="st4" d="M1159.5,124.4c41.6,0,75.4-34.6,75.4-77.2c0-42.7-33.7-77.2-75.4-77.2c-41.6,0-75.4,34.6-75.4,77.2
	S1117.8,124.4,1159.5,124.4z"/>
<rect x="92.3" y="309.6" class="st2" width="115.9" height="240.5"/>
<path class="st1" d="M235.4,75.2C246.1,49,234,18.8,208.5,7.8s-55,1.4-65.7,27.6l-30.5-13.1c17.8-43.5,66.6-64,109-45.7
	s62.3,68.3,44.5,111.8L235.4,75.2z"/>
<path class="st2" d="M550.2-53.7c-22.4,17.4-27,49.5-10.4,71.8s48.3,26.3,70.7,9l19.8,26.6c-37.1,28.8-89.6,22.1-117.2-14.9
	c-27.6-37-19.8-90.3,17.3-119.1L550.2-53.7z"/>
<path class="st0" d="M470,781.8l22.3-22.9L-38.4,214.6l-22.3,22.9L470,781.8z"/>
<path class="st3" d="M252.4,523.9c-41.6,0-75.4,34.6-75.4,77.2c0,42.7,33.7,77.2,75.4,77.2s75.4-34.6,75.4-77.2
	S294.1,523.9,252.4,523.9z"/>
<rect x="1915.4" y="281.3" class="st2" width="115.9" height="240.5"/>
<path class="st1" d="M615.3,385.5c10.7-26.2-1.3-56.4-26.9-67.4c-25.5-11-55,1.4-65.7,27.6l-30.5-13.1c17.8-43.5,66.6-64,109-45.7
	s62.3,68.3,44.5,111.8L615.3,385.5z"/>
<path class="st2" d="M1782.6,39c-22.4,17.4-27,49.5-10.4,71.8s48.3,26.3,70.7,9l19.8,26.6c-37.1,28.8-89.6,22.1-117.2-14.9
	s-19.8-90.3,17.3-119.1L1782.6,39z"/>
<path class="st0" d="M2184.4,209.2l-22.3-22.9l-530.7,544.3l22.3,22.9L2184.4,209.2z"/>
<path class="st3" d="M1795.8,572.8c0,42.7,33.7,77.2,75.4,77.2c41.6,0,75.4-34.6,75.4-77.2c0-42.7-33.7-77.2-75.4-77.2
	C1829.5,495.6,1795.8,530.2,1795.8,572.8z"/>
</svg>
