<?xml version="1.0" encoding="utf-8"?>
<!-- Generator: Adobe Illustrator 24.3.0, SVG Export Plug-In . SVG Version: 6.00 Build 0)  -->
<svg version="1.1" id="Capa_1" xmlns="http://www.w3.org/2000/svg" xmlns:xlink="http://www.w3.org/1999/xlink" x="0px" y="0px"
	 width="260.2px" height="540px" viewBox="0 0 260.2 540" style="enable-background:new 0 0 260.2 540;" xml:space="preserve">
<style type="text/css">
	.st0{fill:#2C2926;}
	.st1{fill:#FFFFFF;}
</style>
<g>
	<path class="st0" d="M260.2,0v540H0V0H260.2z"/>
	<g>
		<path class="st1" d="M32.7,507.3c0,12.3-4.5,19.3-12.6,19.3c-7,0-12-6.7-12-18.7c0-12.3,5.3-19,12.6-19
			C28.3,488.8,32.7,495.8,32.7,507.3z M12.9,507.8c0,9.5,2.8,14.8,7.6,14.8c5,0,7.6-5.9,7.6-15.1c0-9-2.2-14.8-7.6-14.8
			C15.9,492.7,12.9,498,12.9,507.8z"/>
		<path class="st1" d="M58.2,493c-1.1,0-2.2,0-3.6,0.3c-7.8,1.4-11.8,7-12.6,12.9l0,0c1.7-2.2,4.8-4.2,9-4.2
			c6.4,0,10.9,4.8,10.9,11.8c0,6.7-4.5,12.9-12,12.9c-7.8,0-12.9-6.2-12.9-15.7c0-7.3,2.5-12.9,6.2-16.5c3.1-3.1,7-4.8,11.8-5.3
			c1.4-0.3,2.8-0.3,3.6-0.3v4.2H58.2z M56.8,514c0-5.3-3.1-8.4-7.6-8.4c-3.1,0-5.6,2-7,4.5c-0.3,0.6-0.6,1.4-0.6,2.2
			c0,5.9,2.8,10.4,8.1,10.4C54,522.7,56.8,519.3,56.8,514z"/>
	</g>
</g>
</svg>
