<?xml version="1.0" encoding="utf-8"?>
<!-- Generator: Adobe Illustrator 24.3.0, SVG Export Plug-In . SVG Version: 6.00 Build 0)  -->
<svg version="1.1" id="Capa_1" xmlns="http://www.w3.org/2000/svg" xmlns:xlink="http://www.w3.org/1999/xlink" x="0px" y="0px"
	 width="540px" height="260.2px" viewBox="0 0 540 260.2" style="enable-background:new 0 0 540 260.2;" xml:space="preserve">
<style type="text/css">
	.st0{fill:#F8B42A;}
	.st1{fill:#FFFFFF;}
</style>
<path class="st0" d="M0,0h540v260.2H0V0z"/>
<path class="st1" d="M36.9,229.4c0,12.3-4.5,19.3-12.6,19.3c-7,0-12-6.7-12-18.7c0-12.3,5.3-19,12.6-19
	C32.5,211,36.9,218,36.9,229.4z M17.1,230c0,9.5,2.8,14.8,7.6,14.8c5,0,7.6-5.9,7.6-15.1c0-9-2.2-14.8-7.6-14.8
	C20.1,214.9,17.1,220.2,17.1,230z"/>
<path class="st1" d="M41.1,238.9c0-4.5,2.8-7.8,7.3-9.8v-0.3c-3.9-2-5.9-5-5.9-8.1c0-5.9,4.8-9.8,11.2-9.8c7,0,10.6,4.5,10.6,9
	c0,3.1-1.4,6.4-5.9,8.7v0.3c4.5,1.7,7.3,5,7.3,9.5c0,6.4-5.3,10.6-12.3,10.6C45.6,248.7,41.1,244.3,41.1,238.9z M60.7,238.7
	c0-4.5-3.1-6.4-8.1-8.1c-4.2,1.1-6.4,3.9-6.4,7.6c-0.3,3.6,2.5,7,7.3,7C57.9,245.1,60.7,242.3,60.7,238.7z M47,220.5
	c0,3.6,2.8,5.6,7,6.7c3.1-1.1,5.6-3.4,5.6-6.7c0-2.8-1.7-5.9-6.2-5.9C49.5,214.6,47,217.1,47,220.5z"/>
</svg>
