<?xml version="1.0" encoding="utf-8"?>
<!-- Generator: Adobe Illustrator 24.3.0, SVG Export Plug-In . SVG Version: 6.00 Build 0)  -->
<svg version="1.1" id="Capa_1" xmlns="http://www.w3.org/2000/svg" xmlns:xlink="http://www.w3.org/1999/xlink" x="0px" y="0px"
	 width="154.5px" height="51.5px" viewBox="0 0 154.5 51.5" style="enable-background:new 0 0 154.5 51.5;" xml:space="preserve">
<style type="text/css">
	.st0{clip-path:url(#SVGID_2_);fill:#2C2C2C;}
	.st1{fill:#2C2C2C;}
</style>
<g>
	<g>
		<g>
			<defs>
				<rect id="SVGID_1_" width="154.5" height="51.5"/>
			</defs>
			<clipPath id="SVGID_2_">
				<use xlink:href="#SVGID_1_"  style="overflow:visible;"/>
			</clipPath>
			<path class="st0" d="M146.2,51.5H8.3c-4.5,0-8.3-3.6-8.3-8.2V8.2C0.1,3.6,3.8,0,8.3,0h137.9c4.6,0,8.3,3.6,8.3,8.2v35.1
				C154.5,47.9,150.8,51.5,146.2,51.5z M8.3,2.4C5,2.4,2.4,5,2.4,8.2v35.1c0,3.2,2.7,5.8,5.8,5.7h137.9c3.2,0,5.8-2.6,5.8-5.7V8.2
				c0-3.2-2.7-5.8-5.8-5.7L8.3,2.4z"/>
		</g>
	</g>
	<g>
		<path class="st1" d="M10.7,31.8V20.2H13v3.6L12.8,23c0.2-0.6,0.4-1.1,0.8-1.5s0.8-0.8,1.3-1.1c0.5-0.3,1-0.4,1.6-0.4
			c0.2,0,0.5,0,0.7,0.1c0.2,0,0.4,0.1,0.5,0.2l-0.6,2.5c-0.2-0.1-0.4-0.1-0.6-0.2c-0.2-0.1-0.4-0.1-0.6-0.1c-0.4,0-0.8,0.1-1.1,0.2
			c-0.4,0.2-0.7,0.4-0.9,0.6c-0.3,0.3-0.5,0.6-0.7,0.9C13.1,24.6,13,25,13,25.4v6.4H10.7z"/>
		<path class="st1" d="M24.5,32.1c-1.2,0-2.2-0.3-3.2-0.8c-0.9-0.5-1.6-1.2-2.2-2.1c-0.5-0.9-0.8-1.9-0.8-3c0-0.9,0.1-1.7,0.4-2.5
			c0.3-0.8,0.7-1.4,1.2-2c0.5-0.6,1.1-1,1.9-1.3c0.7-0.3,1.5-0.5,2.4-0.5c0.8,0,1.5,0.1,2.1,0.4c0.6,0.3,1.2,0.7,1.7,1.2
			c0.5,0.5,0.8,1.1,1.1,1.8c0.3,0.7,0.4,1.4,0.4,2.2l0,1h-9.5l-0.5-1.8h8l-0.3,0.4v-0.5c0-0.5-0.2-0.9-0.5-1.3
			c-0.3-0.4-0.6-0.7-1.1-0.9c-0.4-0.2-0.9-0.3-1.4-0.3c-0.8,0-1.5,0.2-2,0.5c-0.5,0.3-1,0.7-1.2,1.3c-0.3,0.6-0.4,1.3-0.4,2.2
			c0,0.8,0.2,1.5,0.5,2.1c0.3,0.6,0.8,1.1,1.4,1.4c0.6,0.3,1.3,0.5,2.1,0.5c0.6,0,1.1-0.1,1.6-0.3c0.5-0.2,1-0.5,1.6-1l1.1,1.6
			c-0.4,0.4-0.8,0.7-1.3,0.9c-0.5,0.3-1,0.5-1.6,0.6C25.6,32,25.1,32.1,24.5,32.1z"/>
		<path class="st1" d="M36.5,32.1c-1,0-1.8-0.3-2.6-0.8c-0.8-0.5-1.4-1.3-1.9-2.2c-0.5-0.9-0.7-1.9-0.7-3.1c0-1.2,0.2-2.2,0.7-3.1
			c0.5-0.9,1.1-1.6,1.9-2.1c0.8-0.5,1.7-0.8,2.8-0.8c0.6,0,1.2,0.1,1.7,0.3c0.5,0.2,0.9,0.4,1.3,0.7c0.4,0.3,0.7,0.7,0.9,1.1
			c0.2,0.4,0.4,0.9,0.5,1.3l-0.5-0.2v-3h2.3v11.6h-2.3v-2.8l0.5-0.2c-0.1,0.4-0.3,0.8-0.5,1.2c-0.3,0.4-0.6,0.7-1,1
			c-0.4,0.3-0.9,0.5-1.4,0.7C37.6,32,37.1,32.1,36.5,32.1z M37.1,30c0.7,0,1.3-0.2,1.8-0.5c0.5-0.3,0.9-0.8,1.2-1.4
			c0.3-0.6,0.5-1.3,0.5-2c0-0.8-0.2-1.4-0.5-2c-0.3-0.6-0.7-1.1-1.2-1.4c-0.5-0.3-1.1-0.5-1.8-0.5c-0.7,0-1.3,0.2-1.8,0.5
			c-0.5,0.3-0.9,0.8-1.2,1.4c-0.3,0.6-0.5,1.3-0.5,2c0,0.8,0.2,1.4,0.5,2c0.3,0.6,0.7,1.1,1.2,1.4C35.8,29.8,36.4,30,37.1,30z"/>
		<path class="st1" d="M46.1,31.8V15.5h2.3v16.3H46.1z"/>
		<path class="st1" d="M57.2,26.6v-2h11.1v2H57.2z M61.5,30.9V20.2h2.3v10.7H61.5z"/>
		<path class="st1" d="M80.9,32.1c-1,0-1.8-0.2-2.6-0.5c-0.8-0.3-1.4-0.8-1.9-1.5l1.5-1.3c0.4,0.5,0.9,0.9,1.4,1.1
			c0.5,0.2,1.1,0.3,1.8,0.3c0.3,0,0.5,0,0.7-0.1c0.2-0.1,0.4-0.2,0.6-0.3c0.2-0.1,0.3-0.3,0.4-0.5c0.1-0.2,0.1-0.4,0.1-0.6
			c0-0.4-0.1-0.7-0.4-0.9c-0.1-0.1-0.4-0.2-0.7-0.3c-0.3-0.1-0.7-0.3-1.2-0.4c-0.9-0.2-1.6-0.5-2.1-0.8c-0.5-0.3-1-0.6-1.3-0.9
			c-0.2-0.3-0.4-0.6-0.5-0.9c-0.1-0.3-0.2-0.7-0.2-1.1c0-0.5,0.1-0.9,0.3-1.3c0.2-0.4,0.5-0.8,0.9-1.1c0.4-0.3,0.8-0.5,1.3-0.7
			c0.5-0.2,1-0.2,1.6-0.2c0.5,0,1.1,0.1,1.6,0.2c0.5,0.1,1,0.4,1.5,0.6c0.5,0.3,0.8,0.6,1.1,1l-1.3,1.4c-0.3-0.3-0.6-0.5-0.9-0.7
			c-0.3-0.2-0.7-0.4-1-0.5c-0.3-0.1-0.6-0.2-0.9-0.2c-0.3,0-0.6,0-0.8,0.1c-0.3,0.1-0.5,0.1-0.6,0.3c-0.2,0.1-0.3,0.3-0.4,0.4
			c-0.1,0.2-0.1,0.4-0.1,0.6c0,0.2,0.1,0.4,0.1,0.5c0.1,0.2,0.2,0.3,0.3,0.4c0.2,0.1,0.4,0.2,0.7,0.4c0.3,0.1,0.7,0.3,1.2,0.4
			c0.7,0.2,1.3,0.4,1.8,0.6c0.5,0.2,0.9,0.5,1.1,0.8c0.3,0.3,0.5,0.6,0.6,1c0.1,0.4,0.2,0.8,0.2,1.2c0,0.7-0.2,1.3-0.6,1.8
			c-0.4,0.5-0.9,0.9-1.5,1.2C82.4,31.9,81.7,32.1,80.9,32.1z"/>
		<path class="st1" d="M89.1,17.7c-0.5,0-0.9-0.1-1.1-0.4c-0.3-0.2-0.4-0.6-0.4-1.1c0-0.4,0.1-0.8,0.4-1c0.3-0.3,0.6-0.4,1.1-0.4
			c0.5,0,0.9,0.1,1.1,0.4c0.3,0.2,0.4,0.6,0.4,1.1c0,0.4-0.1,0.8-0.4,1C89.9,17.5,89.5,17.7,89.1,17.7z M88,31.8V20.2h2.3v11.6H88z"
			/>
		<path class="st1" d="M93.7,31.8V20.2H96v2.5L95.6,23c0.1-0.4,0.3-0.8,0.6-1.1c0.3-0.4,0.6-0.7,0.9-0.9c0.4-0.3,0.8-0.5,1.2-0.7
			c0.4-0.2,0.9-0.2,1.3-0.2c0.7,0,1.2,0.1,1.7,0.3c0.5,0.2,0.9,0.6,1.2,1c0.3,0.4,0.6,1,0.7,1.7l-0.4-0.1l0.2-0.4
			c0.2-0.3,0.4-0.7,0.7-1c0.3-0.3,0.6-0.6,1-0.8c0.4-0.2,0.8-0.4,1.2-0.6c0.4-0.1,0.8-0.2,1.2-0.2c0.9,0,1.6,0.2,2.2,0.5
			c0.6,0.4,1,0.9,1.3,1.6c0.3,0.7,0.4,1.6,0.4,2.7v7h-2.3V25c0-0.7-0.1-1.2-0.3-1.6c-0.2-0.4-0.4-0.7-0.8-0.9
			c-0.3-0.2-0.8-0.3-1.3-0.3c-0.4,0-0.8,0.1-1.2,0.2c-0.4,0.1-0.7,0.3-0.9,0.6c-0.3,0.3-0.5,0.5-0.6,0.9c-0.1,0.3-0.2,0.7-0.2,1.1
			v6.9h-2.3V25c0-0.6-0.1-1.1-0.3-1.5c-0.2-0.4-0.4-0.7-0.8-1c-0.3-0.2-0.8-0.3-1.2-0.3c-0.4,0-0.8,0.1-1.1,0.2
			c-0.4,0.1-0.7,0.3-0.9,0.6c-0.3,0.2-0.5,0.5-0.6,0.9c-0.1,0.3-0.2,0.7-0.2,1.1v7H93.7z"/>
		<path class="st1" d="M114.1,36.7V20.2h2.3v2.7l-0.4-0.2c0.1-0.4,0.3-0.9,0.8-1.3c0.4-0.4,0.9-0.7,1.5-1c0.6-0.3,1.2-0.4,1.8-0.4
			c1,0,2,0.3,2.8,0.8c0.8,0.5,1.5,1.2,1.9,2.1c0.5,0.9,0.7,1.9,0.7,3.1c0,1.1-0.2,2.2-0.7,3.1c-0.5,0.9-1.1,1.6-1.9,2.1
			c-0.8,0.5-1.7,0.8-2.7,0.8c-0.7,0-1.3-0.1-2-0.4c-0.6-0.3-1.2-0.6-1.6-1c-0.4-0.4-0.7-0.9-0.8-1.3l0.6-0.3v7.8H114.1z M119.8,29.9
			c0.7,0,1.3-0.2,1.8-0.5c0.5-0.3,1-0.8,1.3-1.4s0.5-1.3,0.5-2c0-0.8-0.2-1.4-0.5-2c-0.3-0.6-0.7-1-1.2-1.4
			c-0.5-0.3-1.1-0.5-1.8-0.5c-0.7,0-1.3,0.2-1.8,0.5c-0.5,0.3-1,0.8-1.3,1.4c-0.3,0.6-0.5,1.3-0.5,2c0,0.8,0.2,1.4,0.5,2
			c0.3,0.6,0.7,1.1,1.3,1.4C118.5,29.8,119.1,29.9,119.8,29.9z"/>
		<path class="st1" d="M128.1,31.8V15.5h2.3v16.3H128.1z"/>
		<path class="st1" d="M138.7,32.1c-1.2,0-2.2-0.3-3.2-0.8c-0.9-0.5-1.6-1.2-2.2-2.1c-0.5-0.9-0.8-1.9-0.8-3c0-0.9,0.1-1.7,0.4-2.5
			c0.3-0.8,0.7-1.4,1.2-2c0.5-0.6,1.1-1,1.9-1.3c0.7-0.3,1.5-0.5,2.4-0.5c0.7,0,1.4,0.1,2.1,0.4c0.6,0.3,1.2,0.7,1.7,1.2
			c0.5,0.5,0.8,1.1,1.1,1.8c0.3,0.7,0.4,1.4,0.4,2.2l0,1h-9.5l-0.5-1.8h8l-0.3,0.4v-0.5c0-0.5-0.2-0.9-0.5-1.3
			c-0.3-0.4-0.6-0.7-1.1-0.9c-0.4-0.2-0.9-0.3-1.4-0.3c-0.8,0-1.5,0.2-2,0.5c-0.5,0.3-1,0.7-1.2,1.3c-0.3,0.6-0.4,1.3-0.4,2.2
			c0,0.8,0.2,1.5,0.5,2.1c0.3,0.6,0.8,1.1,1.4,1.4c0.6,0.3,1.3,0.5,2.1,0.5c0.6,0,1.1-0.1,1.6-0.3c0.5-0.2,1-0.5,1.6-1l1.1,1.6
			c-0.4,0.4-0.8,0.7-1.3,0.9c-0.5,0.3-1,0.5-1.6,0.6C139.8,32,139.3,32.1,138.7,32.1z"/>
	</g>
</g>
</svg>
