<?xml version="1.0" encoding="utf-8"?>
<!-- Generator: Adobe Illustrator 24.3.0, SVG Export Plug-In . SVG Version: 6.00 Build 0)  -->
<svg version="1.1" id="Capa_1" xmlns="http://www.w3.org/2000/svg" xmlns:xlink="http://www.w3.org/1999/xlink" x="0px" y="0px"
	 width="540px" height="260.2px" viewBox="0 0 540 260.2" style="enable-background:new 0 0 540 260.2;" xml:space="preserve">
<style type="text/css">
	.st0{fill:#E3202A;}
	.st1{fill:#FFFFFF;}
</style>
<path class="st0" d="M0,0h540v260.2H0V0z"/>
<g>
	<g>
		<path class="st1" d="M38.9,229.2c0,12.3-4.5,19.3-12.6,19.3c-7,0-12-6.7-12-18.7c0-12.3,5.3-19,12.6-19
			C34.4,210.7,38.9,217.7,38.9,229.2z M19,229.7c0,9.5,2.8,14.8,7.6,14.8c5,0,7.6-5.9,7.6-15.1c0-9-2.2-14.8-7.6-14.8
			C22.1,214.6,19,219.9,19,229.7z"/>
		<path class="st1" d="M58.8,247.9v-10.1H41.7v-3.4l16.2-23.2h5.3v22.7h5v3.9h-5v10.1H58.8z M58.8,233.9v-12.3c0-2,0-3.9,0.3-5.6
			h-0.3c-1.1,2.2-2,3.6-3.1,5.3l-9,12.3l0,0h12V233.9z"/>
	</g>
</g>
</svg>
