<?xml version="1.0" encoding="utf-8"?>
<!-- Generator: Adobe Illustrator 24.3.0, SVG Export Plug-In . SVG Version: 6.00 Build 0)  -->
<svg version="1.1" id="Capa_1" xmlns="http://www.w3.org/2000/svg" xmlns:xlink="http://www.w3.org/1999/xlink" x="0px" y="0px"
	 width="1920px" height="1080px" viewBox="0 0 1920 1080" style="enable-background:new 0 0 1920 1080;" xml:space="preserve">
<style type="text/css">
	.st0{fill:#742686;}
	.st1{fill:#EC7789;}
	.st2{fill:#E3202A;}
	.st3{fill:#FFAC00;}
	.st4{fill:#006B68;}
</style>
<g id="Capa_2_1_">
	<rect x="-830" y="-528.9" width="3532.1" height="2140.1"/>
</g>
<path class="st0" d="M824.7,345.7l138.9-53.4L856.9,14.6L717.9,68L824.7,345.7z"/>
<path class="st1" d="M681.3,689l26.1,146.5l293-52.4l-26.1-146.5L681.3,689z"/>
<path class="st2" d="M1113.3,197.1l-121.1,96.2l189.9,228.9l121.1-96.2L1113.3,197.1z"/>
<path class="st3" d="M1243.5,527.2l-144.1,36.7l73.5,288.3l144.1-36.7L1243.5,527.2z"/>
<path class="st3" d="M784.8,306.4l-147.2-22.3L593,578.3l147.2,22.3L784.8,306.4z"/>
<path class="st1" d="M1328.8-21.8l-59.6-136.3L996.7-39l59.6,136.3L1328.8-21.8z"/>
<path class="st4" d="M925.5,628.5c74,0,133.9-59.9,133.9-133.9s-59.9-133.9-133.9-133.9s-133.9,59.9-133.9,133.9
	S851.4,628.5,925.5,628.5z"/>
<path class="st0" d="M568.7,879.2l-63.5,134.5l269.1,127.1l63.5-134.5"/>
<rect x="936.6" y="803.4" transform="matrix(0.9895 -0.1445 0.1445 0.9895 -142.7289 164.2578)" class="st4" width="245.6" height="522.5"/>
<path class="st0" d="M49.4,537l120.2,87.6L344.7,384l-120.2-87.6L49.4,537z"/>
<path class="st2" d="M316.5,649.8l-142-44.5L85.6,889.2l142,44.5L316.5,649.8z"/>
<path class="st3" d="M505.2,898.9L396,798l-202.1,218.4l109.2,101L505.2,898.9z"/>
<path class="st3" d="M76.7,432.6L15.6,296.9l-271.1,122.4l61.1,135.7L76.7,432.6z"/>
<path class="st1" d="M566.5,769.5l82.1-124.2l-248.1-164l-82.1,124.2L566.5,769.5z"/>
<path class="st4" d="M-168.2,762.5C-128,824.7-45,842.4,17.1,802.2S97,679.1,56.8,616.9s-123.1-79.8-185.3-39.7
	S-208.3,700.4-168.2,762.5z"/>
<path class="st1" d="M185.8,252.3L322,192.4L201.9-80L65.8-20L185.8,252.3z"/>
<path class="st2" d="M-244.1,136l13.1,148.2l296.4-26.1L52.3,109.9L-244.1,136z"/>
<path class="st4" d="M-2.7-45.5c-13.9-57.2-71.4-92.2-128.6-78.3c-57.2,13.9-92.2,71.4-78.3,128.6C-195.7,62-138.2,97-81,83.1
	C-24,69.2,11.1,11.5-2.7-45.5z"/>
<path class="st0" d="M379.8,294.1l128.8,74.6l149.1-257.5L528.8,36.7"/>
<rect x="324.1" y="-269.3" transform="matrix(0.9274 -0.3741 0.3741 0.9274 97.3298 208.3436)" class="st2" width="522.5" height="245.6"/>
<path class="st1" d="M1486.9,981.3l-87.2,81.6l163,174.6l87.2-81.6L1486.9,981.3z"/>
<path class="st3" d="M2102.2,1189.1l-61.1-135.7L1770,1175.9l61.3,135.7L2102.2,1189.1z"/>
<path class="st0" d="M1815.5,812l-84.7-122.3L1486.1,859l84.7,122.3L1815.5,812z"/>
<path class="st2" d="M1621.5,573.5l119.3,88.8l177.6-238.7l-119.3-88.8L1621.5,573.5z"/>
<path class="st2" d="M1774.6,905.3l13.1,148.2l296.4-26.1l-13.2-148.2L1774.6,905.3z"/>
<path class="st1" d="M1470.5,428.6l-118.3,90.2l180.3,236.8l118.3-90.2L1470.5,428.6z"/>
<path class="st4" d="M2066.7,710.9c-13.9-57.2-71.4-92.2-128.6-78.3c-57.2,13.9-92.2,71.4-78.3,128.6
	c13.9,57.2,71.4,92.2,128.6,78.3C2045.4,825.8,2080.6,768.1,2066.7,710.9z"/>
<path class="st4" d="M1409.3,896.5c-10.8-44.5-55.6-71.8-99.9-61c-44.5,10.8-71.8,55.6-61,99.9c10.8,44.5,55.6,71.8,99.9,61
	C1392.8,985.6,1420.1,941,1409.3,896.5z"/>
<path class="st0" d="M1508.8,147.3l-84.7-122.3l-244.7,169.3l84.7,122.3L1508.8,147.3z"/>
<path class="st0" d="M154.7,1029.9L70.1,907.7L-174.6,1077l84.7,122.3L154.7,1029.9z"/>
<path class="st2" d="M1481.9,44.6l119.3,88.8l177.6-238.7l-119.3-88.8L1481.9,44.6z"/>
<path class="st3" d="M1684.5,168.2l13.1,148.2l296.4-26.1l-13.1-148.2L1684.5,168.2z"/>
<path class="st4" d="M2021.9-52c-17.5-71.9-90-115.9-161.8-98.6c-71.9,17.5-115.9,90-98.6,161.8s90,115.9,161.8,98.6
	S2039.4,19.9,2021.9-52z"/>
<path class="st4" d="M841.8-211.6c-35.9-44.8-101.3-52-146.1-16.1c-44.8,35.9-52,101.3-16.1,146.1c35.9,44.8,101.3,52,146.1,16.1
	C870.5-101.3,877.7-166.7,841.8-211.6z"/>
<path class="st4" d="M1598.7,241.7c-35.9-44.8-101.3-52-146.1-16.1s-52,101.3-16.1,146.1s101.3,52,146.1,16.1
	C1627.4,351.9,1634.6,286.5,1598.7,241.7z"/>
</svg>
