<?xml version="1.0" encoding="utf-8"?>
<!-- Generator: Adobe Illustrator 24.1.1, SVG Export Plug-In . SVG Version: 6.00 Build 0)  -->
<svg version="1.1" id="Capa_1" xmlns="http://www.w3.org/2000/svg" xmlns:xlink="http://www.w3.org/1999/xlink" x="0px" y="0px"
	 width="598.3px" height="355.1px" viewBox="0 0 598.3 355.1" style="enable-background:new 0 0 598.3 355.1;" xml:space="preserve"
	>
<style type="text/css">
	.st0{fill:#F0A0B2;}
	.st1{fill:#F8B42A;}
	.st2{fill:#006B68;}
	.st3{fill:#E72E39;}
	.st4{fill:#7A2583;}
	.st5{fill:#2C2926;}
</style>
<rect x="91" y="327.2" transform="matrix(0.4525 -0.8918 0.8918 0.4525 -233.2844 369.9377)" class="st0" width="187.3" height="95.6"/>
<rect x="642.2" y="347.3" transform="matrix(0.8449 -0.5349 0.5349 0.8449 -128.8716 437.4445)" class="st1" width="95.5" height="187.3"/>
<path class="st2" d="M663.6,407.9l-44,275.5L490,662.7l44.1-275.5L663.6,407.9z"/>
<path class="st3" d="M420.8,388.2l-184,35.1L219,329.4l184-35.1L420.8,388.2z"/>
<rect x="398.7" y="370.6" transform="matrix(0.92 -0.392 0.392 0.92 -146.2604 212.1731)" class="st4" width="95.6" height="187.3"/>
<rect x="-39.2" y="243.3" transform="matrix(7.279865e-02 -0.9973 0.9973 7.279865e-02 -239.8078 324.1801)" class="st1" width="187.2" height="95.5"/>
<rect x="61.1" y="48.9" transform="matrix(0.625 -0.7806 0.7806 0.625 -70.407 138.4536)" class="st0" width="95.5" height="187.2"/>
<rect x="527.9" y="13.9" transform="matrix(0.8449 -0.5349 0.5349 0.8449 31.7395 324.6265)" class="st1" width="95.5" height="187.3"/>
<path class="st2" d="M558.4,110.8l-44.1,275.5l-129.6-20.7l44.1-275.5L558.4,110.8z"/>
<rect x="524" y="209.6" transform="matrix(0.9745 -0.2243 0.2243 0.9745 -53.4435 135.9867)" class="st0" width="95.5" height="187.3"/>
<path class="st3" d="M318.9,94.5L144,161.3l-34-89.4L284.9,5.1L318.9,94.5z"/>
<path class="st5" d="M282.6,127.2L397,275.6l-74.5,57.7L208,185L282.6,127.2z"/>
<ellipse class="st2" cx="129.3" cy="240.8" rx="96.2" ry="94.3"/>
<rect x="318" y="48.9" transform="matrix(0.92 -0.392 0.392 0.92 -26.6076 154.7697)" class="st4" width="95.6" height="187.3"/>
<path class="st3" d="M845.2,374.9l-184-35.1l17.8-93.9l184,35.2L845.2,374.9z"/>
<ellipse class="st2" cx="662.6" cy="152.9" rx="96.2" ry="94.3"/>
</svg>
