<?xml version="1.0" encoding="utf-8"?>
<!-- Generator: Adobe Illustrator 24.3.0, SVG Export Plug-In . SVG Version: 6.00 Build 0)  -->
<svg version="1.1" id="Capa_1" xmlns="http://www.w3.org/2000/svg" xmlns:xlink="http://www.w3.org/1999/xlink" x="0px" y="0px"
	 width="260.2px" height="540px" viewBox="0 0 260.2 540" style="enable-background:new 0 0 260.2 540;" xml:space="preserve">
<style type="text/css">
	.st0{fill:#F8B42A;}
	.st1{fill:#FFFFFF;}
</style>
<g>
	<path class="st0" d="M260.2,0v540H0V0H260.2z"/>
	<g>
		<path class="st1" d="M33.3,507.5c0,12.6-4.8,19.6-12.9,19.6c-7.3,0-12.3-6.7-12.3-19c0-12.6,5.3-19.3,12.9-19.3
			C28.8,488.8,33.3,495.8,33.3,507.5z M13.2,508.1c0,9.8,3.1,15.1,7.6,15.1c5,0,7.6-5.9,7.6-15.4c0-9.2-2.2-15.1-7.6-15.1
			C16.2,492.7,13.2,498,13.2,508.1z"/>
		<path class="st1" d="M39.2,520.7c1.4,0.8,4.8,2.2,8.1,2.2c6.4,0,8.4-4.2,8.4-7.3c0-5.3-4.8-7.6-9.5-7.6h-2.8v-3.6h2.8
			c3.6,0,8.4-2,8.4-6.2c0-3.1-2-5.6-6.4-5.6c-3.1,0-5.9,1.4-7.6,2.5l-1.4-3.6c2-1.4,5.6-2.8,9.8-2.8c7.3,0,10.6,4.5,10.6,9
			c0,3.9-2.2,7-7,8.7l0,0c4.5,0.8,8.4,4.5,8.4,9.5c0,5.9-4.8,11.2-13.4,11.2c-4.2,0-7.8-1.4-9.8-2.5L39.2,520.7z"/>
	</g>
</g>
</svg>
