<svg width="1152" height="735" viewBox="0 0 1152 735" fill="none" xmlns="http://www.w3.org/2000/svg">
<rect width="1152" height="735" transform="matrix(-1 0 0 1 1152 0)" fill="#006B68"/>
<path fill-rule="evenodd" clip-rule="evenodd" d="M839 735C839 669.278 785.722 616 720 616C654.278 616 601 669.278 601 735H839Z" fill="#742686"/>
<path fill-rule="evenodd" clip-rule="evenodd" d="M1152 71.4517C1136.54 64.1087 1119.25 60 1101 60C1035.28 60 982 113.278 982 179C982 244.722 1035.28 298 1101 298C1119.25 298 1136.54 293.891 1152 286.548V71.4517Z" fill="#742686"/>
<path d="M966.375 480.894C945.227 429.023 886.176 404.174 834.471 425.39C782.767 446.605 757.998 505.846 779.145 557.717L717.526 583C682.462 496.99 723.534 398.75 809.269 363.567C895.004 328.389 992.929 369.594 1028 455.604L966.381 480.887L966.375 480.894Z" fill="#FFAC00"/>
<path fill-rule="evenodd" clip-rule="evenodd" d="M714.258 144.41C747.247 111.421 747.247 57.9364 714.258 24.9476L714.265 24.9411L689.323 0H144.605C140.567 11.8331 133.829 22.9486 124.391 32.3865C91.402 65.3753 37.9167 65.3753 4.92748 32.3865C3.33142 30.7904 1.68738 29.2716 0 27.83L0 505.316L116.939 622.258C149.929 655.247 203.414 655.247 236.403 622.258C269.392 589.27 269.392 535.785 236.403 502.796C203.414 469.807 203.414 416.323 236.403 383.334C269.392 350.345 322.878 350.345 355.867 383.334C388.856 416.323 442.341 416.323 475.331 383.334C508.32 350.345 508.32 296.861 475.331 263.872C442.341 230.883 442.341 177.399 475.331 144.41C508.32 111.421 561.805 111.421 594.794 144.41C627.784 177.399 681.269 177.399 714.258 144.41Z" fill="#F0A0B2"/>
</svg>
