<svg width="374" height="583" viewBox="0 0 374 583" fill="none" xmlns="http://www.w3.org/2000/svg">
<rect width="374" height="583" transform="matrix(-1 0 0 1 374 0)" fill="#006B68"/>
<path fill-rule="evenodd" clip-rule="evenodd" d="M181.985 582.999C181.985 546 151.992 516.007 114.993 516.007C77.9936 516.007 48 546 48 582.999C48 582.999 48 582.999 48 582.999L181.985 582.999Z" fill="#742686"/>
<path fill-rule="evenodd" clip-rule="evenodd" d="M373.704 202.447C365.002 198.313 355.267 196 344.993 196C307.994 196 278 225.994 278 262.993C278 299.992 307.994 329.985 344.993 329.985C355.267 329.985 365.002 327.672 373.704 323.538V202.447Z" fill="#742686"/>
<path d="M305.276 430.785C293.36 401.72 260.087 387.796 230.953 399.684C201.819 411.572 187.862 444.767 199.778 473.833L165.058 488C145.3 439.805 168.444 384.757 216.752 365.042C265.061 345.33 320.239 368.419 340 416.614L305.28 430.782L305.276 430.785Z" fill="#FFAC00"/>
<path fill-rule="evenodd" clip-rule="evenodd" d="M306.014 61.8706C320.148 47.737 320.148 24.8222 306.014 10.6886L306.017 10.6858L295.331 0H61.954C60.2241 5.0698 57.3374 9.83212 53.2938 13.8757C39.1599 28.0093 16.2449 28.0093 2.11109 13.8757C1.42728 13.1919 0.722924 12.5412 0 11.9236V216.496L50.1011 266.599C64.2349 280.732 87.1499 280.732 101.284 266.599C115.418 252.465 115.418 229.55 101.284 215.417C87.1499 201.283 87.1499 178.368 101.284 164.235C115.418 150.101 138.333 150.101 152.466 164.235C166.6 178.368 189.515 178.368 203.649 164.235C217.783 150.101 217.783 127.186 203.649 113.053C189.515 98.919 189.515 76.0042 203.649 61.8706C217.783 47.737 240.698 47.737 254.832 61.8706C268.966 76.0042 291.881 76.0042 306.014 61.8706Z" fill="#F0A0B2"/>
</svg>
