<svg width="64" height="26" viewBox="0 0 64 26" fill="none" xmlns="http://www.w3.org/2000/svg">
<rect width="64" height="26" fill="#2C2926"/>
<path d="M9.56473 17.62C8.97273 17.62 8.45673 17.484 8.01673 17.212C7.58473 16.94 7.17673 16.484 6.79273 15.844L7.80073 15.208C8.00073 15.504 8.19673 15.748 8.38873 15.94C8.58873 16.124 8.79273 16.26 9.00073 16.348C9.20873 16.436 9.42873 16.48 9.66073 16.48C9.94073 16.48 10.2007 16.412 10.4407 16.276C10.6807 16.132 10.8727 15.936 11.0167 15.688C11.1607 15.44 11.2327 15.16 11.2327 14.848C11.2327 14.536 11.1767 14.272 11.0647 14.056C10.9527 13.832 10.7887 13.664 10.5727 13.552C10.3567 13.432 10.1007 13.372 9.80473 13.372C9.66873 13.372 9.52473 13.388 9.37273 13.42C9.22873 13.444 9.07273 13.484 8.90473 13.54C8.73673 13.588 8.55273 13.652 8.35273 13.732L7.99273 12.784L10.5847 9.928L10.8367 10.3H7.26073V9.1H12.0727L12.3127 9.58L9.56473 12.628L9.26473 12.316C9.32873 12.284 9.43273 12.256 9.57673 12.232C9.72873 12.2 9.85273 12.184 9.94873 12.184C10.3007 12.184 10.6287 12.252 10.9327 12.388C11.2447 12.516 11.5127 12.7 11.7367 12.94C11.9687 13.172 12.1487 13.448 12.2767 13.768C12.4127 14.08 12.4807 14.416 12.4807 14.776C12.4807 15.32 12.3487 15.808 12.0847 16.24C11.8287 16.664 11.4807 17 11.0407 17.248C10.6007 17.496 10.1087 17.62 9.56473 17.62ZM16.5403 17.62C15.9003 17.62 15.3483 17.444 14.8843 17.092C14.4283 16.74 14.0763 16.244 13.8283 15.604C13.5803 14.956 13.4563 14.188 13.4563 13.3C13.4563 12.412 13.5803 11.648 13.8283 11.008C14.0763 10.36 14.4283 9.86 14.8843 9.508C15.3483 9.156 15.9003 8.98 16.5403 8.98C17.1803 8.98 17.7323 9.156 18.1963 9.508C18.6603 9.86 19.0163 10.36 19.2643 11.008C19.5123 11.648 19.6363 12.412 19.6363 13.3C19.6363 14.188 19.5123 14.956 19.2643 15.604C19.0163 16.244 18.6603 16.74 18.1963 17.092C17.7323 17.444 17.1803 17.62 16.5403 17.62ZM16.5403 16.444C17.1243 16.444 17.5763 16.172 17.8963 15.628C18.2163 15.076 18.3763 14.3 18.3763 13.3C18.3763 12.3 18.2163 11.528 17.8963 10.984C17.5763 10.432 17.1243 10.156 16.5403 10.156C15.9563 10.156 15.5043 10.432 15.1843 10.984C14.8643 11.528 14.7043 12.3 14.7043 13.3C14.7043 14.3 14.8643 15.076 15.1843 15.628C15.5043 16.172 15.9563 16.444 16.5403 16.444ZM21.7414 17.5L27.2974 9.1H28.5334L22.9174 17.5H21.7414ZM22.5094 13.552C22.1494 13.552 21.8294 13.456 21.5494 13.264C21.2774 13.064 21.0614 12.796 20.9014 12.46C20.7494 12.116 20.6734 11.724 20.6734 11.284C20.6734 10.844 20.7494 10.452 20.9014 10.108C21.0614 9.756 21.2814 9.484 21.5614 9.292C21.8414 9.092 22.1614 8.992 22.5214 8.992C22.8814 8.992 23.1974 9.092 23.4694 9.292C23.7494 9.484 23.9654 9.756 24.1174 10.108C24.2774 10.452 24.3574 10.844 24.3574 11.284C24.3574 11.708 24.2774 12.092 24.1174 12.436C23.9574 12.78 23.7374 13.052 23.4574 13.252C23.1774 13.452 22.8614 13.552 22.5094 13.552ZM22.5214 12.652C22.6894 12.652 22.8334 12.596 22.9534 12.484C23.0814 12.372 23.1774 12.216 23.2414 12.016C23.3134 11.808 23.3494 11.564 23.3494 11.284C23.3494 11.004 23.3134 10.76 23.2414 10.552C23.1774 10.344 23.0814 10.184 22.9534 10.072C22.8334 9.96 22.6854 9.904 22.5094 9.904C22.3414 9.904 22.1934 9.964 22.0654 10.084C21.9374 10.196 21.8374 10.356 21.7654 10.564C21.7014 10.764 21.6694 11.004 21.6694 11.284C21.6694 11.564 21.7014 11.808 21.7654 12.016C21.8374 12.216 21.9374 12.372 22.0654 12.484C22.1934 12.596 22.3454 12.652 22.5214 12.652ZM27.8254 17.608C27.4654 17.608 27.1454 17.508 26.8654 17.308C26.5934 17.108 26.3774 16.84 26.2174 16.504C26.0574 16.16 25.9774 15.772 25.9774 15.34C25.9774 14.9 26.0534 14.508 26.2054 14.164C26.3654 13.812 26.5854 13.54 26.8654 13.348C27.1454 13.148 27.4654 13.048 27.8254 13.048C28.1854 13.048 28.5014 13.148 28.7734 13.348C29.0534 13.54 29.2694 13.812 29.4214 14.164C29.5814 14.508 29.6614 14.9 29.6614 15.34C29.6614 15.764 29.5814 16.148 29.4214 16.492C29.2614 16.836 29.0414 17.108 28.7614 17.308C28.4894 17.508 28.1774 17.608 27.8254 17.608ZM27.8254 16.72C27.9934 16.72 28.1414 16.664 28.2694 16.552C28.3974 16.432 28.4934 16.272 28.5574 16.072C28.6294 15.864 28.6654 15.62 28.6654 15.34C28.6654 15.06 28.6294 14.82 28.5574 14.62C28.4934 14.412 28.3974 14.252 28.2694 14.14C28.1414 14.02 27.9934 13.96 27.8254 13.96C27.6494 13.96 27.4974 14.016 27.3694 14.128C27.2414 14.24 27.1414 14.4 27.0694 14.608C27.0054 14.816 26.9734 15.06 26.9734 15.34C26.9734 15.62 27.0054 15.864 27.0694 16.072C27.1414 16.272 27.2414 16.432 27.3694 16.552C27.4974 16.664 27.6494 16.72 27.8254 16.72ZM38.315 17.62C37.723 17.62 37.175 17.512 36.671 17.296C36.175 17.08 35.739 16.78 35.363 16.396C34.995 16.004 34.707 15.548 34.499 15.028C34.299 14.5 34.199 13.924 34.199 13.3C34.199 12.676 34.299 12.104 34.499 11.584C34.707 11.056 34.995 10.6 35.363 10.216C35.739 9.824 36.175 9.52 36.671 9.304C37.175 9.088 37.723 8.98 38.315 8.98C38.907 8.98 39.451 9.088 39.947 9.304C40.451 9.52 40.887 9.824 41.255 10.216C41.631 10.608 41.919 11.068 42.119 11.596C42.327 12.116 42.431 12.684 42.431 13.3C42.431 13.916 42.327 14.488 42.119 15.016C41.919 15.536 41.631 15.992 41.255 16.384C40.887 16.776 40.451 17.08 39.947 17.296C39.451 17.512 38.907 17.62 38.315 17.62ZM38.315 16.36C38.723 16.36 39.095 16.284 39.431 16.132C39.775 15.98 40.071 15.768 40.319 15.496C40.567 15.216 40.759 14.892 40.895 14.524C41.039 14.148 41.111 13.74 41.111 13.3C41.111 12.86 41.039 12.456 40.895 12.088C40.759 11.712 40.567 11.388 40.319 11.116C40.071 10.836 39.775 10.62 39.431 10.468C39.095 10.316 38.723 10.24 38.315 10.24C37.907 10.24 37.531 10.316 37.187 10.468C36.851 10.62 36.555 10.832 36.299 11.104C36.051 11.376 35.859 11.7 35.723 12.076C35.587 12.444 35.519 12.852 35.519 13.3C35.519 13.74 35.587 14.148 35.723 14.524C35.859 14.9 36.051 15.224 36.299 15.496C36.555 15.768 36.851 15.98 37.187 16.132C37.531 16.284 37.907 16.36 38.315 16.36ZM44.1858 17.5V9.1H45.4818V17.5H44.1858ZM44.7618 13.924V12.676H49.0938V13.924H44.7618ZM44.7618 10.348V9.1H49.6338V10.348H44.7618ZM51.4045 17.5V9.1H52.7005V17.5H51.4045ZM51.9805 13.924V12.676H56.3125V13.924H51.9805ZM51.9805 10.348V9.1H56.8525V10.348H51.9805Z" fill="#FDFDFD"/>
</svg>
