<svg width="64" height="26" viewBox="0 0 64 26" fill="none" xmlns="http://www.w3.org/2000/svg">
<rect width="64" height="26" fill="#E72E39"/>
<path d="M9.71595 17.62C9.18795 17.62 8.71195 17.528 8.28795 17.344C7.86395 17.16 7.51195 16.888 7.23195 16.528L8.07195 15.808C8.31195 16.088 8.57195 16.292 8.85195 16.42C9.13995 16.54 9.46395 16.6 9.82395 16.6C9.96795 16.6 10.1 16.584 10.22 16.552C10.348 16.512 10.456 16.456 10.544 16.384C10.64 16.312 10.712 16.228 10.76 16.132C10.808 16.028 10.832 15.916 10.832 15.796C10.832 15.588 10.756 15.42 10.604 15.292C10.524 15.236 10.396 15.176 10.22 15.112C10.052 15.04 9.83195 14.968 9.55995 14.896C9.09595 14.776 8.71595 14.64 8.41995 14.488C8.12395 14.336 7.89595 14.164 7.73595 13.972C7.61595 13.82 7.52795 13.656 7.47195 13.48C7.41595 13.296 7.38795 13.096 7.38795 12.88C7.38795 12.616 7.44395 12.376 7.55595 12.16C7.67595 11.936 7.83595 11.744 8.03595 11.584C8.24395 11.416 8.48395 11.288 8.75595 11.2C9.03595 11.112 9.33195 11.068 9.64395 11.068C9.93995 11.068 10.232 11.108 10.52 11.188C10.816 11.268 11.088 11.384 11.336 11.536C11.584 11.688 11.792 11.868 11.96 12.076L11.252 12.856C11.1 12.704 10.932 12.572 10.748 12.46C10.572 12.34 10.392 12.248 10.208 12.184C10.024 12.12 9.85595 12.088 9.70395 12.088C9.53595 12.088 9.38395 12.104 9.24795 12.136C9.11195 12.168 8.99595 12.216 8.89995 12.28C8.81195 12.344 8.74395 12.424 8.69595 12.52C8.64795 12.616 8.62395 12.724 8.62395 12.844C8.63195 12.948 8.65595 13.048 8.69595 13.144C8.74395 13.232 8.80795 13.308 8.88795 13.372C8.97595 13.436 9.10795 13.504 9.28395 13.576C9.45995 13.648 9.68395 13.716 9.95595 13.78C10.356 13.884 10.684 14 10.94 14.128C11.204 14.248 11.412 14.388 11.564 14.548C11.724 14.7 11.836 14.876 11.9 15.076C11.964 15.276 11.996 15.5 11.996 15.748C11.996 16.108 11.892 16.432 11.684 16.72C11.484 17 11.212 17.22 10.868 17.38C10.524 17.54 10.14 17.62 9.71595 17.62ZM13.5621 17.5V11.2H14.7981V17.5H13.5621ZM14.1621 9.808C13.8981 9.808 13.6941 9.74 13.5501 9.604C13.4061 9.468 13.3341 9.276 13.3341 9.028C13.3341 8.796 13.4061 8.608 13.5501 8.464C13.7021 8.32 13.9061 8.248 14.1621 8.248C14.4261 8.248 14.6301 8.316 14.7741 8.452C14.9181 8.588 14.9901 8.78 14.9901 9.028C14.9901 9.26 14.9141 9.448 14.7621 9.592C14.6181 9.736 14.4181 9.808 14.1621 9.808ZM16.698 17.5V11.2H17.934V12.496L17.718 12.64C17.798 12.36 17.954 12.104 18.186 11.872C18.418 11.632 18.694 11.44 19.014 11.296C19.334 11.144 19.662 11.068 19.998 11.068C20.478 11.068 20.878 11.164 21.198 11.356C21.518 11.54 21.758 11.824 21.918 12.208C22.078 12.592 22.158 13.076 22.158 13.66V17.5H20.922V13.744C20.922 13.384 20.874 13.088 20.778 12.856C20.682 12.616 20.534 12.444 20.334 12.34C20.134 12.228 19.886 12.18 19.59 12.196C19.35 12.196 19.13 12.236 18.93 12.316C18.73 12.388 18.554 12.492 18.402 12.628C18.258 12.764 18.142 12.924 18.054 13.108C17.974 13.284 17.934 13.476 17.934 13.684V17.5H17.322C17.218 17.5 17.114 17.5 17.01 17.5C16.906 17.5 16.802 17.5 16.698 17.5ZM29.298 17.62C28.77 17.62 28.294 17.528 27.87 17.344C27.446 17.16 27.094 16.888 26.814 16.528L27.654 15.808C27.894 16.088 28.154 16.292 28.434 16.42C28.722 16.54 29.046 16.6 29.406 16.6C29.55 16.6 29.682 16.584 29.802 16.552C29.93 16.512 30.038 16.456 30.126 16.384C30.222 16.312 30.294 16.228 30.342 16.132C30.39 16.028 30.414 15.916 30.414 15.796C30.414 15.588 30.338 15.42 30.186 15.292C30.106 15.236 29.978 15.176 29.802 15.112C29.634 15.04 29.414 14.968 29.142 14.896C28.678 14.776 28.298 14.64 28.002 14.488C27.706 14.336 27.478 14.164 27.318 13.972C27.198 13.82 27.11 13.656 27.054 13.48C26.998 13.296 26.97 13.096 26.97 12.88C26.97 12.616 27.026 12.376 27.138 12.16C27.258 11.936 27.418 11.744 27.618 11.584C27.826 11.416 28.066 11.288 28.338 11.2C28.618 11.112 28.914 11.068 29.226 11.068C29.522 11.068 29.814 11.108 30.102 11.188C30.398 11.268 30.67 11.384 30.918 11.536C31.166 11.688 31.374 11.868 31.542 12.076L30.834 12.856C30.682 12.704 30.514 12.572 30.33 12.46C30.154 12.34 29.974 12.248 29.79 12.184C29.606 12.12 29.438 12.088 29.286 12.088C29.118 12.088 28.966 12.104 28.83 12.136C28.694 12.168 28.578 12.216 28.482 12.28C28.394 12.344 28.326 12.424 28.278 12.52C28.23 12.616 28.206 12.724 28.206 12.844C28.214 12.948 28.238 13.048 28.278 13.144C28.326 13.232 28.39 13.308 28.47 13.372C28.558 13.436 28.69 13.504 28.866 13.576C29.042 13.648 29.266 13.716 29.538 13.78C29.938 13.884 30.266 14 30.522 14.128C30.786 14.248 30.994 14.388 31.146 14.548C31.306 14.7 31.418 14.876 31.482 15.076C31.546 15.276 31.578 15.5 31.578 15.748C31.578 16.108 31.474 16.432 31.266 16.72C31.066 17 30.794 17.22 30.45 17.38C30.106 17.54 29.722 17.62 29.298 17.62ZM33.7202 17.5V9.592H34.9562V17.5H33.7202ZM32.4122 12.4V11.2H36.4202V12.4H32.4122ZM40.319 17.62C39.703 17.62 39.151 17.48 38.663 17.2C38.183 16.912 37.803 16.524 37.523 16.036C37.243 15.54 37.103 14.976 37.103 14.344C37.103 13.712 37.243 13.152 37.523 12.664C37.803 12.168 38.183 11.78 38.663 11.5C39.151 11.212 39.703 11.068 40.319 11.068C40.927 11.068 41.471 11.212 41.951 11.5C42.439 11.78 42.823 12.168 43.103 12.664C43.383 13.152 43.523 13.712 43.523 14.344C43.523 14.976 43.383 15.54 43.103 16.036C42.823 16.524 42.439 16.912 41.951 17.2C41.471 17.48 40.927 17.62 40.319 17.62ZM40.319 16.492C40.695 16.492 41.031 16.4 41.327 16.216C41.623 16.024 41.855 15.768 42.023 15.448C42.191 15.12 42.271 14.752 42.263 14.344C42.271 13.928 42.191 13.56 42.023 13.24C41.855 12.912 41.623 12.656 41.327 12.472C41.031 12.288 40.695 12.196 40.319 12.196C39.943 12.196 39.603 12.292 39.299 12.484C39.003 12.668 38.771 12.924 38.603 13.252C38.435 13.572 38.355 13.936 38.363 14.344C38.355 14.752 38.435 15.12 38.603 15.448C38.771 15.768 39.003 16.024 39.299 16.216C39.603 16.4 39.943 16.492 40.319 16.492ZM47.5459 17.62C46.9619 17.62 46.4379 17.476 45.9739 17.188C45.5179 16.9 45.1539 16.508 44.8819 16.012C44.6179 15.516 44.4859 14.96 44.4859 14.344C44.4859 13.728 44.6179 13.172 44.8819 12.676C45.1539 12.18 45.5179 11.788 45.9739 11.5C46.4379 11.212 46.9619 11.068 47.5459 11.068C48.1059 11.068 48.6139 11.184 49.0699 11.416C49.5339 11.64 49.8859 11.948 50.1259 12.34L49.4419 13.18C49.3139 12.996 49.1499 12.828 48.9499 12.676C48.7499 12.524 48.5379 12.404 48.3139 12.316C48.0899 12.228 47.8739 12.184 47.6659 12.184C47.2819 12.184 46.9379 12.28 46.6339 12.472C46.3379 12.656 46.1019 12.912 45.9259 13.24C45.7499 13.568 45.6619 13.936 45.6619 14.344C45.6619 14.752 45.7539 15.12 45.9379 15.448C46.1219 15.768 46.3659 16.024 46.6699 16.216C46.9739 16.408 47.3099 16.504 47.6779 16.504C47.8939 16.504 48.1019 16.468 48.3019 16.396C48.5099 16.324 48.7099 16.216 48.9019 16.072C49.0939 15.928 49.2739 15.752 49.4419 15.544L50.1259 16.384C49.8699 16.744 49.5019 17.04 49.0219 17.272C48.5499 17.504 48.0579 17.62 47.5459 17.62ZM52.4197 15.532L52.3597 14.188L55.3717 11.2H57.0397L52.4197 15.532ZM51.2917 17.5V8.62H52.5277V17.5H51.2917ZM55.5397 17.5L53.1637 14.728L54.0397 13.924L57.1237 17.5H55.5397Z" fill="#FDFDFD"/>
</svg>
