<?xml version="1.0" encoding="utf-8"?>
<!-- Generator: Adobe Illustrator 18.1.1, SVG Export Plug-In . SVG Version: 6.00 Build 0)  -->
<svg version="1.1" id="Layer_1" xmlns="http://www.w3.org/2000/svg" xmlns:xlink="http://www.w3.org/1999/xlink" x="0px" y="0px"
	 width="32px" height="32px" viewBox="0 0 32 32" enable-background="new 0 0 32 32" xml:space="preserve">
<path fill="#EFAB41" d="M31.2,16c0-8.4-6.8-15.2-15.2-15.2S0.8,7.6,0.8,16c0,4.4,1.9,8.4,4.9,11.2l0,0l0.5,0.4c0,0,0.1,0,0.1,0.1
	c0.3,0.2,0.5,0.4,0.8,0.6c0.1,0.1,0.2,0.1,0.3,0.2c0.3,0.2,0.6,0.4,0.9,0.6c0.1,0,0.1,0.1,0.2,0.1c0.3,0.2,0.7,0.4,1,0.5
	c0,0,0.1,0,0.1,0c1.2,0.5,2.4,0.9,3.7,1.2c0,0,0.1,0,0.1,0c0.4,0.1,0.8,0.1,1.2,0.2c0,0,0.1,0,0.1,0c0.4,0,0.8,0.1,1.2,0.1
	c0.4,0,0.8,0,1.2-0.1c0.1,0,0.1,0,0.2,0c0.4,0,0.8-0.1,1.2-0.2c0,0,0.1,0,0.1,0c1.3-0.2,2.5-0.6,3.6-1.1c0,0,0.1,0,0.1-0.1
	c0.3-0.2,0.7-0.3,1-0.5c0.1,0,0.2-0.1,0.2-0.1c0.3-0.2,0.6-0.4,0.9-0.6c0.1-0.1,0.2-0.1,0.3-0.2c0.2-0.2,0.5-0.4,0.7-0.5
	c0.1,0,0.1-0.1,0.2-0.1l0.5-0.4l0,0C29.3,24.5,31.2,20.4,31.2,16z M1.9,16C1.9,8.2,8.2,1.9,16,1.9S30.1,8.2,30.1,16
	c0,4.2-1.8,7.9-4.7,10.5c-0.2-0.1-0.3-0.2-0.5-0.3l-4.7-2.3c-0.4-0.2-0.7-0.6-0.7-1.1v-1.6c0.1-0.1,0.2-0.3,0.3-0.5
	c0.6-0.9,1.1-1.8,1.4-2.8c0.7-0.3,1.2-1,1.2-1.8v-2c0-0.5-0.2-0.9-0.5-1.3v-2.6c0-0.3,0.1-1.9-1-3.2c-1-1.2-2.7-1.8-4.9-1.8
	S12.1,5.8,11.1,7c-1.2,1.3-1.1,3-1,3.2v2.6c-0.3,0.4-0.5,0.8-0.5,1.3v2c0,0.6,0.3,1.2,0.7,1.6c0.4,1.8,1.4,3.1,1.7,3.5v1.6
	c0,0.5-0.2,0.9-0.6,1.1L7,26.2c-0.1,0.1-0.3,0.2-0.4,0.3C3.7,23.9,1.9,20.2,1.9,16z M24.3,27.4c-0.2,0.1-0.4,0.3-0.6,0.4
	c-0.1,0.1-0.2,0.1-0.3,0.2c-0.3,0.2-0.5,0.3-0.8,0.5c-0.1,0-0.1,0.1-0.2,0.1c-0.6,0.3-1.3,0.6-1.9,0.8c0,0,0,0-0.1,0
	c-0.3,0.1-0.7,0.2-1.1,0.3c0,0,0,0,0,0c-0.4,0.1-0.7,0.2-1.1,0.2c0,0,0,0,0,0c-0.3,0.1-0.7,0.1-1,0.1c-0.1,0-0.1,0-0.2,0
	c-0.3,0-0.7,0-1,0c-0.4,0-0.7,0-1,0c-0.1,0-0.1,0-0.2,0c-0.4,0-0.7-0.1-1-0.1c0,0,0,0,0,0c-0.7-0.1-1.4-0.3-2.1-0.5c0,0,0,0-0.1,0
	c-0.3-0.1-0.7-0.2-1-0.4c0,0,0,0,0,0c-0.3-0.1-0.6-0.3-0.9-0.5c0,0-0.1,0-0.1-0.1c-0.3-0.2-0.6-0.3-0.8-0.5
	c-0.1-0.1-0.2-0.1-0.2-0.2c-0.3-0.2-0.5-0.3-0.7-0.5c0,0,0,0-0.1-0.1c0,0,0,0,0.1,0l4.4-2.4c0.8-0.4,1.2-1.2,1.2-2.1l0-2L13,20.6
	c0,0-1.2-1.5-1.7-3.4L11.3,17l-0.2-0.1c-0.3-0.2-0.4-0.5-0.4-0.8v-2c0-0.3,0.1-0.5,0.3-0.7l0.2-0.2v-3.1l0-0.1c0,0-0.2-1.3,0.8-2.4
	c0.8-0.9,2.2-1.4,4.1-1.4c1.9,0,3.3,0.5,4.1,1.4c0.9,1.1,0.8,2.4,0.8,2.4l0,3.1l0.2,0.2c0.2,0.2,0.3,0.4,0.3,0.7v2
	c0,0.4-0.3,0.8-0.7,0.9L20.4,17l-0.1,0.3c-0.3,1-0.8,1.9-1.4,2.8c-0.1,0.2-0.3,0.4-0.4,0.5l-0.1,0.2v2c0,0.9,0.5,1.7,1.3,2.1
	l4.7,2.3c0,0,0.1,0,0.1,0C24.4,27.3,24.3,27.4,24.3,27.4z"/>
</svg>
