<?xml version="1.0" encoding="utf-8"?>
<!-- Generator: Adobe Illustrator 18.1.1, SVG Export Plug-In . SVG Version: 6.00 Build 0)  -->
<svg version="1.1" id="Layer_1" xmlns="http://www.w3.org/2000/svg" xmlns:xlink="http://www.w3.org/1999/xlink" x="0px" y="0px"
	 width="48.1px" height="44.3px" viewBox="8 -6.3 48.1 44.3" enable-background="new 8 -6.3 48.1 44.3" xml:space="preserve">
<path fill="#FFFFFF" d="M54.2,15.9C54.2,3.6,44.3-6.3,32-6.3S9.9,3.6,9.9,15.9c0,6.5,2.8,12.3,7.2,16.3l0,0l0.7,0.6
	c0,0,0.1,0.1,0.1,0.1c0.4,0.3,0.8,0.6,1.2,0.9c0.1,0.1,0.3,0.2,0.4,0.3c0.4,0.3,0.9,0.6,1.3,0.8c0.1,0.1,0.2,0.1,0.3,0.2
	c0.5,0.3,1,0.5,1.5,0.8c0,0,0.1,0,0.1,0.1c1.7,0.8,3.5,1.4,5.4,1.7c0,0,0.1,0,0.1,0c0.6,0.1,1.2,0.2,1.8,0.2c0.1,0,0.1,0,0.2,0
	c0.6,0,1.2,0.1,1.8,0.1c0.6,0,1.2,0,1.8-0.1c0.1,0,0.1,0,0.2,0c0.6-0.1,1.2-0.1,1.8-0.2c0,0,0.1,0,0.2,0c1.9-0.3,3.6-0.9,5.3-1.7
	c0.1,0,0.1-0.1,0.2-0.1c0.5-0.2,1-0.5,1.5-0.8c0.1-0.1,0.2-0.1,0.4-0.2c0.4-0.3,0.9-0.5,1.3-0.8c0.1-0.1,0.3-0.2,0.4-0.3
	c0.4-0.3,0.7-0.5,1-0.8c0.1-0.1,0.2-0.1,0.2-0.2l0.7-0.6l0,0C51.4,28.2,54.2,22.3,54.2,15.9z M11.5,15.9C11.5,4.5,20.7-4.7,32-4.7
	s20.5,9.2,20.5,20.5c0,6.1-2.7,11.6-6.9,15.4c-0.2-0.2-0.5-0.3-0.7-0.4l-6.8-3.4c-0.6-0.3-1-0.9-1-1.6v-2.4c0.2-0.2,0.3-0.4,0.5-0.7
	c0.9-1.2,1.6-2.6,2.1-4.1c1-0.5,1.7-1.5,1.7-2.6v-2.9c0-0.7-0.3-1.4-0.7-1.9V7.4c0-0.4,0.2-2.8-1.5-4.7C37.7,1,35.3,0.1,32,0.1
	S26.4,1,24.9,2.7c-1.7,1.9-1.6,4.3-1.5,4.7v3.8c-0.5,0.5-0.7,1.2-0.7,1.9v2.9c0,0.9,0.4,1.7,1.1,2.3c0.7,2.6,2,4.5,2.5,5.1v2.3
	c0,0.7-0.4,1.3-0.9,1.6l-6.4,3.5c-0.2,0.1-0.4,0.2-0.6,0.4C14.1,27.4,11.5,21.9,11.5,15.9z M44.1,32.5c-0.3,0.2-0.6,0.4-0.9,0.6
	c-0.1,0.1-0.3,0.2-0.4,0.3c-0.4,0.2-0.8,0.5-1.2,0.7c-0.1,0-0.2,0.1-0.3,0.1c-0.9,0.5-1.8,0.9-2.8,1.2c0,0-0.1,0-0.1,0
	c-0.5,0.2-1,0.3-1.5,0.4l0,0c-0.5,0.1-1.1,0.2-1.6,0.3c0,0,0,0,0,0c-0.5,0.1-1,0.1-1.5,0.2c-0.1,0-0.2,0-0.3,0c-0.5,0-1,0.1-1.5,0.1
	c-0.5,0-1,0-1.5-0.1c-0.1,0-0.2,0-0.3,0c-0.5,0-1-0.1-1.5-0.2c0,0,0,0-0.1,0c-1.1-0.2-2.1-0.4-3.1-0.8c0,0-0.1,0-0.1,0
	c-0.5-0.2-1-0.4-1.5-0.6c0,0,0,0,0,0c-0.5-0.2-0.9-0.4-1.4-0.7c-0.1,0-0.1-0.1-0.2-0.1c-0.4-0.2-0.8-0.5-1.2-0.7
	c-0.1-0.1-0.2-0.1-0.4-0.2c-0.4-0.2-0.7-0.5-1.1-0.8c0,0-0.1-0.1-0.1-0.1c0,0,0.1,0,0.1,0l6.4-3.5c1.1-0.6,1.8-1.7,1.8-3l0-2.9
	l-0.2-0.2c0,0-1.8-2.1-2.4-5l-0.1-0.3l-0.3-0.2c-0.4-0.3-0.6-0.7-0.6-1.1v-2.9c0-0.4,0.2-0.7,0.4-1l0.3-0.2V7.4l0-0.1
	c0,0-0.2-2,1.1-3.5c1.2-1.3,3.2-2,5.9-2c2.8,0,4.7,0.7,5.9,2c1.4,1.5,1.1,3.5,1.1,3.5l0,4.6l0.3,0.2c0.3,0.3,0.4,0.6,0.4,1v2.9
	c0,0.6-0.4,1.1-1,1.3l-0.4,0.1l-0.1,0.4c-0.5,1.5-1.2,2.8-2,4.1c-0.2,0.3-0.4,0.6-0.6,0.8l-0.2,0.2v3c0,1.3,0.7,2.5,1.9,3l6.8,3.4
	c0,0,0.1,0,0.1,0.1C44.3,32.3,44.2,32.4,44.1,32.5z"/>
</svg>
