<?xml version="1.0" encoding="utf-8"?>
<!-- Generator: Adobe Illustrator 18.1.1, SVG Export Plug-In . SVG Version: 6.00 Build 0)  -->
<svg version="1.1" id="Layer_1" xmlns="http://www.w3.org/2000/svg" xmlns:xlink="http://www.w3.org/1999/xlink" x="0px" y="0px"
	 width="57.4px" height="57.4px" viewBox="0 0 57.4 57.4" enable-background="new 0 0 57.4 57.4" xml:space="preserve">
<path fill="#B3B3B3" d="M57.4,28.7C57.4,12.9,44.5,0,28.7,0S0,12.9,0,28.7C0,37,3.6,44.6,9.3,49.8l0,0l0.9,0.8
	c0.1,0.1,0.1,0.1,0.2,0.1c0.5,0.4,1,0.8,1.5,1.2c0.2,0.1,0.3,0.2,0.5,0.4c0.6,0.4,1.1,0.7,1.7,1.1c0.1,0.1,0.3,0.1,0.4,0.2
	c0.6,0.4,1.3,0.7,2,1c0,0,0.1,0,0.1,0.1c2.2,1,4.5,1.8,6.9,2.2c0.1,0,0.1,0,0.2,0c0.8,0.1,1.5,0.2,2.3,0.3c0.1,0,0.2,0,0.3,0
	c0.8,0.1,1.5,0.1,2.3,0.1c0.8,0,1.6,0,2.3-0.1c0.1,0,0.2,0,0.3,0c0.8-0.1,1.5-0.2,2.3-0.3c0.1,0,0.1,0,0.2,0
	c2.4-0.4,4.7-1.2,6.8-2.1c0.1,0,0.2-0.1,0.2-0.1c0.6-0.3,1.3-0.6,1.9-1c0.2-0.1,0.3-0.2,0.5-0.3c0.6-0.3,1.1-0.7,1.6-1
	c0.2-0.1,0.4-0.3,0.6-0.4c0.5-0.3,0.9-0.7,1.3-1c0.1-0.1,0.2-0.1,0.3-0.2l1-0.8l0,0C53.7,44.6,57.4,37.1,57.4,28.7z M2.1,28.7
	C2.1,14,14,2.1,28.7,2.1S55.3,14,55.3,28.7c0,7.9-3.5,15-9,19.9c-0.3-0.2-0.6-0.4-0.9-0.6l-8.8-4.4c-0.8-0.4-1.3-1.2-1.3-2.1v-3.1
	c0.2-0.3,0.4-0.5,0.6-0.9c1.1-1.6,2.1-3.4,2.7-5.3c1.3-0.6,2.2-1.9,2.2-3.4v-3.7c0-0.9-0.3-1.8-0.9-2.5v-4.9c0.1-0.5,0.2-3.6-2-6.1
	c-1.9-2.2-5-3.3-9.2-3.3s-7.3,1.1-9.2,3.3c-2.2,2.5-2,5.6-2,6.1v4.9c-0.6,0.7-0.9,1.6-0.9,2.5v3.7c0,1.1,0.5,2.2,1.4,2.9
	c0.8,3.3,2.6,5.8,3.2,6.7v3c0,0.9-0.5,1.6-1.2,2L11.7,48c-0.3,0.1-0.5,0.3-0.8,0.5C5.5,43.6,2.1,36.5,2.1,28.7z M44.3,50.2
	c-0.4,0.3-0.7,0.5-1.1,0.8c-0.2,0.1-0.3,0.2-0.5,0.3c-0.5,0.3-1,0.6-1.5,0.9c-0.1,0.1-0.2,0.1-0.3,0.2c-1.2,0.6-2.4,1.1-3.6,1.5
	c0,0-0.1,0-0.1,0c-0.7,0.2-1.3,0.4-2,0.6l0,0c-0.7,0.2-1.4,0.3-2,0.4c0,0,0,0-0.1,0c-0.6,0.1-1.3,0.2-2,0.2c-0.1,0-0.2,0-0.3,0
	c-0.6,0-1.3,0.1-2,0.1c-0.7,0-1.3,0-2-0.1c-0.1,0-0.2,0-0.3,0c-0.7-0.1-1.3-0.1-2-0.2c0,0-0.1,0-0.1,0c-1.4-0.2-2.7-0.6-4.1-1
	c0,0-0.1,0-0.1,0c-0.7-0.2-1.3-0.5-1.9-0.7c0,0,0,0,0,0c-0.6-0.3-1.2-0.5-1.8-0.9c-0.1,0-0.2-0.1-0.2-0.1c-0.5-0.3-1.1-0.6-1.6-0.9
	c-0.2-0.1-0.3-0.2-0.5-0.3c-0.5-0.3-0.9-0.6-1.4-1c0,0-0.1-0.1-0.1-0.1c0,0,0.1,0,0.1-0.1l8.2-4.5c1.4-0.8,2.3-2.3,2.3-3.9l0-3.8
	L23,37.4c0,0-2.3-2.8-3.1-6.5l-0.1-0.4l-0.4-0.2c-0.5-0.3-0.8-0.9-0.8-1.5v-3.7c0-0.5,0.2-0.9,0.6-1.3l0.3-0.3v-5.8l0-0.1
	c0,0-0.3-2.5,1.5-4.5c1.5-1.7,4.1-2.6,7.7-2.6c3.6,0,6.1,0.9,7.7,2.6c1.8,2,1.5,4.5,1.5,4.6l0,5.9l0.3,0.3c0.4,0.3,0.6,0.8,0.6,1.3
	v3.7c0,0.7-0.5,1.4-1.2,1.6L37,30.6l-0.2,0.5c-0.6,1.9-1.5,3.7-2.6,5.2c-0.3,0.4-0.5,0.7-0.8,1l-0.3,0.3v3.9c0,1.7,0.9,3.2,2.4,3.9
	l8.8,4.4c0.1,0,0.1,0.1,0.2,0.1C44.5,50,44.4,50.1,44.3,50.2z"/>
</svg>
