<?xml version="1.0" encoding="utf-8"?>
<!-- Generator: Adobe Illustrator 18.1.1, SVG Export Plug-In . SVG Version: 6.00 Build 0)  -->
<svg version="1.1" id="Layer_1" xmlns="http://www.w3.org/2000/svg" xmlns:xlink="http://www.w3.org/1999/xlink" x="0px" y="0px"
	 width="48.1px" height="44.3px" viewBox="0 0 48.1 44.3" enable-background="new 0 0 48.1 44.3" xml:space="preserve">
<g>
	<g>
		<path fill="#FFFFFF" d="M45.9,15.8H35.1L27.5,1.2c-0.3-0.5-0.7-0.9-1.3-1.1c-0.6-0.2-1.2-0.1-1.7,0.1c-0.2,0.1-0.3,0.2-0.5,0.3
			c-0.1-0.1-0.3-0.3-0.5-0.3C23,0,22.4-0.1,21.9,0.1c-0.6,0.2-1,0.6-1.3,1.1l-8,15.4c-0.3,0.5-0.3,1.1-0.1,1.7
			c0.1,0.2,0.1,0.4,0.3,0.5H2.2c-0.4,0-0.8-0.4-0.8-0.8c0-0.4,0.4-0.8,0.8-0.8h8c0.4,0,0.7-0.3,0.7-0.7c0-0.4-0.3-0.7-0.7-0.7h-8
			C1,15.8,0,16.8,0,18c0,1,0.7,1.9,1.6,2.1l4.1,21.8c0.3,1.4,1.5,2.4,2.9,2.4h30.9c1.4,0,2.6-1,2.9-2.4l4.1-21.8
			c0.9-0.3,1.6-1.1,1.6-2.1C48.1,16.8,47.1,15.8,45.9,15.8z M25.2,1.5c0.2-0.1,0.4-0.1,0.6-0.1c0.2,0.1,0.4,0.2,0.5,0.4l8,15.4
			c0.1,0.2,0.1,0.4,0.1,0.6c-0.1,0.2-0.2,0.4-0.4,0.5c-0.2,0.1-0.4,0.1-0.6,0.1s-0.4-0.2-0.5-0.4l-8-15.4
			C24.6,2.2,24.8,1.7,25.2,1.5z M34.6,20.2l-0.7,6.9h-9.1v-6.9H34.6z M24,4.1l7.5,14.5c0,0.1,0.1,0.1,0.1,0.2H16.4
			c0-0.1,0.1-0.1,0.1-0.2l0.7-1.4H28c0.4,0,0.7-0.3,0.7-0.7c0-0.4-0.3-0.7-0.7-0.7H18L24,4.1z M13.8,17.3l8-15.4
			c0.1-0.2,0.3-0.3,0.5-0.4c0.1,0,0.2,0,0.2,0c0.1,0,0.3,0,0.4,0.1c0.4,0.2,0.5,0.7,0.3,1.1l-8,15.4c-0.1,0.2-0.3,0.3-0.5,0.4
			c-0.2,0.1-0.4,0-0.6-0.1c-0.2-0.1-0.3-0.3-0.4-0.5C13.7,17.7,13.7,17.4,13.8,17.3z M3.1,20.2h9.1l0.7,6.9H4.3L3.1,20.2z M4.6,28.5
			h8.3l0.7,6.9H5.9L4.6,28.5z M8.6,42.9c-0.7,0-1.4-0.5-1.5-1.3l-0.9-4.9h7.6l0.6,6.1L8.6,42.9L8.6,42.9z M23.3,42.9h-7.6l-0.6-6.1
			h8.2V42.9z M23.3,35.4H15l-0.7-6.9h9V35.4z M23.3,27.1h-9.1l-0.7-6.9h9.8V27.1z M32.4,42.9h-7.6v-6.1H33L32.4,42.9z M33.1,35.4
			h-8.3v-6.9h9L33.1,35.4z M41,41.7c-0.1,0.7-0.8,1.3-1.5,1.3h-5.7l0.6-6.1h7.6L41,41.7z M42.2,35.4h-7.7l0.7-6.9h8.3L42.2,35.4z
			 M43.7,27.1h-8.4l0.7-6.9H45L43.7,27.1z M45.9,18.8L45.9,18.8C45.9,18.8,45.9,18.8,45.9,18.8H35.4c0.1-0.2,0.2-0.3,0.3-0.5
			c0.1-0.4,0.1-0.7,0.1-1.1h10.2c0.4,0,0.8,0.4,0.8,0.8S46.3,18.8,45.9,18.8z"/>
	</g>
</g>
</svg>
