<?xml version="1.0" encoding="utf-8"?>
<!-- Generator: Adobe Illustrator 18.1.1, SVG Export Plug-In . SVG Version: 6.00 Build 0)  -->
<svg version="1.1" id="Layer_1" xmlns="http://www.w3.org/2000/svg" xmlns:xlink="http://www.w3.org/1999/xlink" x="0px" y="0px"
	 width="377px" height="377px" viewBox="0 0 377 377" enable-background="new 0 0 377 377" xml:space="preserve">
<g>
	<g>
		<g>
			<path fill="none" d="M143.6,142.6c0-1.8-1-3.3-2.4-4.2v8.3C142.7,146,143.6,144.4,143.6,142.6z"/>
		</g>
		<g>
			<polygon points="138.8,137.8 138.8,137.8 138.8,137.8 138.8,137.8 			"/>
		</g>
		<g>
			<polygon fill="none" points="148.8,137.8 148.8,137.8 148.8,137.8 148.8,137.8 			"/>
			<path fill="none" d="M153.6,142.6c0-1.8-1-3.3-2.4-4.2v8.3C152.6,146,153.6,144.4,153.6,142.6z"/>
			<path fill="none" d="M97.5,112.9c1,0.5,2.2,0.8,3.4,0.8h38.7c0.1-2.1-0.9-3.9-1.6-4.9c-2-2.8-5.6-4.7-9-4.7H98.5
				c-0.9,0-1.8-0.5-2.2-1.3l-0.9-1.8c-0.5,0.5-0.9,1.1-1.3,1.8C92.3,106.4,93.8,111,97.5,112.9z"/>
			<path fill="none" d="M144.7,177.4c1.1-2.6,1.7-5.3,1.7-8.2v-8.6l-5.3,8.3c-0.6,0.9-1.4,1.6-2.4,1.9c-0.6,0.2-1.1,0.3-1.7,0.3
				c-0.7,0-1.3-0.1-2-0.4c-1.2-0.5-2.1-1.5-2.5-2.7l-1.7-4.5c-0.4-0.9-1.3-1.6-2.3-1.6h-17.5c-1-0.1-1.9,0.6-2.3,1.6l-1.7,4.5
				c-0.4,1-1.1,1.8-1.9,2.4c-1.1,0.7-2.4,0.9-3.6,0.6c-1.3-0.3-2.3-1-3-2.1l-5.2-8.2v7.6c0,3.4,0.9,6.8,2.5,9.7l0.9,1.6
				c4.7,8.5,13.7,13.8,23.5,13.8C130.7,193.3,140.4,187.1,144.7,177.4z M113.3,172.2l-0.9-0.9c-0.8-0.8-0.8-2.1,0-2.9
				c0.4-0.4,0.9-0.6,1.4-0.6h0c0.5,0,1.1,0.2,1.4,0.6l0.9,0.9c0.4,0.4,0.9,0.6,1.4,0.6h2.7c0.5,0,1-0.2,1.4-0.6l0.9-0.9
				c0.4-0.4,1-0.6,1.4-0.6c0.5,0,1.1,0.2,1.4,0.6c0.8,0.8,0.8,2.1,0,2.9l-0.9,0.9c-1,1.2-2.5,1.8-4.2,1.8h-2.7
				C116.1,174,114.5,173.4,113.3,172.2z"/>
			<path fill="none" d="M108.8,118.5l-15.6,17.8v1.5v9.7v4.1l9.3,14.7l1.7-4.5c1.1-2.8,3.7-4.7,6.8-4.7h4.2l2.2-17.2l4.8,0.6
				l-2.1,16.6h8.4c3,0,5.7,1.9,6.8,4.7l1.7,4.5l9.3-14.7v-4.1v-9.7v-1.5l-15.6-17.8H108.8z M105.3,147.5c-2.7,0-4.8-2.2-4.8-4.8
				c0-2.7,2.2-4.8,4.8-4.8c2.7,0,4.8,2.2,4.8,4.8C110.2,145.3,108,147.5,105.3,147.5z M134.3,137.8c2.7,0,4.8,2.2,4.8,4.8
				c0,2.7-2.2,4.8-4.8,4.8c-2.7,0-4.8-2.2-4.8-4.8C129.5,140,131.6,137.8,134.3,137.8z"/>
			<path fill="none" d="M86,142.6c0,1.8,1,3.3,2.4,4.2v-8.3C87,139.3,86,140.9,86,142.6z"/>
			<path fill="none" d="M100.9,118.5c-1,0-2-0.1-3-0.4l0.1,0.1c-3.6,1.8-5.7,5.5-5.3,9.5l0.2,1.8l9.7-11H100.9z"/>
			<path fill="none" d="M146.9,129.5l0.2-1.8c0.3-3.9-1.7-7.5-5-9.3c-0.2,0-0.3,0.1-0.5,0.1h-4.3L146.9,129.5z"/>
			<circle fill="#FFFFFF" cx="105.3" cy="142.6" r="4.8"/>
			<circle fill="#FFFFFF" cx="134.3" cy="142.6" r="4.8"/>
			<polygon points="90.8,137.8 90.9,137.8 90.9,137.8 90.9,137.8 			"/>
			<path fill="#FFFFFF" d="M124.6,172.2l0.9-0.9c0.8-0.8,0.8-2.1,0-2.9c-0.4-0.4-0.9-0.6-1.4-0.6c-0.4,0-1.1,0.2-1.4,0.6l-0.9,0.9
				c-0.4,0.4-0.9,0.6-1.4,0.6h-2.7c-0.5,0-1-0.2-1.4-0.6l-0.9-0.9c-0.4-0.4-0.9-0.6-1.4-0.6h0c-0.5,0-1.1,0.2-1.4,0.6
				c-0.8,0.8-0.8,2.1,0,2.9l0.9,0.9c1.2,1.2,2.7,1.8,4.4,1.8h2.7C122.1,174,123.6,173.4,124.6,172.2z"/>
			<path fill="none" d="M129.8,196.6c-3.1,1-6.3,1.5-9.6,1.5c-3.5,0-6.8-0.6-10-1.7c-1.6,1.1-3.5,1.9-5.5,2.1l-2.3,0.3
				c3.3,6.6,10,10.8,17.4,10.8h0c7.4,0,14.1-4.2,17.4-10.8l-2.2-0.3C133.1,198.3,131.3,197.6,129.8,196.6z"/>
			<path fill="#FFFFFF" d="M170.4,207.4c-3.2-6.1-9.2-10.5-16.4-11.5l-14.6-1.7c0,0-0.1,0-0.1,0l-3.3-0.4c5.6-3.3,10.3-8.3,13-14.5
				c1.4-3.2,2.1-6.6,2.1-10.1V152c4.2-1.1,7.2-4.8,7.2-9.3c0-4.4-3-8.1-7.1-9.3l0.4-5.2c0.5-5.8-2.5-11.2-7.4-13.9
				c0.2-2.8-0.6-5.7-2.4-8.3c-2.9-4.1-8-6.7-12.9-6.7H100l-1.7-3.5c-0.4-0.7-1-1.2-1.8-1.3c-0.8-0.1-1.6,0.2-2.1,0.7L92,97.5
				c-0.9,0.9-1.6,1.9-2.2,3c-2.7,5.3-1.2,11.6,3.2,15.2c-3.7,3-5.7,7.6-5.3,12.4l0.4,5.2c-4.1,1.1-7.1,4.8-7.1,9.3
				c0,4.5,3.1,8.2,7.2,9.3v16.3c0,4.2,1.1,8.4,3.1,12.1l0.9,1.6c2.8,5,6.8,9.1,11.6,11.9c0,0-3.7,0.4-3.7,0.4l-0.1,0l-14.6,1.7
				c-10.7,1.4-18.8,10.7-18.8,21.5v11.2v10.5v32c0,1.6,1.1,2.6,2.6,2.6h32.9h3.8h1.1c1.6,0,2.6-1.1,2.6-2.6c0-1.6-1.1-2.6-2.6-2.6
				H106h-3.8H72v-39h13.9v27.6c0,1.6,1.1,2.6,2.6,2.6h41.3l4.5,4.5c0.5,0.5,1.1,0.8,1.9,0.8c0.8,0,1.3-0.3,1.9-0.8
				c1.1-1.1,1.1-2.6,0-3.7l-5.3-5.3c-0.5-0.5-1.1-0.8-1.9-0.8H91.2v-26.8c0-0.9-0.4-1.6-1-2.1c-0.4-0.5-1.1-0.8-1.8-0.8H71.5v-7.2
				c0-8.4,6.3-15.6,14.6-16.7l11.2-1.3l0.1,0.3c3.8,9,12.6,14.8,22.4,14.8c9.8,0,18.5-5.8,22.4-14.8l0.1-0.3l11.1,1.3
				c1.6,0.2,3.2,0.7,4.6,1.3c1.4,0.7,2.8,1.5,4,2.5c1.2,1,2.2,2.2,3.1,3.5c0.9,1.3,1.6,2.8,2.1,4.3c0.2,0.7,0.3,1.3,0.9,1.8
				c1.2,1.1,3.5,0.6,4-1c0.1-0.3,0.1-0.6,0.1-0.9C171.9,210.6,171.2,209,170.4,207.4z M151.2,138.5c1.4,0.8,2.4,2.4,2.4,4.2
				c0,1.8-1,3.3-2.4,4.2V138.5z M148.8,137.8C148.8,137.8,148.8,137.8,148.8,137.8C148.8,137.8,148.8,137.8,148.8,137.8
				C148.8,137.8,148.8,137.8,148.8,137.8L148.8,137.8z M88.4,146.8c-1.4-0.8-2.4-2.4-2.4-4.2c0-1.8,1-3.3,2.4-4.2V146.8z
				 M90.9,137.8C90.9,137.8,90.8,137.8,90.9,137.8C90.8,137.8,90.9,137.8,90.9,137.8L90.9,137.8C90.9,137.8,90.9,137.8,90.9,137.8z
				 M146.4,137.8v9.7v4.1l-9.3,14.7l-1.7-4.5c-1.1-2.8-3.8-4.7-6.8-4.7h-8.4l2.1-16.6l-4.8-0.6l-2.2,17.2h-4.2
				c-3.1-0.1-5.8,1.8-6.8,4.7l-1.7,4.5l-9.3-14.7v-4.1v-9.7v-1.5l15.6-17.8h21.9l15.6,17.8V137.8z M141.5,118.5c0.2,0,0.3,0,0.5-0.1
				c3.3,1.8,5.3,5.5,5,9.3l-0.2,1.8l-9.7-11H141.5z M94.2,102.7c0.3-0.6,0.7-1.2,1.3-1.8l0.9,1.8c0.4,0.8,1.2,1.3,2.2,1.3h30.6
				c3.3,0,6.9,1.9,9,4.7c0.7,1,1.7,2.8,1.6,4.9h-38.7c-1.2,0-2.3-0.3-3.4-0.8C93.8,111,92.3,106.4,94.2,102.7z M92.6,127.7
				c-0.3-4,1.7-7.7,5.3-9.5l-0.1-0.1c1,0.2,2,0.4,3,0.4h1.5l-9.7,11L92.6,127.7z M96.7,179.5l-0.9-1.6c-1.7-3-2.5-6.3-2.5-9.7v-7.6
				l5.2,8.2c0.7,1.1,1.8,1.8,3,2.1c1.3,0.3,2.6,0.1,3.6-0.6c0.9-0.6,1.6-1.4,1.9-2.4l1.7-4.5c0.4-0.9,1.3-1.6,2.3-1.6h17.5
				c1,0,1.9,0.6,2.3,1.6l1.7,4.5c0.5,1.2,1.4,2.2,2.5,2.7c0.6,0.3,1.3,0.4,2,0.4c0.6,0,1.2-0.1,1.7-0.3c1-0.4,1.8-1.1,2.4-1.9
				l5.3-8.3v8.6c0,2.8-0.6,5.6-1.7,8.2c-4.3,9.7-13.9,16-24.5,16C110.4,193.3,101.4,188,96.7,179.5z M119.8,209.6L119.8,209.6
				c-7.4,0-14.1-4.2-17.4-10.8l2.3-0.3c2-0.2,3.8-1,5.5-2.1c3.2,1.1,6.5,1.7,10,1.7c3.3,0,6.6-0.5,9.6-1.5c1.6,1,3.3,1.7,5.2,1.9
				l2.2,0.3C133.9,205.4,127.3,209.6,119.8,209.6z"/>
		</g>
		<g>
			<path fill="#FFFFFF" d="M304.7,201.5h-5.3v-39.7c0-0.1,0-0.3,0-0.4c0-0.4,0-0.8,0-1.2V129c0-14-11.4-25.4-25.4-25.4h-15.4
				c-14,0-25.4,11.4-25.4,25.4v67.2c0,1.6,1.1,2.6,2.6,2.6s2.6-1.1,2.6-2.6v-20.5c1.5,2,3.3,3.7,5.3,5.1v10.1c0,1.6,1.1,2.6,2.6,2.6
				s2.6-1.1,2.6-2.6v-7.2c2.9,1.2,6.2,1.9,9.5,1.9H274c3.4,0,6.6-0.7,9.5-1.9v7.2c0,1.6,1.1,2.6,2.6,2.6s2.6-1.1,2.6-2.6v-10.1
				c2-1.4,3.8-3.2,5.3-5.1v25.8h-7.9c-4.5,0-7.9-3.4-7.9-7.9v-2.6c0-1.6-1.1-2.6-2.6-2.6s-2.6,1.1-2.6,2.6v2.6c0,4.8,2.5,9,6.2,11.3
				l-14.4,16.5l-14.2-16.3c4-2.3,6.6-6.5,6.6-11.5v-2.6c0-1.6-1.1-2.6-2.6-2.6s-2.6,1.1-2.6,2.6v2.6c0,4.5-3.4,7.9-7.9,7.9h-18.5
				c-8.2,0-13.2,4-13.2,10.6c0,1.6,1.1,2.6,2.6,2.6c1.6,0,2.6-1.1,2.6-2.6c0-1.3,0-5.3,7.9-5.3h18.5c0.4,0,0.8,0,1.2-0.1l17.9,20.4
				c0.5,0.5,1.3,0.8,2.1,0.8c0.8,0,1.6-0.3,1.6-0.8l17.9-20.5c0.5,0.1,1.1,0.1,1.7,0.1h18.5c4.5,0,7.9,3.4,7.9,7.9v55.6
				c0,1.6,1.1,2.6,2.6,2.6c1.6,0,2.6-1.1,2.6-2.6v-55.6C318,207.3,312.1,201.5,304.7,201.5L304.7,201.5z M274,180.3h-15.4
				c-11.1,0-20.1-9-20.1-20.1V129c0-11.1,9-20.1,20.1-20.1H274c11.1,0,20.1,9,20.1,20.1v31.2C294.1,171.3,285.1,180.3,274,180.3
				L274,180.3z M274,180.3"/>
		</g>
		<g>
			<path fill="#FFFFFF" d="M191.7,235.7c-5.8,0-10.6,4.8-10.6,10.6c0,5.8,4.8,10.6,10.6,10.6c5.8,0,10.6-4.8,10.6-10.6
				C202.3,240.4,197.5,235.7,191.7,235.7L191.7,235.7z M191.7,251.6c-2.9,0-5.3-2.4-5.3-5.3s2.4-5.3,5.3-5.3s5.3,2.4,5.3,5.3
				S194.6,251.6,191.7,251.6L191.7,251.6z M191.7,251.6"/>
		</g>
		<g>
			<path fill="#FFFFFF" d="M299.4,222.7c-1.6,0-2.6,1.1-2.6,2.6v29.1h-39.7c-0.8,0-1.3,0.3-1.9,0.8l-5.3,5.3c-1.1,1.1-1.1,2.6,0,3.7
				c0.5,0.5,1.1,0.8,1.9,0.8c0.8,0,1.3-0.3,1.9-0.8l4.5-4.5h41.3c1.6,0,2.6-1.1,2.6-2.6v-31.8C302.1,223.8,301,222.7,299.4,222.7
				L299.4,222.7z M299.4,222.7"/>
		</g>
		<g>
			<path fill="#FFFFFF" d="M288.8,129.7c-18.8-0.3-26.5-11.6-26.7-12.2c-0.8-0.8-1.6-1.1-2.6-1.1c-1.1,0.3-1.9,0.8-2.1,1.9
				c-3.2,8.5-13,8.7-13.5,8.7c-1.6,0-2.6,1.1-2.6,2.6c0,1.6,1.1,2.6,2.6,2.6c0.5,0,11.1,0,16.4-8.5c4.2,4.2,13.5,10.9,28.6,11.1
				c1.3,0,2.6-1.1,2.6-2.6C291.5,131,290.4,129.7,288.8,129.7L288.8,129.7z M288.8,129.7"/>
		</g>
		<g>
			<path fill="#FFFFFF" d="M288.4,245.5"/>
		</g>
		<g>
			<path fill="#FFFFFF" d="M273.3,163.7c-0.4-0.4-1-0.7-1.6-0.7c-0.5,0-1.1,0.2-1.6,0.7l-0.9,0.9c-0.4,0.4-1,0.6-1.5,0.6h-3
				c-0.5,0-1.1-0.2-1.5-0.6l-0.9-0.9c-0.4-0.4-1-0.7-1.6-0.7c0,0,0,0,0,0c-0.6,0-1.1,0.2-1.6,0.7c-0.9,0.9-0.9,2.3,0,3.1l0.9,0.9
				c1.3,1.3,3,2,4.8,2h3c1.8,0,3.4-0.7,4.5-2l1-0.9C274.1,166,274.1,164.6,273.3,163.7z"/>
		</g>
		<g>
			<circle fill="#FFFFFF" cx="281.9" cy="144.7" r="5.2"/>
		</g>
		<g>
			<circle fill="#FFFFFF" cx="250.5" cy="144.7" r="5.2"/>
		</g>
		<g>
			<g>
				<g>
					<path fill="#FFFFFF" d="M191.4,56c-0.4-0.2-1-0.1-1.2,0.3l-0.9,1.5c-0.3,0.4-0.1,1,0.3,1.2c0.2,0.1,0.5,0.2,0.7,0.1
						c0.2-0.1,0.4-0.2,0.5-0.4l0.9-1.5C191.9,56.8,191.8,56.3,191.4,56L191.4,56z M191.4,56"/>
					<path fill="#FFFFFF" d="M190,59.5c-0.2,0-0.4-0.1-0.6-0.2c-0.3-0.2-0.5-0.4-0.5-0.7c-0.1-0.3,0-0.6,0.1-0.9l0.9-1.5
						c0.3-0.6,1-0.7,1.6-0.4l0,0c0.6,0.3,0.7,1.1,0.4,1.6l-0.9,1.5c-0.2,0.3-0.4,0.5-0.7,0.5C190.2,59.5,190.1,59.5,190,59.5z
						 M190.9,56.2c-0.2,0-0.4,0.1-0.5,0.3l-0.9,1.5c-0.1,0.1-0.1,0.3-0.1,0.5c0,0.2,0.1,0.3,0.3,0.4c0.1,0.1,0.3,0.1,0.5,0.1
						c0.2,0,0.3-0.1,0.4-0.3l0.9-1.5c0.1-0.1,0.1-0.3,0.1-0.5c0-0.2-0.1-0.3-0.3-0.4l0,0C191.1,56.2,191,56.2,190.9,56.2z"/>
				</g>
				<g>
					<path fill="#FFFFFF" d="M194.4,57.8c-0.4-0.2-1-0.1-1.2,0.3l-0.9,1.5c-0.2,0.4-0.1,1,0.3,1.2c0.2,0.1,0.4,0.2,0.7,0.1
						c0.2-0.1,0.4-0.2,0.5-0.4l0.9-1.5C195,58.6,194.8,58.1,194.4,57.8L194.4,57.8z M194.4,57.8"/>
					<path fill="#FFFFFF" d="M193.1,61.3c-0.2,0-0.4-0.1-0.6-0.2c-0.6-0.3-0.7-1.1-0.4-1.6L193,58c0.2-0.3,0.4-0.5,0.7-0.5
						c0.3-0.1,0.6,0,0.9,0.1l0,0c0.6,0.3,0.7,1.1,0.4,1.6l-0.9,1.5c-0.2,0.3-0.4,0.5-0.7,0.5C193.3,61.3,193.2,61.3,193.1,61.3z
						 M194,58c0,0-0.1,0-0.2,0c-0.2,0-0.3,0.1-0.4,0.3l-0.9,1.5c-0.2,0.3-0.1,0.7,0.2,0.8c0.1,0.1,0.3,0.1,0.5,0.1
						c0.2,0,0.3-0.1,0.4-0.3l0.9-1.5c0.2-0.3,0.1-0.7-0.2-0.8l0,0C194.2,58,194.1,58,194,58z"/>
				</g>
				<g>
					<path fill="#FFFFFF" d="M197.5,59.6c-0.4-0.2-1-0.1-1.2,0.3l-0.9,1.5c-0.2,0.4-0.1,1,0.3,1.2c0.2,0.1,0.5,0.2,0.7,0.1
						c0.2-0.1,0.4-0.2,0.5-0.4l0.9-1.5C198,60.4,197.9,59.9,197.5,59.6L197.5,59.6z M197.5,59.6"/>
					<path fill="#FFFFFF" d="M196.1,63.1c-0.2,0-0.4-0.1-0.6-0.2c-0.3-0.2-0.5-0.4-0.5-0.7c-0.1-0.3,0-0.6,0.1-0.9l0.9-1.5
						c0.2-0.3,0.4-0.5,0.7-0.5c0.3-0.1,0.6,0,0.9,0.1l0,0c0.3,0.2,0.5,0.4,0.5,0.7c0.1,0.3,0,0.6-0.1,0.9l-0.9,1.5
						c-0.2,0.3-0.4,0.5-0.7,0.5C196.3,63.1,196.2,63.1,196.1,63.1z M197,59.8c-0.1,0-0.1,0-0.1,0c-0.2,0-0.3,0.1-0.4,0.3l-0.9,1.5
						c-0.1,0.1-0.1,0.3-0.1,0.5c0,0.2,0.1,0.3,0.3,0.4c0.1,0.1,0.3,0.1,0.5,0.1c0.2,0,0.3-0.1,0.4-0.3l0.9-1.5
						c0.1-0.1,0.1-0.3,0.1-0.5c0-0.2-0.1-0.3-0.3-0.4l0,0C197.2,59.8,197.1,59.8,197,59.8z"/>
				</g>
				<g>
					<path fill="#FFFFFF" d="M199.3,61.7l-0.9,1.5c-0.2,0.4-0.1,1,0.3,1.2c0.2,0.1,0.5,0.2,0.7,0.1c0.2-0.1,0.4-0.2,0.5-0.4l0.9-1.5
						c0.2-0.4,0.1-1-0.3-1.2C200.1,61.2,199.6,61.3,199.3,61.7L199.3,61.7z M199.3,61.7"/>
					<path fill="#FFFFFF" d="M199.2,64.9c-0.2,0-0.4-0.1-0.6-0.2c-0.3-0.2-0.5-0.4-0.5-0.7c-0.1-0.3,0-0.6,0.1-0.9l0.9-1.5
						c0.3-0.6,1.1-0.7,1.6-0.4c0.3,0.2,0.5,0.4,0.5,0.7c0.1,0.3,0,0.6-0.1,0.9l-0.9,1.5c-0.2,0.3-0.4,0.5-0.7,0.5
						C199.4,64.9,199.3,64.9,199.2,64.9z M199.6,61.9l-0.9,1.5c-0.1,0.1-0.1,0.3-0.1,0.5c0,0.2,0.1,0.3,0.3,0.4
						c0.1,0.1,0.3,0.1,0.5,0.1c0.2,0,0.3-0.1,0.4-0.3l0.9-1.5c0.1-0.1,0.1-0.3,0.1-0.5c0-0.2-0.1-0.3-0.3-0.4
						C200.1,61.5,199.7,61.6,199.6,61.9L199.6,61.9z"/>
				</g>
				<g>
					<path fill="#FFFFFF" d="M172.4,88.1c-0.4-0.3-1-0.1-1.2,0.3l-0.9,1.5c-0.2,0.4-0.1,1,0.3,1.2c0.2,0.1,0.5,0.2,0.7,0.1
						c0.2-0.1,0.4-0.2,0.5-0.4l0.9-1.5C173,88.9,172.9,88.3,172.4,88.1L172.4,88.1z M172.4,88.1"/>
					<path fill="#FFFFFF" d="M171.1,91.5c-0.2,0-0.4-0.1-0.6-0.2c-0.3-0.2-0.5-0.4-0.5-0.7c-0.1-0.3,0-0.6,0.1-0.9l0.9-1.5
						c0.2-0.3,0.4-0.5,0.7-0.5c0.3-0.1,0.6,0,0.9,0.1c0.3,0.2,0.5,0.4,0.5,0.7c0.1,0.3,0,0.6-0.1,0.9l-0.9,1.5
						c-0.2,0.3-0.4,0.5-0.7,0.5C171.3,91.5,171.2,91.5,171.1,91.5z M172,88.2c0,0-0.1,0-0.1,0c-0.2,0-0.3,0.1-0.4,0.3l-0.9,1.5
						c-0.1,0.1-0.1,0.3-0.1,0.5c0,0.2,0.1,0.3,0.3,0.4c0.1,0.1,0.3,0.1,0.5,0.1c0.2,0,0.3-0.1,0.4-0.3l0.9-1.5
						c0.1-0.1,0.1-0.3,0.1-0.5c0-0.2-0.1-0.3-0.3-0.4l0,0C172.2,88.3,172.1,88.2,172,88.2z"/>
				</g>
				<g>
					<path fill="#FFFFFF" d="M175.5,89.9c-0.4-0.2-1-0.1-1.2,0.3l-0.9,1.5c-0.3,0.4-0.1,1,0.3,1.2c0.2,0.1,0.5,0.2,0.7,0.1
						c0.2-0.1,0.4-0.2,0.5-0.4l0.9-1.5C176.1,90.7,175.9,90.1,175.5,89.9L175.5,89.9z M175.5,89.9"/>
					<path fill="#FFFFFF" d="M174.1,93.3c-0.2,0-0.4-0.1-0.6-0.2c-0.3-0.2-0.5-0.4-0.5-0.7c-0.1-0.3,0-0.6,0.1-0.9L174,90
						c0.2-0.3,0.4-0.5,0.7-0.5c0.3-0.1,0.6,0,0.9,0.1l0,0c0.3,0.2,0.5,0.4,0.5,0.7c0.1,0.3,0,0.6-0.1,0.9l-0.9,1.5
						c-0.2,0.3-0.4,0.5-0.7,0.5C174.3,93.3,174.2,93.3,174.1,93.3z M175,90c0,0-0.1,0-0.1,0c-0.2,0-0.3,0.1-0.4,0.3l-0.9,1.5
						c-0.1,0.1-0.1,0.3-0.1,0.5c0,0.2,0.1,0.3,0.3,0.4c0.1,0.1,0.3,0.1,0.5,0.1c0.2,0,0.3-0.1,0.4-0.3l0.9-1.5
						c0.1-0.1,0.1-0.3,0.1-0.5c0-0.2-0.1-0.3-0.3-0.4h0C175.3,90.1,175.2,90,175,90z"/>
				</g>
				<g>
					<path fill="#FFFFFF" d="M178.6,91.7c-0.4-0.2-1-0.1-1.2,0.3l-0.9,1.5c-0.2,0.4-0.1,1,0.3,1.2c0.2,0.1,0.4,0.2,0.7,0.1
						c0.2-0.1,0.4-0.2,0.5-0.4l0.9-1.5C179.1,92.5,179,91.9,178.6,91.7L178.6,91.7z M178.6,91.7"/>
					<path fill="#FFFFFF" d="M177.2,95.1c-0.2,0-0.4-0.1-0.6-0.2c-0.3-0.2-0.5-0.4-0.5-0.7c-0.1-0.3,0-0.6,0.1-0.9l0.9-1.5
						c0.3-0.6,1-0.7,1.6-0.4l0,0c0.3,0.2,0.5,0.4,0.5,0.7c0.1,0.3,0,0.6-0.1,0.9l-0.9,1.5c-0.2,0.3-0.4,0.5-0.7,0.5
						C177.4,95.1,177.3,95.1,177.2,95.1z M178.1,91.8c-0.2,0-0.4,0.1-0.5,0.3l-0.9,1.5c-0.1,0.1-0.1,0.3-0.1,0.5
						c0,0.2,0.1,0.3,0.3,0.4c0.1,0.1,0.3,0.1,0.5,0.1c0.2,0,0.3-0.1,0.4-0.3l0.9-1.5c0.1-0.1,0.1-0.3,0.1-0.5s-0.1-0.3-0.3-0.4l0,0
						C178.3,91.9,178.2,91.8,178.1,91.8z"/>
				</g>
				<g>
					<path fill="#FFFFFF" d="M180.4,93.8l-0.9,1.5c-0.2,0.4-0.1,1,0.3,1.2c0.2,0.1,0.4,0.2,0.7,0.1c0.2-0.1,0.4-0.2,0.5-0.4l0.9-1.5
						c0.2-0.4,0.1-1-0.3-1.2C181.2,93.2,180.6,93.4,180.4,93.8L180.4,93.8z M180.4,93.8"/>
					<path fill="#FFFFFF" d="M180.3,96.9c-0.2,0-0.4-0.1-0.6-0.2c-0.6-0.3-0.7-1-0.4-1.6l0.9-1.5c0.3-0.6,1.1-0.7,1.6-0.4
						c0.3,0.2,0.5,0.4,0.5,0.7c0.1,0.3,0,0.6-0.1,0.9l-0.9,1.5c-0.2,0.3-0.4,0.5-0.7,0.5C180.4,96.9,180.3,96.9,180.3,96.9z
						 M180.6,93.9l-0.9,1.5c-0.1,0.1-0.1,0.3-0.1,0.5c0,0.2,0.1,0.3,0.3,0.4c0.1,0.1,0.3,0.1,0.5,0.1c0.2,0,0.3-0.1,0.4-0.3l0.9-1.5
						c0.2-0.3,0.1-0.7-0.2-0.8C181.2,93.5,180.8,93.6,180.6,93.9z"/>
				</g>
				<g>
					<path fill="#FFFFFF" d="M200.7,61.5c-0.4-0.2-1-0.1-1.2,0.3l-0.9,1.5c-0.3,0.4-0.1,1,0.3,1.2c0.2,0.1,0.5,0.2,0.7,0.1
						c0.2-0.1,0.4-0.2,0.5-0.4l0.9-1.5C201.2,62.3,201.1,61.7,200.7,61.5L200.7,61.5z M200.7,61.5"/>
					<path fill="#FFFFFF" d="M199.3,64.9c-0.2,0-0.4-0.1-0.6-0.2c-0.3-0.2-0.5-0.4-0.5-0.7c-0.1-0.3,0-0.6,0.1-0.9l0.9-1.5
						c0.3-0.6,1.1-0.7,1.6-0.4l0,0c0.3,0.2,0.5,0.4,0.5,0.7c0.1,0.3,0,0.6-0.1,0.9l-0.9,1.5c-0.2,0.3-0.4,0.5-0.7,0.5
						C199.5,64.9,199.4,64.9,199.3,64.9z M200.2,61.6c-0.2,0-0.4,0.1-0.5,0.3l-0.9,1.5c-0.1,0.1-0.1,0.3-0.1,0.5
						c0,0.2,0.1,0.3,0.3,0.4c0.1,0.1,0.3,0.1,0.5,0.1c0.2,0,0.3-0.1,0.4-0.3l0.9-1.5c0.2-0.3,0.1-0.7-0.2-0.8l0,0
						C200.4,61.7,200.3,61.6,200.2,61.6z"/>
				</g>
				<g>
					<path fill="#FFFFFF" d="M203.7,63.3c-0.4-0.2-1-0.1-1.2,0.3l-0.9,1.5c-0.2,0.4-0.1,1,0.3,1.2c0.2,0.1,0.4,0.2,0.7,0.1
						c0.2-0.1,0.4-0.2,0.5-0.4l0.9-1.5C204.3,64.1,204.1,63.5,203.7,63.3L203.7,63.3z M203.7,63.3"/>
					<path fill="#FFFFFF" d="M202.4,66.7c-0.2,0-0.4-0.1-0.6-0.2c-0.6-0.3-0.7-1.1-0.4-1.6l0.9-1.5c0.2-0.3,0.4-0.5,0.7-0.5
						c0.3-0.1,0.6,0,0.9,0.1l0,0c0.6,0.3,0.7,1.1,0.4,1.6l-0.9,1.5c-0.2,0.3-0.4,0.5-0.7,0.5C202.6,66.7,202.5,66.7,202.4,66.7z
						 M203.3,63.4c-0.1,0-0.1,0-0.2,0c-0.2,0-0.3,0.1-0.4,0.3l-0.9,1.5c-0.2,0.3-0.1,0.7,0.2,0.8c0.1,0.1,0.3,0.1,0.5,0.1
						c0.2,0,0.3-0.1,0.4-0.3l0.9-1.5c0.2-0.3,0.1-0.7-0.2-0.8l0,0C203.5,63.5,203.4,63.4,203.3,63.4z"/>
				</g>
				<g>
					<path fill="#FFFFFF" d="M206.8,65.1c-0.4-0.2-1-0.1-1.2,0.3l-0.9,1.5c-0.2,0.4-0.1,1,0.3,1.2c0.2,0.1,0.5,0.2,0.7,0.1
						c0.2-0.1,0.4-0.2,0.5-0.4l0.9-1.5C207.3,65.9,207.2,65.3,206.8,65.1L206.8,65.1z M206.8,65.1"/>
					<path fill="#FFFFFF" d="M205.4,68.5c-0.2,0-0.4-0.1-0.6-0.2c-0.3-0.2-0.5-0.4-0.5-0.7c-0.1-0.3,0-0.6,0.1-0.9l0.9-1.5
						c0.2-0.3,0.4-0.5,0.7-0.5c0.3-0.1,0.6,0,0.9,0.1l0,0c0.3,0.2,0.5,0.4,0.5,0.7c0.1,0.3,0,0.6-0.1,0.9l-0.9,1.5
						c-0.2,0.3-0.4,0.5-0.7,0.5C205.6,68.5,205.5,68.5,205.4,68.5z M206.3,65.2c-0.1,0-0.1,0-0.1,0c-0.2,0-0.3,0.1-0.4,0.3l-0.9,1.5
						c-0.1,0.1-0.1,0.3-0.1,0.5c0,0.2,0.1,0.3,0.3,0.4c0.1,0.1,0.3,0.1,0.5,0.1c0.2,0,0.3-0.1,0.4-0.3l0.9-1.5
						c0.1-0.1,0.1-0.3,0.1-0.5c0-0.2-0.1-0.3-0.3-0.4l0,0C206.5,65.3,206.4,65.2,206.3,65.2z"/>
				</g>
				<g>
					<path fill="#FFFFFF" d="M208.6,67.2l-0.9,1.5c-0.2,0.4-0.1,1,0.3,1.2c0.2,0.1,0.5,0.2,0.7,0.1c0.2-0.1,0.4-0.2,0.5-0.4l0.9-1.5
						c0.2-0.4,0.1-1-0.3-1.2C209.4,66.6,208.9,66.8,208.6,67.2L208.6,67.2z M208.6,67.2"/>
					<path fill="#FFFFFF" d="M208.5,70.3c-0.2,0-0.4-0.1-0.6-0.2c-0.3-0.2-0.5-0.4-0.5-0.7c-0.1-0.3,0-0.6,0.1-0.9l0.9-1.5
						c0.2-0.3,0.4-0.5,0.7-0.5c0.3-0.1,0.6,0,0.9,0.1c0.3,0.2,0.5,0.4,0.5,0.7c0.1,0.3,0,0.6-0.1,0.9l-0.9,1.5
						c-0.2,0.3-0.4,0.5-0.7,0.5C208.7,70.3,208.6,70.3,208.5,70.3z M208.8,67.3l-0.9,1.5c-0.1,0.1-0.1,0.3-0.1,0.5
						c0,0.2,0.1,0.3,0.3,0.4c0.1,0.1,0.3,0.1,0.5,0.1c0.2,0,0.3-0.1,0.4-0.3l0.9-1.5c0.1-0.1,0.1-0.3,0.1-0.5c0-0.2-0.1-0.3-0.3-0.4
						c-0.1-0.1-0.3-0.1-0.5-0.1C209.1,67.1,208.9,67.2,208.8,67.3L208.8,67.3z"/>
				</g>
				<g>
					<path fill="#FFFFFF" d="M181.7,93.5c-0.4-0.3-1-0.1-1.2,0.3l-0.9,1.5c-0.2,0.4-0.1,1,0.3,1.2c0.2,0.1,0.5,0.2,0.7,0.1
						c0.2-0.1,0.4-0.2,0.5-0.4l0.9-1.5C182.3,94.3,182.1,93.8,181.7,93.5L181.7,93.5z M181.7,93.5"/>
					<path fill="#FFFFFF" d="M180.4,97c-0.2,0-0.4-0.1-0.6-0.2c-0.6-0.3-0.7-1.1-0.4-1.6l0.9-1.5c0.2-0.3,0.4-0.5,0.7-0.5
						c0.3-0.1,0.6,0,0.9,0.1l0,0c0.3,0.2,0.5,0.4,0.5,0.7c0.1,0.3,0,0.6-0.1,0.9l-0.9,1.5c-0.2,0.3-0.4,0.5-0.7,0.5
						C180.6,97,180.5,97,180.4,97z M181.3,93.7c0,0-0.1,0-0.1,0c-0.2,0-0.3,0.1-0.4,0.3l-0.9,1.5c-0.2,0.3-0.1,0.7,0.2,0.8
						c0.1,0.1,0.3,0.1,0.5,0.1c0.2,0,0.3-0.1,0.4-0.3l0.9-1.5c0.1-0.1,0.1-0.3,0.1-0.5c0-0.2-0.1-0.3-0.3-0.4h0
						C181.5,93.7,181.4,93.7,181.3,93.7z"/>
				</g>
				<g>
					<path fill="#FFFFFF" d="M184.8,95.3c-0.4-0.2-1-0.1-1.2,0.3l-0.9,1.5c-0.3,0.4-0.1,1,0.3,1.2c0.2,0.1,0.5,0.2,0.7,0.1
						c0.2-0.1,0.4-0.2,0.5-0.4l0.9-1.5C185.3,96.1,185.2,95.6,184.8,95.3L184.8,95.3z M184.8,95.3"/>
					<path fill="#FFFFFF" d="M183.4,98.8c-0.2,0-0.4-0.1-0.6-0.2c-0.3-0.2-0.5-0.4-0.5-0.7c-0.1-0.3,0-0.6,0.1-0.9l0.9-1.5
						c0.3-0.6,1-0.7,1.6-0.4l0,0c0.3,0.2,0.5,0.4,0.5,0.7c0.1,0.3,0,0.6-0.1,0.9l-0.9,1.5c-0.2,0.3-0.4,0.5-0.7,0.5
						C183.6,98.8,183.5,98.8,183.4,98.8z M184.3,95.5c-0.2,0-0.4,0.1-0.5,0.3l-0.9,1.5c-0.1,0.1-0.1,0.3-0.1,0.5
						c0,0.2,0.1,0.3,0.3,0.4c0.1,0.1,0.3,0.1,0.5,0.1c0.2,0,0.3-0.1,0.4-0.3l0.9-1.5c0.1-0.1,0.1-0.3,0.1-0.5c0-0.2-0.1-0.3-0.3-0.4
						l0,0C184.5,95.5,184.4,95.5,184.3,95.5z"/>
				</g>
				<g>
					<path fill="#FFFFFF" d="M187.8,97.1c-0.4-0.2-1-0.1-1.2,0.3l-0.9,1.5c-0.2,0.4-0.1,1,0.3,1.2c0.2,0.1,0.4,0.2,0.7,0.1
						c0.2-0.1,0.4-0.2,0.5-0.4l0.9-1.5C188.4,97.9,188.3,97.4,187.8,97.1L187.8,97.1z M187.8,97.1"/>
					<path fill="#FFFFFF" d="M186.5,100.6c-0.2,0-0.4-0.1-0.6-0.2c-0.3-0.2-0.5-0.4-0.5-0.7c-0.1-0.3,0-0.6,0.1-0.9l0.9-1.5
						c0.3-0.6,1.1-0.7,1.6-0.4l0,0c0.6,0.3,0.7,1.1,0.4,1.6l-0.9,1.5c-0.2,0.3-0.4,0.5-0.7,0.5C186.7,100.6,186.6,100.6,186.5,100.6
						z M187.4,97.3c-0.2,0-0.4,0.1-0.5,0.3l-0.9,1.5c-0.1,0.1-0.1,0.3-0.1,0.5c0,0.2,0.1,0.3,0.3,0.4c0.1,0.1,0.3,0.1,0.5,0.1
						c0.2,0,0.3-0.1,0.4-0.3l0.9-1.5c0.2-0.3,0.1-0.7-0.2-0.8l0,0C187.6,97.3,187.5,97.3,187.4,97.3z"/>
				</g>
				<g>
					<path fill="#FFFFFF" d="M189.7,99.2l-0.9,1.5c-0.2,0.4-0.1,1,0.3,1.2c0.2,0.1,0.4,0.2,0.7,0.1c0.2-0.1,0.4-0.2,0.5-0.4l0.9-1.5
						c0.2-0.4,0.1-1-0.3-1.2C190.5,98.7,189.9,98.8,189.7,99.2L189.7,99.2z M189.7,99.2"/>
					<path fill="#FFFFFF" d="M189.5,102.4c-0.2,0-0.4-0.1-0.6-0.2c-0.6-0.3-0.7-1-0.4-1.6l0.9-1.5c0.2-0.3,0.4-0.5,0.7-0.5
						c0.3-0.1,0.6,0,0.9,0.1c0.3,0.2,0.5,0.4,0.5,0.7c0.1,0.3,0,0.6-0.1,0.9l-0.9,1.5c-0.2,0.3-0.4,0.5-0.7,0.5
						C189.7,102.4,189.6,102.4,189.5,102.4z M190.4,99.1c-0.1,0-0.1,0-0.1,0c-0.2,0-0.3,0.1-0.4,0.3l-0.9,1.5
						c-0.1,0.1-0.1,0.3-0.1,0.5c0,0.2,0.1,0.3,0.3,0.4c0.1,0.1,0.3,0.1,0.5,0.1c0.2,0,0.3-0.1,0.4-0.3l0.9-1.5
						c0.1-0.1,0.1-0.3,0.1-0.5c0-0.2-0.1-0.3-0.3-0.4C190.6,99.1,190.5,99.1,190.4,99.1z"/>
				</g>
				<g>
					<path fill="#FFFFFF" d="M164.8,89.5c-0.6,0.5-0.9,1.3-0.7,2.1l0.5,1.8c0.3,1.1,1.4,1.7,2.4,1.4l1.5-0.4c0.1,0,0.2,0,0.3,0.2
						l0.4,1.5c0.3,1.1,1.4,1.7,2.4,1.4l1.5-0.4c0.1,0,0.2,0,0.3,0.2l0.4,1.5c0.1,0.6,0.5,1,1,1.3c0.4,0.3,1,0.4,1.5,0.2l1.5-0.4
						c0,0,0.1,0,0.1,0c0,0,0.1,0.1,0.1,0.1l0.4,1.5c0.1,0.6,0.5,1,1,1.3c0.4,0.3,1,0.4,1.5,0.2l1.5-0.4c0.1,0,0.2,0,0.3,0.2l0.4,1.5
						c0.3,1.1,1.4,1.7,2.4,1.4l1.5-0.4c0.1,0,0.2,0,0.3,0.2l0.4,1.5c0.3,1.1,1.4,1.7,2.4,1.4l1.8-0.5c0.8-0.2,1.4-0.8,1.5-1.6
						l0.6-3.9c1.7-3.6,3.5-7.2,5.5-10.7c0.7-1.3,1.5-2.6,2.2-4c0,0,0-0.1,0.1-0.1c0.8-1.3,1.6-2.6,2.3-4c0,0,0,0,0,0
						c1.6-2.7,3.3-5.3,5-7.8l0.8-1.1l0,0c0.9-1.3,1.9-2.7,2.8-4l3.1-2.4c0.7-0.5,0.9-1.3,0.7-2.1l-0.5-1.8c-0.3-1.1-1.4-1.8-2.5-1.5
						l-1.4,0.4c-0.2,0-0.3-0.1-0.3-0.2l-0.4-1.4c-0.3-1.1-1.4-1.8-2.5-1.5l-1.4,0.4c-0.2,0-0.3-0.1-0.3-0.2l-0.4-1.4
						c-0.1-0.6-0.5-1-1-1.3c-0.5-0.3-1-0.4-1.6-0.2l-1.4,0.4c0,0-0.1,0-0.1,0c0,0-0.1-0.1-0.1-0.1l-0.4-1.4c-0.1-0.6-0.5-1-1-1.3
						c-0.5-0.3-1-0.4-1.6-0.2l-1.4,0.4c-0.2,0-0.3-0.1-0.3-0.2l-0.4-1.4c-0.3-1.1-1.4-1.8-2.5-1.5l-1.4,0.4c-0.2,0-0.3-0.1-0.3-0.2
						l-0.4-1.4c-0.3-1.1-1.4-1.8-2.5-1.5l-1.8,0.5c-0.8,0.2-1.4,0.9-1.5,1.7l-0.6,3.8c-1.7,3.6-3.5,7.2-5.5,10.7
						c-0.7,1.3-1.4,2.6-2.2,3.9c0,0.1-0.1,0.1-0.1,0.2c-0.7,1.3-1.5,2.6-2.3,3.9c0,0-0.1,0.1-0.1,0.1c-0.8,1.3-1.6,2.6-2.4,3.8
						l-0.1,0.1c-0.8,1.3-1.7,2.6-2.5,3.8c0,0,0,0,0,0.1l-0.7,1.1l0,0c-0.9,1.3-1.9,2.7-2.8,4L164.8,89.5z M165.8,90.9l3.2-2.5
						l0.2-0.2c1.1-1.6,2.3-3.2,3.4-4.8l10.7-17.6c1.7-3.2,3.4-6.5,5-9.8l0.7-4.2c0-0.1,0.1-0.2,0.2-0.2l1.8-0.5c0.2,0,0.3,0,0.3,0.2
						l0.4,1.4c0.3,1.1,1.4,1.8,2.5,1.5l1.4-0.4c0.1,0,0.3,0,0.3,0.2l0.4,1.4c0.1,0.4,0.3,0.7,0.5,0.9c0.5,0.5,1.2,0.8,2,0.6l1.4-0.4
						c0.1,0,0.2,0,0.2,0.1c0,0,0.1,0.1,0.1,0.1l0.4,1.4c0.2,0.6,0.5,1,1,1.3c0.5,0.3,1,0.4,1.6,0.2l1.4-0.4c0,0,0.1,0,0.1,0
						c0.1,0,0.2,0.1,0.2,0.2l0.4,1.4c0.2,0.7,0.8,1.3,1.4,1.5c0.3,0.1,0.7,0.1,1.1,0l1.4-0.4c0.2,0,0.3,0.1,0.3,0.2l0.4,1.4
						c0.3,1.1,1.4,1.8,2.5,1.5l1.4-0.4c0.2,0,0.3,0.1,0.3,0.2l0.5,1.8l0,0c0,0.1,0,0.2-0.1,0.3l-3.2,2.4l-0.2,0.2
						c-1.1,1.6-2.3,3.2-3.4,4.8l-10.7,17.6c-1.7,3.2-3.4,6.5-5,9.8l-0.7,4.2c0,0.1-0.1,0.2-0.2,0.2l-1.8,0.5c-0.1,0-0.3,0-0.3-0.2
						l-0.4-1.5c-0.3-1.1-1.4-1.7-2.4-1.4l-1.5,0.4c-0.1,0-0.3,0-0.3-0.2l-0.4-1.5c-0.1-0.3-0.3-0.6-0.5-0.9
						c-0.5-0.5-1.2-0.8-1.9-0.6l-1.5,0.4c-0.1,0-0.2,0-0.2-0.1c0,0-0.1,0-0.1-0.1l-0.4-1.5c-0.1-0.6-0.5-1-1-1.3
						c-0.4-0.3-1-0.4-1.5-0.2l-1.5,0.4c0,0-0.1,0-0.1,0c-0.1,0-0.2-0.1-0.2-0.2L175,97c-0.2-0.7-0.8-1.2-1.4-1.4
						c-0.3-0.1-0.7-0.1-1,0l-1.5,0.4c-0.1,0-0.3,0-0.3-0.2l-0.4-1.5c-0.3-1.1-1.4-1.7-2.4-1.4l-1.5,0.4c-0.1,0-0.2,0-0.3-0.2
						l-0.5-1.8C165.7,91.1,165.8,91,165.8,90.9z"/>
					<path fill="#FFFFFF" d="M189.5,108.9c-0.4,0-0.8-0.1-1.2-0.3c-0.5-0.3-0.9-0.8-1.1-1.4l-0.4-1.4l-1.4,0.4
						c-1.2,0.3-2.5-0.4-2.8-1.6l-0.4-1.4l-1.4,0.4c-0.6,0.2-1.2,0.1-1.8-0.3c-0.6-0.3-1-0.8-1.1-1.4l-0.3-1.3l-1.3,0.3
						c-0.6,0.2-1.2,0.1-1.8-0.3c-0.6-0.3-1-0.8-1.2-1.4l-0.4-1.4l-1.4,0.4c-1.2,0.3-2.5-0.4-2.8-1.6l-0.4-1.4l-1.4,0.4
						c-0.6,0.2-1.2,0.1-1.7-0.2c-0.5-0.3-0.9-0.8-1.1-1.4l-0.5-1.8c-0.2-0.9,0.1-1.8,0.8-2.4h0l3.1-2.4c0.8-1.1,1.7-2.4,2.6-3.7
						l0.9-1.3c1-1.4,1.8-2.7,2.5-3.8l0.1-0.1c0.9-1.4,1.7-2.7,2.4-3.8c0,0,0-0.1,0.1-0.1c0.9-1.4,1.6-2.7,2.3-3.9l0.1-0.2
						c0.7-1.3,1.5-2.6,2.2-3.9c2-3.7,3.8-7.2,5.5-10.7l0.6-3.8c0.1-0.9,0.8-1.7,1.7-1.9l1.8-0.5c0.6-0.2,1.2-0.1,1.8,0.3
						c0.5,0.3,0.9,0.8,1.1,1.4l0.4,1.4l1.4-0.4c0.6-0.2,1.2-0.1,1.8,0.3c0.5,0.3,0.9,0.8,1.1,1.4l0.4,1.4l1.4-0.4
						c0.6-0.2,1.3-0.1,1.8,0.3c0.6,0.3,1,0.8,1.2,1.5l0.3,1.3l1.3-0.3c0.6-0.2,1.3-0.1,1.8,0.3c0.6,0.3,1,0.8,1.2,1.5l0.4,1.4
						l1.4-0.4c0.6-0.2,1.2-0.1,1.8,0.3s0.9,0.8,1.1,1.4l0.4,1.4l1.4-0.4c0.6-0.2,1.2-0.1,1.8,0.2c0.5,0.3,0.9,0.8,1.1,1.4l0.5,1.8
						c0.2,0.9-0.1,1.9-0.8,2.4l-3,2.3c-0.8,1.2-1.7,2.4-2.7,3.8L210,75l-0.8,1.1c-1.7,2.5-3.4,5.2-5,7.8c-0.9,1.4-1.6,2.7-2.4,4
						l-0.1,0.1c-0.7,1.3-1.5,2.6-2.2,4c-2,3.6-3.8,7.2-5.4,10.7l-0.6,3.8c-0.1,0.9-0.8,1.6-1.7,1.9l-1.8,0.5
						C189.9,108.8,189.7,108.9,189.5,108.9z M186.9,105.1c0.1,0,0.2,0,0.3,0.1c0.1,0.1,0.2,0.2,0.2,0.3l0.4,1.5
						c0.1,0.4,0.4,0.8,0.8,1c0.4,0.2,0.9,0.3,1.3,0.2l1.8-0.5c0.7-0.2,1.2-0.7,1.3-1.4l0.6-3.9c1.6-3.5,3.5-7.1,5.5-10.7
						c0.7-1.3,1.5-2.7,2.2-4l0-0.1c0.7-1.3,1.5-2.6,2.4-4c1.6-2.7,3.3-5.3,5.1-7.9l0.6-0.9l0,0l0.1-0.2c1-1.5,2-2.8,2.8-4l0.1-0.1
						l3.1-2.4c0.6-0.4,0.8-1.2,0.6-1.8l-0.5-1.8c-0.1-0.5-0.4-0.8-0.8-1.1c-0.4-0.2-0.9-0.3-1.3-0.2l-1.4,0.4
						c-0.3,0.1-0.6-0.1-0.7-0.4l-0.4-1.4c-0.2-0.9-1.2-1.5-2.1-1.3l-1.4,0.4c-0.1,0-0.3,0-0.4-0.1c-0.1-0.1-0.2-0.2-0.3-0.3
						l-0.4-1.4c-0.1-0.5-0.4-0.9-0.9-1.1c-0.4-0.3-0.9-0.3-1.4-0.2l-1.4,0.4c-0.1,0-0.2,0-0.2,0l-0.2-0.1c-0.1-0.1-0.1-0.1-0.2-0.3
						l-0.4-1.4c-0.1-0.5-0.4-0.9-0.9-1.1c-0.4-0.3-0.9-0.3-1.4-0.2l-1.4,0.4c-0.1,0-0.3,0-0.4-0.1c-0.1-0.1-0.2-0.2-0.3-0.3
						l-0.4-1.4c-0.1-0.5-0.4-0.8-0.8-1.1c-0.4-0.2-0.9-0.3-1.3-0.2l-1.4,0.4c-0.3,0.1-0.6-0.1-0.7-0.4l-0.4-1.4
						c-0.1-0.5-0.4-0.8-0.8-1.1c-0.4-0.2-0.9-0.3-1.3-0.2l-1.8,0.5c-0.7,0.2-1.2,0.7-1.3,1.4l-0.6,3.9c-1.6,3.5-3.5,7.1-5.5,10.8
						c-0.7,1.3-1.4,2.6-2.2,3.9l-0.1,0.1c0,0,0,0.1-0.1,0.1c-0.7,1.2-1.4,2.4-2.3,3.8c0,0.1-0.1,0.1-0.1,0.1
						c-0.7,1.2-1.5,2.4-2.4,3.8l-0.1,0.1c-0.8,1.2-1.6,2.4-2.5,3.8l-0.5,0.7h0l-0.3,0.5c-1,1.5-1.9,2.8-2.8,4l-0.1,0.1l-3.1,2.4
						c-0.5,0.4-0.8,1.1-0.6,1.8l0.5,1.8c0.1,0.4,0.4,0.8,0.8,1c0.4,0.2,0.9,0.3,1.3,0.2l1.5-0.4c0.3-0.1,0.6,0.1,0.6,0.4l0.4,1.5
						c0.2,0.9,1.2,1.5,2.1,1.2l1.5-0.4c0.3-0.1,0.6,0.1,0.6,0.4l0.4,1.5c0.1,0.5,0.4,0.9,0.9,1.1c0.4,0.3,0.9,0.3,1.3,0.2l1.6-0.4
						l0.2,0.1l0.1,0.1c0,0,0.1,0.1,0.1,0.2l0.4,1.5c0.1,0.5,0.4,0.9,0.9,1.1c0.4,0.3,0.9,0.3,1.3,0.2l1.5-0.4
						c0.3-0.1,0.6,0.1,0.6,0.4l0.4,1.5c0.2,0.9,1.2,1.5,2.1,1.2l1.5-0.4C186.8,105.1,186.9,105.1,186.9,105.1z M177.8,100.3
						L177.8,100.3C177.8,100.3,177.8,100.3,177.8,100.3z M189.5,107.1c-0.2,0-0.4-0.2-0.5-0.4l-0.4-1.5c-0.2-0.9-1.2-1.5-2.1-1.2
						l-1.5,0.4c-0.1,0-0.3,0-0.4-0.1c-0.1-0.1-0.2-0.2-0.2-0.3l-0.4-1.5c-0.1-0.3-0.2-0.5-0.4-0.7c-0.4-0.5-1.1-0.6-1.7-0.5
						l-1.5,0.4c-0.2,0-0.4,0-0.5-0.2c0,0-0.1-0.1-0.1-0.2l-0.4-1.5c-0.1-0.5-0.4-0.9-0.9-1.1c-0.4-0.3-0.9-0.3-1.3-0.2l-1.6,0.4
						l-0.1,0c-0.2,0-0.4-0.2-0.4-0.4l-0.4-1.5c-0.2-0.6-0.6-1.1-1.2-1.2c-0.3-0.1-0.6-0.1-0.9,0l-1.5,0.4c-0.1,0-0.3,0-0.4-0.1
						c-0.1-0.1-0.2-0.2-0.2-0.3l-0.4-1.5c-0.2-0.9-1.2-1.5-2.1-1.2l-1.5,0.4c-0.3,0.1-0.6-0.1-0.6-0.4l-0.5-1.8
						c-0.1-0.2,0-0.4,0.2-0.5l3.2-2.5l0.1-0.2c1-1.4,2.1-3,3.3-4.7L183,65.8c1.8-3.4,3.4-6.6,4.9-9.8l0.7-4.2c0-0.2,0.2-0.4,0.4-0.5
						l1.8-0.5c0.1,0,0.3,0,0.4,0.1c0.1,0.1,0.2,0.2,0.3,0.3l0.4,1.4c0.1,0.5,0.4,0.8,0.8,1.1c0.4,0.2,0.9,0.3,1.3,0.2l1.4-0.4
						c0.3-0.1,0.6,0.1,0.7,0.4l0.4,1.4c0.1,0.3,0.2,0.6,0.5,0.8c0.4,0.5,1.1,0.6,1.7,0.5l1.4-0.4c0.2,0,0.4,0,0.5,0.2
						c0.1,0.1,0.1,0.1,0.2,0.3l0.4,1.4c0.1,0.5,0.4,0.9,0.9,1.1c0.4,0.3,0.9,0.3,1.4,0.2l1.4-0.4c0.1,0,0.2,0,0.3,0
						c0.2,0.1,0.4,0.2,0.4,0.4l0.4,1.4c0.2,0.6,0.6,1.1,1.2,1.3c0.3,0.1,0.6,0.1,0.9,0l1.4-0.4c0.1,0,0.3,0,0.4,0.1
						c0.1,0.1,0.2,0.2,0.3,0.3l0.4,1.4c0.2,0.9,1.2,1.5,2.1,1.3l1.4-0.4c0.3-0.1,0.6,0.1,0.7,0.4l0.5,2l-0.1,0
						c0,0.1-0.1,0.3-0.2,0.3l-3.2,2.4l-0.1,0.2c-1,1.4-2.1,2.9-3.3,4.7l-10.7,17.6c-1.8,3.4-3.5,6.6-4.9,9.8l-0.7,4.2
						c0,0.2-0.2,0.4-0.4,0.4l-1.8,0.5C189.6,107.1,189.5,107.1,189.5,107.1z M186.9,103.3c1,0,2,0.7,2.2,1.7l0.4,1.4l1.8-0.5
						l0.7-4.3c1.5-3.2,3.1-6.4,5-9.9l10.7-17.6c1.3-1.9,2.3-3.4,3.4-4.8l0.2-0.2l3.2-2.5l-0.5-1.8l-1.4,0.4
						c-1.2,0.3-2.5-0.4-2.8-1.7l-0.4-1.4l-1.4,0.4c-0.4,0.1-0.8,0.1-1.2,0c-0.8-0.2-1.4-0.9-1.6-1.7l-0.4-1.4l-1.4,0.4
						c-0.6,0.2-1.3,0.1-1.8-0.3c-0.6-0.3-1-0.8-1.2-1.5l-0.4-1.4l-1.4,0.4c-0.8,0.2-1.7,0-2.3-0.6c-0.3-0.3-0.5-0.7-0.6-1l-0.4-1.4
						l-1.4,0.4c-0.6,0.2-1.2,0.1-1.8-0.3c-0.5-0.3-0.9-0.8-1.1-1.4l-0.4-1.4l-1.8,0.5l-0.7,4.3c-1.5,3.2-3.1,6.4-5,9.8l-10.7,17.6
						c-1.2,1.7-2.3,3.3-3.4,4.8l-0.2,0.2l-3.2,2.5l0.5,1.8l1.4-0.4c1.2-0.3,2.5,0.4,2.8,1.7l0.4,1.4l1.4-0.4c0.4-0.1,0.8-0.1,1.2,0
						c0.8,0.2,1.4,0.8,1.6,1.6l0.4,1.4l1.4-0.4c0.6-0.2,1.2-0.1,1.8,0.3c0.6,0.3,1,0.8,1.1,1.4l0.4,1.4l1.4-0.3
						c0.8-0.2,1.7,0,2.2,0.6c0.3,0.3,0.5,0.6,0.6,1l0.4,1.4l1.4-0.4C186.5,103.4,186.7,103.3,186.9,103.3z M184.9,103.8L184.9,103.8
						L184.9,103.8z M175.7,98.4L175.7,98.4C175.7,98.4,175.7,98.4,175.7,98.4z M171.1,95.7L171.1,95.7L171.1,95.7z"/>
				</g>
			</g>
			<g>
				<path fill="#FFFFFF" d="M194.9,71.2L194.9,71.2L194.9,71.2c-2.7-1.6-8.2,1.5-11.1,6.3c-1.1,1.8-1.5,3.7-1.1,5.5
					c0.4,1.6,1.4,3,2.9,3.9c0,0,0,0,0,0c1.5,0.8,3.2,1.1,4.8,0.6c1.8-0.5,3.2-1.7,4.3-3.6C197.5,79,197.6,72.7,194.9,71.2
					L194.9,71.2z M190,73.1c0.9-0.5,1.8-0.9,2.6-1c-1.7,1.6-3.9,4.6-5.5,7.3c-1.2,2-1.9,3.8-2.1,5.2c-0.4-0.6-0.7-1.2-0.9-1.9
					c-0.3-1.4,0-3,0.9-4.5C186.1,76.1,188,74.2,190,73.1L190,73.1z M187.9,86.3c0.9-0.7,1.8-1.7,2.8-3.2c0.2-0.3,0.1-0.7-0.2-0.9
					c-0.3-0.2-0.7-0.1-0.9,0.2c-1.9,2.9-3.1,3.3-3.4,3.3c-0.1-0.1-0.2-0.5,0-1.5c0.2-0.8,0.7-2.2,1.9-4.2c1.2-2,2.5-3.9,3.8-5.4
					c1-1.2,1.7-1.8,2.1-2.1c-0.2,1.1-1.1,4-3.1,7.6c-0.2,0.3-0.1,0.7,0.2,0.9c0,0,0,0,0,0c0.3,0.2,0.7,0.1,0.9-0.3
					c1.3-2.4,2.6-5.3,3.1-7.2c0.3,0.7,0.4,1.7,0.4,2.8c0,2.3-0.8,4.8-2,6.9c-0.9,1.5-2.1,2.6-3.5,3
					C189.4,86.4,188.6,86.4,187.9,86.3L187.9,86.3z M187.9,86.3"/>
				<path fill="#FFFFFF" d="M188.7,88c-1.1,0-2.2-0.3-3.2-0.8h0l-0.1-0.1c-1.5-0.9-2.5-2.3-2.9-4c-0.4-1.9-0.1-3.8,1.1-5.7
					c3-4.9,8.7-8.1,11.5-6.4l0,0c2.8,1.7,2.8,8.2-0.1,13.1c-1.1,1.9-2.6,3.2-4.5,3.7C189.9,87.9,189.3,88,188.7,88z M185.7,86.6
					L185.7,86.6c1.4,0.8,3.1,1,4.6,0.6c1.7-0.5,3.1-1.7,4.1-3.4c2.6-4.6,2.8-10.9,0.3-12.4l0,0c-2.6-1.5-7.9,1.6-10.7,6.2
					c-1.1,1.7-1.4,3.6-1,5.3C183.4,84.4,184.3,85.8,185.7,86.6z M188.7,86.7c-0.3,0-0.5,0-0.8-0.1l-0.7-0.1l0.5-0.4
					c0.8-0.6,1.8-1.7,2.7-3.1c0.1-0.2,0.1-0.4-0.1-0.5c-0.2-0.1-0.4-0.1-0.5,0.1c-1.9,2.8-3.2,3.5-3.6,3.4l-0.1,0l-0.1-0.1
					c-0.1-0.1-0.3-0.5,0-1.7c0.2-0.8,0.7-2.2,1.9-4.3c1.2-2,2.5-3.9,3.8-5.5c1-1.2,1.7-1.8,2.1-2.1l0.6-0.4l-0.1,0.7
					c-0.2,1.3-1.2,4.3-3.1,7.7c-0.1,0.2,0,0.4,0.1,0.5c0.1,0.1,0.2,0.1,0.3,0c0.1,0,0.2-0.1,0.2-0.2c1.4-2.6,2.6-5.4,3-7.1l0.2-0.9
					l0.3,0.9c0.3,0.8,0.4,1.8,0.4,2.9c-0.1,2.3-0.8,4.9-2,7c-0.9,1.6-2.2,2.7-3.7,3.1C189.7,86.6,189.2,86.7,188.7,86.7z
					 M188.7,86.1c0.4,0,0.9-0.1,1.3-0.2c1.3-0.4,2.5-1.4,3.3-2.8c1.2-2,1.9-4.5,1.9-6.7c0-0.6,0-1.1-0.1-1.7c-0.6,1.8-1.6,4-2.8,6.2
					c-0.1,0.2-0.3,0.4-0.6,0.5c-0.2,0.1-0.5,0-0.7-0.1c-0.5-0.3-0.6-0.8-0.4-1.3c1.7-3.1,2.5-5.4,2.9-6.7c-0.3,0.3-0.8,0.8-1.4,1.5
					c-1.3,1.5-2.6,3.4-3.8,5.4c-1.2,2-1.6,3.3-1.8,4.1c-0.1,0.5-0.1,0.9-0.1,1.1c0.4-0.2,1.4-0.8,2.9-3.1c0.3-0.4,0.9-0.6,1.3-0.3
					c0.4,0.3,0.6,0.9,0.3,1.3C190.2,84.5,189.4,85.4,188.7,86.1z M185.1,85.2l-0.4-0.5c-0.5-0.6-0.8-1.3-1-2c-0.4-1.5,0-3.1,0.9-4.7
					c1.3-2.1,3.2-4,5.2-5.1l0,0c1-0.6,1.9-0.9,2.7-1.1l0.9-0.2l-0.7,0.6c-1.6,1.5-3.8,4.4-5.5,7.2c-1.2,2-1.9,3.7-2.1,5L185.1,85.2z
					 M191.6,72.6c-0.5,0.2-1,0.4-1.5,0.7c-1.9,1.1-3.7,2.9-5,4.9c-0.9,1.5-1.2,2.9-0.9,4.3c0.1,0.4,0.3,0.8,0.5,1.2
					c0.3-1.3,1-2.8,2-4.6C188.3,76.8,190.1,74.3,191.6,72.6z"/>
			</g>
		</g>
		<g>
			<g>
				<g>
					<path fill="#FFFFFF" d="M168.5,66.8c-2.3-1.4-4.5-2.7-6.8-4.1c-1.2-0.7-2.3,1.2-1.1,1.9c2.3,1.4,4.5,2.7,6.8,4.1
						C168.7,69.4,169.8,67.5,168.5,66.8L168.5,66.8z"/>
				</g>
			</g>
			<g>
				<g>
					<path fill="#FFFFFF" d="M176.1,59.8c-1-2-2-3.9-3-5.9c-0.6-1.3-2.5-0.1-1.9,1.1c1,2,2,3.9,3,5.9
						C174.8,62.2,176.7,61.1,176.1,59.8L176.1,59.8z"/>
				</g>
			</g>
			<g>
				<g>
					<path fill="#FFFFFF" d="M165.9,75.8c-2.5,0.4-4.9,0.7-7.4,1.1c-1.4,0.2-0.8,2.3,0.6,2.1c2.5-0.4,4.9-0.7,7.4-1.1
						C167.8,77.7,167.2,75.6,165.9,75.8L165.9,75.8z"/>
				</g>
			</g>
		</g>
		<g>
			<g>
				<g>
					<path fill="#FFFFFF" d="M211.4,91.8c2.2,1.5,4.4,3,6.6,4.5c1.2,0.8,2.3-1.1,1.1-1.9c-2.2-1.5-4.4-3-6.6-4.5
						C211.4,89.1,210.3,91,211.4,91.8L211.4,91.8z"/>
				</g>
			</g>
			<g>
				<g>
					<path fill="#FFFFFF" d="M203.5,98.3c0.9,2,1.8,4,2.7,6c0.6,1.3,2.5,0.2,1.9-1.1c-0.9-2-1.8-4-2.7-6
						C204.8,95.9,202.9,97,203.5,98.3L203.5,98.3z"/>
				</g>
			</g>
			<g>
				<g>
					<path fill="#FFFFFF" d="M214.4,83c2.5-0.2,5-0.4,7.4-0.7c1.4-0.1,1.4-2.3,0-2.2c-2.5,0.2-5,0.4-7.4,0.7
						C213,80.9,213,83.1,214.4,83L214.4,83z"/>
				</g>
			</g>
		</g>
		<g>
			<path fill="#FFFFFF" d="M276.4,267.7h-37.1v-15.9l-0.3-30.4c-0.4-0.8-1.2-1.4-2.3-1.4h-90c-1.6,0-2.6,1.1-2.6,2.6v47.7
				c0,1.6,1.1,2.6,2.6,2.6h129.7c1.6,0,2.6-1.1,2.6-2.6C279,268.8,278,267.7,276.4,267.7z M234,267.7h-84.7v-42.4H234V267.7z"/>
		</g>
	</g>
	<circle fill="none" stroke="#FFFFFF" stroke-width="4.7922" stroke-miterlimit="10" cx="188.5" cy="188.5" r="186.1"/>
</g>
</svg>
