<?xml version="1.0" encoding="utf-8"?>
<!-- Generator: Adobe Illustrator 18.1.1, SVG Export Plug-In . SVG Version: 6.00 Build 0)  -->
<svg version="1.1" id="Layer_1" xmlns="http://www.w3.org/2000/svg" xmlns:xlink="http://www.w3.org/1999/xlink" x="0px" y="0px"
	 width="377px" height="377px" viewBox="0 0 377 377" enable-background="new 0 0 377 377" xml:space="preserve">
<g>
	<g>
		<g>
			<g>
				<path fill="#FFFFFF" d="M276.7,261.7h-3.2v-84.4c7.3-4.7,12.2-12.9,12.2-22.2c0-0.5-0.1-1-0.4-1.4l-22.6-39.5
					c-1.6-2.8-4.6-4.5-7.8-4.5H122.1c-3.2,0-6.2,1.7-7.8,4.5l-22.6,39.5c-0.2,0.4-0.4,0.9-0.4,1.4c0,9.3,4.9,17.5,12.2,22.2v84.4
					h-3.2c-1.6,0-2.8,1.3-2.8,2.8c0,1.6,1.3,2.8,2.8,2.8h176.4c1.6,0,2.8-1.3,2.8-2.8C279.5,263,278.3,261.7,276.7,261.7
					L276.7,261.7z M97.3,157.9h9.1c1.6,0,2.8-1.3,2.8-2.8c0-1.6-1.3-2.8-2.8-2.8h-7.3l20.1-35.3c0.6-1,1.7-1.6,2.8-1.6h132.8
					c1.2,0,2.2,0.6,2.8,1.6l20.1,35.3h-7.3c-1.6,0-2.8,1.3-2.8,2.8c0,1.6,1.3,2.8,2.8,2.8h9.1c-1.4,10.1-10.1,17.9-20.5,17.9
					c-10.5,0-19.1-7.8-20.5-17.9h19.8c1.6,0,2.8-1.3,2.8-2.8c0-1.6-1.3-2.8-2.8-2.8H118.6c-1.6,0-2.8,1.3-2.8,2.8
					c0,1.6,1.3,2.8,2.8,2.8h19.8c-1.4,10.1-10.1,17.9-20.5,17.9C107.3,175.8,98.7,168,97.3,157.9L97.3,157.9z M232.6,157.9
					c-1.4,10.1-10.1,17.9-20.5,17.9s-19.1-7.8-20.5-17.9H232.6z M185.5,157.9c-1.4,10.1-10.1,17.9-20.5,17.9
					c-10.5,0-19.1-7.8-20.5-17.9H185.5z M252.6,261.7h-30.8v-9.5h30.8V261.7z M252.6,246.5h-30.8v-52.1h30.8V246.5z M267.8,261.7
					h-9.5v-70.1c0-1.6-1.3-2.8-2.8-2.8h-36.5c-1.6,0-2.8,1.3-2.8,2.8v70.1H109.2V180c2.7,0.9,5.6,1.4,8.6,1.4
					c10.3,0,19.2-5.9,23.6-14.5c4.4,8.6,13.3,14.5,23.6,14.5c10.3,0,19.2-5.9,23.6-14.5c4.4,8.6,13.3,14.5,23.6,14.5
					c10.3,0,19.2-5.9,23.6-14.5c4.4,8.6,13.3,14.5,23.6,14.5c3,0,5.9-0.5,8.6-1.4V261.7z M267.8,261.7"/>
			</g>
			<g>
				<path fill="#FFFFFF" d="M203.7,188.7h-82.1c-1.6,0-2.8,1.3-2.8,2.8v57.8c0,1.6,1.3,2.8,2.8,2.8h82.1c1.6,0,2.8-1.3,2.8-2.8
					v-57.8C206.5,190,205.3,188.7,203.7,188.7L203.7,188.7z M200.9,246.5h-76.4v-52.1h76.4V246.5z M200.9,246.5"/>
			</g>
		</g>
		<g>
			<g>
				<path fill="#FFFFFF" d="M167.3,221.1c-0.1,4.8-1.7,7.3-4.7,7.3c-3,0-4.6-2.6-4.7-7.5V217h-7.8l0,4.9l0,0.2
					c0.4,9.2,4.9,14.5,12.3,14.5c7.5,0,12-5.3,12.5-14.5l0.1-5.1h-7.8L167.3,221.1z"/>
			</g>
			<g>
				<rect x="150.2" y="204.2" fill="#FFFFFF" width="7.8" height="7"/>
			</g>
			<g>
				<rect x="167.3" y="204.2" fill="#FFFFFF" width="7.8" height="7"/>
			</g>
		</g>
	</g>
	<circle fill="none" stroke="#FFFFFF" stroke-width="4.7922" stroke-miterlimit="10" cx="188.5" cy="188.5" r="186.1"/>
</g>
</svg>
