<?xml version="1.0" encoding="utf-8"?>
<!-- Generator: Adobe Illustrator 18.1.1, SVG Export Plug-In . SVG Version: 6.00 Build 0)  -->
<svg version="1.1" id="Layer_1" xmlns="http://www.w3.org/2000/svg" xmlns:xlink="http://www.w3.org/1999/xlink" x="0px" y="0px"
	 width="377px" height="377px" viewBox="-36 37 377 377" enable-background="new -36 37 377 377" xml:space="preserve">
<g>
	<circle fill="none" stroke="#FFFFFF" stroke-width="4.792" stroke-miterlimit="10" cx="152.5" cy="225.5" r="186.1"/>
	<g>
		<path fill="#FFFFFF" d="M268.3,299.3H37.6c-2.1,0-3.7,1.7-3.7,3.7c0,2,1.7,3.7,3.7,3.7h230.7c2.1,0,3.7-1.7,3.7-3.7
			C272.1,301,270.4,299.3,268.3,299.3L268.3,299.3z M268.3,299.3"/>
		<g>
			<path fill="#FFFFFF" d="M117.6,239.7H67.5c-4.2,0-7.5,3.4-7.5,7.5v50.1c0,4.2,3.4,7.5,7.5,7.5h50.1c4.2,0,7.5-3.4,7.5-7.5v-50.1
				C125.1,243.1,121.8,239.7,117.6,239.7L117.6,239.7z M120.1,297.4c0,1.4-1.1,2.5-2.5,2.5H67.5c-1.4,0-2.5-1.1-2.5-2.5v-50.1
				c0-1.4,1.1-2.5,2.5-2.5h50.1c1.4,0,2.5,1.1,2.5,2.5V297.4z M120.1,297.4"/>
			<g>
				<g>
					<path fill="#FFFFFF" d="M96.5,273.2c-0.1,4-1.4,6.1-3.9,6.1c-2.5,0-3.8-2.2-3.9-6.3v-3.2h-6.5l0,4.1l0,0.2
						c0.3,7.7,4.1,12.1,10.3,12.1c6.2,0,10-4.4,10.4-12.1l0.1-4.3h-6.5L96.5,273.2z"/>
				</g>
				<g>
					<rect x="82.1" y="259.1" fill="#FFFFFF" width="6.5" height="5.9"/>
				</g>
				<g>
					<rect x="96.5" y="259.1" fill="#FFFFFF" width="6.5" height="5.9"/>
				</g>
			</g>
		</g>
		<g>
			<path fill="#FFFFFF" d="M177.8,239.7h-50.1c-4.2,0-7.5,3.4-7.5,7.5v50.1c0,4.2,3.4,7.5,7.5,7.5h50.1c4.2,0,7.5-3.4,7.5-7.5v-50.1
				C185.3,243.1,182,239.7,177.8,239.7L177.8,239.7z M180.3,297.4c0,1.4-1.1,2.5-2.5,2.5h-50.1c-1.4,0-2.5-1.1-2.5-2.5v-50.1
				c0-1.4,1.1-2.5,2.5-2.5h50.1c1.4,0,2.5,1.1,2.5,2.5V297.4z M180.3,297.4"/>
			<g>
				<g>
					<path fill="#FFFFFF" d="M156.6,273.2c-0.1,4-1.4,6.1-3.9,6.1c-2.5,0-3.8-2.2-3.9-6.3v-3.2h-6.5l0,4.1l0,0.2
						c0.3,7.7,4.1,12.1,10.3,12.1c6.2,0,10-4.4,10.4-12.1l0.1-4.3h-6.5L156.6,273.2z"/>
				</g>
				<g>
					<rect x="142.3" y="259.1" fill="#FFFFFF" width="6.5" height="5.9"/>
				</g>
				<g>
					<rect x="156.6" y="259.1" fill="#FFFFFF" width="6.5" height="5.9"/>
				</g>
			</g>
		</g>
		<g>
			<path fill="#FFFFFF" d="M238.3,239.7h-50.1c-4.2,0-7.5,3.4-7.5,7.5v50.1c0,4.2,3.4,7.5,7.5,7.5h50.1c4.2,0,7.5-3.4,7.5-7.5v-50.1
				C245.8,243.1,242.4,239.7,238.3,239.7L238.3,239.7z M240.8,297.4c0,1.4-1.1,2.5-2.5,2.5h-50.1c-1.4,0-2.5-1.1-2.5-2.5v-50.1
				c0-1.4,1.1-2.5,2.5-2.5h50.1c1.4,0,2.5,1.1,2.5,2.5V297.4z M240.8,297.4"/>
			<g>
				<g>
					<path fill="#FFFFFF" d="M217.1,273.2c-0.1,4-1.4,6.1-3.9,6.1c-2.5,0-3.8-2.2-3.9-6.3v-3.2h-6.5l0,4.1l0,0.2
						c0.3,7.7,4.1,12.1,10.3,12.1c6.2,0,10-4.4,10.4-12.1l0.1-4.3h-6.5L217.1,273.2z"/>
				</g>
				<g>
					<rect x="202.8" y="259.1" fill="#FFFFFF" width="6.5" height="5.9"/>
				</g>
				<g>
					<rect x="217.1" y="259.1" fill="#FFFFFF" width="6.5" height="5.9"/>
				</g>
			</g>
		</g>
		<g>
			<path fill="#FFFFFF" d="M147.4,179.2H97.2c-4.2,0-7.5,3.4-7.5,7.5v50.1c0,4.2,3.4,7.5,7.5,7.5h50.1c4.2,0,7.5-3.4,7.5-7.5v-50.1
				C154.9,182.6,151.5,179.2,147.4,179.2L147.4,179.2z M149.9,236.9c0,1.4-1.1,2.5-2.5,2.5H97.2c-1.4,0-2.5-1.1-2.5-2.5v-50.1
				c0-1.4,1.1-2.5,2.5-2.5h50.1c1.4,0,2.5,1.1,2.5,2.5V236.9z M149.9,236.9"/>
			<g>
				<g>
					<path fill="#FFFFFF" d="M126.2,212.7c-0.1,4-1.4,6.1-3.9,6.1c-2.5,0-3.8-2.2-3.9-6.3v-3.2h-6.5l0,4.1l0,0.2
						c0.3,7.7,4.1,12.1,10.3,12.1c6.2,0,10-4.4,10.4-12.1l0.1-4.3h-6.5L126.2,212.7z"/>
				</g>
				<g>
					<rect x="111.8" y="198.6" fill="#FFFFFF" width="6.5" height="5.9"/>
				</g>
				<g>
					<rect x="126.2" y="198.6" fill="#FFFFFF" width="6.5" height="5.9"/>
				</g>
			</g>
		</g>
		<g>
			<path fill="#FFFFFF" d="M207.8,179.2h-50.1c-4.2,0-7.5,3.4-7.5,7.5v50.1c0,4.2,3.4,7.5,7.5,7.5h50.1c4.2,0,7.5-3.4,7.5-7.5v-50.1
				C215.4,182.6,212,179.2,207.8,179.2L207.8,179.2z M210.3,236.9c0,1.4-1.1,2.5-2.5,2.5h-50.1c-1.4,0-2.5-1.1-2.5-2.5v-50.1
				c0-1.4,1.1-2.5,2.5-2.5h50.1c1.4,0,2.5,1.1,2.5,2.5V236.9z M210.3,236.9"/>
			<g>
				<g>
					<path fill="#FFFFFF" d="M186.7,212.7c-0.1,4-1.4,6.1-3.9,6.1c-2.5,0-3.8-2.2-3.9-6.3v-3.2h-6.5l0,4.1l0,0.2
						c0.3,7.7,4.1,12.1,10.3,12.1c6.2,0,10-4.4,10.4-12.1l0.1-4.3h-6.5L186.7,212.7z"/>
				</g>
				<g>
					<rect x="172.3" y="198.6" fill="#FFFFFF" width="6.5" height="5.9"/>
				</g>
				<g>
					<rect x="186.7" y="198.6" fill="#FFFFFF" width="6.5" height="5.9"/>
				</g>
			</g>
		</g>
		<g>
			<path fill="#FFFFFF" d="M179.6,118.8h-50.1c-4.2,0-7.5,3.4-7.5,7.5v50.1c0,4.2,3.4,7.5,7.5,7.5h50.1c4.2,0,7.5-3.4,7.5-7.5v-50.1
				C187.2,122.1,183.8,118.8,179.6,118.8L179.6,118.8z M182.2,176.4c0,1.4-1.1,2.5-2.5,2.5h-50.1c-1.4,0-2.5-1.1-2.5-2.5v-50.1
				c0-1.4,1.1-2.5,2.5-2.5h50.1c1.4,0,2.5,1.1,2.5,2.5V176.4z M182.2,176.4"/>
			<g>
				<g>
					<path fill="#FFFFFF" d="M158.5,152.2c-0.1,4-1.4,6.1-3.9,6.1c-2.5,0-3.8-2.2-3.9-6.3v-3.2h-6.5l0,4.1l0,0.2
						c0.3,7.7,4.1,12.1,10.3,12.1c6.2,0,10-4.4,10.4-12.1l0.1-4.3h-6.5L158.5,152.2z"/>
				</g>
				<g>
					<rect x="144.1" y="138.1" fill="#FFFFFF" width="6.5" height="5.9"/>
				</g>
				<g>
					<rect x="158.5" y="138.1" fill="#FFFFFF" width="6.5" height="5.9"/>
				</g>
			</g>
		</g>
	</g>
</g>
</svg>
