<?xml version="1.0" encoding="utf-8"?>
<!-- Generator: Adobe Illustrator 18.1.1, SVG Export Plug-In . SVG Version: 6.00 Build 0)  -->
<svg version="1.1" id="Layer_1" xmlns="http://www.w3.org/2000/svg" xmlns:xlink="http://www.w3.org/1999/xlink" x="0px" y="0px"
	 width="500px" height="100px" viewBox="0 0 500 100" enable-background="new 0 0 500 100" xml:space="preserve">
<g>
	<path fill="#FFFFFF" d="M54.9,56c0.3-0.4,0.5-0.6,0.6-0.9c1.9-5.6,3.9-11.3,5.7-16.9c2.2-6.7,4.1-13.5,6.4-20.2
		c1-2.8,2.5-5.5,3.8-8.1c0.4-0.8,1.2-1.6,2-2c2.8-1.6,5.7-3.1,8.7-4.6c1.8-0.9,3.6-0.4,5.4,0.2c1.2,0.4,2.4,0.8,3.6,0.8
		c4.4,0.1,7.7,1.8,9,6.1c0.6,1.9,0.4,4.1,0.5,6.2c0.2,6.5,0.3,13,0.5,19.6c0.1,3.9,0.1,7.8,0.5,11.7c0.4,3.9,1.1,7.8,1.7,11.7
		c0.2,1.2,0.4,2.5,0.4,3.8c0.1,3.3-0.1,6.7,0,10c0.1,5,0.3,10,0.6,15c0.2,2.8-1.3,4.7-3.5,6.1c-3.1,2.1-6.7,2.2-10.2,1.7
		c-1.3-0.2-2.5-0.3-3.7-0.6c-2.7-0.6-4.1-2.7-4.7-5.1c-0.7-2.9-1.1-5.9-1.2-8.9c-0.4-9-0.7-18.1-1.1-27.1c0-1.2-0.2-2.4-0.6-3.6
		c-0.2,0.5-0.5,1-0.7,1.5c-2.4,6.1-4.6,12.3-7.1,18.3c-1.4,3.4-2.9,7.1-5.2,9.9c-2,2.5-4.5,4.9-8.6,4.9c-4.4,0-8.3-0.9-11.4-4.1
		c-0.7-0.7-1.3-1.4-1.7-2.3c-2.5-5.5-4.8-11-7.2-16.5c-0.1-0.3-0.3-0.6-0.7-1.3c-0.3,5-0.5,9.6-0.7,14.2c-0.2,3.5-0.4,7-0.5,10.5
		c0,1.1,0.1,2.2,0.3,3.3c0.6,2.8-2.3,7-5.6,7.3c-3.1,0.3-6.3,0-9.5-0.1c-0.7,0-1.4-0.1-2.1-0.2C14.9,96,14.1,95.2,14,91
		c-0.1-4.1,0.5-8.2,0.6-12.4c0.1-4.3-0.1-8.6-0.1-12.8c-0.1-4.7-0.2-9.4-0.2-14.1c0.1-12.9,0.4-25.8,0.5-38.7c0-1.2,0-2.3,0.1-3.5
		C15,5.9,16.8,4,20.3,4c6.2-0.1,12.1,1.3,17.8,3.8c3.4,1.5,4.7,4.5,5.6,7.7c1.8,6.4,3.3,12.9,5,19.3c1.8,6.6,3.6,13.2,5.5,19.8
		C54.3,55,54.6,55.4,54.9,56z"/>
	<path fill="#FFFFFF" d="M343.5,94.1c1.2-1.5-1.2-1.5-0.9-2.5c0.1-0.7,0.2-1.4,0.3-2.1c0.1-0.6,0-1.3,0.2-1.9c0.8-2.7,1.6-5.4,2.5-8
		c2.2-6,4.5-11.9,6.6-18c1.7-5.1,3.1-10.3,4.7-15.4c0.4-1.4,0.7-2.8,1.4-4c2.1-4.3,3.2-9,4.6-13.6c0.3-1,0.7-1.9,0.3-3.2
		c-0.3-1,0.6-2.4,0.9-3.5c1-3.2,2.1-6.4,3-9.7c0.7-2.5,2.4-4.3,3.9-6.2c0.3-0.3,0.8-0.6,1.2-0.7c5.1-1.9,10.4-2.5,15.7-1.3
		c2,0.5,3.4,1.6,4.1,3.6c2,5.5,4.1,11,6.1,16.5c3.2,8.9,6.5,17.8,9.5,26.8c2.6,7.5,4.7,15.2,7.2,22.8c1.5,4.5,3.5,8.9,5.2,13.4
		c0.4,1,0.7,2.1,0.8,3.2c0.4,3.4-1.5,5.7-4.8,5c-3-0.6-5.8-0.1-8.6-0.2c-1.5-0.1-3.1-0.3-4.5-0.8c-0.8-0.3-1.4-1.3-2-2.1
		c-0.3-0.4-0.4-1.1-0.3-1.7c0.3-5.1-2.6-9.3-4.4-13.7c-0.2-0.5-1.2-1-1.9-1c-3.7-0.1-7.4,0-11.1-0.1c-4.5-0.2-9-0.6-13.4-1
		c-1-0.1-1.2,0.4-1.3,1.1c-0.8,3.1-1.4,6.3-2.4,9.4c-0.8,2.5-1.8,5-2.9,7.3c-1.3,2.7-3.8,3.5-6.6,3.4c-1.7-0.1-3.5-0.3-5.2-0.2
		C348.7,96,346,95.3,343.5,94.1z M389.3,56.3c-2.6-8.2-5.1-16-7.7-24.1c-2.4,8.1-4.8,15.8-7.1,23.6
		C379.3,55.9,384.1,56.1,389.3,56.3z"/>
	<path fill="#FFFFFF" d="M239.8,38c4,0,7.9-0.1,11.9,0c1.5,0,3,0.4,4.5,0.8c0.4,0.1,0.8,0.8,0.8,1.2c-0.1,4.7-0.2,9.4-0.3,14.1
		c0,1.2-0.5,2.1-2,1.7c-0.4-0.1-0.8,0-1.2,0.1c-0.7,0.2-1.4,0.6-2.1,0.6c-6.7-0.2-13.4-0.4-20.2-0.6c-0.9,0-1.8-0.1-2.7,0
		c-1.3,0.1-2,0.6-2,2.1c0,2.7-0.2,5.4,0,8.1c0.2,2.7,0.8,5.3,1.4,7.9c0.1,0.4,1.1,0.9,1.7,0.9c3.4,0.1,6.9,0,10.3,0.1
		c4,0.1,8,0.4,12,0.5c1.6,0.1,3.3,0,4.9,0c1.3,0,1.9,0.5,1.9,1.9c0,5.1,0.1,10.2,0.2,15.2c0,1.2-0.3,1.7-1.6,1.7
		c-5.5-0.1-11-0.2-16.5-0.3c-8.2-0.1-16.5,0-24.7-0.1c-3.1-0.1-6.3-0.6-9.4-0.9c-1.5-0.1-1.9-1.1-2-2.4c-0.1-3.6-0.2-7.3-0.3-10.9
		c-0.1-3-0.4-5.9-0.6-8.8c-0.1-2,0-4.1-0.1-6.1c-0.1-3-0.5-5.9-0.5-8.9c-0.1-3.9,0-7.7,0-11.6c0-0.4,0.2-0.8,0-1.1c-1.5-3-0.2-6,0-9
		c0-0.3,0.1-0.5,0.1-0.8c-0.1-5.3-0.1-10.5-0.2-15.8c0-1.1,0.2-2.2,0.2-3.3c0-1.5,0.1-3,0-4.5c0-1.3,1.7-3.5,2.9-3.5
		c13.7-0.2,27.5-0.5,41.2-0.5c3.5,0,6.9,0.6,10.4,1c0.5,0.1,1.2,0.9,1.2,1.3c0,4.8-0.1,9.6-0.1,14.4c0,0.9-0.5,1.3-1.4,1.3
		c-4.1-0.1-8.1,0-12.2-0.1c-4.6-0.2-9.3-0.5-13.9-0.7c-1.1-0.1-2.2,0.1-3.3,0.2c-2.8,0.2-3.4,0.9-3.4,3.6c-0.1,3.1,0,6.1-0.1,9.2
		c0,1,0.2,1.6,1.3,1.6c0.9,0,1.8,0.2,2.7,0.2C232.4,38,236.1,38,239.8,38C239.8,38,239.8,38,239.8,38z"/>
	<path fill="#FFFFFF" d="M454.9,95.6c-5.4,0-10.4-0.8-14.7-4.3c-0.4-0.4-0.9-0.7-1.3-1.2c-4.7-5.2-7.2-11.3-7-18.5
		c0-1.4-0.1-2.8-0.2-4.3c-0.1-1.1,0.6-1.9,1.7-1.9c4.1,0,8.2,0,12.3,0c0.7,0,1.5,0.1,2.2,0.2c2.2,0.4,2.5,1,2.6,3.2
		c0.2,2.5,0,5,1.8,7.2c1.1,1.3,2.2,1.6,3.7,1.3c0.6-0.1,1.1-0.4,1.6-0.6c3.5-1.3,4.4-3.1,4-6.9c-0.2-1.5,0-3.1,0.1-4.6
		c0.2-3.3-1.2-5.7-4-7.2c-1.5-0.9-3.2-1.7-4.9-2.2c-5.3-1.4-10-3.8-14.5-6.9c-6.1-4.2-9.7-9.6-10.3-17.1c-0.3-4.8-0.1-9.4,1.4-13.9
		c3.4-10.3,11-15.3,21.7-15.2c6,0,12,1.2,17.9,2.2c2.7,0.5,5.3,1.6,7.7,2.9c1.4,0.7,2.5,2.3,3.3,3.7c2.8,5.1,3.2,10.7,2.2,16.3
		c-0.3,1.8-2.2,2.4-3.6,2.7c-3.8,1.1-7.7,1.7-11.6,1.3c-2.1-0.2-2.1-0.5-2.4-2.6c-0.3-2.2-0.6-4.4-1.3-6.5c-0.9-2.5-3-3.9-5.5-4.9
		c-2.3-0.9-4.4-0.9-6.4,0.5c-2.4,1.7-4.2,3.9-4.9,6.8c-0.5,2,0.4,3.7,1.8,5.2c2.8,2.8,6.5,4.2,10.1,5.9c5,2.4,10.3,4.4,15,7.4
		c3.8,2.4,7,5.8,10,9.1c3,3.3,2.5,7.6,2,11.7c0,0.3-0.2,0.6-0.2,0.9c1.1,5.5-1.4,10.1-3.4,14.8c-2.6,5.9-6.8,10.4-12.7,12.9
		c-2.5,1.1-5.4,1.4-8.2,1.8C459.1,95.4,457,95.4,454.9,95.6z"/>
	<path fill="#FFFFFF" d="M272.7,50.7c0.3-7.6,0-13.9,2-20c3.2-9.8,8.4-18.3,16.9-24.5c4.3-3.1,9.1-3.1,14.1-3.1c1.6,0,3,1.4,4.8,0.7
		c0.5-0.2,1.4,1,2.2,1.2c3,0.7,5.7,1.8,8.5,3.1c3.1,1.4,5.2,3.9,6.7,6.9c0.5,1,0.8,2,2.3,1.7c0.3,0,0.9,0.5,1,1
		c0.5,1.2,0.8,2.5,1.3,3.7c0.4,0.9,0.8,1.8,1.3,2.7c0.8,1.3,0.5,3.1-0.8,4c-3.9,2.6-7.8,5.3-11.7,7.9c-2.7,1.8-4.3,1.5-6.2-1.3
		c-0.9-1.3-1.7-2.7-2.6-4c-1.9-3-4.6-4.8-7.9-5.9c-2.9-1-7.7,2.8-7.2,5.6c0.1,0.6-0.2,1.2-0.4,1.8c-2.1,5.9-3.1,12.1-3.4,18.3
		c-0.2,3.3,0.5,6.6,0.7,9.9c0.1,2.4,0.3,4.8,0.3,7.1c-0.1,3.8,1.7,6.9,3.7,9.9c2,2.9,7.5,2.1,9.3-0.2c2-2.7,4-5.3,6.1-7.9
		c1.4-1.8,2.4-2,4.5-1.1c4.3,2,7.8,5.1,11.3,8.1c1.4,1.2,1.6,2.1,0.8,3.9c-0.1,0.2-0.2,0.4-0.3,0.6c-2,2.9-3.8,5.8-5.9,8.6
		c-2.9,3.8-7.1,5.8-11.6,6.7c-4.4,0.9-9,1.4-13.5,1.2c-2.7-0.1-5.3-1.8-8-2.8c-1.1-0.4-2.1-1-3.2-1.2c-1.4-0.3-2.5-0.9-3.5-2
		c-5.6-6.2-8.6-13.4-9.4-21.7c-0.3-3.4-0.9-6.7-1.3-10C273.1,56.1,272.9,52.8,272.7,50.7z"/>
	<g>
		<path fill="#FFFFFF" d="M163.1,56.8c1-0.1,2.3-0.3,3.7-0.4c2.7-0.2,5.5-0.3,8.2-0.4c2.4-0.1,4.7-0.2,7.1-0.1
			c1.8,0,3.3,1.2,3.3,2.3c0,1.9,0.2,3.8,0.2,5.6c0,1.1-0.2,2.1-0.3,3.2c-0.1,2.9-0.2,5.8-0.3,8.7c-0.2,3.7-1.7,7.2-5.4,10.2
			c-1.6,1.3-2.8,2.9-4.3,4.3c-2.1,1.9-5,3.3-8.4,4.2c-4.6,1.2-9.4,1.5-14.3,1.5c-7,0-13.4-1.3-19.6-3.3c-1.5-0.5-2.8-1.2-4-2
			c-4.6-3.1-7.1-6.7-7.9-11c-0.6-3.5-1-6.9-1.1-10.4c-0.2-3.1,0.3-6.2,0.3-9.3c0-0.9,0.2-1.7,0.3-2.6c0.2-0.9,2.1-2,3.6-2
			c1.7,0,3.4-0.1,5.1,0c3.9,0,7.7,0.1,11.6,0.1c1,0,1.6,0.1,1.6,0.8c0.1,1.3,0.2,2.5,0.2,3.8c0,1.4,0,2.7,0.1,4.1
			c0.2,3.4,0,2.6,0.3,6.1c0.1,1.5,0,3.1,0.8,4.5c0.8,1.4,2.2,3.3,3.5,4.6c0.3,0.3,4.4,1.1,5,1.1c3.2-0.1,3.6-0.3,5.8-2.2
			c2.8-2.4,4.7-5.5,5-8.3c0.5-3.9-0.1-4.6,0.2-8.5C163.4,60,163.2,58.6,163.1,56.8z"/>
		<path fill="#FFFFFF" d="M185.7,7.5c0,5-0.1,9.7,0,14.5c0.1,1.9-0.1,3.6-1.8,4.7c-0.4,0.2-0.8,0.5-1.3,0.5
			c-5.5,0.1-11.1,0.2-16.6,0.3c-2.9,0-3.1-0.3-3.1-3.1c0-3.8-0.3-7.6-0.2-11.4c0.1-5.4,0.5-5.4,5.3-5.4c4.5,0,9.1-0.4,13.6-0.5
			C183,6.9,184.3,7.3,185.7,7.5z"/>
		<path fill="#FFFFFF" d="M130.1,7.3c3,0.3,6.7,0.7,10.4,1.1c0.4,0,1,0.6,1,0.9c0.3,5.3,0.6,10.6,0.6,15.8c0,0.5-1.1,1.5-1.7,1.5
			c-6.5-0.1-13-0.3-19.5-0.6c-0.3,0-0.8-0.7-0.8-1.1c0.1-4.5,0.2-8.9,0.3-13.4c0-0.4-0.1-0.9-0.3-1.3c-0.6-1.5-0.5-1.9,1.1-2.2
			C124,7.8,126.8,7.6,130.1,7.3z"/>
	</g>
</g>
</svg>
