<?xml version="1.0" encoding="utf-8"?>
<!-- Generator: Adobe Illustrator 22.0.0, SVG Export Plug-In . SVG Version: 6.00 Build 0)  -->
<svg version="1.1" id="Layer_1" xmlns="http://www.w3.org/2000/svg" xmlns:xlink="http://www.w3.org/1999/xlink" x="0px" y="0px"
	 viewBox="0 0 800 340" style="enable-background:new 0 0 800 340;" xml:space="preserve">
<style type="text/css">
	.st0{fill:#FFFFFF;}
</style>
<g>
	<path class="st0" d="M30.7,119c-3-5.1-4.3-9.3-4.5-15.2c-0.2-0.5,0-5.1,0-5.9c0-0.2-0.5-1.6-0.5-1.9c0.2,0,0.9-0.8,0.9-0.8
		c0.2,0,0.3-0.5,0.5-0.6H28c0.9,0,1.6,0.6,2.2,0.6c1.7,0,4.5-1.1,6.1-2l0.5,0.5c2.3-0.2,4.3,0.8,6.5,0.9c4.5,0.6,6.5,2.9,6.1,7.5
		c0.6-0.3,0.2-1.6,0.8-1.9c0.2,0.3,0.3,1.7,0.5,1.9v0.3c-0.2,0-0.3,0.5-0.5,0.6c-0.2,0.5-0.5,2.5-0.5,2.9c0.8,0.9,0.2,1.9,1.7,2
		l-0.6,0.6h1.4c2.5,0,6.2-1.1,7.9-3.3c0.5-0.8,0.8-4.2,0.8-5v-0.2l-0.2-0.2v-1.2c0-1.9,0.2-3.6,0.2-5.3c0-8.5-12-10.1-17.7-12.3
		c-3.3-1.2-5-2.8-7.8-4.7c-2.6-1.7-5.3-2.8-7.1-5.4c-0.8-1.1-3.7-5.4-4.3-6.5c-1.4-2.5-1.9-5.6-1.9-8.5c-1.4-9.5,1.2-21.6,9.8-28.9
		c1.4-0.5,2.8-1.7,4.2-2.3c4.2-2,8.8-2.9,13.7-2.9c0.2,0,1.6,0.3,1.7,0.3h0.6c18,1.2,20.6,3.6,26.7,5.9c8.8,7.6,6.4,24.1,5.6,24.4
		l-1.7,1.1c-1.4,0.8-1.2,1.2-1.7,2.8C80,58.3,75.1,60,73.4,60c-6.5,0-11-5.9-11-12.3c0-1.2,0.3-2.5,0.3-3.7v-0.9
		c-2.6-2.3-9.8-7.4-15.8-0.9C31.3,58.9,69.2,61,80,74.3c1.4,1.6,3.6,2.9,5,4.3l1.4,2c2.8,4.2,2.2,6.8,2.2,12.1v0.9
		c-0.5,0.2-0.5,0.5-0.5,0.8c0,1.6,0.5,3.1,0.5,4.8c0,0-1.6,9.9-9,20.3c-1.2,0.8-2,0.3-2.9,1.2c-0.5,0.3-2,2-2.5,2.3
		c-0.6-0.3-2.2,0.8-2.3,0.9c-1.9,0.9-0.9,3.3-3.6,3.3c-0.3,0-0.3-0.3-0.8-0.3c-1.2,0-0.3,2-1.9,1.7v-0.2c0-0.6,0.3-0.6,0.3-0.9v-0.5
		c-2.2,1.6-5.7,1.1-8.2,1.1c-0.5,0-2.8-0.2-3.4-0.2c-0.6-0.3-1.1-0.2-1.9-0.2c-0.8,0-1.6,0.2-2.3,0.2c-3.7,0-8.5-3.1-11.5-5v0.3
		c0,0.2,1.9,1.9,2.6,2.6c0.5,0.3,2.8,2,3.3,2.5c0,0,0.2,0,0.2,0.2h-0.2l-0.3,0.3H44l-5-2.3c-0.6-0.5-3.3-2.2-3.7-2.3
		c-1.7-1.2-2.9-6.5-4.7-6.5V119z M25.5,98.7v0.2h-0.3v-0.2H25.5z M31.1,119.6v0.3l-0.3-0.3v-0.3L31.1,119.6z M37.7,97.7
		c0.3,0,0.3-0.8,0-0.8C37.3,97,37.3,97.7,37.7,97.7z M40,99.1c0.5,0,0.5-0.5,0-0.5C39.8,98.7,39.8,99.1,40,99.1z M41.2,62.4
		c0.3,0.6,0.5,0.8,1.2,0.8c0,0.2,0,0.3,0.3,0.3c0.3,0,0.3-0.6,0-0.6c-0.2,0-0.3,0.2-0.3,0.2c0-0.2-0.2-0.5-0.2-0.5
		c0-0.2-0.8-1.6-1.1-2L40.9,61C40.9,61,41.1,61.9,41.2,62.4z M42.2,110.8c0.2,0,0.2-0.6,0-0.6C41.8,110.2,41.8,110.8,42.2,110.8z
		 M47.4,129.4c0,0.5-0.9,0.5-1.1,0.5v-0.5H47.4z M49,129.4c0,0.2-0.2,0.3-0.3,0.3c-0.2,0-0.5-0.2-0.5-0.3H49z M54.1,81.6h0.6
		c0-0.3-0.3-0.6-0.6-0.6V81.6z M59.7,35.8c0.3,0,0.3-0.5,0-0.5S59.4,35.8,59.7,35.8z M62,36.1c0,0.3,0.3,0.3,0.3,0
		C62.5,36,62,36,62,36.1z M72.7,52c0,0.2,0.6,0.2,0.6,0C73.4,51.6,72.6,51.6,72.7,52z M75.7,72.1h0.6l-2.2-2H74v0.2L75.7,72.1z
		 M78.2,121.3h-0.5l0.5-0.2V121.3z"/>
	<path class="st0" d="M98.8,102.2c-2.3-7.9-3.3-16.3-3.3-24.7c0-5.1,0.8-10.7,1.6-16c0.3-2.8,1.6-5.3,2.6-7.8c0.9-2.6,0.8-3,1.4-5.6
		c0-0.2,0.3-0.6,0.3-0.6c0.3-0.5,3.1-4.5,3.6-5l2-3.9c3.7-5.3,8.7-8.7,13.7-12.4c2.3-0.6,4-2.2,6.1-2.9h0.8c3.3-0.8,6.1-1.6,9.5-1.6
		c5,0,9.8,1.7,14.3,2.9c1.4,0.9,1.9,0.6,3.6,1.2c2.8,0.9,5.4,2.6,7.8,4.3c0,0,0.5,0.3,0.6,0.3c8.8,5.4,12.6,14.1,15.4,23.4l2,6.2
		c0.9,3.1,0.9,7.1,0.9,10.6v2.6c-0.2,0-0.6,0.6-0.6,0.8c0,0.2,0.6,0.5,0.6,0.6v0.3l-0.3,0.3v1.1c0,0.8,0.3,1.1,0.3,1.9
		c0,2.3-0.6,5-0.6,7.4c0,0.3,0.3,2.3,0.3,2.6v1.1c-0.9,3.9-1.2,7.6-2.2,11.6c-0.9,6.4-5.1,11.6-8.5,16.9c-0.2,0-0.6,1.4-0.9,1.9
		c-1.1,2.5-6.7,5.4-9.5,6.4c-0.5,0.3-5.6,1.9-6.2,2.2c0,0-0.5,0.2-0.6,0.2c-0.8,0.3-5,1.1-5.9,1.2c-0.2,0-1.9,0.3-2.3,0.3h-0.3
		c-1.4,0-4.7-0.3-4.7-0.3c-2.9-0.2-6.8-0.8-9.9-1.4l-0.5-0.3C113.9,125.1,105.2,116.7,98.8,102.2z M118.1,110.5v-0.3
		c0,0-1.9-2.6-2.6-3.7c-0.2-0.3-0.3-0.5-0.8-0.5C114.7,107.4,117.1,109.5,118.1,110.5z M118.4,66.2h0.3v-0.2h-0.3V66.2z
		 M120.7,113.4h0.3l-2-2.3c0-0.2-0.3-0.3-0.3-0.3h-0.3C118.5,111.3,119.9,113.4,120.7,113.4z M118.7,64.8h0.3l0.2-1.2h-0.5V64.8z
		 M119.2,83.8h0.5v-0.3h-0.5V83.8z M119.5,70.9c0.8,0,0.8-0.9,0.8-1.4C119.6,69.5,119.5,70.3,119.5,70.9z M119.6,60.6
		c0,0.3,0.2,0.3,0.3,0C119.9,60.5,119.5,60.5,119.6,60.6z M119.6,71.8h0.3v-0.2h-0.3V71.8z M120.1,67.2h0.3V67h-0.3V67.2z
		 M120.7,41.1l0.3-0.2h-0.6L120.7,41.1z M121.3,81.4c0.3-0.2,0.5-0.3,0.5-0.6c-0.3,0-0.6,0-0.8,0.3L121.3,81.4z M137.9,109.1
		c1.4,0.5,2.9,0.5,4.3,0.5c4.3,0,6.7-4.5,10.2-6.8c0.2-0.5,1.2-2.9,1.4-3.6c0-0.2,0.6-0.9,0.6-1.1l0.3-0.3c0,0,0.5,0.3,0.6,0.3
		c1.2,0,2.9-15.1,2.9-17.4c0-5-0.6-10.6-0.9-15.7c-0.2-2.8-2.6-8.4-3.7-10.6c-0.5-0.8-3.6-6.7-3.9-7.4c-0.9-1.6-2.8-4.7-5.1-4.7v0.8
		c-1.2-0.2-0.8-1.4-2.9-1.4h-0.6c0.2,0.5,1.2,0.6,1.6,0.6v0.3c-1.6,0-1.7-1.2-3-1.2h-0.2l0.5,0.6v0.3c-4.2,0.6-4.5,1.7-8.1,3.3
		c-0.2-0.2-0.3-0.3-0.3-0.5c-0.3,2.8-4.8,3.6-5.7,6.1c-0.6,2.2-1.6,5-2,7.1c0,0.5-0.5,3.4-0.6,4.2c-0.2,0.9-0.5,5.7-0.5,6.8
		c-0.5,0.6-0.6,2.3-0.6,3l0.3,0.5c0,0.2-0.3,0.3-0.3,0.3c0,0.6-0.2,2.6-0.2,3.3c0,2.3,0.8,4.5,0.8,6.8v0.3c-0.3-0.5-0.8-0.8-1.2-0.8
		c0,0.8,0.3,0.9,0.3,1.6v0.5l-0.3,0.6l0.6,0.6v0.3c0,0.8-0.3,1.2-0.3,2c0,1.4,0.9,5,1.4,5.9c0,0,0.2,0,0.2,0.2l-0.2,0.2L123,95v0.3
		c0,1.6,2.2,2.9,2.2,4.7v0.2l-0.3,0.3c0.5-0.3,0.9,0.2,0.9,0.6c0.5,0.6,2.8,2.8,3.3,3.3c0.6,0.6,1.6,0.6,2,1.4L137.9,109.1z
		 M127.2,48.9c0.5,0,3.1-2.5,3.6-3.1h-0.2C129.7,45.7,127.2,47.8,127.2,48.9z M132.8,44.7l0.8-0.6h-0.3c-0.2,0-0.6,0.3-0.6,0.3
		L132.8,44.7z M138.2,109.1c-0.3,0-0.3-0.6,0-0.6C138.4,108.5,138.4,109.1,138.2,109.1z M155.2,97.1c-0.3,0-0.3-0.3,0-0.2
		C155.3,97,155.3,97.1,155.2,97.1z M160.1,114.4c0.2,0,0.3,0.3,0.5,0.3h0.2c0.8,0,1.6-1.9,1.6-2.5c-0.6,0-2.2,1.7-2.2,2V114.4z
		 M162.6,111.4c0,0.2,0.2,0.2,0.2,0C162.9,111.3,162.6,111.3,162.6,111.4z M163.5,109.9h0.2v-0.3h-0.2V109.9z"/>
	<path class="st0" d="M264.8,83.5c-2.2,5.7-4.5,11.5-7,17.4c-0.8,1.9-2.3,3.9-3.1,5.7c-0.6,2-0.2,4.8-1.6,6.7
		c-0.6,0.5-3.1,3.1-3.7,3.7c-1.2,1.9-10.6,3.6-12,3.1c-1.6,0-3.9-0.5-5.4-1.6c-0.9-1.1-1.2-2.2-2.2-3.3c-0.8-1.1-1.1-0.9-1.6-2
		c-2.5-5.9-5.4-11.6-7.9-17.5c-1.9-4.5-3.3-8.8-5.3-13.2c-0.6,4.3-0.9,8.5-0.9,12.7c0,3.1,0.9,6.4,0.9,9.2c0,2-0.3,3.9-0.3,5.7v3.6
		c0.8,1.6,0.5,3.6,0.6,5.1c0.2,1.2,1.2,2.2,1.2,3.4c0,6.1-9.8,5.1-13.2,5.7c-0.8,0.2-1.7,0.8-2.6,0.8h-0.2c-0.2,0-1.2-0.2-1.4-0.2
		h-3.9c-1.2-0.2-2.5-1.9-3.6-1.6l-0.9-2.6v-0.2c0-7,1.2-13.8,1.1-21c0-1.1-0.5-10.6-0.6-11.8v-6.8c0-16.8,0.6-33.5,0.6-50.4
		c0-4-0.8-9.8,3.6-11.6c0.2,0,1.4-0.2,1.4-0.2c0.2,0,0.8-0.3,0.8-0.3h2.5c5.3,0,20.5,2.9,23.3,8.2c1.2,2.6,2.6,6.1,3,9
		c0.9,5.1,2.6,10.2,4.3,15.4c0.8,2.8,0.5,5.7,2,8.4l2.5,9.5c0.9,1.4,2.2,9.6,3.4,10.2c0.6-0.5,0.8-1.4,0.9-2l6.7-19.6
		c-0.3-0.8,2-5.6,2.2-6.8l5.3-16.9c1.9-2.9,2.5-6.1,4.5-8.8c2.5-3.3,11.3-7.8,14.6-7.8c1.9,0,3.9,0.6,5.4,1.7
		c4.5-0.2,9.9,0.3,12.1,5.1c0.6,1.4,1.6,2.6,1.6,4.2c0,0.6-0.3,1.2-0.3,1.7c0,1.1,0.3,2.2,0.3,3.3c0,0.6-0.3,1.2-0.3,2
		c0.5,0,0.5-0.9,1.1-0.9c0,1.6-0.6,2.8-0.6,4.2c0,5.6,0.2,12,0.3,17.2c0.2,3.9,0.8,7.8,0.8,11.6v0.8c0,0.3-0.3,1.7-0.3,1.9
		c0,1.4,0.8,2.3,0.9,3.3v2.5c0.2,3.1,0.9,6.7,1.7,9.8c0.2,3.3-0.2,15.2,0,19.4c0,1.2,0.5,2.8,0.5,3.9c0,0.2-0.2,0.6-0.2,0.8
		c0,2.2,0.5,4.7,0.5,6.8c0,1.9,0,2.2-0.5,4.3c-0.9,0.6-1.4,1.6-2.3,2.5c-2.8,2-5.7,3.1-8.8,3.1h-1.6c-0.5,0-5.3-0.6-6.5-0.9
		c-2.6,0.6-6.2-4.7-6.2-6.4c-1.6-5.4-1.2-11.5-1.4-17.2c-0.5-9.6-0.6-19.4-1.4-29C266.6,76.9,265.2,82.4,264.8,83.5z M255.8,74.3
		c0.2,0,0.2-0.3,0-0.3C255.6,74,255.6,74.3,255.8,74.3z M280.3,70.9v-7.3c0-2.3,0.2-3.3,0-5.3c-0.3-0.8-0.8-2.3-0.8-2.3h-0.3
		c0,2.3,0.3,4.3,0.3,6.7v0.2l-0.3,0.8v0.2C279.2,65.3,279.2,69.5,280.3,70.9z M280.3,78.7v-0.2h-0.5L280.3,78.7z M282.6,108.5h0.2
		v-0.3L282.6,108.5z M282.8,110.8l0.3,0.3v-1.6h-0.3V110.8z M283.4,112.3c0.3-0.2,0.3-0.9,0-0.9
		C283.2,111.3,283.2,112.5,283.4,112.3z M283.4,115.3h0.3v-2l-0.3-0.5V115.3z M284.3,118.2v-0.3c0-0.3-0.3-1.6-0.3-1.7h-0.3
		l-0.3,0.2v0.2C283.4,117,283.9,118.2,284.3,118.2z M284.3,119.6c0.3,0,0.3-0.5,0-0.5S284,119.6,284.3,119.6z M284.6,121.5
		c0.2-0.2,0.2-0.5,0-0.6C284.5,120.9,284.5,121.5,284.6,121.5z M291.6,40.5c0.2,0,0.2-0.3,0-0.3C291.3,40.2,291.3,40.6,291.6,40.5z
		 M293.2,58.6c-0.3,0-0.3-0.6,0-0.6C293.5,58,293.5,58.6,293.2,58.6z M294.4,63.3v4.8l-0.6-0.3V67C293.8,66.1,293.5,63.6,294.4,63.3
		z M294.7,75.7c0,0.2-0.3,0.3-0.3,0.3s-0.2,0-0.2-0.2l0.2-0.2c0,0,0.2-0.2,0.3-0.2V75.7z"/>
	<path class="st0" d="M308.9,102.2c-2.3-7.9-3.3-16.3-3.3-24.7c0-5.1,0.8-10.7,1.6-16c0.3-2.8,1.6-5.3,2.6-7.8
		c0.9-2.6,0.8-3,1.4-5.6c0-0.2,0.3-0.6,0.3-0.6c0.3-0.5,3.1-4.5,3.6-5l2-3.9c3.7-5.3,8.7-8.7,13.7-12.4c2.3-0.6,4-2.2,6.1-2.9h0.8
		c3.3-0.8,6.1-1.6,9.5-1.6c5,0,9.8,1.7,14.3,2.9c1.4,0.9,1.9,0.6,3.6,1.2c2.8,0.9,5.4,2.6,7.8,4.3c0,0,0.5,0.3,0.6,0.3
		c8.8,5.4,12.6,14.1,15.4,23.4l2,6.2c0.9,3.1,0.9,7.1,0.9,10.6v2.6c-0.2,0-0.6,0.6-0.6,0.8c0,0.2,0.6,0.5,0.6,0.6v0.3l-0.3,0.3v1.1
		c0,0.8,0.3,1.1,0.3,1.9c0,2.3-0.6,5-0.6,7.4c0,0.3,0.3,2.3,0.3,2.6v1.1c-0.9,3.9-1.2,7.6-2.2,11.6c-0.9,6.4-5.1,11.6-8.5,16.9
		c-0.2,0-0.6,1.4-0.9,1.9c-1.1,2.5-6.7,5.4-9.5,6.4c-0.5,0.3-5.6,1.9-6.2,2.2c0,0-0.5,0.2-0.6,0.2c-0.8,0.3-5,1.1-5.9,1.2
		c-0.2,0-1.9,0.3-2.3,0.3h-0.3c-1.4,0-4.7-0.3-4.7-0.3c-3-0.2-6.8-0.8-9.9-1.4l-0.5-0.3C323.9,125.1,315.2,116.7,308.9,102.2z
		 M328.1,110.5v-0.3c0,0-1.9-2.6-2.6-3.7c-0.2-0.3-0.3-0.5-0.8-0.5C324.7,107.4,327.2,109.5,328.1,110.5z M328.4,66.2h0.3v-0.2h-0.3
		V66.2z M330.7,113.4h0.3l-2-2.3c0-0.2-0.3-0.3-0.3-0.3h-0.3C328.6,111.3,330,113.4,330.7,113.4z M328.7,64.8h0.3l0.2-1.2h-0.5V64.8
		z M329.2,83.8h0.5v-0.3h-0.5V83.8z M329.5,70.9c0.8,0,0.8-0.9,0.8-1.4C329.7,69.5,329.5,70.3,329.5,70.9z M329.7,60.6
		c0,0.3,0.2,0.3,0.3,0C330,60.5,329.5,60.5,329.7,60.6z M329.7,71.8h0.3v-0.2h-0.3V71.8z M330.1,67.2h0.3V67h-0.3V67.2z M330.7,41.1
		l0.3-0.2h-0.6L330.7,41.1z M331.4,81.4c0.3-0.2,0.5-0.3,0.5-0.6c-0.3,0-0.6,0-0.8,0.3L331.4,81.4z M348,109.1
		c1.4,0.5,3,0.5,4.3,0.5c4.3,0,6.7-4.5,10.2-6.8c0.2-0.5,1.2-2.9,1.4-3.6c0-0.2,0.6-0.9,0.6-1.1l0.3-0.3c0,0,0.5,0.3,0.6,0.3
		c1.2,0,2.9-15.1,2.9-17.4c0-5-0.6-10.6-0.9-15.7c-0.2-2.8-2.6-8.4-3.7-10.6c-0.5-0.8-3.6-6.7-3.9-7.4c-0.9-1.6-2.8-4.7-5.1-4.7v0.8
		c-1.2-0.2-0.8-1.4-2.9-1.4h-0.6c0.2,0.5,1.2,0.6,1.6,0.6v0.3c-1.6,0-1.7-1.2-2.9-1.2h-0.2l0.5,0.6v0.3c-4.2,0.6-4.5,1.7-8.1,3.3
		c-0.2-0.2-0.3-0.3-0.3-0.5c-0.3,2.8-4.8,3.6-5.7,6.1c-0.6,2.2-1.6,5-2,7.1c0,0.5-0.5,3.4-0.6,4.2c-0.2,0.9-0.5,5.7-0.5,6.8
		c-0.5,0.6-0.6,2.3-0.6,3l0.3,0.5c0,0.2-0.3,0.3-0.3,0.3c0,0.6-0.2,2.6-0.2,3.3c0,2.3,0.8,4.5,0.8,6.8v0.3c-0.3-0.5-0.8-0.8-1.2-0.8
		c0,0.8,0.3,0.9,0.3,1.6v0.5l-0.3,0.6l0.6,0.6v0.3c0,0.8-0.3,1.2-0.3,2c0,1.4,0.9,5,1.4,5.9c0,0,0.2,0,0.2,0.2l-0.2,0.2l-0.3,0.5
		v0.3c0,1.6,2.2,2.9,2.2,4.7v0.2l-0.3,0.3c0.5-0.3,0.9,0.2,0.9,0.6c0.5,0.6,2.8,2.8,3.3,3.3c0.6,0.6,1.6,0.6,2,1.4L348,109.1z
		 M337.3,48.9c0.5,0,3.1-2.5,3.6-3.1h-0.2C339.7,45.7,337.3,47.8,337.3,48.9z M342.9,44.7l0.8-0.6h-0.3c-0.2,0-0.6,0.3-0.6,0.3
		L342.9,44.7z M348.3,109.1c-0.3,0-0.3-0.6,0-0.6C348.4,108.5,348.4,109.1,348.3,109.1z M365.2,97.1c-0.3,0-0.3-0.3,0-0.2
		C365.4,97,365.4,97.1,365.2,97.1z M370.2,114.4c0.2,0,0.3,0.3,0.5,0.3h0.2c0.8,0,1.6-1.9,1.6-2.5c-0.6,0-2.2,1.7-2.2,2V114.4z
		 M372.7,111.4c0,0.2,0.2,0.2,0.2,0C373,111.3,372.7,111.3,372.7,111.4z M373.6,109.9h0.2v-0.3h-0.2V109.9z"/>
	<path class="st0" d="M405.3,119c-2.9-5.1-4.3-9.3-4.5-15.2c-0.2-0.5,0-5.1,0-5.9c0-0.2-0.5-1.6-0.5-1.9c0.2,0,0.9-0.8,0.9-0.8
		c0.2,0,0.3-0.5,0.5-0.6h0.9c0.9,0,1.6,0.6,2.2,0.6c1.7,0,4.5-1.1,6.1-2l0.5,0.5c2.3-0.2,4.3,0.8,6.5,0.9c4.5,0.6,6.5,2.9,6.1,7.5
		c0.6-0.3,0.2-1.6,0.8-1.9c0.2,0.3,0.3,1.7,0.5,1.9v0.3c-0.2,0-0.3,0.5-0.5,0.6c-0.2,0.5-0.5,2.5-0.5,2.9c0.8,0.9,0.2,1.9,1.7,2
		l-0.6,0.6h1.4c2.5,0,6.2-1.1,7.9-3.3c0.5-0.8,0.8-4.2,0.8-5v-0.2l-0.2-0.2v-1.2c0-1.9,0.2-3.6,0.2-5.3c0-8.5-12-10.1-17.7-12.3
		c-3.3-1.2-5-2.8-7.8-4.7c-2.6-1.7-5.3-2.8-7.1-5.4c-0.8-1.1-3.7-5.4-4.3-6.5c-1.4-2.5-1.9-5.6-1.9-8.5c-1.4-9.5,1.2-21.6,9.8-28.9
		c1.4-0.5,2.8-1.7,4.2-2.3c4.2-2,8.8-2.9,13.7-2.9c0.2,0,1.6,0.3,1.7,0.3h0.6c18,1.2,20.6,3.6,26.7,5.9c8.8,7.6,6.4,24.1,5.6,24.4
		l-1.7,1.1c-1.4,0.8-1.2,1.2-1.7,2.8c-0.8,1.9-5.7,3.6-7.5,3.6c-6.5,0-11-5.9-11-12.3c0-1.2,0.3-2.5,0.3-3.7v-0.9
		c-2.6-2.3-9.8-7.4-15.8-0.9c-15.5,16.8,22.4,18.8,33.2,32.1c1.4,1.6,3.6,2.9,5,4.3l1.4,2c2.8,4.2,2.2,6.8,2.2,12.1v0.9
		c-0.5,0.2-0.5,0.5-0.5,0.8c0,1.6,0.5,3.1,0.5,4.8c0,0-1.6,9.9-9,20.3c-1.2,0.8-2,0.3-3,1.2c-0.5,0.3-2,2-2.5,2.3
		c-0.6-0.3-2.2,0.8-2.3,0.9c-1.9,0.9-0.9,3.3-3.6,3.3c-0.3,0-0.3-0.3-0.8-0.3c-1.2,0-0.3,2-1.9,1.7v-0.2c0-0.6,0.3-0.6,0.3-0.9v-0.5
		c-2.2,1.6-5.7,1.1-8.2,1.1c-0.5,0-2.8-0.2-3.4-0.2c-0.6-0.3-1.1-0.2-1.9-0.2s-1.6,0.2-2.3,0.2c-3.7,0-8.5-3.1-11.5-5v0.3
		c0,0.2,1.9,1.9,2.6,2.6c0.5,0.3,2.8,2,3.3,2.5c0,0,0.2,0,0.2,0.2h-0.2l-0.3,0.3h-0.2l-5-2.3c-0.6-0.5-3.3-2.2-3.7-2.3
		c-1.7-1.2-3-6.5-4.7-6.5V119z M400.1,98.7v0.2h-0.3v-0.2H400.1z M405.7,119.6v0.3l-0.3-0.3v-0.3L405.7,119.6z M412.2,97.7
		c0.3,0,0.3-0.8,0-0.8S411.9,97.7,412.2,97.7z M414.6,99.1c0.5,0,0.5-0.5,0-0.5C414.4,98.7,414.4,99.1,414.6,99.1z M415.8,62.4
		c0.3,0.6,0.5,0.8,1.2,0.8c0,0.2,0,0.3,0.3,0.3s0.3-0.6,0-0.6c-0.2,0-0.3,0.2-0.3,0.2c0-0.2-0.2-0.5-0.2-0.5c0-0.2-0.8-1.6-1.1-2
		l-0.3,0.5C415.5,61,415.7,61.9,415.8,62.4z M416.8,110.8c0.2,0,0.2-0.6,0-0.6C416.4,110.2,416.4,110.8,416.8,110.8z M422,129.4
		c0,0.5-0.9,0.5-1.1,0.5v-0.5H422z M423.6,129.4c0,0.2-0.2,0.3-0.3,0.3c-0.2,0-0.5-0.2-0.5-0.3H423.6z M428.7,81.6h0.6
		c0-0.3-0.3-0.6-0.6-0.6V81.6z M434.3,35.8c0.3,0,0.3-0.5,0-0.5S434,35.8,434.3,35.8z M436.6,36.1c0,0.3,0.3,0.3,0.3,0
		C437.1,36,436.6,36,436.6,36.1z M447.3,52c0,0.2,0.6,0.2,0.6,0C448,51.6,447.2,51.6,447.3,52z M450.3,72.1h0.6l-2.2-2h-0.2v0.2
		L450.3,72.1z M452.8,121.3h-0.5l0.5-0.2V121.3z"/>
</g>
<g>
	<path class="st0" d="M134.7,249c-3.4,8.9-7,17.9-10.9,27c-1.2,2.9-3.6,6-4.8,8.9c-1,3.1-0.2,7.5-2.4,10.4c-1,0.7-4.8,4.8-5.8,5.8
		c-1.9,2.9-16.4,5.5-18.6,4.8c-2.4,0-6-0.7-8.4-2.4c-1.4-1.7-1.9-3.4-3.4-5.1c-1.2-1.7-1.7-1.4-2.4-3.1c-3.9-9.2-8.4-18.1-12.3-27.3
		c-2.9-7-5.1-13.8-8.2-20.5c-1,6.8-1.4,13.3-1.4,19.8c0,4.8,1.4,9.9,1.4,14.2c0,3.1-0.5,6-0.5,8.9v5.5c1.2,2.4,0.7,5.5,1,8
		c0.2,1.9,1.9,3.4,1.9,5.3c0,9.4-15.2,8-20.5,8.9c-1.2,0.2-2.7,1.2-4.1,1.2h-0.2c-0.2,0-1.9-0.2-2.2-0.2h-6
		c-1.9-0.2-3.9-2.9-5.5-2.4l-1.4-4.1v-0.2c0-10.9,1.9-21.5,1.7-32.6c0-1.7-0.7-16.4-1-18.3v-10.6c0-26.1,1-52.1,1-78.4
		c0-6.3-1.2-15.2,5.5-18.1c0.2,0,2.2-0.2,2.2-0.2c0.2,0,1.2-0.5,1.2-0.5h3.9c8.2,0,31.8,4.6,36.2,12.8c1.9,4.1,4.1,9.4,4.6,14
		c1.4,8,4.1,15.9,6.8,23.9c1.2,4.3,0.7,8.9,3.1,13l3.9,14.7c1.4,2.2,3.4,15,5.3,15.9c1-0.7,1.2-2.2,1.4-3.1l10.4-30.4
		c-0.5-1.2,3.1-8.7,3.4-10.6l8.2-26.3c2.9-4.6,3.9-9.4,7-13.7c3.9-5.1,17.6-12.1,22.7-12.1c2.9,0,6,1,8.4,2.7c7-0.2,15.4,0.5,18.8,8
		c1,2.2,2.4,4.1,2.4,6.5c0,1-0.5,1.9-0.5,2.7c0,1.7,0.5,3.4,0.5,5.1c0,1-0.5,1.9-0.5,3.1c0.7,0,0.7-1.4,1.7-1.4c0,2.4-1,4.3-1,6.5
		c0,8.7,0.2,18.6,0.5,26.8c0.2,6,1.2,12.1,1.2,18.1v1.2c0,0.5-0.5,2.7-0.5,2.9c0,2.2,1.2,3.6,1.4,5.1v3.9c0.2,4.8,1.4,10.4,2.7,15.2
		c0.2,5.1-0.2,23.6,0,30.2c0,1.9,0.7,4.3,0.7,6c0,0.2-0.2,1-0.2,1.2c0,3.4,0.7,7.2,0.7,10.6c0,2.9,0,3.4-0.7,6.8
		c-1.4,1-2.2,2.4-3.6,3.9c-4.3,3.1-8.9,4.8-13.7,4.8h-2.4c-0.7,0-8.2-1-10.1-1.4c-4.1,1-9.6-7.2-9.6-9.9c-2.4-8.4-1.9-17.9-2.2-26.8
		c-0.7-15-1-30.2-2.2-45.1C137.6,238.9,135.4,247.3,134.7,249z M120.7,234.8c0.2,0,0.2-0.5,0-0.5
		C120.5,234.3,120.5,234.8,120.7,234.8z M158.8,229.5v-11.3c0-3.6,0.2-5.1,0-8.2c-0.5-1.2-1.2-3.6-1.2-3.6h-0.5
		c0,3.6,0.5,6.8,0.5,10.4v0.2l-0.5,1.2v0.2C157.1,220.8,157.1,227.3,158.8,229.5z M158.8,241.5v-0.2h-0.7L158.8,241.5z M162.5,287.8
		h0.2v-0.5L162.5,287.8z M162.7,291.5l0.5,0.5v-2.4h-0.5V291.5z M163.7,293.9c0.5-0.2,0.5-1.4,0-1.4
		C163.4,292.2,163.4,294.1,163.7,293.9z M163.7,298.5h0.5v-3.1l-0.5-0.7V298.5z M165.1,303v-0.5c0-0.5-0.5-2.4-0.5-2.7h-0.5
		l-0.5,0.2v0.2C163.7,301.1,164.4,303,165.1,303z M165.1,305.2c0.5,0,0.5-0.7,0-0.7C164.6,304.5,164.6,305.2,165.1,305.2z
		 M165.6,308.1c0.2-0.2,0.2-0.7,0-1C165.3,307.1,165.3,308.1,165.6,308.1z M176.4,182.2c0.2,0,0.2-0.5,0-0.5
		C176,181.7,176,182.4,176.4,182.2z M178.9,210.4c-0.5,0-0.5-1,0-1C179.3,209.4,179.3,210.4,178.9,210.4z M180.8,217.7v7.5l-1-0.5
		v-1.2C179.8,222,179.3,218.1,180.8,217.7z M181.3,236.9c0,0.2-0.5,0.5-0.5,0.5s-0.2,0-0.2-0.2l0.2-0.2c0,0,0.2-0.2,0.5-0.2V236.9z"
		/>
	<path class="st0" d="M208,294.1c-0.7-3.1-1.9-8-3.4-11.6c0-4.1-1.7-23.4-2.2-27.5c0-0.5-0.5-2.7-0.5-3.1v-20.7
		c-0.7-3.1-0.5-7.7-0.5-10.1c0-15.7-2.7-31.6-3.1-47.3l0.5-0.5c-0.2-7.7-3.9-20,12.8-19.8h13.8c1,0,6.3,1,7.5,1.4
		c4.8,1.2,5.8,5.3,5.8,9.9c0,8.4-0.7,43.9-0.7,76v10.4c-0.2,0.2-0.5,0.5-0.5,0.7v0.5c1.4,4.6,2.2,10.9,1.9,15.9c0.7,1,0,2.2,0.7,3.1
		l1-0.2c-0.2,2.2,0.2,4.1,1.7,5.8c4.1,4.8,6.5,4.1,13.3,4.1c1.4,0,3.1,0.2,4.8-0.2l3.6-1.9h0.7c0,1.2-1.7,1.9-2.2,3.1
		c0,0,0-0.7-0.2-1h-0.2c-2.9,0-3.6,1.9-8,1.9v1c0,0.5,2.9,0.5,3.4,0.5c1.9,0,3.4-2.2,5.1-1.4c1.4-1.2,2.7-2.7,3.9-4.1
		c0,0.5-0.2,1.7,0.2,1.9c1-0.5,0.7-1.4,1.2-1.9c2.7-4.3,1.7-3.9,2.9-8.9v-12.5h0.7c0,0,0.5,1.2,0.5,1.7c0,0.5,0.2,2.4,0.2,2.7
		l1.2-1.4c0,0,0-9.4,0.2-13.5v-1.9c0-1.9,0-2.4-0.2-4.6l0.2-0.5v-3.1c0-1,0.5-3.4,0.5-3.4h0.5c0-2.4-0.2-4.8-1-7.2
		c0.2-12.1-0.2-24.1-1-36.2c-0.5-10.9-0.5-21.2-1.9-31.8c1-1.7,7.7-2.7,8.9-2.7c1.9,0,4.3,1,6.3,1.4c5.1,0.7,9.2,0.5,14,2.7
		c1.7,0.7,5.1,5.1,5.8,6.3c0.7,0.5,1.9-0.2,1.9,1.2v0.2c0,0.5-0.5,2.9-0.5,3.4v1.4c0.2,1,1.4,5.8,1.9,6.8c-0.7,1.4,0,3.1-1,4.1v22.9
		c0,3.6,1,7,1,10.1c0,14.2-1.2,28.2-1,42.2c0,1-1,4.3-1,5.1c-0.7,3.4-0.2,6.8-1,10.1c-0.2,1.7-1.7,3.4-1.7,5.1
		c-0.2,2.7,0.5,5.3-0.5,7.7c0,0.2-1,1.4-1,1.4c-3.9,6.8-3.9,13.7-10.1,19.3c-1.9,1.9-5.1,2.4-7.5,4.1l-0.2,1c-1.9,1.2-4.1,1.2-6,2.4
		c-0.2,0-0.7,0.2-1,0.2l-8.2,1.9c-1,0.7-0.7,0.2-1.9,0.5c-0.5,0-0.7,0.2-1.2,0.2c-5.1,0.7-9.9,1.2-15.2,1.2c-11.8,0-20.5-2.2-30.9-8
		C216.2,305.7,210.2,301.1,208,294.1z M213.1,154.9h0.5v-0.5h-0.5V154.9z M232.9,290v-0.5c0-0.5,0-0.7-0.5-1v0.2
		C232.4,289.3,232.4,289.8,232.9,290z M233.9,292.2v-0.5c0-0.5-0.2-1-0.7-1.4v0.5C233.1,291.5,233.4,291.7,233.9,292.2z
		 M240.1,255.5c-0.2,0-0.2-1.2,0-1C240.4,254.8,240.4,255.3,240.1,255.5z M240.6,256.5v4.6c0-0.7-0.5-2.9-0.5-3.4v-0.5
		C240.1,257,240.1,256.5,240.6,256.5z M244.2,276.7c-0.2,0-0.2-0.7,0-0.5C244.7,276.3,244.7,276.7,244.2,276.7z M248.1,304.2
		c0-1.4-1.2-2.7-2.7-2.7C245.4,302.8,246.9,304.2,248.1,304.2z M249.5,284c0-1-0.7-1.7-1.7-1.7C247.8,283.5,248.8,284,249.5,284z
		 M250.3,284.7c0.7,0,1-1.2,1-1.7C250.3,283,250.3,283.7,250.3,284.7z M256.3,301.1l2.4-1.2v-0.2c0-0.5-1.2-0.7-1.7-0.7
		c-0.7,0-1.2,0.2-1.2,1C255.8,300.1,255.8,301.1,256.3,301.1z M270.5,301.8c-1.7,1.7-9.2,0.7-9.2,3.4v0.2c1.2-0.2,6.3-1,7.2-1.4
		c1.9-0.2,4.8-2.4,4.8-4.6C270,299.4,271,301.1,270.5,301.8z M262.3,285.2c0,0,0.5-0.2,0.5-0.5v-0.2c0-0.2-0.5-0.5-0.5-0.5V285.2z
		 M264.2,301.8v-0.5C263.8,301.1,263.8,302.1,264.2,301.8z M265.5,288.6c0.2,0,0.2-0.5,0-0.5C265.2,287.8,265.2,288.8,265.5,288.6z
		 M265.9,277.5c-0.2,0,1.2-1.7,1.2-1.2C267.1,276.7,266.4,277.5,265.9,277.5z M268.8,301.4c0.5,0,1-0.2,1-1h-1.7
		C268.1,301.1,268.3,301.4,268.8,301.4z M272,184.4c-0.7,0-0.7-1,0-1C272.4,183.4,272.4,184.4,272,184.4z M272.7,223.4
		c-0.2,0-0.2-1,0-1C273.2,222.5,273.2,223.4,272.7,223.4z M274.6,299.7c0.5-0.2,0.5-0.5,0-0.5C274.4,298.9,274.4,299.7,274.6,299.7z
		 M305.3,172.8c0.5,0,0.5-0.5,0-0.5C305,172.3,305,172.8,305.3,172.8z M310.3,206.3c-0.2,0-0.2-1,0-1
		C310.8,205.3,310.8,206.3,310.3,206.3z"/>
	<path class="st0" d="M340.5,319.4c-10.9-1.7-10.4-8.4-11.6-17.4c-0.2-1.7-2.2-14.7-2.2-16.4c-1.2-9.9-1.2-20.7-1.2-30.9
		c0-4.1-0.2-8.7,0.7-12.8c-0.2-5.5-0.2-30.9,0-36.4c0-1.7,0.2-20.3,0.2-21.7v-4.1c0.2-1.4,1-12.1,1-13.5c0-2.2,0-6.3,1.2-8.2
		c0.2,0,1-0.5,1.2-0.5c2.2-1,1.4-1.7,4.6-2.2c11.3-2.4,22.7-2.4,34.3-3.6v1h-1.9v0.5h42.5c2.7,0,6.3,1.2,8.9,2.2l0.2,0.2
		c0,0,0.2,0.2,0.2,0.5c4.8,7.2,7.7,14,7.7,22.9c0,1.7-0.2,1.4-1.2,3.4c-1.9,4.3-4.8,6.3-9.2,7.5c-1.2,0.2-1-0.5-1.7,0.7h-8.4
		c-2.4,1.7-26.8,2.7-30.4,2.7c-2.2,0-3.9-0.7-5.8-0.7c-2.2,0-4.3,0.5-4.3,2.9c0,5.8,1,16.6,1,22.4c5.3,0,10.9-0.5,16.2-0.5
		c3.6,0,18.6-0.2,22.2,0.5c1.7,0.5,4.3,3.6,5.3,4.8c4.1,4.6,6.3,11.6,6.3,17.6c0,1.4-2.4,8.7-2.4,8.9l-2.4,4.3
		c-1.5,1.9-32.1,1.9-35.2,1.9c-2.2,0.2-6.5-0.5-9.2,0.7c-0.7,0-0.7,0.2-0.7,0.7c0,5.8,0.5,16.2,1,22c0,1.2,1,4.1,1,4.1l0.5,0.5
		c0.5,0,2.2-0.5,2.7-0.5h0.7c0.5,0,0.7,0,1.2,1c2.7-0.7,6-1,8.4-1h0.5c2.4,0,25.3,0.5,27.7,0.5c8.4,1.4,15.7,6,15.7,15.2
		c0,2.7-1.7,4.8-1.7,7c0,1.4,0.5,2.9,0.5,4.1c0,3.6-2.7,4.6-4.8,7c-1.2,1.4-1.2,3.1-4.1,3.1h-12.8c-1.4,0-0.7-1.4-1.9-1.4
		c-7.5,0-26.8,2.2-34,2.2c-1.2,0-1.9-0.2-3.1-0.7l0.5-0.7c-0.5,0-1.9-0.2-2.2-0.2L340.5,319.4z M366.3,319.4l0.7-0.2h-1.2
		L366.3,319.4z M370.1,152.5c-0.5,0-0.5-1,0-1C370.4,151.6,370.4,152.5,370.1,152.5z M382.9,219.1c0.2,0,14.2,0.2,14.7,0.2l5.8,1.4
		c0.7,0,3.1,1.4,4.3,1.4l0.5-0.2c-0.5-3.1-7.2-4.1-9.4-4.1c-1.7,0-14.5,0-16.2,0.5C382.7,218.6,382.9,218.9,382.9,219.1z
		 M398.4,282.1c0-0.2,0.7-0.2,0.5,0C398.9,282.5,398.6,282.5,398.4,282.1z M398.9,221.3c0.2,0.2,0.5,0.2,0.7,0
		C399.6,220.8,398.9,220.8,398.9,221.3z M410.4,282.1c0-0.2,0.7-0.2,0.5,0C410.9,282.5,410.7,282.5,410.4,282.1z M422.7,302.1
		c0.5,0,1.4-0.5,1.7-1v-1.9c0-3.1-1-2.9-2.7-4.6c-1-0.7-1.7-2.9-3.1-2.9c0,3.4,4.3,4.6,4.3,8.2v0.2c0,0-0.2,0.5-0.5,0.5
		c0-0.2-0.5-1.2-0.5-1.4c-0.2-0.5-1-2.2-1-2.2h-0.5C420.6,298.5,421,302.1,422.7,302.1z"/>
	<path class="st0" d="M477.2,321.6c-0.2,0-1.4-0.2-1.7-0.2l-8.2-1.9c-1.7-0.5-2.7-1.7-4.1-2.7c-14.2-9.4-21.5-21.2-28.7-36.4
		c-0.7-2.7-2.2-4.8-2.7-7.5c-3.1-10.9-3.6-22.4-3.6-33.8c0-12.1,1.4-23.9,3.6-35.9c0.2-3.4,0.2-6.8,1.2-10.1
		c3.6-12.1,8.4-23.4,18.1-31.8c1.2-1,5.3-0.7,7.7-2.2c0.5-0.2,3.1-1.9,3.1-1.9l11.8-4.3h6c16.2,0,31.6,3.6,42.2,15.7
		c3.6-1.4,7.7,8.2,7.5,10.6l2.4,5.8v1.7c0,2.2-0.2,3.6-1,6c-1,0.5-4.6,9.9-4.1,11.6c-0.5,0-1.2-0.5-1.4-0.5c-0.2-0.2-0.7-0.5-1-0.5
		c-1.7,0-2.4,1.4-3.4,2.4h-0.5c0,0-0.2-0.5-0.2-0.7h-0.2c-1.9,0-4.6,1.7-7.2,1.7c-14.7,0-20-4.8-23.2-19.5c-1.2-6,0.2-6.5-7-6.5
		c-2.2,0-8.2,0-8.2,3.6c-0.2,0-0.5-0.2-0.5-0.2c-0.2,0-0.7-0.7-0.7-1c-2.4,1.2-6,17.4-6,19.3c-0.2,4.8,0.5,15.9-1.4,19.5
		c0.2,5.3-0.5,9.2-0.5,14.2c0,2.9,0.7,5.8,0.7,8.7c0,0.2,0,1.4-0.7,1.4v8.2c0,1.2,0.5,4.6,0.5,4.8l0.5,0.5c1.2-0.7,1-3.6,1-4.3
		c0-2.2-0.5-4.3-0.5-6.5c0-1.2,0.2-2.9,1.4-3.6v1.7c0,1.2-0.7,1.7-0.7,2.7c0,1.7,1,3.1,1,4.6v0.2c0,0.2-0.7,1-1,1.2l0.7,0.7v1
		c0,1-1,3.1-1.9,3.6c0,0.5-0.2,2.9-0.2,3.6c0,1.7,1.2,9.4,2.9,10.4v-1.4c0-1.4-0.5-2.4-0.5-3.9c0-0.7,0-1.4,1-1.7
		c0,0.2,0.2,0.2,0.2,0.5l0.2,0.2c1.4,2.4,3.9,6.5,3.9,8.9c0,0.7-0.5,1.4-0.5,2.2c0,1.9,6,8.2,8.2,8.2c1.9,0,12.8-17.1,15.7-20.5
		c2.2-2.4,8-7,11.1-7c0,0.5,0,0.7-0.5,1h0.5c0.7,0,2.4-1.4,3.4-1.7c2.4-1.4,5.3-1.2,8-1.2c2.2,0,2.9,1,4.8,1.2h2.4
		c1,0.2,2.9,3.6,3.1,4.6c0.2,1,3.4,2.7,4.1,3.6c1.4,2.2,2.7,5.1,4.1,7.2c0.2,0.2,0.7,1,0.7,1.2c0,0.2-0.7,1.9-0.7,2.2
		c0,0.5,0.2,3.6,0,4.1c0,1.4-1.9,2.4-2.2,3.9c-0.7,1.7-2.9,11.3-4.6,11.3c-0.5,0-0.5-0.5-1.7-0.5c-2.2,0-2.7,3.9-3.6,5.3l-3.6,4.6
		c-5.3,5.8-6.8,5.3-14.7,8.7c-0.2,0-1.4,1-1.7,1s-1.2,1-1.4,1c-0.2,0-1-0.7-1-0.7c-0.7,0-5.8,1.9-6.5,2.4c-1,0.7,0,1.4-1.7,1.4
		c-0.7,0-1.2,0-1.4-1c-1.2,0.2-6.3,0.5-7.5,0.5h-1v0.5h6.5v0.5l-8,0.5c0,0-1-1.2-1.2-1.4c-0.5,0-1.7-0.5-1.9-0.5
		c-0.7,0-4.1,0.2-4.8,0.2C476.3,320.7,477.2,320.7,477.2,321.6z M453.4,242.5v-2.7c-0.2,0-0.2,0.5-0.2,0.7
		C453.1,240.8,453.1,242.3,453.4,242.5z M472.4,298.7c1.4,1.9,4.1,1.9,6.8,1.9c2.4,0,6,0.5,8.4-1c-1.9-0.2-3.9-1-5.6-1.2
		c-2.9-1.2-8-1.2-8.7-2.2l-0.7,1c-1.9-1.4-3.6-4.3-5.3-6.5c0.7-1.2-2.2-2.4-1.4-3.9c-1.7-5.3-4.8-11.8-5.5-17.1
		c-0.7-3.9-0.7-10.1-0.7-14h-0.7c-0.7,0-0.5,1.2-1,1.2c-0.2,0-0.2-0.2-0.5-0.2c-0.5-5.3-1.2-11.3-2.7-16.6v1.2
		c0,6.5,2.2,12.5,2.2,18.6v0.7c-0.5-0.5-0.7-2.2-0.7-2.4c-0.5-2.2-1.9-11.6-2.4-13.5l-0.5-0.7l-0.2,0.2v0.2c0,5.1,0.2,11.1,1.7,16.2
		c-0.5,0.2-0.5,0.7-0.5,1.4c0,3.4,3.6,18.8,6.5,20.5v-0.7c0,0,0.2-0.2,0.5-0.2c0,0.2,0.5,1,0.5,1c0,0.2-0.5,0.5-0.5,0.5l-0.2,0.2
		c0,1,1.7,1,1,2.2l2.7,3.6c0,0.2,0.2,0.7,0.2,1C466.2,291.2,471.2,297.3,472.4,298.7z M456.5,310.8h0.2c0-0.5-0.5-1.2-1.2-1.2
		C455.5,310.3,455.8,310.8,456.5,310.8z M457.5,246.1v-1.2c-0.2,0.2-0.5,0.5-0.5,0.7C457,245.9,457.5,246.1,457.5,246.1z
		 M457.5,247.8c0.5,0,0.5-0.2,0-0.2C457.2,247.6,457.2,248,457.5,247.8z M458.2,254.1v-2.2c0-0.7,0-2.4-0.7-2.9v1.4
		C457.5,251.7,457.5,252.4,458.2,254.1z M464.9,277.5l1.9,1.9v-2.2c0.5,0,1.7,0.5,1.7-0.7c0-1.7-1.7-3.9-2.2-5.3
		c-1.4-5.5-1.9-11.3-2.9-16.9c0-0.5-0.2-3.9-0.2-4.6l-0.7-0.5c0.2-2.4,0.2-5.3-0.5-7.7v-0.2c0,0-0.2,0-0.2,0.2c-1,1-0.7,3.4-0.7,4.3
		c0,7.2,1.4,14.7,1.4,22h-0.5C462.1,271,462.5,275.5,464.9,277.5z M465.4,282.1c0.5,0,0.5-0.7,0-0.7
		C464.9,281.3,464.9,282.1,465.4,282.1z M468.3,286.4v-0.7c0-1.4-1.2-2.7-2.4-3.6v1C465.9,284.2,466.4,286.6,468.3,286.4z
		 M466.4,290.7c-0.5,0-0.5-0.7,0-0.7C466.9,290,466.9,290.7,466.4,290.7z M466.9,294.1c0.2,0,0.2-0.5,0-0.5
		C466.4,293.4,466.4,294.4,466.9,294.1z M467.6,277c-0.2,0-0.2-0.7,0-0.7C468.3,276.3,468.3,277,467.6,277z M468.3,261.3
		c-0.7,0-0.7-0.7,0-0.7C468.6,260.6,468.6,261.3,468.3,261.3z M468.3,267.3c-0.7,0-0.7-1,0-1C468.6,266.4,468.6,267.3,468.3,267.3z
		 M468.8,263.2c0,0.2-0.2,1.9-0.2,2.4l-0.2,0.5v-2.9H468.8z M470.5,197.6c-0.5,0-0.5-0.7,0-0.7C471,196.9,471,197.6,470.5,197.6z
		 M473.9,295.8c0-1.2-1.7-1.2-2.7-1.2C471.2,296,472.9,295.8,473.9,295.8z M473.4,297.7l0.7,1h-0.2c-0.2,0-0.5-0.2-0.5-0.2
		s-0.2-0.2-0.2-0.5L473.4,297.7z M479.7,321.4c-0.5-0.2,3.4-0.2,2.9,0C482.1,321.6,480.1,321.6,479.7,321.4z M482.1,282.1
		c-0.5,0.2-0.5-0.5,0-0.5C482.3,281.6,482.3,282.1,482.1,282.1z M484.2,319.4c2.7,0,5.3,0,7.5-0.2c-0.7-1.2-1-1.4-1.9-1.4
		c-1.7,0-4.3,0.7-6.5,0.7l-0.2,0.7C483,319.7,484.2,319.4,484.2,319.4z M487.6,297.7c0,0.5,0.5,0.5,0.5,0
		C488.1,297.5,487.6,297.5,487.6,297.7z M491.7,301.1h0.5c0.5,0,1-0.2,1-0.7v-0.2C492.7,300.4,492.2,300.6,491.7,301.1z
		 M494.6,300.4v0.2c0.5,0,1.4-0.2,1.4-1C495.6,299.7,494.6,299.7,494.6,300.4z M494.9,286.9v0.2c1-0.2,1.5-1.4,1.5-2.2
		C495.6,285.4,494.9,285.9,494.9,286.9z M496.1,320.4c0.2,0,0.2-1,0-1C495.3,319.4,495.3,320.4,496.1,320.4z M496.3,270.2v0.2
		c0.2,0,0.2-0.2,0.5-0.2c1.4-1.2,2.9-2.7,3.1-4.1C498.5,266.1,496.3,268.5,496.3,270.2z M499.4,298.5c0.7,0,1.2-0.7,1.7-1.2h-0.7
		C499.9,297.3,499.4,297.7,499.4,298.5z M504.3,263.2h1v-0.7C504.7,262.5,504.3,262.8,504.3,263.2z M505.5,159c0.7,0,0.7-1,0-1
		C505.2,158.1,505.2,159,505.5,159z M519.5,202.7h0.5v-0.5L519.5,202.7z"/>
	<path class="st0" d="M631.9,281.8c-1.4,0-2.7,0.7-4.1,1c-6.8,0.7-13.5,1-20.3,1c-1.7,0-8.4-0.2-9.9-0.2c-0.5,0-2.4-0.2-2.9-0.2
		h-0.5l-1.7,0.2c-1.2,0.2-7,0.5-8.4,0.5c-1.4,1.4-8.4,18.6-8.9,20.7c-0.2,3.9,1,9.4-2.9,12.1c-1.7,1.2-4.1,0.7-5.8,1.9h-3.4
		c-3.6,0-7.2-0.7-10.6-0.7c-1.7,0-3.4,1.2-4.8,1.2c-3.9,0-9.2-1.7-9.2-6.3c0-8.9,7-20.7,10.1-29.4c4.8-13.5,8.4-27,13-40.8
		c0.2-1,0.7-1.9,0.7-2.9l14.7-42c0.5-2.4,0.7-1.4,1.4-3.6c3.6-9.2,6.3-18.6,10.1-27.7c3.6-8.2,3.1-11.1,13-12.3
		c2.9-0.5,5.3-0.5,8.2-0.5c6.3,0,11.8,1.7,17.6,3.6c1.9,0.7,2.7,4.3,4.8,5.1c2.2,3.1,3.1,6.8,4.3,10.1l5.1,16.2
		c-0.5,1.7,1.4,3.1,1.4,4.8l-0.2,0.2l-0.7,1v0.5c0.5,1.4,2.7,8.9,3.4,10.6c0,0.2,0.2,0.5,0.2,0.7c0.5,2.4,0.7,5.3,1.9,7.5
		c6.5,13.3,9.4,27.5,13.7,41.5c1,3.6,3.4,7.7,4.6,11.1c2.9,7.7,5.3,15.4,8,22.9c0.5,2.2,2.2,4.8,2.2,7c0,0.5,0.2,1.4-0.5,1.9
		c1.4,0.7,3.9,7.7,3.9,9.4v0.2c-0.2,0.2-0.7,2.2-0.7,2.4c0.2,0.2,1.4,1.4,1.9,1.7c-1.7,1.4-1.4,1.7-3.4,3.1l-0.2,0.2
		c0,1,1.9,1.2,2.4,1.2l-5.5,1.4l-1,1c-0.2,0-3.4,0.5-4.8,0.7h-0.2c-3.4,0-7-0.5-10.1-0.5c-1.4,0-2.4,0.7-3.6,0.7
		c-2.4,0-6.5-0.2-8.4-1.9c-8.4-7-10.1-26.3-13.5-36.4H631.9z M596.2,248.8c8.9,0,17.4-0.7,26.3-0.7c0.5,0,0.5-0.5,0.5-0.7
		c0-1.9-1.7-4.1-1.9-6l-4.6-11.8l-6-24.1c-2.2,1.4-4.6,13.3-5.5,16.6c-0.2,1.2-3.9,10.4-4.1,11.6l-0.5,1.7
		c-0.7,1.9-3.6,10.9-4.1,12.8V248.8z M600.3,185.1c0.5,0,0.5-1,0-1C599.8,184.1,599.8,185.1,600.3,185.1z M638.9,231.6
		c0.2,0.2,0.5,0.2,0.7,0C639.6,231.2,638.9,231.2,638.9,231.6z M664.2,309.1v-0.5h-0.5L664.2,309.1z"/>
	<path class="st0" d="M691.9,304.2c-4.6-8-6.8-14.5-7-23.6c-0.2-0.7,0-8,0-9.2c0-0.2-0.7-2.4-0.7-2.9c0.2,0,1.4-1.2,1.4-1.2
		c0.2,0,0.5-0.7,0.7-1h1.4c1.5,0,2.4,1,3.4,1c2.7,0,7-1.7,9.4-3.1l0.7,0.7c3.6-0.2,6.8,1.2,10.1,1.4c7,1,10.1,4.6,9.4,11.6
		c1-0.5,0.2-2.4,1.2-2.9c0.2,0.5,0.5,2.7,0.7,2.9v0.5c-0.2,0-0.5,0.7-0.7,1c-0.2,0.7-0.7,3.9-0.7,4.6c1.2,1.4,0.2,2.9,2.7,3.1l-1,1
		h2.2c3.9,0,9.6-1.7,12.3-5.1c0.7-1.2,1.2-6.5,1.2-7.7v-0.2l-0.2-0.2v-1.9c0-2.9,0.2-5.5,0.2-8.2c0-13.3-18.6-15.7-27.5-19.1
		c-5.1-1.9-7.7-4.3-12.1-7.2c-4.1-2.7-8.2-4.3-11.1-8.4c-1.2-1.7-5.8-8.4-6.8-10.1c-2.2-3.9-2.9-8.7-2.9-13.3
		c-2.2-14.7,1.9-33.5,15.2-44.9c2.2-0.7,4.3-2.7,6.5-3.6c6.5-3.1,13.8-4.6,21.2-4.6c0.2,0,2.4,0.5,2.7,0.5h1
		c28,1.9,32.1,5.5,41.5,9.2c13.7,11.8,9.9,37.4,8.7,37.9l-2.7,1.7c-2.2,1.2-1.9,1.9-2.7,4.3c-1.2,2.9-8.9,5.5-11.6,5.5
		c-10.1,0-17.1-9.2-17.1-19.1c0-1.9,0.5-3.9,0.5-5.8v-1.4c-4.1-3.6-15.2-11.6-24.6-1.4c-24.1,26.1,34.7,29.2,51.6,49.9
		c2.2,2.4,5.6,4.6,7.7,6.8l2.2,3.1c4.3,6.5,3.4,10.6,3.4,18.8v1.4c-0.7,0.2-0.7,0.7-0.7,1.2c0,2.4,0.7,4.8,0.7,7.5
		c0,0-2.4,15.4-14,31.6c-1.9,1.2-3.1,0.5-4.6,1.9c-0.7,0.5-3.1,3.1-3.9,3.6c-1-0.5-3.4,1.2-3.6,1.4c-2.9,1.4-1.4,5.1-5.5,5.1
		c-0.5,0-0.5-0.5-1.2-0.5c-1.9,0-0.5,3.1-2.9,2.7v-0.2c0-1,0.5-1,0.5-1.4V317c-3.4,2.4-8.9,1.7-12.8,1.7c-0.7,0-4.3-0.2-5.3-0.2
		c-1-0.5-1.7-0.2-2.9-0.2s-2.4,0.2-3.6,0.2c-5.8,0-13.3-4.8-17.9-7.7v0.5c0,0.2,2.9,2.9,4.1,4.1c0.7,0.5,4.3,3.1,5.1,3.9
		c0,0,0.2,0,0.2,0.2h-0.2l-0.5,0.5h-0.2l-7.7-3.6c-1-0.7-5.1-3.4-5.8-3.6c-2.7-1.9-4.6-10.1-7.2-10.1V304.2z M684,272.6v0.2h-0.5
		v-0.2H684z M692.7,305.2v0.5l-0.5-0.5v-0.5L692.7,305.2z M702.8,271.2c0.5,0,0.5-1.2,0-1.2C702.3,270,702.3,271.2,702.8,271.2z
		 M706.4,273.4c0.7,0,0.7-0.7,0-0.7C706.2,272.6,706.2,273.4,706.4,273.4z M708.3,216.2c0.5,1,0.7,1.2,1.9,1.2c0,0.2,0,0.5,0.5,0.5
		c0.5,0,0.5-1,0-1c-0.2,0-0.5,0.2-0.5,0.2c0-0.2-0.2-0.7-0.2-0.7c0-0.2-1.2-2.4-1.7-3.1l-0.5,0.7C707.9,214,708.1,215.5,708.3,216.2
		z M709.8,291.5c0.2,0,0.2-1,0-1C709.3,290.5,709.3,291.5,709.8,291.5z M718,320.4c0,0.7-1.4,0.7-1.7,0.7v-0.7H718z M720.4,320.4
		c0,0.2-0.2,0.5-0.5,0.5c-0.2,0-0.7-0.2-0.7-0.5H720.4z M728.4,246.1h1c0-0.5-0.5-1-1-1V246.1z M737,175c0.5,0,0.5-0.7,0-0.7
		C736.6,174.2,736.6,175,737,175z M740.7,175.4c0,0.5,0.5,0.5,0.5,0C741.4,175.2,740.7,175.2,740.7,175.4z M757.3,200
		c0,0.2,1,0.2,1,0C758.3,199.6,757.1,199.6,757.3,200z M761.9,231.4h1l-3.4-3.1h-0.2v0.2L761.9,231.4z M765.7,307.9H765l0.7-0.2
		V307.9z"/>
</g>
</svg>
