<?xml version="1.0" encoding="utf-8"?>
<!-- Generator: Adobe Illustrator 18.1.1, SVG Export Plug-In . SVG Version: 6.00 Build 0)  -->
<svg version="1.1" id="Layer_1" xmlns="http://www.w3.org/2000/svg" xmlns:xlink="http://www.w3.org/1999/xlink" x="0px" y="0px"
	 width="228.8px" height="228.8px" viewBox="64 -64.8 228.8 228.8" enable-background="new 64 -64.8 228.8 228.8"
	 xml:space="preserve">
<g>
	<g>
		<g>
			<path fill="#FFFFFF" d="M157.7,121.4L157.7,121.4c-0.1,0-1.4-0.1-2.6-0.8c-1-0.5-5.3-0.8-6.2-0.6c-0.7,0.1-2.8,0.4-3.9-0.9
				c-0.2-0.2-0.3-0.3-0.5-0.3c-0.8-0.3-0.9-0.9-0.7-1.7c0.2-0.9,0-2.4-0.2-3.1l-0.1,0.1c-0.5,0.3-1.4,1.1-2.2,0.3
				c-0.9-0.8-2.6-4.1-2.2-6.4c0.3-1.4,0.6-1.9,1-2.3c0.2-0.2,0.3-0.4,0.5-0.8c0.2-0.5,0.4-0.9,0.6-1.2c0.2-0.5,0.5-0.9,0.8-1.7
				c0.2-0.5,0.1-1.2,0-2c-0.1-0.9-0.3-1.8,0-2.8c0.3-0.8,0.5-1.3,0.7-1.6c0.2-0.3,0.3-0.5,0.3-0.8c0.1-0.3,0.2-0.6,0.2-0.8
				c0.2-0.5,0.3-0.9,0.3-1.8c0-0.1,0-0.3,0-0.6c0-0.1,0-0.2,0-0.3v-0.4c0-0.2-0.1-0.5-0.1-0.7c-0.2-1.3-0.3-2.5-0.1-3.2
				c0-0.2,0.1-0.3,0.2-0.5c0.3-0.8,0.4-1.2,0.2-1.7c-0.2-0.4-1-0.6-1.4-0.6c-0.3,0-0.6-0.2-0.6-0.5c-0.1-0.2,0-0.6,0.2-0.9
				c0.3-0.4,0.9-0.7,1.8-0.7c0.8-0.1,1.1-0.3,1.2-0.5l0,0c-0.1-0.1-0.7-0.2-1-0.3c-0.8-0.1-1.8-0.3-1.9-1.2c0-0.6,0.2-1,0.5-1.3
				c0.2-0.3,0.2-0.4,0.2-0.5c-0.1-0.5-0.5-1.2-1-2c-0.1-0.2-0.1-0.3-0.2-0.6c0-0.2-0.2-0.9-0.4-1c-1.1-0.5-0.8-3.7-0.7-4.5
				c0.2-1,0.6-1.5,1.2-1.5v-0.1c0-0.3-0.1-0.7-0.4-1.2c-0.1-0.1-0.1-0.3-0.2-0.5v-0.1c-0.1-0.2-0.1-0.4-0.1-0.6V66
				c0-0.2-0.1-0.4-0.1-0.6v-0.2c0-0.2,0-0.4-0.1-0.6c0-0.1,0-0.1,0-0.2v-0.1c0-0.1,0-0.3,0-0.4v-0.3c0-0.8,0-1.6,0-2.1
				c0-0.9,0.2-1.5,0.3-2c0.2-0.5,0.2-0.6,0.1-0.7c-0.1-0.1-0.1-0.2-0.2-0.3c-0.4-0.6-0.8-1.2-0.3-2c0.3-0.5,0.6-0.8,0.8-1
				c0-0.1,0-0.1,0-0.2c0-0.7,0-2,0.7-2.7c0.7-0.8,0.9-1.1,1.2-1.6c0.1-0.4-0.8-1.9-1.1-2.4c-0.6-1.1-0.9-3.6-0.6-5.4
				c0.3-1.6,0.9-2.5,1.4-3.2l0,0c0.1-0.1,0.2-0.2,0.2-0.3l0.1-0.2c0.1-0.2,0.3-0.4,0.4-0.6c0.1-0.2,0.2-0.3,0.3-0.5
				c0.1-0.2,0.2-0.3,0.2-0.5c0.2-0.5,0.2-0.8,0.2-1c-0.1-0.6-0.5-1.4-1-2.4c-0.6-1.1,1.8-4.8,1.8-4.9c0.7-1,0.4-4,0.1-4.5
				c-0.1,0-0.2-0.1-0.3-0.1c-0.4-0.2-0.9-0.4-1.1-0.9c-0.1-0.4-0.1-0.8,0.2-1.4c0.1-0.2,0.2-0.4-0.1-1.1l0,0c-0.2-0.3-0.4-0.7-0.5-1
				c-0.3-0.6-0.6-1.1-0.7-1.5c0-0.5,0-0.9,0.2-1.2c-0.6-0.5-1.3-1.3-1.3-2c0-0.6,0.4-2.8,0.8-4.3v-0.1c0.1-0.2,0.1-0.4,0.2-0.5l0,0
				c0.1-0.1,0.1-0.3,0.2-0.4v-0.1c0.1-0.2,0.1-0.3,0.2-0.4c0.4-0.6,0.9-0.7,1.1-0.8l0,0c0,0,0-0.1,0-0.2c0-0.4-0.3-1.3-0.5-2
				c-0.4-1-0.7-1.9-0.6-2.6c0.1-0.7,0.5-1.2,0.8-1.5s0.4-0.5,0.4-0.9c0-0.2,0-0.4,0-0.6V1.2c0-0.2,0.1-0.5,0.1-0.7l0,0
				c0-0.3,0.1-0.5,0.2-0.8s0.2-0.6,0.3-0.9c0.4-1,0.9-2.1,1.6-3.1v-0.1c0.8-1.2,1.1-1.9,1.3-2.4c0.1-0.3,0.2-0.5,0.3-0.7
				c0,0,0,0,0-0.1c0.1-0.1,0.1-0.2,0.2-0.2c0,0,0.1-0.1,0.2-0.1c0.1-0.1,0.3-0.1,0.4-0.2c0.1,0,0.2,0,0.4-0.1c0.1,0,0.4-0.1,0.5-0.1
				l-0.1-0.1l-0.5-0.4C149.1-9,149-9,149-9.1l-0.1-0.1c-0.1-0.1-0.2-0.2-0.2-0.3s-0.1-0.1-0.1-0.2l0.6-0.3l-0.6,0.3
				c0-0.1-0.1-0.2-0.1-0.4c0-0.1,0-0.2,0-0.3l0,0c0-0.4,0-0.8,0.1-1.2c0.4-1.3,0.3-1.5,0.1-2.1c-0.1-0.3-0.2-0.6-0.3-1
				c-0.3-1.3,0.2-2.3,0.5-2.9c-0.4-0.5-1-1.5-0.9-2.6c0-0.1,0.1-0.3,0.2-0.5c0,0,0-0.1,0.1-0.1c0.1-0.1,0.1-0.2,0.2-0.3
				c0,0,0,0,0.1-0.1c0.1-0.1,0.2-0.2,0.3-0.2l0.1-0.1c0.1-0.1,0.1-0.1,0.2-0.1c0.2-0.1,0.5-0.3,0.8-0.5l0,0c0.5-0.3,1.1-0.5,1.6-0.7
				c0.8-0.3,1.9-0.8,2.1-1.1c0.1-0.4,0.2-1.1,0.4-1.8v-0.1v-0.1c0.3-1.9,0.4-2.7,0.4-2.8c-0.1-0.5-0.3-0.9-0.3-0.9
				c-0.2,0-0.2-0.3-0.2-0.5c0.1-0.2,0.9-2.3,2.4-3c1.1-0.5,1.3-0.9,1.7-1.6c0.3-0.5,0.3-0.9,0.3-0.9c0-0.2,0.2-0.5,0.4-0.6
				s0.5-0.1,0.7,0.1l2.3,1.9c0.4,0,1.2-0.1,2.1-0.1c1,0,1.7,0,2.3,0.1c1,0.2,1.6,0.9,2,1.7c0.6-1.3,1.7-2.8,3.1-2.9
				c1.9-0.1,6.8,1.9,7.5,3.2l0.1,0.1v0.1c0.3,0.8,0.9,2.5,2.4,3.3c1.6,0.8,2.7,2.3,3.1,2.9c1,0.3,3.8,1,4.5,1.4
				c0.2,0.2,0.7,0.5,1.3,1c1.3,1,3.1,2.4,4.3,3c1.1,0.6,2.2,0.8,3,1c0.4,0.1,0.7,0.2,1,0.3c0.6,0.3,1.2,1.5,1.6,3.7
				c0,0.2,0,0.4-0.1,0.5c-1.2,1.4-2.5,3.2-2.7,3.7c-0.1,0.5-0.6,1.4-1.4,2.8l-0.3,0.5l0,0c-0.1,0.1-0.1,0.2-0.2,0.3
				c0.1,0,0.2,0,0.3,0h0.3c0.2,0,0.4,0,0.6,0l0,0c0.2,0,0.3,0,0.4,0l0,0c0.6,0.1,1,0.1,1.3,0.3c0.5,0.2,1.6,0.4,4.2,0.4
				c0.6,0,1.2,0.5,1.6,1c0,0,0.1,0.1,0.2,0.2c0.2-0.4,0.5-0.9,1-1.2c0.1,0,0.1-0.1,0.2-0.1c0.2-0.1,0.5-0.1,0.8-0.2h0.1l0,0
				c0.1,0,0.2,0,0.3,0c1.1,0.1,4.1-2.2,4.7-3.4c0.4-0.9,0.4-2,0.3-2.8c0-0.3,0-0.5,0-0.7c0-1.1,0.9-1.7,1.4-1.9
				c0.3-0.1,0.5,0,0.7,0.2l0,0c0,0,0.5,0.4,1.7,0.4c0.4,0,0.8,0.2,1.1,0.5c1.1,1.2,0.8,4.4,0.6,5.7c-0.2,1.9-1.6,3.5-3.9,4.6
				c-0.4,0.2-0.8,0.4-1.2,0.5c-1.8,0.8-3.5,1.6-4.6,3.1c-0.1,0.1-0.2,0.2-0.3,0.4c0,0.1-0.1,0.1-0.2,0.2c-0.1,0.1-0.1,0.2-0.2,0.2
				c-0.7,0.8-1.8,1.8-3,2.9c-2.2,2.1-6.3,5.9-6.3,6.8c0,0.4,0,0.7-0.1,1.1v0.1v0.1c0,0.3-0.1,0.6-0.2,0.9c0,0.1-0.1,0.3-0.1,0.4
				c-0.1,0.5-0.3,1-0.3,1.5c0,0.2,0,0.5,0,0.7c0,1-0.2,1.9-0.5,2.7c-0.2,0.7-0.4,1.3-0.4,1.9c0,1-0.2,1.5-0.5,2.1
				c-0.2,0.5-0.4,1-0.7,2c-0.3,1.3-0.4,2.8-0.5,3.8c0,0.2,0,0.3,0,0.5c0,0.1,0,0.2,0,0.3c0,0.1,0,0.2,0,0.3c0,0.1,0,0.3,0,0.4v0.1
				c0,0.1,0,0.3,0,0.4s0,0.2,0,0.2c0.1,0.4,1.7,1.7,2.6,2.5c0.2,0.2,0.4,0.3,0.6,0.5c1.4,1.2,1,2.8,0.7,3.8
				c-0.1,0.3-0.1,0.5-0.2,0.7c0,0.4,0.3,1.1,0.8,1.6c0.2,0.2,0.4,0.3,0.4,0.3c0.7-0.1,1.3,0.3,1.6,1.1c0.3,0.8,0.3,2.1-1.1,3.1
				c-1.1,0.8-1.5,1.7-2,2.7c-0.2,0.4-0.4,0.9-0.7,1.4c-0.9,1.5-2.2,2.3-3.8,3.2c-0.4,0.2-0.8,0.5-1.2,0.7c-2.3,1.4-9.6,1.9-11.2,1.7
				c-1-0.1-1.9-0.7-2.6-1.2c-0.3-0.2-0.8-0.5-1-0.6c-0.1,0.3,0.5,1.2,0.7,1.6c0.3,0.6,0.6,1,0.6,1.4c0,0.5-0.3,0.9-0.6,1.3
				c-0.3,0.4-0.5,0.8-0.5,1.2c0,0.5-0.1,1-0.2,1.4c-0.1,0.5-0.2,1-0.1,1.2c0.6,1,0.5,2.2-0.5,2.9c-0.4,0.4-0.8,0.6-1.3,0.9
				c-0.9,0.6-1.9,0.9-2.8,0.9c-1,0-2-0.6-3.1-1.3c-0.8-0.5-1.9-1.2-2.3-1c-0.6,0.2-0.6,3.2-0.1,5.3h0.1c0.4,0,1.4-0.1,1.7,1
				c0.1,0.2,0.2,0.4,0.2,0.5c0-0.1,0-0.1,0-0.2c0-0.2,0.1-0.5,0.3-0.6l1.8-1c0.2-0.1,0.4-0.1,0.5-0.1c0.2,0.1,0.3,0.2,0.4,0.4
				c0.1,0.1,0.6,1.3,0.6,2.3V69c0,0.9,0,2.6-1.4,3c-0.8,0.2-1.4-0.2-1.9-0.6c0,0,0,0,0,0.1c0.1,0.3,0.4,0.6,0.5,0.7
				c0.2,0.2,0.3,0.4,0.2,0.6c0,0.2-0.2,0.4-0.4,0.5c-1.4,0.6-3,1.6-3.1,2.1c-0.1,0.6,0,1.5,0,2.3c0.1,1.2,0.1,1.8-0.1,2.2
				c-0.1,0.2-0.3,0.4-0.5,0.6c-0.5,0.5-1,0.9-0.8,1.5c0.1,0.6-0.1,1-0.7,1.3c-0.3,0.2-0.8,0.2-1.2,0.3c-1.1,0.2-2.4,0.5-3.3,1.7
				c-0.6,0.9-0.9,1.7-1,2.3c0,0.6,0.2,1.1,0.6,1.7c0.1,0.1,0.2,0.3,0.3,0.5v0.1l0,0c0.1,0.1,0.1,0.3,0.2,0.4v0.1
				c0.1,0.2,0.1,0.3,0.2,0.5c0.1,0.2,0.2,0.5,0.2,0.7l0,0c0,0.1,0.1,0.2,0.1,0.3V92c0,0.1,0.1,0.1,0.1,0.2l0,0
				c0.1,0.1,0.1,0.1,0.1,0.1l0,0c0.3,0.1,1.1,0,1.6,0c1-0.1,1.6-0.1,1.9,0.1c0.4,0.2,0.9,0.8,1.4,1.8c0.3,0.5,0,0.9-0.4,1.5
				c-0.1,0.2-0.4,0.7-0.4,0.8c0,0.8-1.4,3.4-2.8,4c-0.7,0.3-1.6,1.4-2.6,3.3c-0.2,0.3-0.3,1.4-0.4,2.1c-0.1,1.2-0.3,2-0.5,2.5
				c-0.2,0.4-0.7,0.7-1.5,1.2c-0.7,0.5-1.8,1.2-2,1.7c-0.4,1.1-0.4,1.9-0.2,2.5c0.2,0.5,0.3,1.1,0.3,1.7c0.1,0.5,0.1,1.1,0.3,1.4
				c0.3,0.6,1.7,2.5,2.2,3.1c0.2,0.2,0.2,0.5,0.1,0.7C158.2,121.3,158,121.4,157.7,121.4z M149.7,118.6c1.7,0,4.9,0.2,6,0.8
				c0.1,0.1,0.2,0.1,0.3,0.1c-0.5-0.7-1-1.4-1.2-1.8c-0.2-0.5-0.3-1.2-0.4-1.8c0-0.5-0.1-1-0.2-1.3c-0.4-0.9-0.3-2,0.2-3.4
				c0.3-0.9,1.5-1.7,2.5-2.3c0.4-0.3,1-0.7,1.1-0.8c0.1-0.2,0.2-1.2,0.3-1.9c0.2-1.3,0.3-2.1,0.6-2.6c0.9-1.5,2-3.2,3.2-3.8
				c0.9-0.4,2-2.4,2.1-2.9c0-0.5,0.3-1,0.6-1.5c0.1-0.1,0.2-0.3,0.2-0.4c-0.5-0.8-0.7-1-0.8-1.1c-0.2,0-0.8,0-1.2,0.1
				c-0.8,0.1-1.6,0.1-2.2,0c-0.2-0.1-0.4-0.2-0.5-0.3c-0.1-0.1-0.2-0.2-0.3-0.3c0,0,0,0-0.1-0.1c-0.1-0.1-0.1-0.2-0.2-0.3v-0.1
				c-0.1-0.1-0.1-0.3-0.2-0.4l0,0c-0.1-0.2-0.2-0.5-0.3-0.7s-0.1-0.3-0.2-0.5v-0.1c0-0.1-0.1-0.2-0.1-0.3v-0.1
				c-0.1-0.2-0.1-0.3-0.2-0.4c-0.4-0.6-0.8-1.4-0.7-2.5c0.1-0.9,0.5-1.8,1.2-2.9c1.1-1.7,2.9-2,4.1-2.2c0.3-0.1,0.7-0.1,0.9-0.2
				c-0.2-1.2,0.7-2.1,1.3-2.6c0.1-0.1,0.2-0.2,0.3-0.3c0-0.2,0-0.9,0-1.5c-0.1-0.9-0.1-1.8,0-2.5c0.2-1.2,1.9-2.2,3.1-2.8
				c-0.1-0.1-0.2-0.3-0.2-0.4c-0.1-0.1-0.3-0.1-0.4-0.2c-0.4-0.2-1-0.5-1.2-1c-0.1-0.2-0.1-0.5,0.1-0.9c0.2-0.3,0.4-0.5,0.8-0.6
				c0.3-0.1,0.5,0,0.8,0c-0.3-0.3-0.6-0.7-0.8-1.2c0-0.1,0-0.1,0-0.1s-0.2,0-0.3,0c-0.3,0-1.2,0.1-1.5-0.9c0-0.1-1.3-6.1,0.9-7
				c1.1-0.4,2.3,0.4,3.5,1.1c0.8,0.5,1.7,1.1,2.3,1.1c0.7,0,1.4-0.3,2.2-0.7c0.4-0.2,0.7-0.5,1.1-0.8c0.4-0.3,0.5-0.7,0.2-1.2
				c-0.4-0.7-0.3-1.4-0.1-2.2c0.1-0.4,0.2-0.8,0.2-1.1c0-0.8,0.4-1.4,0.8-2c0.1-0.2,0.3-0.5,0.3-0.6c0-0.1-0.3-0.5-0.4-0.8
				c-0.6-0.9-1.3-2.2-0.6-3.1c0.8-1,1.9-0.2,2.7,0.3c0.6,0.4,1.3,0.9,2,1c1.8,0.2,8.5-0.4,10.4-1.5c0.4-0.3,0.8-0.5,1.2-0.7
				c1.5-0.8,2.6-1.5,3.3-2.7c0.3-0.4,0.5-0.9,0.7-1.3c0.5-1.1,1-2.2,2.4-3.2c0.8-0.6,0.7-1.2,0.7-1.4c-0.1-0.3-0.2-0.4-0.3-0.4
				c-0.5,0.1-1-0.1-1.5-0.6c-0.6-0.6-1.3-1.7-1.2-2.7c0-0.3,0.1-0.6,0.2-1c0.3-1.1,0.4-1.8-0.3-2.4c-0.2-0.2-0.4-0.3-0.6-0.5
				c-1.8-1.5-2.9-2.4-3.1-3.3c0-0.1,0-0.2,0-0.3c0-0.1,0-0.3,0-0.4v-0.1c0-0.1,0-0.3,0-0.4c0-0.1,0-0.2,0-0.3c0-0.1,0-0.2,0-0.3
				c0-0.2,0-0.3,0-0.5c0-1.1,0.1-2.7,0.5-4.1c0.3-1.1,0.6-1.7,0.8-2.2c0.2-0.6,0.4-0.9,0.4-1.5c0-0.8,0.2-1.5,0.4-2.3
				c0.2-0.8,0.4-1.5,0.4-2.4c0-0.3,0-0.5,0.1-0.8c0.1-0.6,0.2-1.1,0.3-1.7c0-0.1,0.1-0.3,0.1-0.4c0.1-0.3,0.1-0.5,0.2-0.8V11v-0.1
				c0.1-0.4,0.1-0.6,0.1-0.9c0-1.4,2.7-4,6.7-7.8c1.2-1.1,2.2-2.1,2.9-2.8c0.1-0.1,0.1-0.2,0.2-0.2c0-0.1,0.1-0.1,0.1-0.2
				c0.1-0.1,0.2-0.2,0.3-0.3c1.3-1.8,3.2-2.6,5.2-3.5c0.4-0.2,0.8-0.3,1.1-0.5c1.9-0.9,3-2.1,3.2-3.6c0.3-2.2,0.2-4.1-0.3-4.7
				c-0.1-0.1-0.1-0.1-0.1-0.1c-1.1,0-1.8-0.3-2.2-0.5c-0.1,0.1-0.2,0.3-0.2,0.5c0,0.2,0,0.4,0,0.6c0,1,0.1,2.3-0.5,3.5
				c-0.7,1.3-3.9,4.1-5.9,4.1H207h-0.1h-0.1l0,0c-0.1,0-0.2,0-0.3,0c0,0-0.1,0-0.1,0.1c-0.3,0.1-0.4,0.3-0.5,0.7
				c-0.1,0.1-0.1,0.3-0.2,0.4C205.5-4.1,205.3-4,205-4c-0.5,0.1-0.9-0.4-1.4-0.8c-0.2-0.2-0.5-0.5-0.7-0.6c-2.3,0-3.8-0.2-4.7-0.5
				C198-6,197.7-6,197.3-6.1l0,0c-0.1,0-0.3,0-0.4,0l0,0c-0.2,0-0.4,0-0.6,0h-0.4c-0.1,0-0.2,0-0.4,0l0,0c-0.1,0-0.2,0-0.3,0h-0.1
				c-0.1,0-0.3-0.1-0.3-0.1l0,0c-0.1-0.1-0.2-0.1-0.3-0.2l-0.1-0.1c-0.1-0.2-0.1-0.4-0.1-0.7c0.1-0.2,0.2-0.5,0.5-1.1l0,0l0.2-0.4
				c0.4-0.7,1.1-2,1.2-2.3c0.1-0.7,1.5-2.6,2.8-4.1c-0.2-1.1-0.6-2.2-0.8-2.5c-0.2-0.1-0.4-0.1-0.7-0.2c-0.8-0.2-2-0.5-3.3-1.1
				c-1.3-0.6-3.2-2.2-4.5-3.2c-0.5-0.4-1-0.8-1.2-0.9c-0.4-0.2-2.5-0.9-4.4-1.3c-0.2,0-0.3-0.2-0.4-0.3c0,0-1-1.7-2.7-2.6
				c-1.9-1-2.7-2.9-3-3.9c-0.1-0.1-0.1-0.2-0.1-0.3c-0.6-0.6-4.6-2.4-6.3-2.4c-1,0-2.1,2.2-2.6,3.8c-0.1,0.3-0.4,0.5-0.7,0.5
				c-0.3,0-0.6-0.3-0.6-0.6c-0.1-0.6-0.5-2.4-1.5-2.5c-0.5-0.1-1.2-0.1-2.1-0.1c-1.2,0-2.3,0.1-2.3,0.1c-0.2,0-0.3,0-0.5-0.1
				l-1.8-1.4c-0.1,0.1-0.1,0.3-0.2,0.4c-0.5,0.8-0.8,1.5-2.3,2.1c-0.7,0.3-1.3,1.3-1.5,1.9c0.1,0.3,0.3,0.7,0.4,1.2
				c0.1,0.4-0.1,1.5-0.4,3.1c0,0.1,0,0.1,0,0.2c0,0.2,0,0.4-0.2,0.6c-0.1,0.7-0.3,1.2-0.3,1.6c-0.2,0.7-1.1,1.1-2.9,1.9
				c-0.5,0.2-1.1,0.5-1.6,0.7l0,0c-0.3,0.1-0.5,0.3-0.7,0.4l-0.1,0.1c-0.1,0-0.1,0.1-0.1,0.1c-0.1,0-0.1,0.1-0.2,0.1l0,0
				c0,0,0,0-0.1,0.1l0,0c-0.1,0.7,0.6,1.6,0.9,1.8c0.2,0.2,0.3,0.6,0,0.9c0,0-0.9,1-0.6,2.2c0.1,0.4,0.2,0.7,0.3,0.9
				c0.3,0.8,0.4,1.4-0.1,3c-0.1,0.3-0.1,0.5-0.1,0.7v0.1l0,0c0,0,0,0,0,0.1v0.1c0,0,0,0,0.1,0.1c0,0,0,0,0.1,0.1l0.1,0.1l0.5,0.3
				c0.1,0.1,0.2,0.1,0.2,0.2l0.1,0.1c0.1,0.2,0.2,0.3,0.3,0.5c0.1,0.5,0,0.8-0.1,1c-0.3,0.5-1,0.6-1.5,0.7c-0.1,0-0.2,0-0.3,0.1l0,0
				c-0.1,0.1-0.1,0.2-0.2,0.4c-0.2,0.5-0.6,1.3-1.4,2.6v0.1c-0.6,0.9-1.1,1.8-1.4,2.8c-0.1,0.3-0.2,0.6-0.3,0.8
				c-0.1,0.3-0.1,0.5-0.2,0.7l0,0c0,0.2-0.1,0.4-0.1,0.6v0.1c0,0.2,0,0.4,0,0.5c0,0.9-0.4,1.4-0.8,1.8c-0.2,0.3-0.4,0.4-0.4,0.7
				c-0.1,0.4,0.3,1.2,0.5,2c0.3,0.9,0.7,1.8,0.6,2.5c-0.1,0.9-0.5,1.2-1,1.4c-0.2,0-0.3,0.1-0.4,0.3c0,0,0,0.1-0.1,0.2v0.1
				c0,0.1-0.1,0.2-0.1,0.3c-0.1,0.2-0.1,0.3-0.2,0.5V12c-0.4,1.5-0.8,3.5-0.8,3.9c0,0.2,0.6,0.9,1.3,1.4c0.2,0.1,0.3,0.4,0.3,0.6
				c0,0.2-0.1,0.4-0.3,0.5c0,0-0.1,0.2-0.1,0.6c0,0.2,0.3,0.6,0.5,1c0.2,0.3,0.4,0.7,0.6,1.1l0,0c0.2,0.3,0.6,1.4,0.1,2.3
				c-0.1,0.1-0.1,0.2-0.1,0.3c0.1,0.1,0.2,0.1,0.3,0.2c0.3,0.1,0.6,0.2,0.8,0.5c0.7,0.8,1,4.7,0,6.2c-0.8,1.2-1.6,3.1-1.7,3.6
				c0.3,0.5,0.9,1.7,1.1,2.7c0.1,0.5,0,1.1-0.3,1.7c-0.1,0.2-0.2,0.4-0.3,0.6s-0.2,0.4-0.3,0.5c-0.2,0.3-0.3,0.5-0.4,0.7l-0.1,0.2
				c-0.1,0.1-0.1,0.2-0.2,0.3l-0.1,0.1c-0.5,0.6-1,1.4-1.2,2.6c-0.3,1.6,0,3.7,0.5,4.5c0.9,1.5,1.6,2.9,1.1,3.7
				c-0.3,0.6-0.6,1-1.4,1.9c-0.4,0.4-0.4,1.4-0.4,1.9s0,0.9-0.4,1.1c-0.1,0.1-0.4,0.2-0.6,0.6c-0.1,0.1-0.1,0.2,0.3,0.7
				c0.1,0.1,0.1,0.2,0.2,0.3c0.4,0.7,0.2,1.3,0.1,1.8c-0.1,0.4-0.3,0.9-0.3,1.6s0,1.4,0,2.1v0.3c0,0.1,0,0.2,0,0.4v0.1
				c0,0.1,0,0.1,0,0.2c0,0.2,0,0.4,0.1,0.6v0.2c0,0.2,0,0.3,0.1,0.5v0.1c0,0.2,0.1,0.3,0.1,0.5V67c0,0.1,0.1,0.2,0.1,0.3
				c0.4,0.6,0.5,1.3,0.5,1.8c0,0.7-0.4,1.3-1.1,1.4c-0.3,0.6-0.4,3-0.1,3.6c0.7,0.4,0.9,1.3,1,1.9c0,0.1,0,0.2,0,0.2
				c0.4,0.6,0.8,1.5,1.1,2.2c0.2,0.7-0.1,1.3-0.4,1.6c-0.1,0.1-0.2,0.2-0.2,0.3c0.2,0.1,0.5,0.1,0.7,0.1c0.6,0.1,1.3,0.2,1.7,0.6
				c0.4,0.4,0.6,0.9,0.4,1.4c-0.2,0.7-1,1.2-2,1.3c0.3,0.2,0.6,0.5,0.8,0.9c0.5,1,0.2,1.9-0.1,2.7c0,0.1-0.1,0.3-0.1,0.4
				c-0.1,0.4,0,1.7,0.1,2.6c0,0.2,0.1,0.5,0.1,0.7v0.4c0,0.1,0,0.2,0,0.3c0,0.3,0,0.5,0,0.7c0,1.1-0.2,1.7-0.4,2.2
				c-0.1,0.2-0.2,0.4-0.2,0.7c-0.1,0.5-0.3,0.8-0.5,1.2c-0.2,0.3-0.4,0.7-0.6,1.4c-0.2,0.6-0.1,1.3,0,2.1c0.1,0.9,0.3,1.8,0,2.6
				c-0.3,0.9-0.6,1.4-0.8,1.8c-0.2,0.3-0.4,0.7-0.6,1.1c-0.2,0.5-0.5,0.8-0.7,1.1c-0.3,0.4-0.5,0.6-0.7,1.7
				c-0.3,1.7,1.1,4.6,1.8,5.2c0.1,0,0.4-0.2,0.5-0.3c0.4-0.3,1-0.8,1.6-0.3c0.8,0.7,1.1,3.4,0.8,4.6c0,0.1,0,0.1,0,0.2
				c0.3,0.1,0.6,0.3,1,0.7c0.4,0.5,1.3,0.6,2.6,0.4C148.9,118.6,149.3,118.6,149.7,118.6z M143.5,113.7L143.5,113.7L143.5,113.7z
				 M164.2,93.8L164.2,93.8L164.2,93.8z M161.4,92.6L161.4,92.6L161.4,92.6z M142.7,75.6L142.7,75.6L142.7,75.6z M170.2,70.2
				c0.1,0,0.1,0.1,0.2,0.1c0.1,0.1,0.2,0.1,0.2,0.2c0,0,0.4,0.6,0.9,0.5c0.4-0.1,0.4-1.1,0.4-1.7v-0.1c0-0.3-0.1-0.7-0.2-1l-0.4,0.2
				c0,0.1,0.1,0.2,0.1,0.3c0,0.2,0,0.6-0.3,1C170.9,70,170.5,70.2,170.2,70.2z M143.1,50.9L143.1,50.9L143.1,50.9z M144.5,34
				L144.5,34L144.5,34z M144.4,21.1L144.4,21.1L144.4,21.1z M144,18.2L144,18.2L144,18.2z M197.6-11.1L197.6-11.1L197.6-11.1z
				 M198.2-17.8L198.2-17.8L198.2-17.8z"/>
		</g>
		<g>
			<path fill="#FFFFFF" d="M164.3,135.5c-0.7,0-1.5-0.4-1.8-0.6h-5.3c-0.4,0-0.7-0.3-0.7-0.7v-11.3c0-0.3,0.2-0.6,0.5-0.6
				c0.3-0.1,0.6,0.1,0.7,0.3c0.1,0.1,0.8,1.5,0.8,2.6c0,0.2,0.6,0.8,0.9,1.1c0.5,0.5,1.1,1.1,1.6,1.8c0.4,0.7,0.7,0.8,1.1,1
				c0.5,0.2,1,0.5,1.8,1.2c0.8,0.8,1.2,0.9,1.6,1c0.3,0.1,0.6,0.2,1,0.6c0.2,0,0.6-0.2,0.8-0.3c0.4-0.2,0.7-0.4,1.1-0.4
				c0.3,0,0.6,0.1,0.8,0.4c0.3,0.5,0,1.2-0.3,1.9c0,0.1-0.1,0.2-0.1,0.2c-0.4,0.8-1.4,1.1-2.6,0.7c-0.1,0.2-0.4,0.4-0.8,0.6
				C165,135.4,164.6,135.5,164.3,135.5z M157.9,133.6h4.9c0.1,0,0.3,0,0.4,0.1c0.3,0.2,1.1,0.6,1.5,0.4c0.3-0.1,0.4-0.3,0.5-0.4
				c0.2-0.3,0.5-0.5,0.9-0.4c-0.2-0.1-0.4-0.2-0.5-0.4c-0.1-0.1-0.1-0.1-0.4-0.2c-0.4-0.1-1.1-0.4-2-1.3c-0.6-0.6-1-0.8-1.4-1
				c-0.5-0.2-1.1-0.5-1.7-1.5c-0.4-0.6-0.9-1.1-1.4-1.6c-0.2-0.2-0.5-0.5-0.7-0.7v7H157.9z M166.4,133.4L166.4,133.4
				c0.6,0.2,1.1,0.1,1.1,0c0-0.1,0.1-0.2,0.1-0.3V133C167.3,133.2,166.8,133.4,166.4,133.4L166.4,133.4z"/>
		</g>
	</g>
	<g>
		<path fill="#FFFFFF" d="M174.7,40.7c0,1.1-0.4,2-1.2,2.8c-0.8,0.8-1.8,1.1-2.9,1.1h-0.4c-1.1,0-2.1-0.4-2.9-1.1
			c-0.8-0.8-1.2-1.7-1.2-2.8v-3.9c0-0.2,0.1-0.3,0.2-0.5c0.1-0.1,0.3-0.2,0.5-0.2h1.5c0.2,0,0.4,0.1,0.5,0.2s0.2,0.3,0.2,0.5v3.7
			c0,0.4,0.1,0.8,0.4,1.1c0.3,0.3,0.6,0.5,1,0.5c0.3,0,0.7-0.2,0.9-0.5c0.3-0.3,0.4-0.7,0.4-1.1v-3.7c0-0.2,0.1-0.3,0.2-0.5
			c0.1-0.1,0.3-0.2,0.5-0.2h1.5c0.2,0,0.4,0.1,0.5,0.2c0.2,0.1,0.2,0.3,0.2,0.5v3.9H174.7z"/>
		<path fill="#FFFFFF" d="M168.3,33.1h-1.5c-0.4,0-0.7-0.3-0.7-0.7v-1.5c0-0.4,0.3-0.7,0.7-0.7h1.5c0.4,0,0.7,0.3,0.7,0.7v1.5
			C169,32.8,168.7,33.1,168.3,33.1z"/>
		<path fill="#FFFFFF" d="M174,33.1h-1.5c-0.4,0-0.7-0.3-0.7-0.7v-1.5c0-0.4,0.3-0.7,0.7-0.7h1.5c0.4,0,0.7,0.3,0.7,0.7v1.5
			C174.7,32.8,174.4,33.1,174,33.1z"/>
	</g>
	<g>
		<path fill="#FFFFFF" d="M161.1,10.3c0,0.7-0.3,1.4-0.8,1.9c-0.6,0.5-1.2,0.8-2,0.8H158c-0.8,0-1.4-0.3-2-0.8s-0.8-1.2-0.8-1.9V7.6
			c0-0.1,0-0.2,0.1-0.3c0.1-0.1,0.2-0.1,0.3-0.1h1.1c0.1,0,0.3,0,0.3,0.1c0.1,0.1,0.1,0.2,0.1,0.3v2.5c0,0.3,0.1,0.6,0.3,0.8
			c0.2,0.2,0.4,0.3,0.7,0.3c0.2,0,0.5-0.1,0.6-0.3c0.2-0.2,0.3-0.5,0.3-0.8V7.6c0-0.1,0-0.2,0.1-0.3c0.1-0.1,0.2-0.1,0.4-0.1h1.1
			c0.1,0,0.2,0,0.4,0.1c0.1,0.1,0.2,0.2,0.2,0.3v2.7H161.1z"/>
		<path fill="#FFFFFF" d="M156.6,5.1h-1.1c-0.3,0-0.5-0.2-0.5-0.5V3.5c0-0.3,0.2-0.5,0.5-0.5h1.1c0.3,0,0.5,0.2,0.5,0.5v1.1
			C157.1,4.9,156.9,5.1,156.6,5.1z"/>
		<path fill="#FFFFFF" d="M160.6,5.1h-1.1c-0.3,0-0.5-0.2-0.5-0.5V3.5c0-0.3,0.2-0.5,0.5-0.5h1.1c0.3,0,0.5,0.2,0.5,0.5v1.1
			C161.1,4.9,160.9,5.1,160.6,5.1z"/>
	</g>
	<g>
		<path fill="#FFFFFF" d="M187.8-6.4c0,0.7-0.3,1.4-0.8,1.9c-0.6,0.5-1.2,0.8-2,0.8h-0.3c-0.8,0-1.4-0.3-2-0.8
			c-0.6-0.5-0.8-1.2-0.8-1.9v-2.7c0-0.1,0-0.2,0.1-0.3c0.1-0.1,0.2-0.1,0.3-0.1h1.1c0.1,0,0.3,0,0.3,0.1c0.1,0.1,0.1,0.2,0.1,0.3
			v2.5c0,0.3,0.1,0.6,0.3,0.8c0.2,0.2,0.4,0.3,0.7,0.3c0.2,0,0.5-0.1,0.6-0.3c0.2-0.2,0.3-0.5,0.3-0.8v-2.5c0-0.1,0-0.2,0.1-0.3
			c0.1-0.1,0.2-0.1,0.4-0.1h1.1c0.1,0,0.2,0,0.4,0.1c0.1,0.1,0.2,0.2,0.2,0.3v2.7H187.8z"/>
		<path fill="#FFFFFF" d="M183.3-11.6h-1.1c-0.3,0-0.5-0.2-0.5-0.5v-1.1c0-0.3,0.2-0.5,0.5-0.5h1.1c0.3,0,0.5,0.2,0.5,0.5v1.1
			C183.8-11.9,183.6-11.6,183.3-11.6z"/>
		<path fill="#FFFFFF" d="M187.3-11.6h-1.1c-0.3,0-0.5-0.2-0.5-0.5v-1.1c0-0.3,0.2-0.5,0.5-0.5h1.1c0.3,0,0.5,0.2,0.5,0.5v1.1
			C187.8-11.9,187.6-11.6,187.3-11.6z"/>
	</g>
	<g>
		<path fill="#FFFFFF" d="M153.5,62.9c0,0.5-0.2,0.9-0.6,1.3c-0.4,0.4-0.8,0.5-1.4,0.5h-0.2c-0.5,0-1-0.2-1.4-0.5
			c-0.4-0.4-0.6-0.8-0.6-1.3V61c0-0.1,0-0.1,0.1-0.2c0.1-0.1,0.1-0.1,0.2-0.1h0.7c0.1,0,0.2,0,0.2,0.1c0.1,0.1,0.1,0.1,0.1,0.2v1.7
			c0,0.2,0.1,0.4,0.2,0.5s0.3,0.2,0.5,0.2c0.2,0,0.3-0.1,0.4-0.2c0.1-0.1,0.2-0.3,0.2-0.5V61c0-0.1,0-0.2,0.1-0.2
			c0.1-0.1,0.1-0.1,0.2-0.1h0.7c0.1,0,0.2,0,0.2,0.1c0.1,0.1,0.1,0.1,0.1,0.2v1.9H153.5z"/>
		<path fill="#FFFFFF" d="M150.4,59.3h-0.7c-0.2,0-0.3-0.1-0.3-0.3v-0.7c0-0.2,0.1-0.3,0.3-0.3h0.7c0.2,0,0.3,0.1,0.3,0.3V59
			C150.8,59.2,150.6,59.3,150.4,59.3z"/>
		<path fill="#FFFFFF" d="M153.1,59.3h-0.7c-0.2,0-0.3-0.1-0.3-0.3v-0.7c0-0.2,0.1-0.3,0.3-0.3h0.7c0.2,0,0.3,0.1,0.3,0.3V59
			C153.5,59.2,153.3,59.3,153.1,59.3z"/>
	</g>
	<g>
		<path fill="#FFFFFF" d="M156.1,99.6c0,0.5-0.2,0.9-0.6,1.3c-0.4,0.4-0.8,0.5-1.4,0.5H154c-0.5,0-1-0.2-1.4-0.5
			c-0.4-0.4-0.6-0.8-0.6-1.3v-1.9c0-0.1,0-0.1,0.1-0.2c0.1-0.1,0.1-0.1,0.2-0.1h0.7c0.1,0,0.2,0,0.2,0.1c0.1,0.1,0.1,0.1,0.1,0.2
			v1.7c0,0.2,0.1,0.4,0.2,0.5c0.1,0.1,0.3,0.2,0.5,0.2c0.2,0,0.3-0.1,0.4-0.2c0.1-0.1,0.2-0.3,0.2-0.5v-1.7c0-0.1,0-0.2,0.1-0.2
			c0.1-0.1,0.1-0.1,0.2-0.1h0.7c0.1,0,0.2,0,0.2,0.1c0.1,0.1,0.1,0.1,0.1,0.2v1.9H156.1z"/>
		<path fill="#FFFFFF" d="M153.1,96h-0.7c-0.2,0-0.3-0.1-0.3-0.3V95c0-0.2,0.1-0.3,0.3-0.3h0.7c0.2,0,0.3,0.1,0.3,0.3v0.7
			C153.4,95.9,153.3,96,153.1,96z"/>
		<path fill="#FFFFFF" d="M155.8,96h-0.7c-0.2,0-0.3-0.1-0.3-0.3V95c0-0.2,0.1-0.3,0.3-0.3h0.7c0.2,0,0.3,0.1,0.3,0.3v0.7
			C156.1,95.9,156,96,155.8,96z"/>
	</g>
	<g>
		<path fill="#FFFFFF" d="M178.5,163.1c-30.3,0-58.8-11.8-80.1-33.2S65,79.9,65,49.6S76.8-9.2,98.2-30.5
			c21.5-21.5,50-33.3,80.2-33.3s58.8,11.8,80.1,33.2c21.5,21.5,33.2,49.9,33.2,80.1s-11.8,58.8-33.2,80.1
			C237.2,151,208.7,163.1,178.5,163.1z M178.5-62.4c-61.8,0-112,50.3-112,112s50.3,112,112,112s112-50.3,112-112
			S240.2-62.4,178.5-62.4z"/>
	</g>
</g>
</svg>
