<?xml version="1.0" encoding="utf-8"?>
<!-- Generator: Adobe Illustrator 18.1.1, SVG Export Plug-In . SVG Version: 6.00 Build 0)  -->
<svg version="1.1" id="Layer_1" xmlns="http://www.w3.org/2000/svg" xmlns:xlink="http://www.w3.org/1999/xlink" x="0px" y="0px"
	 width="170px" height="7.2px" viewBox="0 0 170 7.2" enable-background="new 0 0 170 7.2" xml:space="preserve">
<g>
	<path fill="#FFFFFF" d="M161.1,7.2c-2,0-3.6-1.6-3.6-3.6c0-0.9-0.7-1.6-1.6-1.6s-1.6,0.7-1.6,1.6c0,2-1.6,3.6-3.6,3.6
		c-2,0-3.6-1.6-3.6-3.6c0-0.9-0.7-1.6-1.6-1.6s-1.6,0.7-1.6,1.6c0,2-1.6,3.6-3.6,3.6c-2,0-3.6-1.6-3.6-3.6c0-0.9-0.7-1.6-1.6-1.6
		s-1.6,0.7-1.6,1.6c0,2-1.6,3.6-3.6,3.6c-2,0-3.6-1.6-3.6-3.6c0-0.9-0.7-1.6-1.6-1.6s-1.6,0.7-1.6,1.6c0,2-1.6,3.6-3.6,3.6
		s-3.6-1.6-3.6-3.6c0-0.9-0.7-1.6-1.6-1.6c-0.9,0-1.6,0.7-1.6,1.6c0,2-1.6,3.6-3.6,3.6c-2,0-3.6-1.6-3.6-3.6c0-0.9-0.7-1.6-1.6-1.6
		c-0.9,0-1.6,0.7-1.6,1.6c0,2-1.6,3.6-3.6,3.6c-2,0-3.6-1.6-3.6-3.6c0-0.9-0.7-1.6-1.6-1.6c-0.9,0-1.6,0.7-1.6,1.6
		c0,2-1.6,3.6-3.6,3.6c-2,0-3.6-1.6-3.6-3.6C84,2.7,83.3,2,82.4,2c-0.9,0-1.6,0.7-1.6,1.6c0,2-1.6,3.6-3.6,3.6s-3.6-1.6-3.6-3.6
		c0-0.9-0.7-1.6-1.6-1.6c-0.9,0-1.6,0.7-1.6,1.6c0,2-1.6,3.6-3.6,3.6S63,5.6,63,3.6C63,2.7,62.3,2,61.4,2c-0.9,0-1.6,0.7-1.6,1.6
		c0,2-1.6,3.6-3.6,3.6s-3.6-1.6-3.6-3.6c0-0.9-0.7-1.6-1.6-1.6c-0.9,0-1.6,0.7-1.6,1.6c0,2-1.6,3.6-3.6,3.6S42,5.6,42,3.6
		C42,2.7,41.3,2,40.4,2s-1.6,0.7-1.6,1.6c0,2-1.6,3.6-3.6,3.6c-2,0-3.6-1.6-3.6-3.6c0-0.9-0.7-1.6-1.6-1.6c-0.9,0-1.6,0.7-1.6,1.6
		c0,2-1.6,3.6-3.6,3.6S21,5.6,21,3.6C21,2.7,20.3,2,19.4,2c-0.9,0-1.6,0.7-1.6,1.6c0,2-1.6,3.6-3.6,3.6c-2,0-3.6-1.6-3.6-3.6
		C10.5,2.7,9.8,2,8.9,2C8,2,7.2,2.7,7.2,3.6c0,2-1.6,3.6-3.6,3.6S0,5.6,0,3.6h2c0,0.9,0.7,1.6,1.6,1.6s1.6-0.7,1.6-1.6
		c0-2,1.6-3.6,3.6-3.6c2,0,3.6,1.6,3.6,3.6c0,0.9,0.7,1.6,1.6,1.6c0.9,0,1.6-0.7,1.6-1.6c0-2,1.6-3.6,3.6-3.6S23,1.6,23,3.6
		c0,0.9,0.7,1.6,1.6,1.6s1.6-0.7,1.6-1.6c0-2,1.6-3.6,3.6-3.6c2,0,3.6,1.6,3.6,3.6c0,0.9,0.7,1.6,1.6,1.6c0.9,0,1.6-0.7,1.6-1.6
		c0-2,1.6-3.6,3.6-3.6S44,1.6,44,3.6c0,0.9,0.7,1.6,1.6,1.6c0.9,0,1.6-0.7,1.6-1.6c0-2,1.6-3.6,3.6-3.6c2,0,3.6,1.6,3.6,3.6
		c0,0.9,0.7,1.6,1.6,1.6c0.9,0,1.6-0.7,1.6-1.6c0-2,1.6-3.6,3.6-3.6c2,0,3.6,1.6,3.6,3.6c0,0.9,0.7,1.6,1.6,1.6s1.6-0.7,1.6-1.6
		c0-2,1.6-3.6,3.6-3.6c2,0,3.6,1.6,3.6,3.6c0,0.9,0.7,1.6,1.6,1.6s1.6-0.7,1.6-1.6c0-2,1.6-3.6,3.6-3.6c2,0,3.6,1.6,3.6,3.6
		c0,0.9,0.7,1.6,1.6,1.6c0.9,0,1.6-0.7,1.6-1.6c0-2,1.6-3.6,3.6-3.6c2,0,3.6,1.6,3.6,3.6c0,0.9,0.7,1.6,1.6,1.6
		c0.9,0,1.6-0.7,1.6-1.6c0-2,1.6-3.6,3.6-3.6s3.6,1.6,3.6,3.6c0,0.9,0.7,1.6,1.6,1.6c0.9,0,1.6-0.7,1.6-1.6c0-2,1.6-3.6,3.6-3.6
		s3.6,1.6,3.6,3.6c0,0.9,0.7,1.6,1.6,1.6s1.6-0.7,1.6-1.6c0-2,1.6-3.6,3.6-3.6c2,0,3.6,1.6,3.6,3.6c0,0.9,0.7,1.6,1.6,1.6
		c0.9,0,1.6-0.7,1.6-1.6c0-2,1.6-3.6,3.6-3.6s3.6,1.6,3.6,3.6c0,0.9,0.7,1.6,1.6,1.6c0.9,0,1.6-0.7,1.6-1.6c0-2,1.6-3.6,3.6-3.6
		s3.6,1.6,3.6,3.6c0,0.9,0.7,1.6,1.6,1.6c0.9,0,1.6-0.7,1.6-1.6c0-2,1.6-3.6,3.6-3.6s3.6,1.6,3.6,3.6c0,0.9,0.7,1.6,1.6,1.6
		s1.6-0.7,1.6-1.6c0-2,1.6-3.6,3.6-3.6s3.6,1.6,3.6,3.6h-2c0-0.9-0.7-1.6-1.6-1.6c-0.9,0-1.6,0.7-1.6,1.6
		C164.7,5.6,163.1,7.2,161.1,7.2z"/>
</g>
</svg>
